<svg width="262" height="262" viewBox="0 0 262 262" fill="none" xmlns="http://www.w3.org/2000/svg"><path d="M65.09 65.09a3.722 3.722 0 013.156-1.053L105.08 69.3a3.72 3.72 0 012.338 1.308l49.024 59.11c4.056-1.802 9.027-1.081 12.421 2.312l1.867 1.868a3.722 3.722 0 010 5.262l-7.893 7.893 23.386 23.386h1.542c6.154 0 11.162 5.007 11.162 11.162v6.164c0 6.155-5.008 11.162-11.162 11.162H181.6c-6.155 0-11.162-5.007-11.162-11.162v-1.541l-23.386-23.386-7.893 7.893a3.72 3.72 0 01-5.261 0l-5.262-5.262c-3.383-3.382-.726-4.956 1.082-9.026l-59.11-49.025a3.72 3.72 0 01-1.308-2.337l-5.263-36.833a3.72 3.72 0 011.053-3.157zm112.788 122.674a3.725 3.725 0 003.721 3.721h6.165a3.725 3.725 0 003.72-3.721V181.6a3.725 3.725 0 00-3.72-3.721h-1.541l-8.345 8.344v1.541zm-3.72-8.344l5.261-5.262-21.844-21.844-5.262 5.262 21.845 21.844zm-36.867-15.82l-.764-.763 26.31-26.309.763.763a3.72 3.72 0 00-5.262 0l-21.048 21.048a3.717 3.717 0 00.001 5.261zm-60.83-60.994l57.965 48.074 5.495-5.496-10.204-10.205a3.72 3.72 0 015.261-5.262l10.205 10.205 5.496-5.496-48.073-57.963-30.501-4.357 4.357 30.5z" fill="url(#paint0_radial)"/><defs><radialGradient id="paint0_radial" cx="0" cy="0" r="1" gradientUnits="userSpaceOnUse" gradientTransform="matrix(97.19198 65.09483 -84.8024 126.61704 83.756 178.766)"><stop stop-color="#D01E8D"/><stop offset="1" stop-color="#621461"/></radialGradient></defs></svg>