<svg xmlns="http://www.w3.org/2000/svg" viewBox="0 0 80 80"><path d="M13 25h54c1.4 0 2.5 1.1 2.5 2.5v25c0 1.4-1.1 2.5-2.5 2.5H13c-1.4 0-2.5-1.1-2.5-2.5v-25c0-1.4 1.1-2.5 2.5-2.5z" fill="none" stroke="#fff" stroke-width="3"/><path d="M30.2 40c0 1.8-.5 3.3-1.4 4.3-.9 1-2.2 1.6-3.9 1.6-1.7 0-3-.5-3.9-1.5-.9-1-1.4-2.5-1.4-4.4s.5-3.3 1.4-4.3c.9-1 2.2-1.5 3.9-1.5 1.6 0 2.9.5 3.8 1.6 1.1.9 1.5 2.3 1.5 4.2zm-9.1 0c0 1.5.3 2.7 1 3.5.7.8 1.6 1.2 2.9 1.2s2.2-.4 2.9-1.2c.6-.8 1-2 1-3.5s-.3-2.7-1-3.5c-.6-.8-1.6-1.2-2.9-1.2s-2.2.4-2.9 1.2c-.6.7-1 1.9-1 3.5zM40 37.6c0 1.2-.4 2-1.2 2.7-.8.6-1.9.9-3.4.9h-1.3v4.5h-1.3V34.2h3c2.8 0 4.2 1.2 4.2 3.4zm-5.9 2.5h1.2c1.2 0 2-.2 2.6-.6.5-.4.8-1 .8-1.8s-.2-1.3-.7-1.7-1.3-.6-2.3-.6h-1.5l-.1 4.7zm14.7 5.6h-6.4V34.2h6.4v1.2h-5v3.7h4.7v1.2h-4.7v4.2h5v1.2zm11.5 0h-1.5l-6.2-9.6h-.1c.1 1.1.1 2.2.1 3.1v6.5h-1.3V34.2h1.5l6.2 9.5h.1c0-.1 0-.6-.1-1.4v-8.2h1.3v11.6z" fill="#fff"/></svg>