<svg version="1.1" id="圖層_1" xmlns="http://www.w3.org/2000/svg" x="0" y="0" viewBox="0 0 80 80" xml:space="preserve"><style>.st0{fill:#fff}</style><path class="st0" d="M19 49.5H9c-.8 0-1.5.7-1.5 1.5s.7 1.5 1.5 1.5h8.5v17H9c-.8 0-1.5.7-1.5 1.5s.7 1.5 1.5 1.5h10c.8 0 1.5-.7 1.5-1.5V51c0-.8-.7-1.5-1.5-1.5zm16 10H25c-.8 0-1.5.7-1.5 1.5s.7 1.5 1.5 1.5h10c.8 0 1.5-.7 1.5-1.5s-.7-1.5-1.5-1.5zm36 10h-8.5v-17H71c.8 0 1.5-.7 1.5-1.5s-.7-1.5-1.5-1.5H61c-.8 0-1.5.7-1.5 1.5v20c0 .8.7 1.5 1.5 1.5h10c.8 0 1.5-.7 1.5-1.5s-.7-1.5-1.5-1.5zm-16-10H45c-.8 0-1.5.7-1.5 1.5s.7 1.5 1.5 1.5h10c.8 0 1.5-.7 1.5-1.5s-.7-1.5-1.5-1.5zm-2-38.4h-2.2V20c0-1.2-1-2.2-2.2-2.2H31.5c-1.2 0-2.2 1-2.2 2.2v1.1h-2.2c-1.2 0-2.2 1-2.2 2.2 0 4.7 2.2 8.1 5.7 9 1.2 2.7 3.1 4.9 5.6 6.6.6.4.9 1 .9 1.7v4c-.5.1-.9.4-1.3.8-.5.5-.8 1.3-.8 2h-.7c-1.2 0-2.2 1-2.2 2.2v4.3c0 .4.3.7.7.7h14.3c.4 0 .7-.3.7-.7v-4.4c0-1.2-1-2.2-2.2-2.2h-.5c0-1.3-.9-2.5-2.2-2.8v-3.9c0-.7.3-1.4.9-1.7 2.4-1.6 4.4-3.9 5.6-6.6 3.5-1 5.7-4.4 5.7-9 .1-1.3-.9-2.2-2.1-2.2zm-26.5 2.1c0-.4.3-.7.7-.7h2.2v3.2c0 1.6.2 3.2.7 4.8-2.3-1.1-3.6-3.7-3.6-7.3zm19.3 25.6c.4 0 .7.3.7.7v3.6H33.6v-3.6c0-.4.3-.7.7-.7h11.5zm3.6-23.1c0 2-.4 3.9-1.2 5.7-1.1 2.6-2.9 4.7-5.2 6.3-1 .6-1.5 1.7-1.5 2.9v4.6c0 .4.3.7.7.7.8 0 1.4.6 1.4 1.4h-7.2c0-.4.1-.7.4-1 .3-.3.6-.4 1-.4h.1c.4 0 .7-.3.7-.7v-4.6c0-1.2-.6-2.3-1.5-2.9-2.3-1.6-4.1-3.7-5.2-6.3-.8-1.8-1.2-3.7-1.2-5.7v-5.8c0-.4.3-.7.7-.7h17.2c.4 0 .7.3.7.7l.1 5.8zm.7 4.8c.5-1.5.7-3.1.7-4.8v-3.2H53c.4 0 .7.3.7.7 0 3.6-1.3 6.2-3.6 7.3z"/><path d="M45.4 27.7c-.3 0-.6-.1-.8-.2L40 25.1l-4.6 2.4c-.3.1-.6.2-.9.2-.3 0-.6-.1-.9-.3-.3-.2-.5-.4-.6-.7s-.2-.6-.1-.9l.9-5.2-3.7-3.7c-.2-.2-.4-.5-.5-.8-.1-.3-.1-.6 0-.9.1-.3.3-.6.5-.8s.5-.3.9-.4l5.2-.8 2.3-4.7c.1-.3.4-.5.6-.7.3-.2.6-.3.9-.3.3 0 .6.1.9.3.3.2.5.4.6.7l2.3 4.7 5.2.8c.3 0 .6.2.9.4.2.2.4.5.5.8s.1.6 0 .9c-.1.3-.2.6-.5.8l-3.7 3.7.9 5.2v.7c-.1.2-.2.5-.3.7-.2.2-.4.3-.6.5h-.8z" fill="#f2ce1b"/><linearGradient id="SVGID_1_" gradientUnits="userSpaceOnUse" x1="40" y1="53.719" x2="40" y2="73.865" gradientTransform="matrix(1 0 0 -1 0 81.465)"><stop offset=".208" stop-color="#fff"/><stop offset="1" stop-color="#fff" stop-opacity="0"/></linearGradient><path d="M45.4 27.7c-.3 0-.6-.1-.8-.2L40 25.1l-4.6 2.4c-.3.1-.6.2-.9.2-.3 0-.6-.1-.9-.3-.3-.2-.5-.4-.6-.7s-.2-.6-.1-.9l.9-5.2-3.7-3.7c-.2-.2-.4-.5-.5-.8-.1-.3-.1-.6 0-.9.1-.3.3-.6.5-.8s.5-.3.9-.4l5.2-.8 2.3-4.7c.1-.3.4-.5.6-.7.3-.2.6-.3.9-.3.3 0 .6.1.9.3.3.2.5.4.6.7l2.3 4.7 5.2.8c.3 0 .6.2.9.4.2.2.4.5.5.8s.1.6 0 .9c-.1.3-.2.6-.5.8l-3.7 3.7.9 5.2v.7c-.1.2-.2.5-.3.7-.2.2-.4.3-.6.5h-.8z" fill="url(#SVGID_1_)"/><path class="st0" d="M45.4 27.7c-.3 0-.6-.1-.8-.2L40 25.1l-4.6 2.4c-.3.1-.6.2-.9.2-.3 0-.6-.1-.9-.3-.3-.2-.5-.4-.6-.7s-.2-.6-.1-.9l.9-5.2-3.7-3.7c-.2-.2-.4-.5-.5-.8-.1-.3-.1-.6 0-.9.1-.3.3-.6.5-.8s.5-.3.9-.4l5.2-.8 2.3-4.7c.1-.3.4-.5.6-.7.3-.2.6-.3.9-.3.3 0 .6.1.9.3.3.2.5.4.6.7l2.3 4.7 5.2.8c.3 0 .6.2.9.4.2.2.4.5.5.8s.1.6 0 .9c-.1.3-.2.6-.5.8l-3.7 3.7.9 5.2v.7c-.1.2-.2.5-.3.7-.2.2-.4.3-.6.5h-.8zM40 23.8c.1 0 .2 0 .3.1l4.9 2.6c.1 0 .2.1.3.1s.2 0 .2-.1l.2-.2V26l-.9-5.5v-.3c0-.1.1-.2.2-.3l4-3.9c.1-.1.1-.1.1-.2v-.3c0-.1-.1-.2-.1-.2-.1-.1-.2-.1-.2-.1l-5.5-.8c-.1 0-.2-.1-.3-.1l-.2-.2-2.5-5c0-.1-.1-.1-.2-.2-.1 0-.2-.1-.3-.1s-.2 0-.3.1c-.1 0-.1.1-.2.2l-2.5 5c0 .1-.1.2-.2.2-.1.1-.2.1-.3.1l-5.5.8c-.1 0-.2.1-.2.1-.1.1-.1.1-.1.2v.3c0 .1.1.2.1.2l4 3.9c.1.1.1.2.2.3v.3l-.9 5.5v.3c0 .1.1.2.2.2.1.1.2.1.2.1.1 0 .2 0 .3-.1l4.9-2.6c.1-.1.2-.1.3-.1z"/></svg>