<svg version="1.1" id="圖層_1" xmlns="http://www.w3.org/2000/svg" x="0" y="0" viewBox="0 0 80 80" xml:space="preserve"><style>.st0{fill:#f2ce1b}.st2{fill:#fff}</style><path class="st0" d="M45.4 26.6c-.3 0-.6-.1-.8-.2L40 24l-4.6 2.4c-.3.1-.6.2-.9.2-.3 0-.6-.1-.9-.3-.3-.2-.5-.4-.6-.7-.1-.3-.2-.6-.1-.9l.9-5.2-3.7-3.7c-.2-.2-.4-.5-.5-.8s-.1-.6 0-.9c.1-.3.3-.6.5-.8s.5-.3.9-.4l5.2-.8 2.3-4.7c.1-.3.4-.5.6-.7.3-.2.6-.3.9-.3.3 0 .6.1.9.3.3.2.5.4.6.7l2.3 4.7 5.2.8c.3 0 .6.2.9.4.2.2.4.5.5.8s.1.6 0 .9c-.1.3-.2.6-.5.8l-3.7 3.7.9 5.2v.7c-.1.2-.2.5-.3.7-.2.2-.4.3-.6.5h-.8z"/><linearGradient id="SVGID_1_" gradientUnits="userSpaceOnUse" x1="40" y1="54.819" x2="40" y2="74.965" gradientTransform="matrix(1 0 0 -1 0 81.465)"><stop offset=".208" stop-color="#fff"/><stop offset="1" stop-color="#fff" stop-opacity="0"/></linearGradient><path d="M45.4 26.6c-.3 0-.6-.1-.8-.2L40 24l-4.6 2.4c-.3.1-.6.2-.9.2-.3 0-.6-.1-.9-.3-.3-.2-.5-.4-.6-.7-.1-.3-.2-.6-.1-.9l.9-5.2-3.7-3.7c-.2-.2-.4-.5-.5-.8s-.1-.6 0-.9c.1-.3.3-.6.5-.8s.5-.3.9-.4l5.2-.8 2.3-4.7c.1-.3.4-.5.6-.7.3-.2.6-.3.9-.3.3 0 .6.1.9.3.3.2.5.4.6.7l2.3 4.7 5.2.8c.3 0 .6.2.9.4.2.2.4.5.5.8s.1.6 0 .9c-.1.3-.2.6-.5.8l-3.7 3.7.9 5.2v.7c-.1.2-.2.5-.3.7-.2.2-.4.3-.6.5h-.8z" fill="url(#SVGID_1_)"/><path class="st2" d="M45.4 26.6c-.3 0-.6-.1-.8-.2L40 24l-4.6 2.4c-.3.1-.6.2-.9.2-.3 0-.6-.1-.9-.3-.3-.2-.5-.4-.6-.7-.1-.3-.2-.6-.1-.9l.9-5.2-3.7-3.7c-.2-.2-.4-.5-.5-.8s-.1-.6 0-.9c.1-.3.3-.6.5-.8s.5-.3.9-.4l5.2-.8 2.3-4.7c.1-.3.4-.5.6-.7.3-.2.6-.3.9-.3.3 0 .6.1.9.3.3.2.5.4.6.7l2.3 4.7 5.2.8c.3 0 .6.2.9.4.2.2.4.5.5.8s.1.6 0 .9c-.1.3-.2.6-.5.8l-3.7 3.7.9 5.2v.7c-.1.2-.2.5-.3.7-.2.2-.4.3-.6.5h-.8zM40 22.7c.1 0 .2 0 .3.1l4.9 2.6c.1 0 .2.1.3.1s.2 0 .2-.1l.2-.2v-.3l-.9-5.5v-.3c0-.1.1-.2.2-.3l4-3.9c.1-.1.1-.1.1-.2v-.3c0-.1-.1-.2-.1-.2-.1-.1-.2-.1-.2-.1l-5.5-.8c-.1 0-.2-.1-.3-.1L43 13l-2.5-5c0-.1-.1-.1-.2-.2-.1 0-.2-.1-.3-.1s-.2 0-.3.1c-.1 0-.1.1-.2.2L37 13c0 .1-.1.2-.2.2-.1.1-.2.1-.3.1l-5.5.8c-.1 0-.2.1-.2.1-.1.1-.1.1-.1.2v.3c0 .1.1.2.1.2l4 3.9c.1.1.1.2.2.3v.3l-.9 5.5v.3c0 .1.1.2.2.2.1.1.2.1.2.1.1 0 .2 0 .3-.1l4.9-2.6c.1-.1.2-.1.3-.1z"/><path class="st0" d="M22.4 35.6c-.3 0-.6-.1-.8-.2L17 33l-4.6 2.4c-.3.1-.6.2-.9.2-.3 0-.6-.1-.9-.3s-.5-.4-.6-.7-.2-.6-.1-.9l.9-5.2-3.7-3.7c-.2-.2-.4-.5-.5-.8s-.1-.6 0-.9.3-.6.5-.8c.2-.2.5-.3.9-.4l5.2-.8 2.3-4.7c.1-.3.4-.5.6-.7.3-.2.6-.3.9-.3s.6.1.9.3.5.4.6.7l2.3 4.7 5.2.8c.3 0 .6.2.9.4.2.2.4.5.5.8s.1.6 0 .9-.2.6-.5.8l-3.7 3.7.9 5.2v.7c-.1.2-.2.5-.3.7-.2.2-.4.3-.6.5h-.8z"/><linearGradient id="SVGID_2_" gradientUnits="userSpaceOnUse" x1="17" y1="45.819" x2="17" y2="65.965" gradientTransform="matrix(1 0 0 -1 0 81.465)"><stop offset=".208" stop-color="#fff"/><stop offset="1" stop-color="#fff" stop-opacity="0"/></linearGradient><path d="M22.4 35.6c-.3 0-.6-.1-.8-.2L17 33l-4.6 2.4c-.3.1-.6.2-.9.2-.3 0-.6-.1-.9-.3s-.5-.4-.6-.7-.2-.6-.1-.9l.9-5.2-3.7-3.7c-.2-.2-.4-.5-.5-.8s-.1-.6 0-.9.3-.6.5-.8c.2-.2.5-.3.9-.4l5.2-.8 2.3-4.7c.1-.3.4-.5.6-.7.3-.2.6-.3.9-.3s.6.1.9.3.5.4.6.7l2.3 4.7 5.2.8c.3 0 .6.2.9.4.2.2.4.5.5.8s.1.6 0 .9-.2.6-.5.8l-3.7 3.7.9 5.2v.7c-.1.2-.2.5-.3.7-.2.2-.4.3-.6.5h-.8z" fill="url(#SVGID_2_)"/><path class="st2" d="M22.4 35.6c-.3 0-.6-.1-.8-.2L17 33l-4.6 2.4c-.3.1-.6.2-.9.2-.3 0-.6-.1-.9-.3s-.5-.4-.6-.7-.2-.6-.1-.9l.9-5.2-3.7-3.7c-.2-.2-.4-.5-.5-.8s-.1-.6 0-.9.3-.6.5-.8c.2-.2.5-.3.9-.4l5.2-.8 2.3-4.7c.1-.3.4-.5.6-.7.3-.2.6-.3.9-.3s.6.1.9.3.5.4.6.7l2.3 4.7 5.2.8c.3 0 .6.2.9.4.2.2.4.5.5.8s.1.6 0 .9-.2.6-.5.8l-3.7 3.7.9 5.2v.7c-.1.2-.2.5-.3.7-.2.2-.4.3-.6.5h-.8zM17 31.7c.1 0 .2 0 .3.1l4.9 2.6c.1 0 .2.1.3.1s.2 0 .2-.1l.2-.2v-.3l-.9-5.5v-.3c0-.1.1-.2.2-.3l4-3.9c.1-.1.1-.1.1-.2v-.3c0-.1-.1-.2-.1-.2-.1-.1-.2-.1-.2-.1l-5.5-.8c-.1 0-.2-.1-.3-.1L20 22l-2.5-5c0-.1-.1-.1-.2-.2-.1 0-.2-.1-.3-.1-.1 0-.2 0-.3.1-.1 0-.1.1-.2.2L14 22c0 .1-.1.2-.2.2-.1.1-.2.1-.3.1l-5.5.8c-.1 0-.2.1-.2.1-.1.1-.1.1-.1.2v.3c0 .1.1.2.1.2l4 3.9c.1.1.1.2.2.3v.3l-.9 5.5v.3c0 .1.1.2.2.2.1.1.2.1.2.1.1 0 .2 0 .3-.1l4.9-2.6c.1-.1.2-.1.3-.1z"/><path class="st0" d="M68.4 35.6c-.3 0-.6-.1-.8-.2L63 33l-4.6 2.4c-.3.1-.6.2-.9.2-.3 0-.6-.1-.9-.3-.3-.2-.5-.4-.6-.7s-.2-.6-.1-.9l.9-5.2-3.7-3.7c-.2-.2-.4-.5-.5-.8s-.1-.6 0-.9.3-.6.5-.8c.2-.2.5-.3.9-.4l5.2-.8 2.3-4.7c.1-.3.4-.5.6-.7s.6-.3.9-.3c.3 0 .6.1.9.3.3.2.5.4.6.7l2.3 4.7 5.2.8c.3 0 .6.2.9.4.2.2.4.5.5.8s.1.6 0 .9-.2.6-.5.8l-3.7 3.7.9 5.2v.7c-.1.2-.2.5-.3.7-.2.2-.4.3-.6.5h-.8z"/><linearGradient id="SVGID_3_" gradientUnits="userSpaceOnUse" x1="63" y1="45.819" x2="63" y2="65.965" gradientTransform="matrix(1 0 0 -1 0 81.465)"><stop offset=".208" stop-color="#fff"/><stop offset="1" stop-color="#fff" stop-opacity="0"/></linearGradient><path d="M68.4 35.6c-.3 0-.6-.1-.8-.2L63 33l-4.6 2.4c-.3.1-.6.2-.9.2-.3 0-.6-.1-.9-.3-.3-.2-.5-.4-.6-.7s-.2-.6-.1-.9l.9-5.2-3.7-3.7c-.2-.2-.4-.5-.5-.8s-.1-.6 0-.9.3-.6.5-.8c.2-.2.5-.3.9-.4l5.2-.8 2.3-4.7c.1-.3.4-.5.6-.7s.6-.3.9-.3c.3 0 .6.1.9.3.3.2.5.4.6.7l2.3 4.7 5.2.8c.3 0 .6.2.9.4.2.2.4.5.5.8s.1.6 0 .9-.2.6-.5.8l-3.7 3.7.9 5.2v.7c-.1.2-.2.5-.3.7-.2.2-.4.3-.6.5h-.8z" fill="url(#SVGID_3_)"/><path class="st2" d="M68.4 35.6c-.3 0-.6-.1-.8-.2L63 33l-4.6 2.4c-.3.1-.6.2-.9.2-.3 0-.6-.1-.9-.3-.3-.2-.5-.4-.6-.7s-.2-.6-.1-.9l.9-5.2-3.7-3.7c-.2-.2-.4-.5-.5-.8s-.1-.6 0-.9.3-.6.5-.8c.2-.2.5-.3.9-.4l5.2-.8 2.3-4.7c.1-.3.4-.5.6-.7s.6-.3.9-.3c.3 0 .6.1.9.3.3.2.5.4.6.7l2.3 4.7 5.2.8c.3 0 .6.2.9.4.2.2.4.5.5.8s.1.6 0 .9-.2.6-.5.8l-3.7 3.7.9 5.2v.7c-.1.2-.2.5-.3.7-.2.2-.4.3-.6.5h-.8zM63 31.7c.1 0 .2 0 .3.1l4.9 2.6c.1 0 .2.1.3.1.1 0 .2 0 .2-.1l.2-.2v-.3l-.9-5.5v-.3c0-.1.1-.2.2-.3l4-3.9c.1-.1.1-.1.1-.2v-.3c0-.1-.1-.2-.1-.2-.1-.1-.2-.1-.2-.1l-5.5-.8c-.1 0-.2-.1-.3-.1L66 22l-2.5-5c0-.1-.1-.1-.2-.2-.1 0-.2-.1-.3-.1s-.2 0-.3.1c-.1 0-.1.1-.2.2L60 22c0 .1-.1.2-.2.2s-.2.1-.3.1l-5.5.8c-.1 0-.2.1-.2.1-.1.1-.1.1-.1.2v.3c0 .1.1.2.1.2l4 3.9c.1.1.1.2.2.3v.3l-.9 5.5v.3c0 .1.1.2.2.2.1.1.2.1.2.1.1 0 .2 0 .3-.1l4.9-2.6c.1-.1.2-.1.3-.1z"/><path d="M70 45.5v25c0 1.7-1.3 3-3 3H13c-1.7 0-3-1.3-3-3v-25c0-1.7 1.3-3 3-3h10.3c1 0 1.9-.3 2.7-.8l12.3-8c1-.6 2.3-.6 3.3 0l12.3 8c.8.5 1.7.8 2.7.8H67c1.7 0 3 1.3 3 3z" fill="none" stroke="#fff" stroke-width="2"/><path class="st2" d="M27.8 51.2h1.7v13.6h-1.7v1.7H17.6v-1.7h-1.7v-3.4h3.4v1.7h6.8v-3.4h-8.5V58h-1.7v-6.8h1.7v-1.7h10.2v1.7zm-1.7 3.4v-1.7h-6.8v3.4h6.8v-1.7zm19-3.4h1.7v13.6h-1.7v1.7H34.9v-1.7h-1.7v-3.4h3.4v1.7h6.8v-3.4h-8.5V58h-1.7v-6.8h1.7v-1.7h10.2v1.7zm-1.7 3.4v-1.7h-6.8v3.4h6.8v-1.7zm19-3.4h1.7v13.6h-1.7v1.7H52.2v-1.7h-1.7v-3.4h3.4v1.7h6.8v-3.4h-8.5V58h-1.7v-6.8h1.7v-1.7h10.2v1.7zm-1.7 3.4v-1.7h-6.8v3.4h6.8v-1.7z"/></svg>