<svg version="1.1" id="圖層_1" xmlns="http://www.w3.org/2000/svg" xmlns:xlink="http://www.w3.org/1999/xlink" x="0" y="0" viewBox="0 0 48 48" xml:space="preserve"><style>.st3{fill:#b8b8b8}</style><defs><path id="SVGID_1_" d="M2.9 3h42v42h-42z"/></defs><clipPath id="SVGID_2_"><use xlink:href="#SVGID_1_" overflow="visible"/></clipPath><g clip-path="url(#SVGID_2_)"><path d="M23.9 45C12.7 45 3.5 35.8 3.5 24.6S12.7 4.2 23.9 4.2s20.4 9.2 20.4 20.4S35.2 45 23.9 45z" fill="#7c7c7c"/><path d="M23.9 42.5c10.5 0 19.1-8.6 19.1-19.1 0-10.5-8.6-19.1-19.1-19.1-10.5 0-19.1 8.6-19.1 19.1 0 10.5 8.6 19.1 19.1 19.1z" fill="#fcfcfc"/><path class="st3" d="M7.1 25.7c0-10.5 8.6-19.1 19.1-19.1 4.7 0 9 1.7 12.3 4.5-3.5-4.2-8.7-6.8-14.6-6.8-10.5 0-19.1 8.6-19.1 19.1 0 5.8 2.7 11.1 6.8 14.6-2.8-3.3-4.5-7.6-4.5-12.3z"/><path class="st3" d="M37.5 9.9c7.5 7.5 7.5 19.6 0 27s-19.6 7.5-27 0"/><path d="M23.9 43.8c-11.2 0-20.4-9.2-20.4-20.4S12.7 3 23.9 3s20.4 9.2 20.4 20.4-9.1 20.4-20.4 20.4zm0-38.2c-9.9 0-17.8 8-17.8 17.8 0 9.9 8 17.8 17.8 17.8s17.8-8 17.8-17.8S33.8 5.6 23.9 5.6z" fill="#ebebeb"/></g></svg>