<svg xmlns="http://www.w3.org/2000/svg" viewBox="0 0 48 48"><path d="M24 48C10.8 48 0 37.5 0 24.7S10.8 1.4 24 1.4s24 10.5 24 23.3S37.2 48 24 48z" fill="#7a5f00"/><path d="M24 45.1c12.4 0 22.5-9.8 22.5-21.8S36.4 1.5 24 1.5 1.5 11.3 1.5 23.3 11.6 45.1 24 45.1z" fill="#ffe97c"/><path d="M4.2 25.9c0-12 10.1-21.8 22.5-21.8 5.5 0 10.6 1.9 14.5 5.1C37 4.5 30.9 1.5 24 1.5c-12.4 0-22.5 9.8-22.5 21.8C1.5 30 4.6 36 9.5 40c-3.3-3.8-5.3-8.7-5.3-14.1z" fill="#ca0"/><path d="M39.9 7.9c8.8 8.5 8.8 22.4 0 30.9s-23 8.5-31.8 0" fill="#c59a03"/><path d="M24 46.6c-13.2 0-24-10.5-24-23.3S10.8 0 24 0s24 10.5 24 23.3-10.8 23.3-24 23.3zM24 3C12.4 3 3 12.1 3 23.3c0 11.3 9.4 20.3 21 20.3s21-9.2 21-20.3S35.6 3 24 3z" fill="#ffe043"/></svg>