<svg version="1.1" id="圖層_1" xmlns="http://www.w3.org/2000/svg" xmlns:xlink="http://www.w3.org/1999/xlink" x="0" y="0" viewBox="0 0 48 48" xml:space="preserve"><style>.st3{fill:#8d684d}</style><defs><path id="SVGID_1_" d="M6 6h36v36H6z"/></defs><clipPath id="SVGID_2_"><use xlink:href="#SVGID_1_" overflow="visible"/></clipPath><g clip-path="url(#SVGID_2_)"><path d="M24 42c-9.6 0-17.5-7.9-17.5-17.5S14.4 7 24 7s17.5 7.9 17.5 17.5S33.6 42 24 42z" fill="#715d52"/><path d="M24 39.8c9 0 16.4-7.3 16.4-16.4C40.4 14.4 33.1 7 24 7 15 7 7.6 14.3 7.6 23.4c0 9.1 7.4 16.4 16.4 16.4z" fill="#af813e"/><path class="st3" d="M9.6 25.5c0-9 7.3-16.4 16.4-16.4 4 0 7.7 1.5 10.5 3.8-3-3.5-7.5-5.8-12.5-5.8-9 0-16.4 7.3-16.4 16.4 0 5 2.3 9.5 5.8 12.5-2.4-2.9-3.8-6.5-3.8-10.5z"/><path class="st3" d="M35.6 11.9c6.4 6.4 6.4 16.8 0 23.2-6.4 6.4-16.8 6.4-23.2 0"/><path d="M24 41c-9.6 0-17.5-7.9-17.5-17.5S14.4 6 24 6s17.5 7.9 17.5 17.5S33.6 41 24 41zm0-32.8c-8.4 0-15.3 6.9-15.3 15.3S15.6 38.8 24 38.8s15.3-6.9 15.3-15.3S32.4 8.2 24 8.2z" fill="#c69955"/></g></svg>