<svg xmlns="http://www.w3.org/2000/svg" xmlns:xlink="http://www.w3.org/1999/xlink" viewBox="0 0 262 262"><defs><path id="a" d="M68 55h125.2v152.4H68z"/></defs><clipPath id="b"><use xlink:href="#a" overflow="visible"/></clipPath><g clip-path="url(#b)"><path d="M181.9 173.4c8.3-18 10.3-37.1 11.1-59.5.7-7.8-.6-18.2-6.2-27.8-17.6-29.4-57.5-40.1-88-23-20.6 11.6-32.6 28.5-30.5 53.3.2 2.9.4 5.7.5 8.6.3 4.6.5 9.2 1.1 13.8 2.1 17.1 6.6 33.2 17 47.4 11.4 15.5 27.4 21.8 45.6 21.2 23.1-.8 39.6-12.8 49.4-34zm.3-84.2c5.4 9.2 6 19.1 5.5 25.5-1.3 23.6-3.4 43-13 60.9-14.5 27-46.4 33.3-70.9 19-12.3-7.2-18.9-19.4-23.3-32.6-6.2-18.4-7.3-37.5-6.7-56.7.3-8.3 4-15.3 9-21.8 25.3-32.9 78.8-29.8 99.4 5.7zm-75.9 23.5c-8.9-2.9-17.3-6.4-21-16.4-3.3 7.3-5.4 29.4-3.8 35.8 1.4 5.8 4.7 10.3 9.7 13.4 10.5 6.4 22.1 6.8 33.8 5.9 1-.1 2.4-1.7 2.6-2.8 3-17.9-4.2-30.2-21.3-35.9zm10 27.8c-.2-12.6-8.3-19.5-23.9-20.4-2.8 13.9 6.7 22.2 23.9 20.4zm61.2-43.7c.3 3.4.7 6.7 1 10.1.8 7.2 1.6 14.4 1.6 21.5-.1 10.4-6.9 17.6-16.7 20.1-6.3 1.7-12.9 2.1-19.5 2.6-2.2.2-4.4.3-6.6.5-2.9.3-4.2-1.3-4-4.2.1-1.5.2-3 .2-4.5.1-3 .2-6 .7-8.9 1.5-9.9 6.9-16.7 16.6-19.9l2.4-.9c1-.4 2.1-.8 3.2-1.1 8.5-2.4 15.7-6.5 19.1-15.4.7.1 1.4.1 2 .1zm-9.2 22.7c-1.8.6-3.6 1.3-5.4 1.9-2.4.8-4.8 1.7-7.1 2.5-8.4 2.9-11.3 7.3-10.7 17.6 1.5-.3 3.1-.6 4.7-.8 3.5-.6 6.9-1.2 10.2-2.3 8.4-2.8 11.3-9.7 8.3-18.9zM124.1 188c2.2.3 4.4.7 6.6 1 2.5-.4 4.9-.7 7.4-1.1 6.7-1 13.3-2 19.8-3.1 5.2-1 7-3.8 5.9-9-.7-3.4-1.7-6.8-2.8-10.1-1.7-5.1-3.8-6.3-9-5-11.8 2.9-23.7 3.3-35.6 1.4-15.5-2.5-15.8-2.4-19.1 13.1-1.1 5.4.5 8.5 5.9 9.5 6.9 1.2 13.9 2.3 20.9 3.3zm7.7-4.3l-.6-.6c1.4-2.1 2.8-4.2 4.2-6.4l4.8 5.7c-.1.2-.3.5-.4.7-.1.2-.3.4-.4.7-2.3.2-4.7.4-7 .5-.3-.2-.5-.4-.6-.6zm28.4-4.3c-.2.3-.3.6-.5.9-2 .5-4 1-6.1 1.5-.2-.2-.5-.3-.8-.4s-.5-.2-.8-.4c.4-1.2.9-2.4 1.4-3.6.5-1.2.9-2.4 1.4-3.6 2 1.6 3.9 3.2 5.8 4.8 0 .3-.2.6-.4.8zm-30.3 3.7l-1.3 1.3c-2.2-.2-4.4-.4-8.4-.6 1.4-1.9 2.5-3.3 3.5-4.6l1.8-2.4c.8 1.1 1.5 2.1 2.2 3.1.7 1.1 1.4 2.2 2.2 3.2zm-21.7-1.7c-.3.2-.7.4-.9.5-2-.6-4-1.1-7.8-2 2.7-2.6 4.5-4.3 6.3-6l3.4 7c-.3.2-.6.3-1 .5zm3.4 1.2c-.4-.6-.7-1.2-1-1.8 1.9-1.7 3.7-3.3 5.6-4.9.6 1.2 1.1 2.3 1.7 3.4.6 1.1 1.1 2.2 1.7 3.4-.3.2-.6.4-.9.7-.1.1-.3.2-.4.3l-3.3-.6c-1.2-.1-2.3-.3-3.4-.5zm37-17.1c3.5-.8 5.5-1.3 9.1-2.3-.6 1.7-1.1 3-1.5 4.3-.6 1.5-1 2.8-1.5 4.1-1.7-1.6-3.5-3.3-6.2-5.8l.1-.3zm0 0l.1-.2c-1.7.3-3.1.6-4.3.8-1.5.3-2.9.6-4.9.9 2.4 2.8 4 4.7 5.6 6.6.3-.8.7-1.5 1-2.4.7-1.5 1.4-3.2 2.3-5.4l-.3-.2.5-.1zm1.5 16.3c-.2.3-.4.6-.6.8l-6.2 1.1c-.2-.1-.5-.3-.7-.4-.2-.1-.5-.3-.7-.4.6-1.2 1.1-2.3 1.7-3.5.6-1.2 1.1-2.4 1.6-3.5l5.4 5.2c-.2.1-.4.4-.5.7zm-36.2-15.7c.1-.1.3-.2.4-.4 1.8.3 3.6.6 7.2 1-1.5 2-2.6 3.5-3.7 4.9-.5.7-1 1.3-1.4 1.9-.6-1.1-1.2-2.2-1.8-3.4l-1.8-3.3c.4-.2.7-.5 1.1-.7zm-3.1-1.1c.4.6.7 1.2 1 1.8-1.8 1.6-3.7 3.2-5.5 4.7l-1.3-3.9c-.4-1.3-.9-2.7-1.4-4.4 1.7.4 3 .7 4.1 1 1.2.3 2.2.5 3.1.8z" fill-rule="evenodd" clip-rule="evenodd" fill="#d81690"/><radialGradient id="c" cx="-10.012" cy="273.552" r="1" gradientTransform="matrix(-90.1216 73.58 101.5646 124.3975 -28510.688 -33107.86)" gradientUnits="userSpaceOnUse"><stop offset="0" stop-color="#d01e8d"/><stop offset="1" stop-color="#621461"/></radialGradient><path d="M181.9 173.4c8.3-18 10.3-37.1 11.1-59.5.7-7.8-.6-18.2-6.2-27.8-17.6-29.4-57.5-40.1-88-23-20.6 11.6-32.6 28.5-30.5 53.3.2 2.9.4 5.7.5 8.6.3 4.6.5 9.2 1.1 13.8 2.1 17.1 6.6 33.2 17 47.4 11.4 15.5 27.4 21.8 45.6 21.2 23.1-.8 39.6-12.8 49.4-34zm.3-84.2c5.4 9.2 6 19.1 5.5 25.5-1.3 23.6-3.4 43-13 60.9-14.5 27-46.4 33.3-70.9 19-12.3-7.2-18.9-19.4-23.3-32.6-6.2-18.4-7.3-37.5-6.7-56.7.3-8.3 4-15.3 9-21.8 25.3-32.9 78.8-29.8 99.4 5.7zm-75.9 23.5c-8.9-2.9-17.3-6.4-21-16.4-3.3 7.3-5.4 29.4-3.8 35.8 1.4 5.8 4.7 10.3 9.7 13.4 10.5 6.4 22.1 6.8 33.8 5.9 1-.1 2.4-1.7 2.6-2.8 3-17.9-4.2-30.2-21.3-35.9zm10 27.8c-.2-12.6-8.3-19.5-23.9-20.4-2.8 13.9 6.7 22.2 23.9 20.4zm61.2-43.7c.3 3.4.7 6.7 1 10.1.8 7.2 1.6 14.4 1.6 21.5-.1 10.4-6.9 17.6-16.7 20.1-6.3 1.7-12.9 2.1-19.5 2.6-2.2.2-4.4.3-6.6.5-2.9.3-4.2-1.3-4-4.2.1-1.5.2-3 .2-4.5.1-3 .2-6 .7-8.9 1.5-9.9 6.9-16.7 16.6-19.9l2.4-.9c1-.4 2.1-.8 3.2-1.1 8.5-2.4 15.7-6.5 19.1-15.4.7.1 1.4.1 2 .1zm-9.2 22.7c-1.8.6-3.6 1.3-5.4 1.9-2.4.8-4.8 1.7-7.1 2.5-8.4 2.9-11.3 7.3-10.7 17.6 1.5-.3 3.1-.6 4.7-.8 3.5-.6 6.9-1.2 10.2-2.3 8.4-2.8 11.3-9.7 8.3-18.9zM124.1 188c2.2.3 4.4.7 6.6 1 2.5-.4 4.9-.7 7.4-1.1 6.7-1 13.3-2 19.8-3.1 5.2-1 7-3.8 5.9-9-.7-3.4-1.7-6.8-2.8-10.1-1.7-5.1-3.8-6.3-9-5-11.8 2.9-23.7 3.3-35.6 1.4-15.5-2.5-15.8-2.4-19.1 13.1-1.1 5.4.5 8.5 5.9 9.5 6.9 1.2 13.9 2.3 20.9 3.3zm7.7-4.3l-.6-.6c1.4-2.1 2.8-4.2 4.2-6.4l4.8 5.7c-.1.2-.3.5-.4.7-.1.2-.3.4-.4.7-2.3.2-4.7.4-7 .5-.3-.2-.5-.4-.6-.6zm28.4-4.3c-.2.3-.3.6-.5.9-2 .5-4 1-6.1 1.5-.2-.2-.5-.3-.8-.4s-.5-.2-.8-.4c.4-1.2.9-2.4 1.4-3.6.5-1.2.9-2.4 1.4-3.6 2 1.6 3.9 3.2 5.8 4.8 0 .3-.2.6-.4.8zm-30.3 3.7l-1.3 1.3c-2.2-.2-4.4-.4-8.4-.6 1.4-1.9 2.5-3.3 3.5-4.6l1.8-2.4c.8 1.1 1.5 2.1 2.2 3.1.7 1.1 1.4 2.2 2.2 3.2zm-21.7-1.7c-.3.2-.7.4-.9.5-2-.6-4-1.1-7.8-2 2.7-2.6 4.5-4.3 6.3-6l3.4 7c-.3.2-.6.3-1 .5zm3.4 1.2c-.4-.6-.7-1.2-1-1.8 1.9-1.7 3.7-3.3 5.6-4.9.6 1.2 1.1 2.3 1.7 3.4.6 1.1 1.1 2.2 1.7 3.4-.3.2-.6.4-.9.7-.1.1-.3.2-.4.3l-3.3-.6c-1.2-.1-2.3-.3-3.4-.5zm37-17.1c3.5-.8 5.5-1.3 9.1-2.3-.6 1.7-1.1 3-1.5 4.3-.6 1.5-1 2.8-1.5 4.1-1.7-1.6-3.5-3.3-6.2-5.8l.1-.3zm0 0l.1-.2c-1.7.3-3.1.6-4.3.8-1.5.3-2.9.6-4.9.9 2.4 2.8 4 4.7 5.6 6.6.3-.8.7-1.5 1-2.4.7-1.5 1.4-3.2 2.3-5.4l-.3-.2.5-.1zm1.5 16.3c-.2.3-.4.6-.6.8l-6.2 1.1c-.2-.1-.5-.3-.7-.4-.2-.1-.5-.3-.7-.4.6-1.2 1.1-2.3 1.7-3.5.6-1.2 1.1-2.4 1.6-3.5l5.4 5.2c-.2.1-.4.4-.5.7zm-36.2-15.7c.1-.1.3-.2.4-.4 1.8.3 3.6.6 7.2 1-1.5 2-2.6 3.5-3.7 4.9-.5.7-1 1.3-1.4 1.9-.6-1.1-1.2-2.2-1.8-3.4l-1.8-3.3c.4-.2.7-.5 1.1-.7zm-3.1-1.1c.4.6.7 1.2 1 1.8-1.8 1.6-3.7 3.2-5.5 4.7l-1.3-3.9c-.4-1.3-.9-2.7-1.4-4.4 1.7.4 3 .7 4.1 1 1.2.3 2.2.5 3.1.8z" fill-rule="evenodd" clip-rule="evenodd" fill="url(#c)"/></g></svg>