<svg xmlns="http://www.w3.org/2000/svg" viewBox="0 0 262 262"><path d="M69.6 111.9c-.2-9.7.5-19.5.6-29.3.1-5 3.2-8.1 6.5-10.9 9.6-8.1 21.1-11.8 33.1-13.8 21.2-3.5 42-2.4 62 6.3 3.2 1.4 6.2 3.2 9 5.1 6.2 4.3 10.2 9.6 9.8 18-.5 9.9 0 19.8.9 29.7.2 2.9 8.7 19.1 7.6 21.5-1.7 3.8-3.5 7.5-5.2 11.3-.6 1.5-1.6 3-1.6 4.5 0 7.4.2 14.8.4 22.2.2 6.4-2.2 10.9-8.1 13.5-.2.1-.2.2-.4.2-33.4 16.8-34.2 17-71.8 14.7-4.6-.3-9.3-1.8-13.5-3.6-7.9-3.5-15.6-7.6-23.3-11.4-5.4-2.6-7.9-6.9-7.7-12.9.2-7.4.5-14.8.4-22.2 0-1.9-1.3-3.9-2.2-5.8-1.4-2.9-3.8-5.8-4.1-8.7-.5-4.6 7.7-22.8 7.6-28.4zm113.3 39.4c-.5-.1-1.1-.2-1.5-.3-2.2 1.8-4.5 3.4-6.5 5.4-2.8 2.8-5.4 3.3-9.2 2.2-10.4-3.2-20.8-6-31.3-8.6-2.4-.6-5.3-.6-7.7 0-11.1 2.8-22.1 6.1-33.2 8.8-1.8.4-4.2-.2-5.8-1.2-3-1.9-5.6-4.5-8.3-6.7-.5.1-.9.2-1.4.3 0 9.1-.1 18.1.2 27.2 0 1.1 1.8 2.4 3 3.1 7.5 3.9 15.1 7.9 22.8 11.3 3.3 1.5 7.2 2.3 10.9 2.5 10.4.3 20.7.3 31.2 0 3.6-.1 7.5-.9 10.9-2.4 7.9-3.5 15.6-7.5 23.2-11.5 1.2-.6 2.8-2.1 2.8-3.2.1-9.1-.1-18-.1-26.9zm-93.7-33v17.3c10.4 2.3 20.7 4.5 30.9 6.6 1.1-2.3 2-4.1 3.1-6.2-11.1-5.7-22.1-11.5-34-17.7zm82.3 17.3v-17.3c-11.7 6.2-22.8 11.9-33.9 17.7 1.3 2.4 2.3 4.3 3.3 6.2 10.6-2.2 20.7-4.5 30.6-6.6z" fill="#d81690"/><radialGradient id="a" cx="-10.018" cy="273.55" r="1" gradientTransform="matrix(-98.9166 72.3668 97.1675 132.8161 -27391.824 -35423.238)" gradientUnits="userSpaceOnUse"><stop offset="0" stop-color="#d01e8d"/><stop offset="1" stop-color="#621461"/></radialGradient><path d="M69.6 111.9c-.2-9.7.5-19.5.6-29.3.1-5 3.2-8.1 6.5-10.9 9.6-8.1 21.1-11.8 33.1-13.8 21.2-3.5 42-2.4 62 6.3 3.2 1.4 6.2 3.2 9 5.1 6.2 4.3 10.2 9.6 9.8 18-.5 9.9 0 19.8.9 29.7.2 2.9 8.7 19.1 7.6 21.5-1.7 3.8-3.5 7.5-5.2 11.3-.6 1.5-1.6 3-1.6 4.5 0 7.4.2 14.8.4 22.2.2 6.4-2.2 10.9-8.1 13.5-.2.1-.2.2-.4.2-33.4 16.8-34.2 17-71.8 14.7-4.6-.3-9.3-1.8-13.5-3.6-7.9-3.5-15.6-7.6-23.3-11.4-5.4-2.6-7.9-6.9-7.7-12.9.2-7.4.5-14.8.4-22.2 0-1.9-1.3-3.9-2.2-5.8-1.4-2.9-3.8-5.8-4.1-8.7-.5-4.6 7.7-22.8 7.6-28.4zm113.3 39.4c-.5-.1-1.1-.2-1.5-.3-2.2 1.8-4.5 3.4-6.5 5.4-2.8 2.8-5.4 3.3-9.2 2.2-10.4-3.2-20.8-6-31.3-8.6-2.4-.6-5.3-.6-7.7 0-11.1 2.8-22.1 6.1-33.2 8.8-1.8.4-4.2-.2-5.8-1.2-3-1.9-5.6-4.5-8.3-6.7-.5.1-.9.2-1.4.3 0 9.1-.1 18.1.2 27.2 0 1.1 1.8 2.4 3 3.1 7.5 3.9 15.1 7.9 22.8 11.3 3.3 1.5 7.2 2.3 10.9 2.5 10.4.3 20.7.3 31.2 0 3.6-.1 7.5-.9 10.9-2.4 7.9-3.5 15.6-7.5 23.2-11.5 1.2-.6 2.8-2.1 2.8-3.2.1-9.1-.1-18-.1-26.9zm-93.7-33v17.3c10.4 2.3 20.7 4.5 30.9 6.6 1.1-2.3 2-4.1 3.1-6.2-11.1-5.7-22.1-11.5-34-17.7zm82.3 17.3v-17.3c-11.7 6.2-22.8 11.9-33.9 17.7 1.3 2.4 2.3 4.3 3.3 6.2 10.6-2.2 20.7-4.5 30.6-6.6z" fill="url(#a)"/></svg>