<svg xmlns="http://www.w3.org/2000/svg" viewBox="0 0 262 262"><path d="M68.2 59.6c-1.9-1.1-3.9-2.3-5.9-3.5.3 2 .6 3.9 1 5.8 1.4 8.7 2.8 16.9 4 25.2.3 1.9-.1 4.1-1 5.8-5.2 9.2-8.4 19-9.8 29.4-6 49.3 38.6 91.5 87.1 82.4 51.8-9.6 78.1-66 52.1-111.8-1-1.7-1.4-4.2-1.1-6.2 1-6.8 2.1-13.6 3.3-20.6.5-3.3 1.1-6.6 1.6-10-1 .6-1.8 1-2.5 1.4-.4.2-.8.4-1.2.7-1.4.8-2.7 1.6-4.1 2.4-4.4 2.6-8.9 5.2-13.2 8-2.3 1.5-3.8 1.5-6.2-.1-25.2-16.9-57.3-16.9-82.6 0-2.3 1.6-3.8 1.7-6.2.2-4.9-3-10-6-15.3-9.1zm.3 71.4c0-34.5 28-62.4 62.7-62.4 34.5.1 62.3 28 62.2 62.8 0 34.3-28 62.3-62.4 62.2-34.6-.1-62.4-27.9-62.5-62.6zm29.5-4.1c5.8 5.6 14.4 5.5 20.1-.1-6.8-6.8-13.6-13.6-20.3-20.4-5.3 4.5-6.1 14.5.2 20.5zm66.5-20.2c5.4 5.8 5.4 14.3-.3 20-5.6 5.7-14.1 5.9-20.1.5 6.8-6.9 13.6-13.7 20.4-20.5zM146 155.8l3-.3c2 6 4 11.9 5.9 17.7.5 1.6 1.2 2.8 3 3 1.8.2 2.8-.8 3.7-2.2 4.8-7.3 8-15.1 9.9-23.6.5-2.5-1.4-4.4-4.1-4.1-2.2.3-4.4.5-6.6.8-5.5.7-11 1.4-16.6 1.9-16.2 1.6-32.2 0-48.2-2.5-2.8-.4-4.8 1.4-4.1 4.2 2 8.4 5.2 16.3 10 23.6.9 1.3 1.9 2.3 3.6 2 1.8-.2 2.5-1.5 3-3l2.1-6.3c1-3.1 2.1-6.1 3-9.2.5-2 1.5-2.2 3.4-2.1 7.6.3 15.2.5 22.8.5 2 0 4.1-.2 6.2-.4zm-41.8-1.4c1.1.1 2.2.3 3.4.4-.8 2.6-1.6 5-2.5 7.5-.3.8-.5 1.6-.8 2.4h-.5c-.8-2.1-1.6-4.1-2.5-6.2-.6-1.6-1.3-3.1-2-4.8 1.8.3 3.4.5 4.9.7zm53.3 5.4c-.5-1.6-1.1-3.3-1.7-5l4.8-.6c1.1-.2 2.3-.3 3.5-.5-.7 1.7-1.3 3.3-2 4.8-.9 2.1-1.7 4.1-2.5 6.2h-.5c-.5-1.6-1.1-3.2-1.6-4.9z" fill-rule="evenodd" clip-rule="evenodd" fill="#d81690"/><radialGradient id="a" cx="-10.021" cy="273.546" r="1" gradientTransform="matrix(-107.958 72.3672 94.3063 140.6871 -26695.09 -37575.668)" gradientUnits="userSpaceOnUse"><stop offset="0" stop-color="#d01e8d"/><stop offset="1" stop-color="#621461"/></radialGradient><path d="M68.2 59.6c-1.9-1.1-3.9-2.3-5.9-3.5.3 2 .6 3.9 1 5.8 1.4 8.7 2.8 16.9 4 25.2.3 1.9-.1 4.1-1 5.8-5.2 9.2-8.4 19-9.8 29.4-6 49.3 38.6 91.5 87.1 82.4 51.8-9.6 78.1-66 52.1-111.8-1-1.7-1.4-4.2-1.1-6.2 1-6.8 2.1-13.6 3.3-20.6.5-3.3 1.1-6.6 1.6-10-1 .6-1.8 1-2.5 1.4-.4.2-.8.4-1.2.7-1.4.8-2.7 1.6-4.1 2.4-4.4 2.6-8.9 5.2-13.2 8-2.3 1.5-3.8 1.5-6.2-.1-25.2-16.9-57.3-16.9-82.6 0-2.3 1.6-3.8 1.7-6.2.2-4.9-3-10-6-15.3-9.1zm.3 71.4c0-34.5 28-62.4 62.7-62.4 34.5.1 62.3 28 62.2 62.8 0 34.3-28 62.3-62.4 62.2-34.6-.1-62.4-27.9-62.5-62.6zm29.5-4.1c5.8 5.6 14.4 5.5 20.1-.1-6.8-6.8-13.6-13.6-20.3-20.4-5.3 4.5-6.1 14.5.2 20.5zm66.5-20.2c5.4 5.8 5.4 14.3-.3 20-5.6 5.7-14.1 5.9-20.1.5 6.8-6.9 13.6-13.7 20.4-20.5zM146 155.8l3-.3c2 6 4 11.9 5.9 17.7.5 1.6 1.2 2.8 3 3 1.8.2 2.8-.8 3.7-2.2 4.8-7.3 8-15.1 9.9-23.6.5-2.5-1.4-4.4-4.1-4.1-2.2.3-4.4.5-6.6.8-5.5.7-11 1.4-16.6 1.9-16.2 1.6-32.2 0-48.2-2.5-2.8-.4-4.8 1.4-4.1 4.2 2 8.4 5.2 16.3 10 23.6.9 1.3 1.9 2.3 3.6 2 1.8-.2 2.5-1.5 3-3l2.1-6.3c1-3.1 2.1-6.1 3-9.2.5-2 1.5-2.2 3.4-2.1 7.6.3 15.2.5 22.8.5 2 0 4.1-.2 6.2-.4zm-41.8-1.4c1.1.1 2.2.3 3.4.4-.8 2.6-1.6 5-2.5 7.5-.3.8-.5 1.6-.8 2.4h-.5c-.8-2.1-1.6-4.1-2.5-6.2-.6-1.6-1.3-3.1-2-4.8 1.8.3 3.4.5 4.9.7zm53.3 5.4c-.5-1.6-1.1-3.3-1.7-5l4.8-.6c1.1-.2 2.3-.3 3.5-.5-.7 1.7-1.3 3.3-2 4.8-.9 2.1-1.7 4.1-2.5 6.2h-.5c-.5-1.6-1.1-3.2-1.6-4.9z" fill-rule="evenodd" clip-rule="evenodd" fill="url(#a)"/></svg>