<svg xmlns="http://www.w3.org/2000/svg" viewBox="0 0 262 262"><path d="M128 52.1c-35.3 1.7-62.8 25.7-61.4 53.7.1 1.7.3 3.4.6 5.1h-.7c-9.2 0-17.2 5.5-21.4 13.5-.6-.7-1.4-1.2-2.2-1.3-2.7-.4-5.5 2.6-6.1 6.8-.7 4.2 1 7.9 3.7 8.4.5.1 1 0 1.5-.1.4 13.2 9.7 23.9 21.7 25.4 2.1 27.9 20.1 46.8 67.3 46.8 47.2 0 66.7-19.2 68.1-47 11.5-2.1 20.3-12.9 20.4-25.9 1 .7 2.1.9 3.1.7 2.7-.7 4-4.5 3-8.7-1-4.1-4-6.9-6.7-6.2-.9.2-1.7.8-2.2 1.7-4.1-8.4-12.3-14.1-21.7-14.1-.6 0-1.1 0-1.6.1.9-3.7 1.2-7.4 1-11.3-1.4-28-31.1-49.3-66.4-47.6zm-63 88.8c-1 5.9-1.5 11.7-1.5 17.1-7.3-1.6-12.8-9.9-12.8-19.9C50.6 127 57.5 118 66 118c1.1 0 2.2.2 3.3.5.3.7.5 1.3.8 2-2.3 6.4-4 13.3-5.1 20.4zm4.4-.4c.8-5.1 1.9-10 3.3-14.6 4.3 11.8 28.8 19.5 57.7 17.4 30-2.2 53.8-14 54.8-26.9 3.2 7.4 5.8 15.6 7.7 24.2 8.1 36.7-6.6 64.8-61.7 64.8-55.3-.1-67.9-27.8-61.8-64.9zm111.4-31.2c-.1-1.1-.4-2.2-.8-3.2-10.7-18.4-26.7-30.3-48.9-30.3-26.5 0-45.5 16.8-55.5 41.7 1.1 8.1 13.1 14.2 29.9 16.5-.5-11.7 8-22.6 20.7-25.6 14.2-3.3 28.2 4.6 31.3 17.8.2 1 .4 1.9.5 2.9 14.2-4.8 23.4-12.2 22.8-19.8zM131 71.6c26.8 0 45.2 16.3 56.5 40.6.9-.3 1.7-.5 2.6-.7-5.3-27.2-31.3-47-61.5-45.6-28.2 1.4-51 20.9-56.1 45.9.3.1.7.2 1 .3 11-24.5 30.6-40.5 57.5-40.5zm65.9 69.3c-1.7-7.7-3.9-15-6.5-21.8 1.6-.7 3.2-1.1 5-1.1 8.5 0 15.4 9 15.4 20.1 0 9.4-5 17.4-11.6 19.5-.2-5.2-1-10.8-2.3-16.7zm-67.2-6.2c-6.6.5-12.9.4-18.8-.1-.5-7.6 6.4-15.2 16.4-17.6 10.8-2.5 21.2 2.1 23.1 10.4.3 1.3.4 2.6.3 3.9-6.4 1.7-13.5 2.8-21 3.4zm-19.6 21.8c0 4.1-3.6 7.5-8 7.5s-8-3.3-8-7.5c0-4.1 3.6-7.5 8-7.5 4.5.1 8 3.4 8 7.5zm-6.1-1.4c0 1.4-1.2 2.6-2.8 2.6-1.5 0-2.8-1.2-2.8-2.6 0-1.4 1.2-2.6 2.8-2.6 1.6 0 2.8 1.2 2.8 2.6zm65.1 1.4c0 4.1-3.6 7.5-8 7.5s-8-3.3-8-7.5c0-4.1 3.6-7.5 8-7.5 4.4.1 8 3.4 8 7.5zm-6.2-1.4c0 1.4-1.2 2.6-2.8 2.6s-2.8-1.2-2.8-2.6c0-1.4 1.2-2.6 2.8-2.6s2.8 1.2 2.8 2.6zm-23.3 11.2c0 2.7-3.4 5-7.7 5-4.2 0-7.7-2.2-7.7-5 0-2.7 3.4-5 7.7-5 4.3 0 7.7 2.2 7.7 5zm60.9-29.9c1.4 5.5 2.9 9.9 3.4 9.8.5-.1-.2-4.7-1.6-10.2s-2.9-9.9-3.4-9.8c-.5.1.2 4.7 1.6 10.2zm-52 45.6c.1 1.1-4.4 4.5-10.7 5.1-6.3.6-11.5.1-11.6-1-.1-.7 1.7-.7 4.4-.8 1.8 0 3.9-.1 6.4-.3 3.6-.3 6.8-1.6 8.9-2.4 1.6-.7 2.6-1.1 2.6-.6zm-88.6-46.3c-1.1 5.4-1.5 9.8-1 9.9.5.1 1.8-4.2 2.8-9.6 1.1-5.4 1.5-9.8 1-9.9-.4 0-1.7 4.3-2.8 9.6z" fill-rule="evenodd" clip-rule="evenodd" fill="#d81690"/><radialGradient id="a" cx="-10.024" cy="273.537" r="1" gradientTransform="matrix(-136.3163 76.3814 91.7763 163.7912 -26272.576 -43850.605)" gradientUnits="userSpaceOnUse"><stop offset="0" stop-color="#d01e8d"/><stop offset="1" stop-color="#621461"/></radialGradient><path d="M128 52.1c-35.3 1.7-62.8 25.7-61.4 53.7.1 1.7.3 3.4.6 5.1h-.7c-9.2 0-17.2 5.5-21.4 13.5-.6-.7-1.4-1.2-2.2-1.3-2.7-.4-5.5 2.6-6.1 6.8-.7 4.2 1 7.9 3.7 8.4.5.1 1 0 1.5-.1.4 13.2 9.7 23.9 21.7 25.4 2.1 27.9 20.1 46.8 67.3 46.8 47.2 0 66.7-19.2 68.1-47 11.5-2.1 20.3-12.9 20.4-25.9 1 .7 2.1.9 3.1.7 2.7-.7 4-4.5 3-8.7-1-4.1-4-6.9-6.7-6.2-.9.2-1.7.8-2.2 1.7-4.1-8.4-12.3-14.1-21.7-14.1-.6 0-1.1 0-1.6.1.9-3.7 1.2-7.4 1-11.3-1.4-28-31.1-49.3-66.4-47.6zm-63 88.8c-1 5.9-1.5 11.7-1.5 17.1-7.3-1.6-12.8-9.9-12.8-19.9C50.6 127 57.5 118 66 118c1.1 0 2.2.2 3.3.5.3.7.5 1.3.8 2-2.3 6.4-4 13.3-5.1 20.4zm4.4-.4c.8-5.1 1.9-10 3.3-14.6 4.3 11.8 28.8 19.5 57.7 17.4 30-2.2 53.8-14 54.8-26.9 3.2 7.4 5.8 15.6 7.7 24.2 8.1 36.7-6.6 64.8-61.7 64.8-55.3-.1-67.9-27.8-61.8-64.9zm111.4-31.2c-.1-1.1-.4-2.2-.8-3.2-10.7-18.4-26.7-30.3-48.9-30.3-26.5 0-45.5 16.8-55.5 41.7 1.1 8.1 13.1 14.2 29.9 16.5-.5-11.7 8-22.6 20.7-25.6 14.2-3.3 28.2 4.6 31.3 17.8.2 1 .4 1.9.5 2.9 14.2-4.8 23.4-12.2 22.8-19.8zM131 71.6c26.8 0 45.2 16.3 56.5 40.6.9-.3 1.7-.5 2.6-.7-5.3-27.2-31.3-47-61.5-45.6-28.2 1.4-51 20.9-56.1 45.9.3.1.7.2 1 .3 11-24.5 30.6-40.5 57.5-40.5zm65.9 69.3c-1.7-7.7-3.9-15-6.5-21.8 1.6-.7 3.2-1.1 5-1.1 8.5 0 15.4 9 15.4 20.1 0 9.4-5 17.4-11.6 19.5-.2-5.2-1-10.8-2.3-16.7zm-67.2-6.2c-6.6.5-12.9.4-18.8-.1-.5-7.6 6.4-15.2 16.4-17.6 10.8-2.5 21.2 2.1 23.1 10.4.3 1.3.4 2.6.3 3.9-6.4 1.7-13.5 2.8-21 3.4zm-19.6 21.8c0 4.1-3.6 7.5-8 7.5s-8-3.3-8-7.5c0-4.1 3.6-7.5 8-7.5 4.5.1 8 3.4 8 7.5zm-6.1-1.4c0 1.4-1.2 2.6-2.8 2.6-1.5 0-2.8-1.2-2.8-2.6 0-1.4 1.2-2.6 2.8-2.6 1.6 0 2.8 1.2 2.8 2.6zm65.1 1.4c0 4.1-3.6 7.5-8 7.5s-8-3.3-8-7.5c0-4.1 3.6-7.5 8-7.5 4.4.1 8 3.4 8 7.5zm-6.2-1.4c0 1.4-1.2 2.6-2.8 2.6s-2.8-1.2-2.8-2.6c0-1.4 1.2-2.6 2.8-2.6s2.8 1.2 2.8 2.6zm-23.3 11.2c0 2.7-3.4 5-7.7 5-4.2 0-7.7-2.2-7.7-5 0-2.7 3.4-5 7.7-5 4.3 0 7.7 2.2 7.7 5zm60.9-29.9c1.4 5.5 2.9 9.9 3.4 9.8.5-.1-.2-4.7-1.6-10.2s-2.9-9.9-3.4-9.8c-.5.1.2 4.7 1.6 10.2zm-52 45.6c.1 1.1-4.4 4.5-10.7 5.1-6.3.6-11.5.1-11.6-1-.1-.7 1.7-.7 4.4-.8 1.8 0 3.9-.1 6.4-.3 3.6-.3 6.8-1.6 8.9-2.4 1.6-.7 2.6-1.1 2.6-.6zm-88.6-46.3c-1.1 5.4-1.5 9.8-1 9.9.5.1 1.8-4.2 2.8-9.6 1.1-5.4 1.5-9.8 1-9.9-.4 0-1.7 4.3-2.8 9.6z" fill-rule="evenodd" clip-rule="evenodd" fill="url(#a)"/></svg>