<svg version="1.1" id="圖層_1" xmlns="http://www.w3.org/2000/svg" xmlns:xlink="http://www.w3.org/1999/xlink" x="0" y="0" viewBox="0 0 262 262" xml:space="preserve"><style>.st1{fill:#d81690}</style><defs><path id="SVGID_1_" transform="rotate(-25.657 130.739 130.995)" d="M59.7 60h142v142h-142z"/></defs><clipPath id="SVGID_2_"><use xlink:href="#SVGID_1_" overflow="visible"/></clipPath><g clip-path="url(#SVGID_2_)"><path class="st1" d="M93.7 144.5c-3.9.7-7.4.2-10.3-2.5-2.6-2.4-3.6-5.5-2.4-8.9 3-8.7 5.7-17.5 9.2-26 1.7-4.1 4.7-7.7 7.1-11.5 1.2-1.9 2.6-3.8 3.4-5.9 2.8-7.6 5.4-15.3 8.1-23 2.1-6.1 6.3-8.1 12.5-6.5.9.2 2.5-.2 3-.9 14.1-16.5 37.6-15.9 50.5 1.3 3.9 5.2 5.9 11.3 5.9 17.9 0 1.9.3 2.9 2.3 3.6 5.1 1.9 7.1 6.5 5.3 11.8-2.9 8.4-5.9 16.8-8.8 25.2-.5 1.3-.7 2.8-.6 4.2.4 5.9-.3 11.6-2.3 17.1-2.4 6.9-4.8 13.9-7.3 20.8-2.9 8.4-10.5 10.1-16.9 3.9-.3-.3-.7-.6-1.2-1.1-.7 2.1-1.2 4-1.9 6.2 6.1 3.9 12.9 4.8 19.7 1.9 4.9-2.1 9.5-5 13.8-8.3 7.8-5.9 15.8-11.1 25.6-12.9 2.7-.5 5.5-.3 8.4-.3.5 0 1 .9 1.5 1.4-.6.3-1.2 1-1.8 1-12.4-.8-22.1 5-31.3 12.3-4.7 3.8-9.5 7.4-15.2 9.3-7.3 2.4-10.6 2.1-21.8-1.6-.4.9-.7 1.9-1.1 2.9-3.1 8.9-6.2 17.9-9.4 26.8-1.6 4.5-4.9 7.1-9.5 7.9-4.6.8-8.4-.9-11.2-4.6-2.6-3.4-3-7.2-1.6-11.3 2.4-6.9 4.9-13.9 7.2-20.8.6-1.7 1-3.5 1.1-5.4.1-3.1-1.5-5.1-4.5-5.9-2.8-.8-5 0-6.5 2.4-.8 1.2-1.4 2.5-1.9 3.9-2.5 6.9-4.9 13.9-7.3 20.8-2.6 7.2-8.9 10.6-15.5 8.3-6.4-2.3-9.4-9.1-6.9-16.1C85 170.6 89 159.3 93 148c.3-1 1.2-1.8 1.8-2.7-.5-.4-.8-.6-1.1-.8zm-7.9 30.7c6.2 2.1 11.8 4 18.4 6.2.1-.7.1-1.9.4-2.9 1.6-4.6 3-9.2 5-13.6 2.1-4.6 6.2-6.2 10.5-4.9 4.4 1.4 6.7 4.9 5.9 10-.5 3-1.6 5.9-2.6 8.9-.9 2.9-2 5.8-2.9 8.2 6.1 2.1 11.7 4.1 17.7 6.2 1.9-5.5 3.7-11.3 5.9-17 1.4-3.5 2.1-6.5-1.9-8.7-.9-.5-1.5-1.5-2.1-2.4-1-1.3-2-1.9-3.9-1.8-3.4.2-6.2-2.2-6.8-5.5-.6-3.3.8-6.3 3.6-7.8s6.2-.9 8.5 1.5c2.2 2.3 2.4 5.7.8 8.6-.5.8-.9 2.3-.5 2.9 1.3 1.8 3.1 3.3 5.1 5.4 1.8-5.2 3.3-9.6 4.9-14.1 3.7-10.5 7.3-21 11.1-31.5.3-.8 1.3-1.3 2-2 .1.9.5 1.9.3 2.8-.7 2.6-1.7 5.1-2.6 7.7-1.6 4.7-3.3 9.4-4.8 13.5 4.5 1.6 8.6 3.1 12.8 4.6 7.9-18.1 7.6-36.5-.8-43.2-1.9 7.4-7.4 9.6-14.1 10.1-.8 0-1.7-.7-2.5-1.1.7-.5 1.4-1.1 2.2-1.3 2.7-.8 5.4-1.4 7.9-2.4 1.9-.8 3.2-2.4 3.4-5.1-9.8 5.7-19.6 5.3-29.6 1.4s-17.2-10.5-19.7-21.5c-6 1.3-10.9 4.1-15.3 7.8-8.4 7-10.9 17.1-14 26.2 4.3 1.5 8.6 3 13 4.5 2.2-6.5 4.6-13.3 7-20.1.3-.7.4-1.6.9-2.1.3-.4 1.1-.6 1.6-.8.2.6.6 1.2.5 1.7-.1.8-.4 1.5-.7 2.2-5.3 15.1-10.6 30.3-15.9 45.4-3 8.1-5.9 16.1-8.7 24zm50.3-122.3c-15.8 7.7-19.9 28.4-14.2 39.7 6.6 13.1 27.6 19.9 40.6 13.3 13.6-6.9 19.7-26 12.7-39.8-7.2-14.5-25-20.4-39.1-13.2zm-14.7 10.4c-4.5-2.1-8.3-1.1-9.7 2.7-2.9 7.6-5.4 15.3-8 22.9 0 .1.2.3.2.2 4-1.6 7.9-3.2 11.7-4.9.6-.3 1.3-1.2 1.2-1.9 0-6.6 1.7-12.9 4.6-19zm56.5 52.1c2.7-7.8 5.5-15.3 8-22.9 1.4-4.3-.7-7.4-5-8.3-1.2 3.2-2.2 6.4-3.8 9.3-1.6 3-3.6 5.6-5.5 8.5-.3.4-.4 1.3-.1 1.8 2.1 3.8 4.2 7.5 6.4 11.6zm-95 69.8c-1.2 4.3 1.2 8.6 5.8 10.2 4.5 1.6 9.2-.3 10.9-4.4-5.5-1.9-11.1-3.8-16.7-5.8zm51.5 17.8c-5.7-2.3-11.3-4.5-17-6.8-.8 5.9 1.5 9.9 5.8 11.4 4.4 1.5 8.5-.1 11.2-4.6zm-37.6-66.8c-4.3-1.5-8.4-3-12.6-4.5-1.4 2.6-1.9 5.3.4 7.9 2 2.3 4.6 3.1 7.6 2.4 3.2-.7 4.2-3.3 4.6-5.8zm69.6 24.7c-4.3-1.5-8.4-2.9-12.6-4.4-1.6 4.3 0 8 4.5 9.2 4.3 1.3 7.3-.7 8.1-4.8zm-81.2 17.5c-.6 1.2-1.2 2.4-1.6 3.1 6.1 2.2 11.8 4.2 17.1 6.1.5-.9 1.2-2.1 1.7-3.2-5.9-2-11.6-4-17.2-6zm51.5 18.7c-6.1-2.2-11.7-4.2-17.5-6.3-.4.9-.8 2-1.3 3.1 6.1 2.1 11.8 4.1 17.9 6.2.3-1 .7-2.2.9-3zm18.3-44.3c4.4 1.6 8.5 3 12.1 4.3.7-1.2 1.5-2.6 2.1-3.8-4.5-1.5-8.6-2.9-13-4.4-.3 1.1-.8 2.5-1.2 3.9zm-56.9-20.1c.5-1.2 1.1-2.6 1.5-3.7-4.5-1.6-8.6-3.1-12.7-4.6-.5 1.3-1 2.7-1.5 3.9 4.2 1.4 8.3 2.9 12.7 4.4zm42.1 22c-1.1-2.3-3.8-3.3-6.1-2.1-2.2 1.1-3.1 3.8-2 5.9 1.1 2.2 3.6 3.2 5.9 2.2 2.3-1 3.3-3.7 2.2-6z"/><radialGradient id="SVGID_3_" cx="-9.971" cy="273.55" r="1" gradientTransform="matrix(-62.5665 106.0643 138.1628 81.5011 -38220.688 -21082.807)" gradientUnits="userSpaceOnUse"><stop offset="0" stop-color="#d01e8d"/><stop offset="1" stop-color="#621461"/></radialGradient><path d="M93.7 144.5c-3.9.7-7.4.2-10.3-2.5-2.6-2.4-3.6-5.5-2.4-8.9 3-8.7 5.7-17.5 9.2-26 1.7-4.1 4.7-7.7 7.1-11.5 1.2-1.9 2.6-3.8 3.4-5.9 2.8-7.6 5.4-15.3 8.1-23 2.1-6.1 6.3-8.1 12.5-6.5.9.2 2.5-.2 3-.9 14.1-16.5 37.6-15.9 50.5 1.3 3.9 5.2 5.9 11.3 5.9 17.9 0 1.9.3 2.9 2.3 3.6 5.1 1.9 7.1 6.5 5.3 11.8-2.9 8.4-5.9 16.8-8.8 25.2-.5 1.3-.7 2.8-.6 4.2.4 5.9-.3 11.6-2.3 17.1-2.4 6.9-4.8 13.9-7.3 20.8-2.9 8.4-10.5 10.1-16.9 3.9-.3-.3-.7-.6-1.2-1.1-.7 2.1-1.2 4-1.9 6.2 6.1 3.9 12.9 4.8 19.7 1.9 4.9-2.1 9.5-5 13.8-8.3 7.8-5.9 15.8-11.1 25.6-12.9 2.7-.5 5.5-.3 8.4-.3.5 0 1 .9 1.5 1.4-.6.3-1.2 1-1.8 1-12.4-.8-22.1 5-31.3 12.3-4.7 3.8-9.5 7.4-15.2 9.3-7.3 2.4-10.6 2.1-21.8-1.6-.4.9-.7 1.9-1.1 2.9-3.1 8.9-6.2 17.9-9.4 26.8-1.6 4.5-4.9 7.1-9.5 7.9-4.6.8-8.4-.9-11.2-4.6-2.6-3.4-3-7.2-1.6-11.3 2.4-6.9 4.9-13.9 7.2-20.8.6-1.7 1-3.5 1.1-5.4.1-3.1-1.5-5.1-4.5-5.9-2.8-.8-5 0-6.5 2.4-.8 1.2-1.4 2.5-1.9 3.9-2.5 6.9-4.9 13.9-7.3 20.8-2.6 7.2-8.9 10.6-15.5 8.3-6.4-2.3-9.4-9.1-6.9-16.1C85 170.6 89 159.3 93 148c.3-1 1.2-1.8 1.8-2.7-.5-.4-.8-.6-1.1-.8zm-7.9 30.7c6.2 2.1 11.8 4 18.4 6.2.1-.7.1-1.9.4-2.9 1.6-4.6 3-9.2 5-13.6 2.1-4.6 6.2-6.2 10.5-4.9 4.4 1.4 6.7 4.9 5.9 10-.5 3-1.6 5.9-2.6 8.9-.9 2.9-2 5.8-2.9 8.2 6.1 2.1 11.7 4.1 17.7 6.2 1.9-5.5 3.7-11.3 5.9-17 1.4-3.5 2.1-6.5-1.9-8.7-.9-.5-1.5-1.5-2.1-2.4-1-1.3-2-1.9-3.9-1.8-3.4.2-6.2-2.2-6.8-5.5-.6-3.3.8-6.3 3.6-7.8s6.2-.9 8.5 1.5c2.2 2.3 2.4 5.7.8 8.6-.5.8-.9 2.3-.5 2.9 1.3 1.8 3.1 3.3 5.1 5.4 1.8-5.2 3.3-9.6 4.9-14.1 3.7-10.5 7.3-21 11.1-31.5.3-.8 1.3-1.3 2-2 .1.9.5 1.9.3 2.8-.7 2.6-1.7 5.1-2.6 7.7-1.6 4.7-3.3 9.4-4.8 13.5 4.5 1.6 8.6 3.1 12.8 4.6 7.9-18.1 7.6-36.5-.8-43.2-1.9 7.4-7.4 9.6-14.1 10.1-.8 0-1.7-.7-2.5-1.1.7-.5 1.4-1.1 2.2-1.3 2.7-.8 5.4-1.4 7.9-2.4 1.9-.8 3.2-2.4 3.4-5.1-9.8 5.7-19.6 5.3-29.6 1.4s-17.2-10.5-19.7-21.5c-6 1.3-10.9 4.1-15.3 7.8-8.4 7-10.9 17.1-14 26.2 4.3 1.5 8.6 3 13 4.5 2.2-6.5 4.6-13.3 7-20.1.3-.7.4-1.6.9-2.1.3-.4 1.1-.6 1.6-.8.2.6.6 1.2.5 1.7-.1.8-.4 1.5-.7 2.2-5.3 15.1-10.6 30.3-15.9 45.4-3 8.1-5.9 16.1-8.7 24zm50.3-122.3c-15.8 7.7-19.9 28.4-14.2 39.7 6.6 13.1 27.6 19.9 40.6 13.3 13.6-6.9 19.7-26 12.7-39.8-7.2-14.5-25-20.4-39.1-13.2zm-14.7 10.4c-4.5-2.1-8.3-1.1-9.7 2.7-2.9 7.6-5.4 15.3-8 22.9 0 .1.2.3.2.2 4-1.6 7.9-3.2 11.7-4.9.6-.3 1.3-1.2 1.2-1.9 0-6.6 1.7-12.9 4.6-19zm56.5 52.1c2.7-7.8 5.5-15.3 8-22.9 1.4-4.3-.7-7.4-5-8.3-1.2 3.2-2.2 6.4-3.8 9.3-1.6 3-3.6 5.6-5.5 8.5-.3.4-.4 1.3-.1 1.8 2.1 3.8 4.2 7.5 6.4 11.6zm-95 69.8c-1.2 4.3 1.2 8.6 5.8 10.2 4.5 1.6 9.2-.3 10.9-4.4-5.5-1.9-11.1-3.8-16.7-5.8zm51.5 17.8c-5.7-2.3-11.3-4.5-17-6.8-.8 5.9 1.5 9.9 5.8 11.4 4.4 1.5 8.5-.1 11.2-4.6zm-37.6-66.8c-4.3-1.5-8.4-3-12.6-4.5-1.4 2.6-1.9 5.3.4 7.9 2 2.3 4.6 3.1 7.6 2.4 3.2-.7 4.2-3.3 4.6-5.8zm69.6 24.7c-4.3-1.5-8.4-2.9-12.6-4.4-1.6 4.3 0 8 4.5 9.2 4.3 1.3 7.3-.7 8.1-4.8zm-81.2 17.5c-.6 1.2-1.2 2.4-1.6 3.1 6.1 2.2 11.8 4.2 17.1 6.1.5-.9 1.2-2.1 1.7-3.2-5.9-2-11.6-4-17.2-6zm51.5 18.7c-6.1-2.2-11.7-4.2-17.5-6.3-.4.9-.8 2-1.3 3.1 6.1 2.1 11.8 4.1 17.9 6.2.3-1 .7-2.2.9-3zm18.3-44.3c4.4 1.6 8.5 3 12.1 4.3.7-1.2 1.5-2.6 2.1-3.8-4.5-1.5-8.6-2.9-13-4.4-.3 1.1-.8 2.5-1.2 3.9zm-56.9-20.1c.5-1.2 1.1-2.6 1.5-3.7-4.5-1.6-8.6-3.1-12.7-4.6-.5 1.3-1 2.7-1.5 3.9 4.2 1.4 8.3 2.9 12.7 4.4zm42.1 22c-1.1-2.3-3.8-3.3-6.1-2.1-2.2 1.1-3.1 3.8-2 5.9 1.1 2.2 3.6 3.2 5.9 2.2 2.3-1 3.3-3.7 2.2-6z" fill="url(#SVGID_3_)"/><path class="st1" d="M144.7 147.8c-2.8-.1-5.5.3-7.8-.5-7.1-2.2-14.1-4.8-21.1-7.3-5.8-2.1-8.3-7.4-6.4-13.3 1.1-3.4 2.3-6.8 3.5-10.1 2-5.4 7.1-8 12.6-6.2 7.3 2.4 14.6 5 21.9 7.7 5.1 1.9 7.6 7 6.1 12.2-1.2 3.9-2.4 7.8-4.1 11.5-.9 2.1-2.9 3.8-4.7 6zm-25.6-35.3c-1.3 1.7-2.8 3.1-3.5 4.7-1.5 3.6-2.7 7.2-3.9 10.9-1.3 4.2.5 7.7 4.6 9.3 7.1 2.6 14.2 5.1 21.3 7.5 4.5 1.5 8.1-.3 9.8-4.7 1.3-3.4 2.4-6.7 3.5-10.1 1.5-4.5-.2-8.1-4.7-9.8-7.1-2.6-14.2-5.1-21.3-7.4-1.7-.5-3.7-.3-5.8-.4z"/><radialGradient id="SVGID_4_" cx="-9.905" cy="273.735" r="1" gradientTransform="matrix(-19.3066 33.3231 43.6826 25.3087 -11996.268 -6461.115)" gradientUnits="userSpaceOnUse"><stop offset="0" stop-color="#d01e8d"/><stop offset="1" stop-color="#621461"/></radialGradient><path d="M144.7 147.8c-2.8-.1-5.5.3-7.8-.5-7.1-2.2-14.1-4.8-21.1-7.3-5.8-2.1-8.3-7.4-6.4-13.3 1.1-3.4 2.3-6.8 3.5-10.1 2-5.4 7.1-8 12.6-6.2 7.3 2.4 14.6 5 21.9 7.7 5.1 1.9 7.6 7 6.1 12.2-1.2 3.9-2.4 7.8-4.1 11.5-.9 2.1-2.9 3.8-4.7 6zm-25.6-35.3c-1.3 1.7-2.8 3.1-3.5 4.7-1.5 3.6-2.7 7.2-3.9 10.9-1.3 4.2.5 7.7 4.6 9.3 7.1 2.6 14.2 5.1 21.3 7.5 4.5 1.5 8.1-.3 9.8-4.7 1.3-3.4 2.4-6.7 3.5-10.1 1.5-4.5-.2-8.1-4.7-9.8-7.1-2.6-14.2-5.1-21.3-7.4-1.7-.5-3.7-.3-5.8-.4z" fill="url(#SVGID_4_)"/><path class="st1" d="M172.4 76c4.7 11.1-4.1 25.8-16.3 26.3-10.1.4-19.3-3-27-9.5-6.1-5.2-7.3-13.3-3.9-21.8 2.8-6.9 8.5-10.5 16.6-10.1 8.9.5 17.1 3.4 24.2 8.5 2.4 1.9 4.3 4.4 6.4 6.6zm-10.8 22.7c10.7-5.4 12.3-20.3 2.7-27.2-6.9-5-14.7-7.7-23.2-7.9-2.8 0-6.1.6-8.5 2.1-8.1 5-9.4 18.8-2.2 25 7.4 6.4 16.3 9.3 26.1 9.1 1.8-.1 3.5-.8 5.1-1.1z"/><radialGradient id="SVGID_5_" cx="-9.916" cy="273.721" r="1" gradientTransform="matrix(-21.1337 35.4479 45.9964 27.4226 -12628.939 -7065.784)" gradientUnits="userSpaceOnUse"><stop offset="0" stop-color="#d01e8d"/><stop offset="1" stop-color="#621461"/></radialGradient><path d="M172.4 76c4.7 11.1-4.1 25.8-16.3 26.3-10.1.4-19.3-3-27-9.5-6.1-5.2-7.3-13.3-3.9-21.8 2.8-6.9 8.5-10.5 16.6-10.1 8.9.5 17.1 3.4 24.2 8.5 2.4 1.9 4.3 4.4 6.4 6.6zm-10.8 22.7c10.7-5.4 12.3-20.3 2.7-27.2-6.9-5-14.7-7.7-23.2-7.9-2.8 0-6.1.6-8.5 2.1-8.1 5-9.4 18.8-2.2 25 7.4 6.4 16.3 9.3 26.1 9.1 1.8-.1 3.5-.8 5.1-1.1z" fill="url(#SVGID_5_)"/><path d="M124.9 121.6c-.2.5-.7 1.1-.6 1.2.4.6.9 1.3 1.5 1.5 4.1 1.5 8.4 3 12.6 4.4.8.2 1.8-.3 2.7-.5-.6-.6-1.1-1.5-1.9-1.8-4.1-1.5-8.2-2.9-12.3-4.3-.5-.3-1.2-.3-2-.5zm14.2 13.4c-.7-.7-.8-1.1-1-1.2-4.9-1.8-9.8-3.5-14.8-5.2-.4-.1-1.4.5-1.3.7 0 .6.4 1.5.8 1.6 4.7 1.7 9.4 3.4 14.2 5 .4.2 1.2-.5 2.1-.9z" fill="#fff"/><path class="st1" d="M124.9 121.6c.8.2 1.4.2 2.1.4 4.1 1.4 8.2 2.8 12.3 4.3.8.3 1.3 1.2 1.9 1.8-.9.2-1.9.7-2.7.5-4.2-1.3-8.4-2.9-12.6-4.4-.6-.2-1.1-.9-1.5-1.5-.2 0 .3-.6.5-1.1z"/><radialGradient id="SVGID_6_" cx="-9.677" cy="274.402" r="1" gradientTransform="matrix(-5.6119 9.6321 12.6023 7.3424 -3373.785 -1794.295)" gradientUnits="userSpaceOnUse"><stop offset="0" stop-color="#d01e8d"/><stop offset="1" stop-color="#621461"/></radialGradient><path d="M124.9 121.6c.8.2 1.4.2 2.1.4 4.1 1.4 8.2 2.8 12.3 4.3.8.3 1.3 1.2 1.9 1.8-.9.2-1.9.7-2.7.5-4.2-1.3-8.4-2.9-12.6-4.4-.6-.2-1.1-.9-1.5-1.5-.2 0 .3-.6.5-1.1z" fill="url(#SVGID_6_)"/><path class="st1" d="M139.1 135c-.8.4-1.6 1.1-2.1 1-4.8-1.5-9.5-3.2-14.2-5-.4-.1-.7-1-.8-1.6 0-.2 1-.8 1.3-.7 4.9 1.7 9.8 3.4 14.8 5.2.2 0 .3.4 1 1.1z"/><radialGradient id="SVGID_7_" cx="-9.704" cy="274.406" r="1" gradientTransform="matrix(-5.8817 9.6825 12.4743 7.5776 -3343.537 -1851.16)" gradientUnits="userSpaceOnUse"><stop offset="0" stop-color="#d01e8d"/><stop offset="1" stop-color="#621461"/></radialGradient><path d="M139.1 135c-.8.4-1.6 1.1-2.1 1-4.8-1.5-9.5-3.2-14.2-5-.4-.1-.7-1-.8-1.6 0-.2 1-.8 1.3-.7 4.9 1.7 9.8 3.4 14.8 5.2.2 0 .3.4 1 1.1z" fill="url(#SVGID_7_)"/></g></svg>