<svg version="1.1" id="圖層_1" xmlns="http://www.w3.org/2000/svg" x="0" y="0" viewBox="0 0 262 262" xml:space="preserve" enable-background="new 0 0 262 262"><style>.st3{fill-rule:evenodd;clip-rule:evenodd}</style><path d="M152.4 169.8c.3.1.7-.1.8-.4v-.3L155 158l21.6-3.6 1.1 11.1-19 11.6-1.9-3c-.2-.3-.6-.4-.9-.2-.3.2-.4.6-.2.9l1.9 3-19.6 12-9.3-6.2 13.2-17.2 10.5 3.4zm6 9.1l-19.6 12c-.1.1-.3.1-.5.1-.2.2-.5.2-.8 0l-10-6.7s-.1 0-.1-.1l-5-3.3c-.3-.2-.4-.6-.2-.9.2-.3.6-.4.9-.2l4.6 3 13-16.9-9.7-3.2c-.3-.1-.4-.3-.4-.6l-32.5-71-9.3 74.3 11.1 15.8 14.6-42.8c.8-2.3 4-2.4 4.9-.1.3.6.2 1.4 0 2l-18.3 41.8c-.1.1-.1.2-.2.3l8 11.3c.2.3.1.7-.2.9-.3.2-.7.1-.9-.2l-20-28.5c-.1-.1-.1-.1-.1-.2s-.1-.2-.1-.3L97 89.5c0-.2.1-.3.2-.4L82 55.7c-.1-.3 0-.7.3-.9.3-.1.5-.1.7.1l.1.1 57.8 71.8c.4-.7 1.2-1.3 2.2-1.2l46.7 2.4-10.8-17.6c-.1-.1-.1-.2-.1-.3l-70.7-24.5c-.3-.1-.5-.5-.4-.8.1-.3.5-.5.8-.4l70.8 24.6c.3.1.4.3.4.6.1 0 .1.1.2.2l18.6 30.5c.2.3.1.7-.2.9-.3.2-.7.1-.9-.2l-7.2-11.8c-.1.1-.3.2-.5.2l-46.2 1.1 12.8 15.9c.1.1.1.2.1.3.1.1.1.3.1.4l-1.5 9.6 21.3-3.5-.5-4.9c0-.4.2-.7.6-.7.4 0 .7.2.7.6l1.8 17.7c0 .2-.1.4-.2.6 0 .1-.1.1-.2.2l-19.2 11.8 6.8 10.8c.2.3.1.7-.2.9-.3.2-.7.1-.9-.2l-6.7-11.1zM85.3 59.8l55.3 68.7c.1.3.2.5.3.8.3.4.6.8 1.1.9l13.5 16.8-3.5 21.3-20.4-6.7L85.3 59.8zm29.1 43.4c-.2-.3-.6-.4-.9-.2l-2.4 1.5c-.3.2-.4.6-.2.9.2.3.6.4.9.2l2.4-1.5c.3-.2.4-.6.2-.9zm16.3 29.2c-.3.2-.4.6-.2.9l12 19.3c.2.3.6.4.9.2.3-.2.4-.6.2-.9l-12-19.3c-.2-.3-.6-.4-.9-.2zm60.5 21.4c-.3.2-.3.6-.1.9l21.3 26.5c.2.3.6.3.9.1.3-.2.3-.6.1-.9l-21.3-26.5c-.2-.3-.6-.3-.9-.1zm-65.3 47.3c-.2-.3-.1-.7.2-.9.3-.2.7-.1.9.2l18 28.9c.2.3.1.7-.2.9-.3.2-.7.1-.9-.2l-18-28.9z" fill-rule="evenodd" clip-rule="evenodd" fill="#d81690"/><radialGradient id="SVGID_1_" cx="-9.905" cy="273.498" r="1" gradientTransform="matrix(47.2635 127.1392 166.3842 -61.8526 -44830.527 18284.54)" gradientUnits="userSpaceOnUse"><stop offset="0" stop-color="#d01e8d"/><stop offset="1" stop-color="#621461"/></radialGradient><path d="M152.4 169.8c.3.1.7-.1.8-.4v-.3L155 158l21.6-3.6 1.1 11.1-19 11.6-1.9-3c-.2-.3-.6-.4-.9-.2-.3.2-.4.6-.2.9l1.9 3-19.6 12-9.3-6.2 13.2-17.2 10.5 3.4zm6 9.1l-19.6 12c-.1.1-.3.1-.5.1-.2.2-.5.2-.8 0l-10-6.7s-.1 0-.1-.1l-5-3.3c-.3-.2-.4-.6-.2-.9.2-.3.6-.4.9-.2l4.6 3 13-16.9-9.7-3.2c-.3-.1-.4-.3-.4-.6l-32.5-71-9.3 74.3 11.1 15.8 14.6-42.8c.8-2.3 4-2.4 4.9-.1.3.6.2 1.4 0 2l-18.3 41.8c-.1.1-.1.2-.2.3l8 11.3c.2.3.1.7-.2.9-.3.2-.7.1-.9-.2l-20-28.5c-.1-.1-.1-.1-.1-.2s-.1-.2-.1-.3L97 89.5c0-.2.1-.3.2-.4L82 55.7c-.1-.3 0-.7.3-.9.3-.1.5-.1.7.1l.1.1 57.8 71.8c.4-.7 1.2-1.3 2.2-1.2l46.7 2.4-10.8-17.6c-.1-.1-.1-.2-.1-.3l-70.7-24.5c-.3-.1-.5-.5-.4-.8.1-.3.5-.5.8-.4l70.8 24.6c.3.1.4.3.4.6.1 0 .1.1.2.2l18.6 30.5c.2.3.1.7-.2.9-.3.2-.7.1-.9-.2l-7.2-11.8c-.1.1-.3.2-.5.2l-46.2 1.1 12.8 15.9c.1.1.1.2.1.3.1.1.1.3.1.4l-1.5 9.6 21.3-3.5-.5-4.9c0-.4.2-.7.6-.7.4 0 .7.2.7.6l1.8 17.7c0 .2-.1.4-.2.6 0 .1-.1.1-.2.2l-19.2 11.8 6.8 10.8c.2.3.1.7-.2.9-.3.2-.7.1-.9-.2l-6.7-11.1zM85.3 59.8l55.3 68.7c.1.3.2.5.3.8.3.4.6.8 1.1.9l13.5 16.8-3.5 21.3-20.4-6.7L85.3 59.8zm29.1 43.4c-.2-.3-.6-.4-.9-.2l-2.4 1.5c-.3.2-.4.6-.2.9.2.3.6.4.9.2l2.4-1.5c.3-.2.4-.6.2-.9zm16.3 29.2c-.3.2-.4.6-.2.9l12 19.3c.2.3.6.4.9.2.3-.2.4-.6.2-.9l-12-19.3c-.2-.3-.6-.4-.9-.2zm60.5 21.4c-.3.2-.3.6-.1.9l21.3 26.5c.2.3.6.3.9.1.3-.2.3-.6.1-.9l-21.3-26.5c-.2-.3-.6-.3-.9-.1zm-65.3 47.3c-.2-.3-.1-.7.2-.9.3-.2.7-.1.9.2l18 28.9c.2.3.1.7-.2.9-.3.2-.7.1-.9-.2l-18-28.9z" fill-rule="evenodd" clip-rule="evenodd" fill="url(#SVGID_1_)"/><defs><filter id="Adobe_OpacityMaskFilter" filterUnits="userSpaceOnUse" x="80.4" y="53.2" width="134.7" height="178.6"><feColorMatrix values="1 0 0 0 0 0 1 0 0 0 0 0 1 0 0 0 0 0 1 0"/></filter></defs><mask maskUnits="userSpaceOnUse" x="80.4" y="53.2" width="134.7" height="178.6" id="path-2-outside-1_1_"><path fill="#fff" filter="url(#Adobe_OpacityMaskFilter)" d="M42.7 52.1h195.4V246H42.7z"/><path class="st3" d="M152.4 169.8c.3.1.7-.1.8-.4v-.3L155 158l21.6-3.6 1.1 11.1-19 11.6-1.9-3c-.2-.3-.6-.4-.9-.2-.3.2-.4.6-.2.9l1.9 3-19.6 12-9.3-6.2 13.2-17.2 10.5 3.4zm6 9.1l-19.6 12c-.1.1-.3.1-.5.1-.2.2-.5.2-.8 0l-10-6.7s-.1 0-.1-.1l-5-3.3c-.3-.2-.4-.6-.2-.9.2-.3.6-.4.9-.2l4.6 3 13-16.9-9.7-3.2c-.3-.1-.4-.3-.4-.6l-32.5-71-9.3 74.3 11.1 15.8 14.6-42.8c.8-2.3 4-2.4 4.9-.1.3.6.2 1.4 0 2l-18.3 41.8c-.1.1-.1.2-.2.3l8 11.3c.2.3.1.7-.2.9-.3.2-.7.1-.9-.2l-20-28.5c-.1-.1-.1-.1-.1-.2s-.1-.2-.1-.3L97 89.5c0-.2.1-.3.2-.4L82 55.7c-.1-.3 0-.7.3-.9.3-.1.5-.1.7.1l.1.1 57.8 71.8c.4-.7 1.2-1.3 2.2-1.2l46.7 2.4-10.8-17.6c-.1-.1-.1-.2-.1-.3l-70.7-24.5c-.3-.1-.5-.5-.4-.8.1-.3.5-.5.8-.4l70.8 24.6c.3.1.4.3.4.6.1 0 .1.1.2.2l18.6 30.5c.2.3.1.7-.2.9-.3.2-.7.1-.9-.2l-7.2-11.8c-.1.1-.3.2-.5.2l-46.2 1.1 12.8 15.9c.1.1.1.2.1.3.1.1.1.3.1.4l-1.5 9.6 21.3-3.5-.5-4.9c0-.4.2-.7.6-.7.4 0 .7.2.7.6l1.8 17.7c0 .2-.1.4-.2.6 0 .1-.1.1-.2.2l-19.2 11.8 6.8 10.8c.2.3.1.7-.2.9-.3.2-.7.1-.9-.2l-6.7-11.1zM85.3 59.8l55.3 68.7c.1.3.2.5.3.8.3.4.6.8 1.1.9l13.5 16.8-3.5 21.3-20.4-6.7L85.3 59.8zm29.1 43.4c-.2-.3-.6-.4-.9-.2l-2.4 1.5c-.3.2-.4.6-.2.9.2.3.6.4.9.2l2.4-1.5c.3-.2.4-.6.2-.9zm16.3 29.2c-.3.2-.4.6-.2.9l12 19.3c.2.3.6.4.9.2.3-.2.4-.6.2-.9l-12-19.3c-.2-.3-.6-.4-.9-.2zm60.5 21.4c-.3.2-.3.6-.1.9l21.3 26.5c.2.3.6.3.9.1.3-.2.3-.6.1-.9l-21.3-26.5c-.2-.3-.6-.3-.9-.1zm-65.3 47.3c-.2-.3-.1-.7.2-.9.3-.2.7-.1.9.2l18 28.9c.2.3.1.7-.2.9-.3.2-.7.1-.9-.2l-18-28.9z"/></mask><path d="M152.4 169.8l-.5 1.4.5-1.4zm0 0l.5-1.4h-.1l-.4 1.4zm.9-.4l-1.4-.5 1.4.5zm0-.3l-1.5-.2v.3l.1.3 1.4-.4zm1.8-11.1l-.2-1.5-1.1.2-.2 1.1 1.5.2zm21.6-3.6l1.5-.1-.2-1.6-1.6.3.3 1.4zm1.1 11.1l.8 1.3.8-.5-.1-.9-1.5.1zm-19 11.6l-1.3.8.8 1.3 1.3-.8-.8-1.3zm-1.9-3l-1.3.8 1.3-.8zm-.9-.2l.8 1.3-.8-1.3zm-.2.9l-1.3.8 1.3-.8zm1.9 3l.8 1.3 1.3-.8-.8-1.3-1.3.8zm-19.6 12l-.8-1.3.8 1.3zm0 0l-.8 1.2.8.5.8-.5-.8-1.2zm-9.3-6.2l-1.2-.9-1 1.3 1.3.9.9-1.3zm13.2-17.2l.5-1.4-1-.3-.6.8 1.1.9zm10.4 3.4l.6-1.4-.6 1.4zm0 0l-.5 1.4.5-1.4zm-13.6 21.1l-.8-1.3.8 1.3zm19.6-12l1.3-.8-.8-1.3-1.3.8.8 1.3zM138.3 191l.3-1.5-.7-.1-.5.4.9 1.2zm-.7 0l-.8 1.2.8-1.2zm-10-6.7l.8-1.2-.1-.1h-.1l-.6 1.3zm-.1 0l-.9 1.2.9-1.2zm-.1-.1l1-1.1-.1-.1-.1-.1-.8 1.3zm-5-3.3l-.8 1.2.8-1.2zm-.1-.9l1.2.8-1.2-.8zm.9-.2l.8-1.2-.8 1.2zm4.5 3.1l-.8 1.2 1.2.8.9-1.1-1.3-.9zm13-16.9l1.2.9 1.3-1.7-2-.7-.5 1.5zm-9.7-3.2l.5-1.4-.5 1.4zm-.5-.6l1.5-.1v-.3l-.1-.2-1.4.6zM98.1 91.1l1.4-.6-2.2-4.8-.7 5.3 1.5.1zm-9.2 74.3l-1.5-.2-.1.6.3.5 1.3-.9zm11.1 15.8l-1.2.9 1.7 2.4 1-2.8-1.5-.5zm14.5-42.8l1.4.5-1.4-.5zm4.9-.1l1.4-.6-1.4.6zm0 2l1.4.6-1.4-.6zm-18.3 41.8l1.4.6-1.4-.6zm-.3.3l-.9-1.2-1.2.9.9 1.2 1.2-.9zm8 11.3l-1.2.9 1.2-.9zm-.2.9l.9 1.2-.9-1.2zm-.9-.1l-1.2.9 1.2-.9zm-20-28.5l1.2-.9-1.2.9zm-.1-.3l1.5-.3v-.1l-.1-.1-1.4.5zm-.1-.3l1.5.2-1.5-.2zM97 89.5l-1.5-.2 1.5.2zm.2-.4l1 1.1.8-.7-.5-1-1.3.6zM82 55.7l-1.4.6 1.4-.6zm.3-.9l.6 1.4-.6-1.4zm.7.1L82 56l1-1.1zm.1.1l-1.2.9 1.2-.9zm57.8 71.8l-1.2.9 1.4 1.7 1.1-1.9-1.3-.7zm2.2-1.2l.1-1.5-.1 1.5zm46.8 2.4l-.1 1.5 2.8.1-1.5-2.4-1.2.8zm-10.8-17.6l1.3-.8-1.3.8zm-.1-.2l1.5-.1-.1-1-.9-.3-.5 1.4zm-70.6-24.6l.5-1.4-.5 1.4zm-.4-.8l1.4.5-1.4-.5zm.8-.4l.5-1.4-.5 1.4zm70.8 24.6l.5-1.4-.5 1.4zm.5.6l-1.5.1v.7l.5.4 1-1.2zm.1.2l1.3-.8-1.3.8zm18.6 30.4l-1.3.8 1.3-.8zm-1.1.7l-1.3.8 1.3-.8zm-7.2-11.8l1.3-.8-1.1-1.8-1.3 1.6 1.1 1zm-.5.3v-1.5 1.5zm-46.2 1v-1.5l-3 .1 1.9 2.4 1.1-1zm12.8 15.9l-1.2.9 1.2-.9zm.1.3l-1.5.2v.3l.2.3 1.3-.8zm.1.5l1.5.2-1.5-.2zm-1.5 9.5l-1.5-.2-.3 2.1 2.1-.3-.3-1.6zm21.3-3.5l.2 1.5 1.4-.2-.1-1.4-1.5.1zm-.5-4.9l-1.5.1 1.5-.1zm.6-.7l-.1-1.5.1 1.5zm.7.6l-1.5.1 1.5-.1zm1.7 17.6l-1.5.1 1.5-.1zm-.2.6l-1-1.2-.1.1-.1.1 1.2 1zm-.2.1l-.8-1.3.8 1.3zm-19.2 11.8l-.8-1.3-1.3.8.8 1.3 1.3-.8zm6.7 10.9l1.3-.8-1.3.8zm-.2.9l.8 1.3-.8-1.3zm-.9-.2l1.3-.8-1.3.8zm-24.5-61.3l1.5-.3-.1-.4-.2-.3-1.2 1zM85.3 59.8l1.2-.9-2.5 1.6 1.3-.7zm55.6 69.5l-1.3.8 1.3-.8zm1.1 1l1.2-.9-.2-.4-.3-.1-.7 1.4zm13.5 16.7l1.5.2.1-.7-.4-.5-1.2 1zm-3.4 21.3l-.5 1.4 1.7.5.3-1.7-1.5-.2zm-20.4-6.6l-1.4.6.3.6.6.2.5-1.4zM113.5 103l-.8-1.3.8 1.3zm-2.4 1.5l-.8-1.3.8 1.3zm-.2.9l1.3-.8-1.3.8zm.9.2l-.8-1.3.8 1.3zm2.4-1.5l.8 1.3-.8-1.3zm16.2 29.2l-1.3.8 1.3-.8zm.3-.9l.8 1.3-.8-1.3zm11.8 20.2l1.3-.8-1.3.8zm.9.2l-.8-1.3.8 1.3zm.2-.9l1.3-.8-1.3.8zm-12.1-19.3l-1.3.8 1.3-.8zm59.6 22.1l1.2-.9-1.2.9zm.1-.9l.9 1.2-.9-1.2zm21.3 27.4l-1.2.9 1.2-.9zm1-.8l-1.2.9 1.2-.9zm-21.3-26.5l1.2-.9-1.2.9zm-66.3 47.2l-1.3.8 1.3-.8zm1.1-.7l-1.3.8 1.3-.8zm18 28.9l-1.3.8 1.3-.8zm-.2.9l.8 1.3-.8-1.3zm-.9-.2l-1.3.8 1.3-.8zm9-61.6l-.9 2.9.9-2.9zm-1.1.5c.1-.4.6-.7 1.1-.5l-.9 2.9c1.1.4 2.3-.2 2.7-1.4l-2.9-1zm0 .5v-.4l2.9.9c.1-.4.1-.8.1-1.1l-3 .6zm1.8-11.7l-1.8 11.1 3 .5 1.8-11.1-3-.5zm22.8-4.8l-21.6 3.6.5 3 21.6-3.6-.5-3zm2.9 12.4l-1.1-11.1-3 .3 1.1 11.1 3-.3zm-19.7 13.1l19-11.6-1.6-2.6-19 11.6 1.6 2.6zm-4-3.5l1.9 3 2.5-1.6-1.9-3-2.5 1.6zm1.2.3c-.4.2-.9.1-1.2-.3l2.5-1.6c-.6-1-1.9-1.3-3-.7l1.7 2.6zm.3-1.2c.2.4.1.9-.3 1.2l-1.6-2.5c-1 .6-1.3 2-.7 3l2.6-1.7zm1.9 3l-1.9-3-2.5 1.6 1.9 3 2.5-1.6zm-20.1 14.1l19.6-12-1.6-2.6-19.6 12 1.6 2.6zm0 0l-1.6-2.5 1.6 2.5zm-10.9-6.3l9.3 6.2 1.7-2.5-9.3-6.2-1.7 2.5zm12.8-19.3l-13.2 17.2 2.4 1.8 13.2-17.2-2.4-1.8zm12 2.8l-10.4-3.4-.9 2.9 10.4 3.4.9-2.9zm.1.1l-1.1 2.8c.1 0 .1 0 .2.1l.9-2.9zm-.1-.1c0 .1 0 .1 0 0l-.9 2.9h.1l.8-2.9zm-13.2 23.9l19.6-12-1.6-2.6-19.6 12 1.6 2.6zm-1.5.3c.5.1 1.1 0 1.5-.3l-1.6-2.6c.2-.1.4-.1.6-.1l-.5 3zm-1.3-.2c.8.5 1.8.5 2.5-.1l-1.8-2.4c.3-.2.7-.2 1 0l-1.7 2.5zm-10-6.7l10 6.7 1.7-2.5-10-6.7-1.7 2.5zm-.2-.1c.1.1.3.2.4.2l1.3-2.7c.1 0 .1.1.2.1l-1.9 2.4zm-.2-.2l.1.1 1.8-2.4h.1l-2 2.3zm-4.8-3.1l5 3.3 1.7-2.5-5-3.3-1.7 2.5zm-.6-3c-.7 1-.4 2.3.6 3l1.7-2.5c.4.3.5.8.2 1.2l-2.5-1.7zm3-.6c-1-.7-2.3-.4-3 .6l2.5 1.7c-.3.4-.8.5-1.2.2l1.7-2.5zm4.6 3l-4.6-3-1.7 2.5 4.6 3 1.7-2.5zm10.9-16.6l-13 16.9 2.4 1.8 13-16.9-2.4-1.8zm-9-.8l9.7 3.2.9-2.9-9.7-3.2-.9 2.9zm-1.5-1.8c.1.8.6 1.6 1.5 1.8l.9-2.9c.3.1.6.4.6.7l-3 .4zM96.8 91.7l32.4 71.1 2.7-1.2-32.4-71.1-2.7 1.2zm-6.5 73.8l9.3-74.3-3-.4-9.3 74.3 3 .4zm-2.7.7L98.7 182l2.5-1.7-11.1-15.8-2.5 1.7zm13.8 15.4l14.6-42.8-2.8-1-14.6 42.8 2.8 1zm14.5-42.7c.3-1 1.7-1 2.1-.1l2.8-1.1c-1.4-3.5-6.5-3.4-7.7.2l2.8 1zm2.1-.1c.1.3.1.6 0 .9l2.7 1.2c.4-1 .5-2.2.1-3.2l-2.8 1.1zm0 .9l-18.3 41.8 2.7 1.2 18.3-41.8-2.7-1.2zm-18.3 41.8c.1-.1.2-.3.3-.3l1.7 2.5c.3-.2.6-.5.7-.9l-2.7-1.3zm-.1 1.7l8 11.3 2.5-1.7-8-11.3-2.5 1.7zm8 11.4c-.3-.4-.2-.9.2-1.2l1.7 2.5c1-.7 1.2-2 .5-3l-2.4 1.7zm.2-1.2c.4-.3.9-.2 1.2.2l-2.5 1.7c.7 1 2 1.2 3 .5l-1.7-2.4zm1.2.2l-20-28.5-2.5 1.7 20 28.5 2.5-1.7zm-20.1-28.5c.1.1.1.2.1.3l-2.9.7c.1.3.2.5.3.8l2.5-1.8zm-2.8.1c-.1.4 0 .8.2 1.1l2.7-1.2c.1.1.1.3.1.5l-3-.4zm9.4-75.9L86 165.2l3 .4 9.5-75.9-3-.4zm.7-1.3c-.4.3-.6.8-.7 1.3l3 .4c0 .2-.1.4-.3.5l-2-2.2zM80.6 56.3l15.2 33.5 2.7-1.2L83.3 55l-2.7 1.3zm1.1-2.9c-1.1.5-1.6 1.8-1.1 2.8l2.7-1.2c.2.4 0 .9-.4 1.1l-1.2-2.7zm2.4.5c-.6-.6-1.6-.8-2.4-.4l1.2 2.7c-.3.2-.7.1-1-.2l2.2-2.1zm.2.2c-.1-.1-.1-.2-.2-.2L82 56l-.1-.1 2.4-1.8zm57.8 71.8L84.3 54.1 82 56l57.8 71.8 2.3-1.9zm1.1-1.8c-1.6-.1-2.9.8-3.6 2l2.6 1.5c.2-.3.5-.5.9-.5l.1-3zm46.7 2.4l-46.7-2.4-.2 3 46.7 2.4.2-3zm-12.1-15.3l10.8 17.6 2.6-1.6-10.8-17.6-2.6 1.6zm-.3-.9c0 .3.1.6.3.9l2.6-1.6c.1.1.1.2.1.4l-3 .3zM107.9 87l70.7 24.5 1-2.8-70.7-24.5-1 2.8zm-1.4-2.7c-.4 1.1.2 2.3 1.3 2.7l1-2.8c.4.2.7.6.5 1.1l-2.8-1zm2.8-1.3c-1.1-.4-2.3.2-2.7 1.3l2.8 1c-.2.4-.6.7-1.1.5l1-2.8zm70.8 24.6L109.3 83l-1 2.8 70.8 24.6 1-2.8zm1.5 1.9c0-.9-.6-1.6-1.4-1.9l-1 2.8c-.3-.1-.6-.4-.6-.8l3-.1zm-.1-.5c-.1-.2-.3-.4-.5-.6l-1.8 2.4c-.1-.1-.2-.1-.2-.2l2.5-1.6zm18.6 30.4L181.5 109l-2.6 1.6 18.6 30.5 2.6-1.7zm-.7 3c1-.6 1.3-1.9.7-3l-2.6 1.6c-.2-.4-.1-.9.3-1.2l1.6 2.6zm-3-.7c.6 1 1.9 1.3 3 .7l-1.6-2.6c.4-.2.9-.1 1.2.3l-2.6 1.6zm-7.1-11.8l7.2 11.8 2.6-1.6-7.2-11.8-2.6 1.6zm.8 1c.6 0 1.2-.3 1.6-.8l-2.3-1.9c.1-.2.4-.3.6-.3l.1 3zm-46.2 1l46.2-1.1-.1-3-46.2 1.1.1 3zm13.9 13.5L145 129.5l-2.3 1.9 12.8 15.9 2.3-1.9zm.4 1c0-.4-.2-.8-.5-1.1l-2.3 1.9c-.1-.1-.2-.3-.2-.4l3-.4zm.1.9c.1-.5 0-1-.3-1.5l-2.6 1.6c-.1-.2-.1-.4-.1-.6l3 .5zm-1.5 9.6l1.5-9.6-3-.5-1.5 9.6 3 .5zm19.5-5.3l-21.3 3.5.5 3 21.3-3.5-.5-3zm-1.7-3.3l.5 4.9 3-.3-.5-4.9-3 .3zm1.9-2.3c-1.2.1-2 1.2-1.9 2.3l3-.3c0 .5-.3.9-.8.9l-.3-2.9zm2.4 1.9c-.1-1.2-1.2-2-2.3-1.9l.3 3c-.5 0-.9-.3-.9-.8l2.9-.3zm1.7 17.7l-1.8-17.7-3 .3 1.8 17.7 3-.3zm-.8 1.8c.5-.4.8-1.1.8-1.9l-3 .3c0-.3.1-.6.3-.7l1.9 2.3zm-.3.3c.2-.1.4-.3.6-.5l-2.4-1.8c.1-.1.1-.2.2-.2l1.6 2.5zm-19.2 11.8l19.2-11.8-1.6-2.6-19.2 11.9 1.6 2.5zm7.2 8.8l-6.8-10.8-2.5 1.6 6.8 10.8 2.5-1.6zm-.7 2.9c1-.6 1.3-1.9.7-3l-2.5 1.6c-.2-.4-.1-.9.3-1.2l1.5 2.6zm-2.9-.7c.6 1 2 1.3 3 .7l-1.6-2.5c.4-.2.9-.1 1.2.3l-2.6 1.5zm-6.8-10.8l6.8 10.8 2.5-1.6-6.8-10.8-2.5 1.6zm-15.3-52.1L86.4 58.8l-2.3 1.9 55.3 68.7 2.4-1.8zm.4.9c-.1-.1-.1-.2-.1-.3l-2.9.6c.1.4.3.9.5 1.3l2.5-1.6zm.4.4c-.2-.1-.3-.2-.4-.4l-2.5 1.6c.4.7 1 1.2 1.8 1.5l1.1-2.7zm14.1 17.2l-13.5-16.8-2.3 1.9 13.5 16.8 2.3-1.9zm-3.1 22.5l3.5-21.3-3-.5-3.5 21.3 3 .5zm-22.4-5.5l20.4 6.7.9-2.9-20.4-6.7-.9 2.9zM83.9 60.4l46.4 101.9 2.7-1.2L86.6 59.2l-2.7 1.2zm30.4 43.9c-.4.2-.9.1-1.2-.3l2.6-1.6c-.6-1-1.9-1.3-3-.7l1.6 2.6zm-2.4 1.4l2.4-1.5-1.6-2.6-2.4 1.5 1.6 2.6zm.3-1.1c.2.4.1.9-.3 1.2l-1.6-2.6c-1 .6-1.3 1.9-.7 3l2.6-1.6zm-1.2-.3c.4-.2.9-.1 1.2.3l-2.6 1.6c.6 1 1.9 1.3 3 .7l-1.6-2.6zm2.4-1.5l-2.4 1.5 1.6 2.6 2.4-1.5-1.6-2.6zm-.2 1.2c-.2-.4-.1-.9.3-1.2l1.6 2.6c1-.6 1.3-1.9.7-3l-2.6 1.6zm18.5 28.5c.2.4.1.9-.3 1.2l-1.6-2.5c-1 .6-1.3 2-.7 3l2.6-1.7zm12.1 19.3l-12-19.3-2.5 1.6 12 19.3 2.5-1.6zm-1.2-.3c.4-.2.9-.1 1.2.3l-2.5 1.6c.6 1 1.9 1.3 3 .7l-1.7-2.6zm-.3 1.2c-.2-.4-.1-.9.3-1.2l1.6 2.5c1-.6 1.3-1.9.7-3l-2.6 1.7zm-12-19.3l12 19.3 2.5-1.6-12-19.3-2.5 1.6zm1.1.3c-.4.2-.9.1-1.2-.3l2.5-1.6c-.6-1-2-1.3-3-.7l1.7 2.6zm60.9 20.1c.3.4.2.9-.1 1.2l-1.9-2.3c-.9.7-1.1 2.1-.3 3l2.3-1.9zm21.3 26.5l-21.3-26.5-2.3 1.9 21.3 26.5 2.3-1.9zm-1.2-.1c.4-.3.9-.2 1.2.1l-2.3 1.9c.7.9 2.1 1.1 3 .3l-1.9-2.3zm-.1 1.2c-.3-.4-.2-.9.1-1.2l1.9 2.3c.9-.7 1.1-2.1.3-3l-2.3 1.9zM191 154.8l21.3 26.5 2.3-1.9-21.3-26.5-2.3 1.9zm1.2.2c-.4.3-.9.2-1.2-.1l2.3-1.9c-.7-.9-2.1-1.1-3-.3l1.9 2.3zm-66.9 43.9c-1 .6-1.3 2-.7 3l2.5-1.6c.2.4.1.9-.3 1.2l-1.5-2.6zm3 .7c-.6-1-2-1.3-3-.7l1.6 2.5c-.4.2-.9.1-1.2-.3l2.6-1.5zm18 28.9l-18-28.9-2.5 1.6 18 28.9 2.5-1.6zm-.7 3c1-.6 1.3-1.9.7-3l-2.5 1.6c-.2-.4-.1-.9.3-1.2l1.5 2.6zm-3-.7c.6 1 1.9 1.3 3 .7L144 229c.4-.2.9-.1 1.2.3l-2.6 1.5zm-18-28.9l18 28.9 2.5-1.6-18-28.9-2.5 1.6z" mask="url(#path-2-outside-1_1_)" fill="#d81690"/><defs><filter id="Adobe_OpacityMaskFilter_1_" filterUnits="userSpaceOnUse" x="80.4" y="53.2" width="134.7" height="178.6"><feColorMatrix values="1 0 0 0 0 0 1 0 0 0 0 0 1 0 0 0 0 0 1 0"/></filter></defs><mask maskUnits="userSpaceOnUse" x="80.4" y="53.2" width="134.7" height="178.6" id="path-2-outside-1_2_"><path fill="#fff" filter="url(#Adobe_OpacityMaskFilter_1_)" d="M42.7 52.1h195.4V246H42.7z"/><path class="st3" d="M152.4 169.8c.3.1.7-.1.8-.4v-.3L155 158l21.6-3.6 1.1 11.1-19 11.6-1.9-3c-.2-.3-.6-.4-.9-.2-.3.2-.4.6-.2.9l1.9 3-19.6 12-9.3-6.2 13.2-17.2 10.5 3.4zm6 9.1l-19.6 12c-.1.1-.3.1-.5.1-.2.2-.5.2-.8 0l-10-6.7s-.1 0-.1-.1l-5-3.3c-.3-.2-.4-.6-.2-.9.2-.3.6-.4.9-.2l4.6 3 13-16.9-9.7-3.2c-.3-.1-.4-.3-.4-.6l-32.5-71-9.3 74.3 11.1 15.8 14.6-42.8c.8-2.3 4-2.4 4.9-.1.3.6.2 1.4 0 2l-18.3 41.8c-.1.1-.1.2-.2.3l8 11.3c.2.3.1.7-.2.9-.3.2-.7.1-.9-.2l-20-28.5c-.1-.1-.1-.1-.1-.2s-.1-.2-.1-.3L97 89.5c0-.2.1-.3.2-.4L82 55.7c-.1-.3 0-.7.3-.9.3-.1.5-.1.7.1l.1.1 57.8 71.8c.4-.7 1.2-1.3 2.2-1.2l46.7 2.4-10.8-17.6c-.1-.1-.1-.2-.1-.3l-70.7-24.5c-.3-.1-.5-.5-.4-.8.1-.3.5-.5.8-.4l70.8 24.6c.3.1.4.3.4.6.1 0 .1.1.2.2l18.6 30.5c.2.3.1.7-.2.9-.3.2-.7.1-.9-.2l-7.2-11.8c-.1.1-.3.2-.5.2l-46.2 1.1 12.8 15.9c.1.1.1.2.1.3.1.1.1.3.1.4l-1.5 9.6 21.3-3.5-.5-4.9c0-.4.2-.7.6-.7.4 0 .7.2.7.6l1.8 17.7c0 .2-.1.4-.2.6 0 .1-.1.1-.2.2l-19.2 11.8 6.8 10.8c.2.3.1.7-.2.9-.3.2-.7.1-.9-.2l-6.7-11.1zM85.3 59.8l55.3 68.7c.1.3.2.5.3.8.3.4.6.8 1.1.9l13.5 16.8-3.5 21.3-20.4-6.7L85.3 59.8zm29.1 43.4c-.2-.3-.6-.4-.9-.2l-2.4 1.5c-.3.2-.4.6-.2.9.2.3.6.4.9.2l2.4-1.5c.3-.2.4-.6.2-.9zm16.3 29.2c-.3.2-.4.6-.2.9l12 19.3c.2.3.6.4.9.2.3-.2.4-.6.2-.9l-12-19.3c-.2-.3-.6-.4-.9-.2zm60.5 21.4c-.3.2-.3.6-.1.9l21.3 26.5c.2.3.6.3.9.1.3-.2.3-.6.1-.9l-21.3-26.5c-.2-.3-.6-.3-.9-.1zm-65.3 47.3c-.2-.3-.1-.7.2-.9.3-.2.7-.1.9.2l18 28.9c.2.3.1.7-.2.9-.3.2-.7.1-.9-.2l-18-28.9z"/></mask><radialGradient id="SVGID_2_" cx="-9.905" cy="273.498" r="1" gradientTransform="matrix(47.2635 127.1392 166.3842 -61.8526 -44830.527 18284.54)" gradientUnits="userSpaceOnUse"><stop offset="0" stop-color="#d01e8d"/><stop offset="1" stop-color="#621461"/></radialGradient><path d="M152.4 169.8l-.5 1.4.5-1.4zm0 0l.5-1.4h-.1l-.4 1.4zm.9-.4l-1.4-.5 1.4.5zm0-.3l-1.5-.2v.3l.1.3 1.4-.4zm1.8-11.1l-.2-1.5-1.1.2-.2 1.1 1.5.2zm21.6-3.6l1.5-.1-.2-1.6-1.6.3.3 1.4zm1.1 11.1l.8 1.3.8-.5-.1-.9-1.5.1zm-19 11.6l-1.3.8.8 1.3 1.3-.8-.8-1.3zm-1.9-3l-1.3.8 1.3-.8zm-.9-.2l.8 1.3-.8-1.3zm-.2.9l-1.3.8 1.3-.8zm1.9 3l.8 1.3 1.3-.8-.8-1.3-1.3.8zm-19.6 12l-.8-1.3.8 1.3zm0 0l-.8 1.2.8.5.8-.5-.8-1.2zm-9.3-6.2l-1.2-.9-1 1.3 1.3.9.9-1.3zm13.2-17.2l.5-1.4-1-.3-.6.8 1.1.9zm10.4 3.4l.6-1.4-.6 1.4zm0 0l-.5 1.4.5-1.4zm-13.6 21.1l-.8-1.3.8 1.3zm19.6-12l1.3-.8-.8-1.3-1.3.8.8 1.3zM138.3 191l.3-1.5-.7-.1-.5.4.9 1.2zm-.7 0l-.8 1.2.8-1.2zm-10-6.7l.8-1.2-.1-.1h-.1l-.6 1.3zm-.1 0l-.9 1.2.9-1.2zm-.1-.1l1-1.1-.1-.1-.1-.1-.8 1.3zm-5-3.3l-.8 1.2.8-1.2zm-.1-.9l1.2.8-1.2-.8zm.9-.2l.8-1.2-.8 1.2zm4.5 3.1l-.8 1.2 1.2.8.9-1.1-1.3-.9zm13-16.9l1.2.9 1.3-1.7-2-.7-.5 1.5zm-9.7-3.2l.5-1.4-.5 1.4zm-.5-.6l1.5-.1v-.3l-.1-.2-1.4.6zM98.1 91.1l1.4-.6-2.2-4.8-.7 5.3 1.5.1zm-9.2 74.3l-1.5-.2-.1.6.3.5 1.3-.9zm11.1 15.8l-1.2.9 1.7 2.4 1-2.8-1.5-.5zm14.5-42.8l1.4.5-1.4-.5zm4.9-.1l1.4-.6-1.4.6zm0 2l1.4.6-1.4-.6zm-18.3 41.8l1.4.6-1.4-.6zm-.3.3l-.9-1.2-1.2.9.9 1.2 1.2-.9zm8 11.3l-1.2.9 1.2-.9zm-.2.9l.9 1.2-.9-1.2zm-.9-.1l-1.2.9 1.2-.9zm-20-28.5l1.2-.9-1.2.9zm-.1-.3l1.5-.3v-.1l-.1-.1-1.4.5zm-.1-.3l1.5.2-1.5-.2zM97 89.5l-1.5-.2 1.5.2zm.2-.4l1 1.1.8-.7-.5-1-1.3.6zM82 55.7l-1.4.6 1.4-.6zm.3-.9l.6 1.4-.6-1.4zm.7.1L82 56l1-1.1zm.1.1l-1.2.9 1.2-.9zm57.8 71.8l-1.2.9 1.4 1.7 1.1-1.9-1.3-.7zm2.2-1.2l.1-1.5-.1 1.5zm46.8 2.4l-.1 1.5 2.8.1-1.5-2.4-1.2.8zm-10.8-17.6l1.3-.8-1.3.8zm-.1-.2l1.5-.1-.1-1-.9-.3-.5 1.4zm-70.6-24.6l.5-1.4-.5 1.4zm-.4-.8l1.4.5-1.4-.5zm.8-.4l.5-1.4-.5 1.4zm70.8 24.6l.5-1.4-.5 1.4zm.5.6l-1.5.1v.7l.5.4 1-1.2zm.1.2l1.3-.8-1.3.8zm18.6 30.4l-1.3.8 1.3-.8zm-1.1.7l-1.3.8 1.3-.8zm-7.2-11.8l1.3-.8-1.1-1.8-1.3 1.6 1.1 1zm-.5.3v-1.5 1.5zm-46.2 1v-1.5l-3 .1 1.9 2.4 1.1-1zm12.8 15.9l-1.2.9 1.2-.9zm.1.3l-1.5.2v.3l.2.3 1.3-.8zm.1.5l1.5.2-1.5-.2zm-1.5 9.5l-1.5-.2-.3 2.1 2.1-.3-.3-1.6zm21.3-3.5l.2 1.5 1.4-.2-.1-1.4-1.5.1zm-.5-4.9l-1.5.1 1.5-.1zm.6-.7l-.1-1.5.1 1.5zm.7.6l-1.5.1 1.5-.1zm1.7 17.6l-1.5.1 1.5-.1zm-.2.6l-1-1.2-.1.1-.1.1 1.2 1zm-.2.1l-.8-1.3.8 1.3zm-19.2 11.8l-.8-1.3-1.3.8.8 1.3 1.3-.8zm6.7 10.9l1.3-.8-1.3.8zm-.2.9l.8 1.3-.8-1.3zm-.9-.2l1.3-.8-1.3.8zm-24.5-61.3l1.5-.3-.1-.4-.2-.3-1.2 1zM85.3 59.8l1.2-.9-2.5 1.6 1.3-.7zm55.6 69.5l-1.3.8 1.3-.8zm1.1 1l1.2-.9-.2-.4-.3-.1-.7 1.4zm13.5 16.7l1.5.2.1-.7-.4-.5-1.2 1zm-3.4 21.3l-.5 1.4 1.7.5.3-1.7-1.5-.2zm-20.4-6.6l-1.4.6.3.6.6.2.5-1.4zM113.5 103l-.8-1.3.8 1.3zm-2.4 1.5l-.8-1.3.8 1.3zm-.2.9l1.3-.8-1.3.8zm.9.2l-.8-1.3.8 1.3zm2.4-1.5l.8 1.3-.8-1.3zm16.2 29.2l-1.3.8 1.3-.8zm.3-.9l.8 1.3-.8-1.3zm11.8 20.2l1.3-.8-1.3.8zm.9.2l-.8-1.3.8 1.3zm.2-.9l1.3-.8-1.3.8zm-12.1-19.3l-1.3.8 1.3-.8zm59.6 22.1l1.2-.9-1.2.9zm.1-.9l.9 1.2-.9-1.2zm21.3 27.4l-1.2.9 1.2-.9zm1-.8l-1.2.9 1.2-.9zm-21.3-26.5l1.2-.9-1.2.9zm-66.3 47.2l-1.3.8 1.3-.8zm1.1-.7l-1.3.8 1.3-.8zm18 28.9l-1.3.8 1.3-.8zm-.2.9l.8 1.3-.8-1.3zm-.9-.2l-1.3.8 1.3-.8zm9-61.6l-.9 2.9.9-2.9zm-1.1.5c.1-.4.6-.7 1.1-.5l-.9 2.9c1.1.4 2.3-.2 2.7-1.4l-2.9-1zm0 .5v-.4l2.9.9c.1-.4.1-.8.1-1.1l-3 .6zm1.8-11.7l-1.8 11.1 3 .5 1.8-11.1-3-.5zm22.8-4.8l-21.6 3.6.5 3 21.6-3.6-.5-3zm2.9 12.4l-1.1-11.1-3 .3 1.1 11.1 3-.3zm-19.7 13.1l19-11.6-1.6-2.6-19 11.6 1.6 2.6zm-4-3.5l1.9 3 2.5-1.6-1.9-3-2.5 1.6zm1.2.3c-.4.2-.9.1-1.2-.3l2.5-1.6c-.6-1-1.9-1.3-3-.7l1.7 2.6zm.3-1.2c.2.4.1.9-.3 1.2l-1.6-2.5c-1 .6-1.3 2-.7 3l2.6-1.7zm1.9 3l-1.9-3-2.5 1.6 1.9 3 2.5-1.6zm-20.1 14.1l19.6-12-1.6-2.6-19.6 12 1.6 2.6zm0 0l-1.6-2.5 1.6 2.5zm-10.9-6.3l9.3 6.2 1.7-2.5-9.3-6.2-1.7 2.5zm12.8-19.3l-13.2 17.2 2.4 1.8 13.2-17.2-2.4-1.8zm12 2.8l-10.4-3.4-.9 2.9 10.4 3.4.9-2.9zm.1.1l-1.1 2.8c.1 0 .1 0 .2.1l.9-2.9zm-.1-.1c0 .1 0 .1 0 0l-.9 2.9h.1l.8-2.9zm-13.2 23.9l19.6-12-1.6-2.6-19.6 12 1.6 2.6zm-1.5.3c.5.1 1.1 0 1.5-.3l-1.6-2.6c.2-.1.4-.1.6-.1l-.5 3zm-1.3-.2c.8.5 1.8.5 2.5-.1l-1.8-2.4c.3-.2.7-.2 1 0l-1.7 2.5zm-10-6.7l10 6.7 1.7-2.5-10-6.7-1.7 2.5zm-.2-.1c.1.1.3.2.4.2l1.3-2.7c.1 0 .1.1.2.1l-1.9 2.4zm-.2-.2l.1.1 1.8-2.4h.1l-2 2.3zm-4.8-3.1l5 3.3 1.7-2.5-5-3.3-1.7 2.5zm-.6-3c-.7 1-.4 2.3.6 3l1.7-2.5c.4.3.5.8.2 1.2l-2.5-1.7zm3-.6c-1-.7-2.3-.4-3 .6l2.5 1.7c-.3.4-.8.5-1.2.2l1.7-2.5zm4.6 3l-4.6-3-1.7 2.5 4.6 3 1.7-2.5zm10.9-16.6l-13 16.9 2.4 1.8 13-16.9-2.4-1.8zm-9-.8l9.7 3.2.9-2.9-9.7-3.2-.9 2.9zm-1.5-1.8c.1.8.6 1.6 1.5 1.8l.9-2.9c.3.1.6.4.6.7l-3 .4zM96.8 91.7l32.4 71.1 2.7-1.2-32.4-71.1-2.7 1.2zm-6.5 73.8l9.3-74.3-3-.4-9.3 74.3 3 .4zm-2.7.7L98.7 182l2.5-1.7-11.1-15.8-2.5 1.7zm13.8 15.4l14.6-42.8-2.8-1-14.6 42.8 2.8 1zm14.5-42.7c.3-1 1.7-1 2.1-.1l2.8-1.1c-1.4-3.5-6.5-3.4-7.7.2l2.8 1zm2.1-.1c.1.3.1.6 0 .9l2.7 1.2c.4-1 .5-2.2.1-3.2l-2.8 1.1zm0 .9l-18.3 41.8 2.7 1.2 18.3-41.8-2.7-1.2zm-18.3 41.8c.1-.1.2-.3.3-.3l1.7 2.5c.3-.2.6-.5.7-.9l-2.7-1.3zm-.1 1.7l8 11.3 2.5-1.7-8-11.3-2.5 1.7zm8 11.4c-.3-.4-.2-.9.2-1.2l1.7 2.5c1-.7 1.2-2 .5-3l-2.4 1.7zm.2-1.2c.4-.3.9-.2 1.2.2l-2.5 1.7c.7 1 2 1.2 3 .5l-1.7-2.4zm1.2.2l-20-28.5-2.5 1.7 20 28.5 2.5-1.7zm-20.1-28.5c.1.1.1.2.1.3l-2.9.7c.1.3.2.5.3.8l2.5-1.8zm-2.8.1c-.1.4 0 .8.2 1.1l2.7-1.2c.1.1.1.3.1.5l-3-.4zm9.4-75.9L86 165.2l3 .4 9.5-75.9-3-.4zm.7-1.3c-.4.3-.6.8-.7 1.3l3 .4c0 .2-.1.4-.3.5l-2-2.2zM80.6 56.3l15.2 33.5 2.7-1.2L83.3 55l-2.7 1.3zm1.1-2.9c-1.1.5-1.6 1.8-1.1 2.8l2.7-1.2c.2.4 0 .9-.4 1.1l-1.2-2.7zm2.4.5c-.6-.6-1.6-.8-2.4-.4l1.2 2.7c-.3.2-.7.1-1-.2l2.2-2.1zm.2.2c-.1-.1-.1-.2-.2-.2L82 56l-.1-.1 2.4-1.8zm57.8 71.8L84.3 54.1 82 56l57.8 71.8 2.3-1.9zm1.1-1.8c-1.6-.1-2.9.8-3.6 2l2.6 1.5c.2-.3.5-.5.9-.5l.1-3zm46.7 2.4l-46.7-2.4-.2 3 46.7 2.4.2-3zm-12.1-15.3l10.8 17.6 2.6-1.6-10.8-17.6-2.6 1.6zm-.3-.9c0 .3.1.6.3.9l2.6-1.6c.1.1.1.2.1.4l-3 .3zM107.9 87l70.7 24.5 1-2.8-70.7-24.5-1 2.8zm-1.4-2.7c-.4 1.1.2 2.3 1.3 2.7l1-2.8c.4.2.7.6.5 1.1l-2.8-1zm2.8-1.3c-1.1-.4-2.3.2-2.7 1.3l2.8 1c-.2.4-.6.7-1.1.5l1-2.8zm70.8 24.6L109.3 83l-1 2.8 70.8 24.6 1-2.8zm1.5 1.9c0-.9-.6-1.6-1.4-1.9l-1 2.8c-.3-.1-.6-.4-.6-.8l3-.1zm-.1-.5c-.1-.2-.3-.4-.5-.6l-1.8 2.4c-.1-.1-.2-.1-.2-.2l2.5-1.6zm18.6 30.4L181.5 109l-2.6 1.6 18.6 30.5 2.6-1.7zm-.7 3c1-.6 1.3-1.9.7-3l-2.6 1.6c-.2-.4-.1-.9.3-1.2l1.6 2.6zm-3-.7c.6 1 1.9 1.3 3 .7l-1.6-2.6c.4-.2.9-.1 1.2.3l-2.6 1.6zm-7.1-11.8l7.2 11.8 2.6-1.6-7.2-11.8-2.6 1.6zm.8 1c.6 0 1.2-.3 1.6-.8l-2.3-1.9c.1-.2.4-.3.6-.3l.1 3zm-46.2 1l46.2-1.1-.1-3-46.2 1.1.1 3zm13.9 13.5L145 129.5l-2.3 1.9 12.8 15.9 2.3-1.9zm.4 1c0-.4-.2-.8-.5-1.1l-2.3 1.9c-.1-.1-.2-.3-.2-.4l3-.4zm.1.9c.1-.5 0-1-.3-1.5l-2.6 1.6c-.1-.2-.1-.4-.1-.6l3 .5zm-1.5 9.6l1.5-9.6-3-.5-1.5 9.6 3 .5zm19.5-5.3l-21.3 3.5.5 3 21.3-3.5-.5-3zm-1.7-3.3l.5 4.9 3-.3-.5-4.9-3 .3zm1.9-2.3c-1.2.1-2 1.2-1.9 2.3l3-.3c0 .5-.3.9-.8.9l-.3-2.9zm2.4 1.9c-.1-1.2-1.2-2-2.3-1.9l.3 3c-.5 0-.9-.3-.9-.8l2.9-.3zm1.7 17.7l-1.8-17.7-3 .3 1.8 17.7 3-.3zm-.8 1.8c.5-.4.8-1.1.8-1.9l-3 .3c0-.3.1-.6.3-.7l1.9 2.3zm-.3.3c.2-.1.4-.3.6-.5l-2.4-1.8c.1-.1.1-.2.2-.2l1.6 2.5zm-19.2 11.8l19.2-11.8-1.6-2.6-19.2 11.9 1.6 2.5zm7.2 8.8l-6.8-10.8-2.5 1.6 6.8 10.8 2.5-1.6zm-.7 2.9c1-.6 1.3-1.9.7-3l-2.5 1.6c-.2-.4-.1-.9.3-1.2l1.5 2.6zm-2.9-.7c.6 1 2 1.3 3 .7l-1.6-2.5c.4-.2.9-.1 1.2.3l-2.6 1.5zm-6.8-10.8l6.8 10.8 2.5-1.6-6.8-10.8-2.5 1.6zm-15.3-52.1L86.4 58.8l-2.3 1.9 55.3 68.7 2.4-1.8zm.4.9c-.1-.1-.1-.2-.1-.3l-2.9.6c.1.4.3.9.5 1.3l2.5-1.6zm.4.4c-.2-.1-.3-.2-.4-.4l-2.5 1.6c.4.7 1 1.2 1.8 1.5l1.1-2.7zm14.1 17.2l-13.5-16.8-2.3 1.9 13.5 16.8 2.3-1.9zm-3.1 22.5l3.5-21.3-3-.5-3.5 21.3 3 .5zm-22.4-5.5l20.4 6.7.9-2.9-20.4-6.7-.9 2.9zM83.9 60.4l46.4 101.9 2.7-1.2L86.6 59.2l-2.7 1.2zm30.4 43.9c-.4.2-.9.1-1.2-.3l2.6-1.6c-.6-1-1.9-1.3-3-.7l1.6 2.6zm-2.4 1.4l2.4-1.5-1.6-2.6-2.4 1.5 1.6 2.6zm.3-1.1c.2.4.1.9-.3 1.2l-1.6-2.6c-1 .6-1.3 1.9-.7 3l2.6-1.6zm-1.2-.3c.4-.2.9-.1 1.2.3l-2.6 1.6c.6 1 1.9 1.3 3 .7l-1.6-2.6zm2.4-1.5l-2.4 1.5 1.6 2.6 2.4-1.5-1.6-2.6zm-.2 1.2c-.2-.4-.1-.9.3-1.2l1.6 2.6c1-.6 1.3-1.9.7-3l-2.6 1.6zm18.5 28.5c.2.4.1.9-.3 1.2l-1.6-2.5c-1 .6-1.3 2-.7 3l2.6-1.7zm12.1 19.3l-12-19.3-2.5 1.6 12 19.3 2.5-1.6zm-1.2-.3c.4-.2.9-.1 1.2.3l-2.5 1.6c.6 1 1.9 1.3 3 .7l-1.7-2.6zm-.3 1.2c-.2-.4-.1-.9.3-1.2l1.6 2.5c1-.6 1.3-1.9.7-3l-2.6 1.7zm-12-19.3l12 19.3 2.5-1.6-12-19.3-2.5 1.6zm1.1.3c-.4.2-.9.1-1.2-.3l2.5-1.6c-.6-1-2-1.3-3-.7l1.7 2.6zm60.9 20.1c.3.4.2.9-.1 1.2l-1.9-2.3c-.9.7-1.1 2.1-.3 3l2.3-1.9zm21.3 26.5l-21.3-26.5-2.3 1.9 21.3 26.5 2.3-1.9zm-1.2-.1c.4-.3.9-.2 1.2.1l-2.3 1.9c.7.9 2.1 1.1 3 .3l-1.9-2.3zm-.1 1.2c-.3-.4-.2-.9.1-1.2l1.9 2.3c.9-.7 1.1-2.1.3-3l-2.3 1.9zM191 154.8l21.3 26.5 2.3-1.9-21.3-26.5-2.3 1.9zm1.2.2c-.4.3-.9.2-1.2-.1l2.3-1.9c-.7-.9-2.1-1.1-3-.3l1.9 2.3zm-66.9 43.9c-1 .6-1.3 2-.7 3l2.5-1.6c.2.4.1.9-.3 1.2l-1.5-2.6zm3 .7c-.6-1-2-1.3-3-.7l1.6 2.5c-.4.2-.9.1-1.2-.3l2.6-1.5zm18 28.9l-18-28.9-2.5 1.6 18 28.9 2.5-1.6zm-.7 3c1-.6 1.3-1.9.7-3l-2.5 1.6c-.2-.4-.1-.9.3-1.2l1.5 2.6zm-3-.7c.6 1 1.9 1.3 3 .7L144 229c.4-.2.9-.1 1.2.3l-2.6 1.5zm-18-28.9l18 28.9 2.5-1.6-18-28.9-2.5 1.6z" mask="url(#path-2-outside-1_2_)" fill="url(#SVGID_2_)"/></svg>