<svg version="1.1" id="圖層_1" xmlns="http://www.w3.org/2000/svg" xmlns:xlink="http://www.w3.org/1999/xlink" x="0" y="0" viewBox="0 0 262 262" xml:space="preserve"><style>.st1{fill:#d81690}</style><defs><path id="SVGID_1_" transform="rotate(-35.738 126.102 117.613)" d="M47.1 52.6h158v130h-158z"/></defs><clipPath id="SVGID_2_"><use xlink:href="#SVGID_1_" overflow="visible"/></clipPath><g clip-path="url(#SVGID_2_)"><path class="st1" d="M206.6 139.7c-1.2.5-2.4 1.1-3.7 1.5-9.1 2.9-17.4 1.3-24.3-5.3-6.8-6.5-8.7-14.6-6.4-23.7.1-.3.2-.6.4-1 2.6 1.5 5.2 2.9 7.9 4.4-.6 3.3-.3 6.5 1.1 9.5 3.3 7.3 12.2 10.6 19.7 7.3 7.3-3.3 10.7-12.3 7.3-19.6-4.2-9-15.5-11.6-23.2-5.4-.3.3-1.1.5-1.4.3-2.4-1.3-4.7-2.6-7.2-4 3.9-4.5 8.5-7.3 14.2-8.2 8.7-1.3 16 1.3 21.9 7.9.3.3.7.6 1 .9l.7 1c.2.5.4.9.7 1.4 5.2 8.8 4.4 19.5-2.1 27.3-.7.9-1.6 1.8-2.3 2.6l-4.3 3.1z"/><radialGradient id="SVGID_3_" cx="-9.857" cy="273.704" r="1" gradientTransform="matrix(-14.3934 38.5707 50.2349 18.7461 -13672.992 -4628.174)" gradientUnits="userSpaceOnUse"><stop offset="0" stop-color="#d01e8d"/><stop offset="1" stop-color="#621461"/></radialGradient><path d="M206.6 139.7c-1.2.5-2.4 1.1-3.7 1.5-9.1 2.9-17.4 1.3-24.3-5.3-6.8-6.5-8.7-14.6-6.4-23.7.1-.3.2-.6.4-1 2.6 1.5 5.2 2.9 7.9 4.4-.6 3.3-.3 6.5 1.1 9.5 3.3 7.3 12.2 10.6 19.7 7.3 7.3-3.3 10.7-12.3 7.3-19.6-4.2-9-15.5-11.6-23.2-5.4-.3.3-1.1.5-1.4.3-2.4-1.3-4.7-2.6-7.2-4 3.9-4.5 8.5-7.3 14.2-8.2 8.7-1.3 16 1.3 21.9 7.9.3.3.7.6 1 .9l.7 1c.2.5.4.9.7 1.4 5.2 8.8 4.4 19.5-2.1 27.3-.7.9-1.6 1.8-2.3 2.6l-4.3 3.1z" fill="url(#SVGID_3_)"/><path class="st1" d="M116.9 204.3c-1.1.4-2.1.9-3.3 1.3-11.8 4.4-24.7-1-30-12.6-5-10.9-.6-24.3 10.1-30.3 8.7-4.9 19.8-3.7 27.2 2.9.1.1.3.3.5.6-2.3 1.7-4.6 3.4-6.9 4.9-.3.2-1.1-.2-1.6-.5-5.4-3-10.8-3-15.9.4-4.9 3.2-7.1 8-6.5 13.9.8 8.5 8.7 14.5 17.2 13.1 8.3-1.3 13.9-9.5 12-17.7-.3-1.3 0-1.9 1-2.6 2-1.3 3.9-2.7 5.9-4.2.3.8.7 1.4.9 2 2.9 9.4 1.1 17.7-5.7 24.8-.2.2-.3.5-.5.7l-4.4 3.3z"/><radialGradient id="SVGID_4_" cx="-9.854" cy="273.705" r="1" gradientTransform="matrix(-14.0288 38.3004 50.1287 18.3614 -13730.444 -4460.776)" gradientUnits="userSpaceOnUse"><stop offset="0" stop-color="#d01e8d"/><stop offset="1" stop-color="#621461"/></radialGradient><path d="M116.9 204.3c-1.1.4-2.1.9-3.3 1.3-11.8 4.4-24.7-1-30-12.6-5-10.9-.6-24.3 10.1-30.3 8.7-4.9 19.8-3.7 27.2 2.9.1.1.3.3.5.6-2.3 1.7-4.6 3.4-6.9 4.9-.3.2-1.1-.2-1.6-.5-5.4-3-10.8-3-15.9.4-4.9 3.2-7.1 8-6.5 13.9.8 8.5 8.7 14.5 17.2 13.1 8.3-1.3 13.9-9.5 12-17.7-.3-1.3 0-1.9 1-2.6 2-1.3 3.9-2.7 5.9-4.2.3.8.7 1.4.9 2 2.9 9.4 1.1 17.7-5.7 24.8-.2.2-.3.5-.5.7l-4.4 3.3z" fill="url(#SVGID_4_)"/><path d="M210.9 136.7c.8-.9 1.6-1.7 2.3-2.6 6.4-7.8 7.2-18.5 2.1-27.3-.2-.4-.5-.9-.7-1.4l13.6 18.8-17.3 12.5z" fill="#fff"/><path class="st1" d="M121.5 115c-.9-3.2-.9-3.2 1.6-5 6.9-5 13.9-10 20.8-15l1.7-1.2c-2.9-1.6-5.4-3-8.1-4.5l-1.2 1.2c-1-1.1-2-2.1-3.1-3.3.6-.7 1.3-1.7 2.1-2.5 1-1 2.1-.7 3.2 0 5.3 3 10.7 6 16 9 14.1 7.9 28.1 15.8 42.1 23.7.4.2.7.4 1.2.8-.7 1.3-1.4 2.6-2.2 3.9-10.6-6-21.2-11.9-31.8-17.9 0 .4-.1.6 0 .7 1.1 2.5-.2 3.8-2.1 5.2-6 4.1-11.9 8.5-17.8 12.8-.7.5-1.6.9-.3 1.9l21-15.1c.7 1.3.7 2.2-.6 3.1-3.8 2.6-7.5 5.4-11.3 8.1-.3.2-.6.3-.8.5-.4.5-.6 1-.9 1.4.6-.1 1.2-.1 1.6-.4 3.8-2.7 7.5-5.4 11.3-8.1l1.5-1.1c.2.7.3 1.2.4 1.7 1.5 7.6 2.9 15.2 4.4 22.8.2 1.1 0 1.8-.9 2.4-19.8 14.2-39.6 28.4-59.3 42.6-.4.3-.8.5-1.2.8l-2.5-3.5 20-14.4c-2.2-1.8-4.1-3.6-6.3-5.1-14.4-9.4-33.9-3.1-40 12.9-1 2.8-3 4.1-5.2 5.6l-3.3-4.6c.8-.6 1.5-1.2 2.4-1.7 1.2-.7 1.6-1.6 1.5-3-.3-3.4-.4-6.9-.6-10.3-.1-.9.2-1.5 1-2 7.5-5.4 15-10.8 22.6-16.2.7-.5 1.5-.7 2.2-1 5.1-1.9 10.1-3.7 15.2-5.6.5-.2 1-.4 1.7-.5.1.6.2 1.1.3 1.6 1.3 6.8 2.5 13.6 3.8 20.3.7 3.5 3.4 6 6.8 6.5 3.3.5 6.7-1.1 8.3-4.1 1-1.7 1.3-3.6.9-5.5-1.9-10.4-3.8-20.9-5.7-31.3-1-4.8-4.8-7.2-10.4-6.6z"/><radialGradient id="SVGID_5_" cx="-9.979" cy="273.629" r="1" gradientTransform="matrix(-60.8427 82.7819 68.3646 50.2464 -19136.48 -12799.55)" gradientUnits="userSpaceOnUse"><stop offset="0" stop-color="#d01e8d"/><stop offset="1" stop-color="#621461"/></radialGradient><path d="M121.5 115c-.9-3.2-.9-3.2 1.6-5 6.9-5 13.9-10 20.8-15l1.7-1.2c-2.9-1.6-5.4-3-8.1-4.5l-1.2 1.2c-1-1.1-2-2.1-3.1-3.3.6-.7 1.3-1.7 2.1-2.5 1-1 2.1-.7 3.2 0 5.3 3 10.7 6 16 9 14.1 7.9 28.1 15.8 42.1 23.7.4.2.7.4 1.2.8-.7 1.3-1.4 2.6-2.2 3.9-10.6-6-21.2-11.9-31.8-17.9 0 .4-.1.6 0 .7 1.1 2.5-.2 3.8-2.1 5.2-6 4.1-11.9 8.5-17.8 12.8-.7.5-1.6.9-.3 1.9l21-15.1c.7 1.3.7 2.2-.6 3.1-3.8 2.6-7.5 5.4-11.3 8.1-.3.2-.6.3-.8.5-.4.5-.6 1-.9 1.4.6-.1 1.2-.1 1.6-.4 3.8-2.7 7.5-5.4 11.3-8.1l1.5-1.1c.2.7.3 1.2.4 1.7 1.5 7.6 2.9 15.2 4.4 22.8.2 1.1 0 1.8-.9 2.4-19.8 14.2-39.6 28.4-59.3 42.6-.4.3-.8.5-1.2.8l-2.5-3.5 20-14.4c-2.2-1.8-4.1-3.6-6.3-5.1-14.4-9.4-33.9-3.1-40 12.9-1 2.8-3 4.1-5.2 5.6l-3.3-4.6c.8-.6 1.5-1.2 2.4-1.7 1.2-.7 1.6-1.6 1.5-3-.3-3.4-.4-6.9-.6-10.3-.1-.9.2-1.5 1-2 7.5-5.4 15-10.8 22.6-16.2.7-.5 1.5-.7 2.2-1 5.1-1.9 10.1-3.7 15.2-5.6.5-.2 1-.4 1.7-.5.1.6.2 1.1.3 1.6 1.3 6.8 2.5 13.6 3.8 20.3.7 3.5 3.4 6 6.8 6.5 3.3.5 6.7-1.1 8.3-4.1 1-1.7 1.3-3.6.9-5.5-1.9-10.4-3.8-20.9-5.7-31.3-1-4.8-4.8-7.2-10.4-6.6z" fill="url(#SVGID_5_)"/><path class="st1" d="M93.4 97.2c-1.6.5-3 .8-4.4 1.3-3.2.9-4.8 3.8-3.9 6.8.8 2.9 3.7 4.5 6.8 3.7 1.7-.4 3.4-.9 5.3-1.4.6 3 1 5.9 1.6 8.8.6 2.8 1.4 5.5 2.1 8.5 4.8-1.8 9.3-3.4 13.9-5.1 2.2-.8 4.4-1.7 6.7-2.5 3.9-1.4 7.7.7 8.4 4.8 1.9 10.4 3.8 20.7 5.7 31.1.7 3.6-1.5 6.8-4.9 7.4-3.5.6-6.6-1.6-7.3-5.3-1.4-7.4-2.7-14.9-4.1-22.3-.1-.5-.2-1-.4-1.6-4.9 1.8-9.8 3.6-14.6 5.4-2.2.8-4.4 1.7-6.7 2.3-5.1 1.4-9.1-.2-11.6-4.9-4.8-8.7-7.1-18-6.9-27.9.1-4.8 2.1-8.7 6.7-10.8 2.9-1.3 5.6-.7 7.6 1.7z"/><radialGradient id="SVGID_6_" cx="-9.811" cy="273.619" r="1" gradientTransform="matrix(-2.9106 49.549 68.3315 4.0139 -18588.21 -470.24)" gradientUnits="userSpaceOnUse"><stop offset="0" stop-color="#d01e8d"/><stop offset="1" stop-color="#621461"/></radialGradient><path d="M93.4 97.2c-1.6.5-3 .8-4.4 1.3-3.2.9-4.8 3.8-3.9 6.8.8 2.9 3.7 4.5 6.8 3.7 1.7-.4 3.4-.9 5.3-1.4.6 3 1 5.9 1.6 8.8.6 2.8 1.4 5.5 2.1 8.5 4.8-1.8 9.3-3.4 13.9-5.1 2.2-.8 4.4-1.7 6.7-2.5 3.9-1.4 7.7.7 8.4 4.8 1.9 10.4 3.8 20.7 5.7 31.1.7 3.6-1.5 6.8-4.9 7.4-3.5.6-6.6-1.6-7.3-5.3-1.4-7.4-2.7-14.9-4.1-22.3-.1-.5-.2-1-.4-1.6-4.9 1.8-9.8 3.6-14.6 5.4-2.2.8-4.4 1.7-6.7 2.3-5.1 1.4-9.1-.2-11.6-4.9-4.8-8.7-7.1-18-6.9-27.9.1-4.8 2.1-8.7 6.7-10.8 2.9-1.3 5.6-.7 7.6 1.7z" fill="url(#SVGID_6_)"/><path class="st1" d="M104 67.1l-10 7.1c1.4 1.9 2.6 3.7 4 5.4.2.3.9.4 1.3.4 2.4-.1 4.7-.3 7.2-.5.8 2.2 1.7 4.4 2.6 6.7-2 .2-3.9.4-5.8.6-6.6.6-13.1 1.2-19.7 1.9-1.2.1-1.9-.2-2.5-1.2-1.1-2-2.4-4-3.4-6.1-1.6-3.5-1.1-6.8 1.6-9.7 6-6.5 14.7-8.5 24.7-4.6z"/><radialGradient id="SVGID_7_" cx="-9.782" cy="273.848" r="1" gradientTransform="matrix(-9.4713 24.435 31.4831 12.2033 -8605.615 -3021.649)" gradientUnits="userSpaceOnUse"><stop offset="0" stop-color="#d01e8d"/><stop offset="1" stop-color="#621461"/></radialGradient><path d="M104 67.1l-10 7.1c1.4 1.9 2.6 3.7 4 5.4.2.3.9.4 1.3.4 2.4-.1 4.7-.3 7.2-.5.8 2.2 1.7 4.4 2.6 6.7-2 .2-3.9.4-5.8.6-6.6.6-13.1 1.2-19.7 1.9-1.2.1-1.9-.2-2.5-1.2-1.1-2-2.4-4-3.4-6.1-1.6-3.5-1.1-6.8 1.6-9.7 6-6.5 14.7-8.5 24.7-4.6z" fill="url(#SVGID_7_)"/><path class="st1" d="M134.1 90.1c1.7 2.4.6 5.4-2.4 6.3-7 2-14 3.9-21 5.8-6.4 1.8-12.9 3.6-19.3 5.3-1.9.5-3.6-.2-4.5-1.7-.9-1.5-.8-3.4.5-4.7.6-.6 1.3-1 2.1-1.2 13.4-3.7 26.7-7.4 40.1-11.1 2-.6 3.5-.1 4.5 1.3z"/><radialGradient id="SVGID_8_" cx="-9.943" cy="273.945" r="1" gradientTransform="matrix(-21.4309 28.7833 23.3621 17.3946 -6484.174 -4384.27)" gradientUnits="userSpaceOnUse"><stop offset="0" stop-color="#d01e8d"/><stop offset="1" stop-color="#621461"/></radialGradient><path d="M134.1 90.1c1.7 2.4.6 5.4-2.4 6.3-7 2-14 3.9-21 5.8-6.4 1.8-12.9 3.6-19.3 5.3-1.9.5-3.6-.2-4.5-1.7-.9-1.5-.8-3.4.5-4.7.6-.6 1.3-1 2.1-1.2 13.4-3.7 26.7-7.4 40.1-11.1 2-.6 3.5-.1 4.5 1.3z" fill="url(#SVGID_8_)"/><path class="st1" d="M163.7 82.7c.8 1.8 1.7 3.5 2.3 5.3.7 2 .1 3-1.9 3.9-3.5 1.6-7.5.4-9.7-3-2-3.1-1.5-7.2 1.3-9.8 1.1-1.1 2.3-1.2 3.5-.4 1.6 1.2 3 2.7 4.5 4z"/><radialGradient id="SVGID_9_" cx="-9.29" cy="274.226" r="1" gradientTransform="matrix(-2.1814 10.7973 15.168 3.0645 -4014.133 -651.913)" gradientUnits="userSpaceOnUse"><stop offset="0" stop-color="#d01e8d"/><stop offset="1" stop-color="#621461"/></radialGradient><path d="M163.7 82.7c.8 1.8 1.7 3.5 2.3 5.3.7 2 .1 3-1.9 3.9-3.5 1.6-7.5.4-9.7-3-2-3.1-1.5-7.2 1.3-9.8 1.1-1.1 2.3-1.2 3.5-.4 1.6 1.2 3 2.7 4.5 4z" fill="url(#SVGID_9_)"/><path class="st1" d="M103.5 78.6c-1.4.1-2.7.2-4 .3-.3 0-.8-.2-1-.5-1-1.2-1.9-2.6-2.9-3.9l4-2.9c2.2 1.8 3.4 4.2 3.9 7z"/><radialGradient id="SVGID_10_" cx="-8.475" cy="274.974" r="1" gradientTransform="matrix(-.8777 5.3332 7.5135 1.2366 -1970.198 -217.474)" gradientUnits="userSpaceOnUse"><stop offset="0" stop-color="#d01e8d"/><stop offset="1" stop-color="#621461"/></radialGradient><path d="M103.5 78.6c-1.4.1-2.7.2-4 .3-.3 0-.8-.2-1-.5-1-1.2-1.9-2.6-2.9-3.9l4-2.9c2.2 1.8 3.4 4.2 3.9 7z" fill="url(#SVGID_10_)"/><path class="st1" d="M86 89.6c4.8-.5 9.5-.9 14.3-1.4-3.7 4.1-10.4 4.7-14.3 1.4z"/><radialGradient id="SVGID_11_" cx="-9.679" cy="274.929" r="1" gradientTransform="matrix(-5.1691 8.1606 7.9597 5.0419 -2140.1 -1218.563)" gradientUnits="userSpaceOnUse"><stop offset="0" stop-color="#d01e8d"/><stop offset="1" stop-color="#621461"/></radialGradient><path d="M86 89.6c4.8-.5 9.5-.9 14.3-1.4-3.7 4.1-10.4 4.7-14.3 1.4z" fill="url(#SVGID_11_)"/></g></svg>