<svg xmlns="http://www.w3.org/2000/svg" viewBox="0 0 262 262"><path d="M74 119.5c-6-4.9-10-13.4-10-23C64 81.3 73.9 69 86 69c9.4 0 17.4 7.4 20.6 17.7 7.2-2.9 15.3-4.5 24.3-4.5s17.1 1.6 24.1 4.6c3.1-10.4 11.2-17.9 20.6-17.9 12.2 0 22 12.3 22 27.4 0 9.9-4.2 18.6-10.6 23.5 2.5 5.4 4.5 11.2 6.1 17.2 8.2 31.1-6.6 54.9-62.3 54.9-55.7 0-68.4-23.5-62.3-54.9 1.3-6.1 3.1-12 5.5-17.5zm3.3 2.1c.1.1.2.1.3.2.3-1 .6-1.9.9-2.9C87.8 99 105.8 85.5 131 85.5c32.2 0 50.6 22.2 58.3 51.2 7.7 29-6.2 51.2-58.3 51.2-52.1 0-64-21.9-58.3-51.2 1.1-5.2 2.6-10.3 4.6-15.1zm-1.3-6.3c-3.5-4-5.7-9.8-5.7-16.2 0-12.2 8-22.2 17.8-22.2 6.6 0 12.4 4.5 15.4 11.1-12 5.8-21.3 15.3-27.5 27.3zm82.4-26.9c11.7 5.9 20.5 15.7 26.8 27.8 4-4.1 6.5-10.2 6.5-17.2 0-12.2-8-22.2-17.8-22.2-6.6.1-12.5 4.8-15.5 11.6zm-46.2 60.3c0 4.7-3.1 8.6-6.9 8.6-3.8 0-6.9-3.8-6.9-8.6 0-4.7 3.1-8.6 6.9-8.6 3.9 0 6.9 3.8 6.9 8.6zm-5.3-1.7c0 1.6-1.1 3-2.4 3-1.3 0-2.4-1.3-2.4-3 0-1.6 1.1-3 2.4-3 1.4.1 2.4 1.4 2.4 3zm56.2 1.7c0 4.7-3.1 8.6-6.9 8.6-3.8 0-6.9-3.8-6.9-8.6 0-4.7 3.1-8.6 6.9-8.6 3.9 0 6.9 3.8 6.9 8.6zm-5.3-1.7c0 1.6-1.1 3-2.4 3-1.3 0-2.4-1.3-2.4-3 0-1.6 1.1-3 2.4-3 1.4.1 2.4 1.4 2.4 3zm-20.1 15c0 2.4-3 4.3-6.6 4.3s-6.6-1.9-6.6-4.3 3-4.3 6.6-4.3 6.6 1.9 6.6 4.3zm-34.1 2.9c11.4 0 20.6-9.6 20.6-21.5s-9.2-21.5-20.6-21.5c-11.4 0-20.6 9.6-20.6 21.5s9.2 21.5 20.6 21.5zm1.4-4.2c8.2 0 14.9-7 14.9-15.6s-6.7-15.6-14.9-15.6-14.9 7-14.9 15.6 6.7 15.6 14.9 15.6zm25.3 6.3c.7 2 .7 4.3-1.3 5.5-2.5 1.5-8.5 2-11.7-1.5-2-2.2-3.3-.5-2.3 1s3.5 3 7.5 3.5c2.1.3 4.6-.4 6.5-.9 1-.3 1.8-.5 2.4-.6-.6.2 6.7 3.2 11.1 1 .3-.2.6-.3.9-.4 2.4-1.2 3.6-1.8 4.1-2.6 1-1.5-.2-2-2-1-.2.1-.6.3-.9.6-2.3 1.5-6.8 4.4-11.1.9-2-1.6-2-3.5-1.2-5.5h-2z" fill-rule="evenodd" clip-rule="evenodd" fill="#d81690"/><radialGradient id="a" cx="-10.029" cy="273.561" r="1" gradientTransform="matrix(-96.2388 59.3409 74.6969 121.1431 -21221.299 -32371.307)" gradientUnits="userSpaceOnUse"><stop offset="0" stop-color="#d01e8d"/><stop offset="1" stop-color="#621461"/></radialGradient><path d="M74 119.5c-6-4.9-10-13.4-10-23C64 81.3 73.9 69 86 69c9.4 0 17.4 7.4 20.6 17.7 7.2-2.9 15.3-4.5 24.3-4.5s17.1 1.6 24.1 4.6c3.1-10.4 11.2-17.9 20.6-17.9 12.2 0 22 12.3 22 27.4 0 9.9-4.2 18.6-10.6 23.5 2.5 5.4 4.5 11.2 6.1 17.2 8.2 31.1-6.6 54.9-62.3 54.9-55.7 0-68.4-23.5-62.3-54.9 1.3-6.1 3.1-12 5.5-17.5zm3.3 2.1c.1.1.2.1.3.2.3-1 .6-1.9.9-2.9C87.8 99 105.8 85.5 131 85.5c32.2 0 50.6 22.2 58.3 51.2 7.7 29-6.2 51.2-58.3 51.2-52.1 0-64-21.9-58.3-51.2 1.1-5.2 2.6-10.3 4.6-15.1zm-1.3-6.3c-3.5-4-5.7-9.8-5.7-16.2 0-12.2 8-22.2 17.8-22.2 6.6 0 12.4 4.5 15.4 11.1-12 5.8-21.3 15.3-27.5 27.3zm82.4-26.9c11.7 5.9 20.5 15.7 26.8 27.8 4-4.1 6.5-10.2 6.5-17.2 0-12.2-8-22.2-17.8-22.2-6.6.1-12.5 4.8-15.5 11.6zm-46.2 60.3c0 4.7-3.1 8.6-6.9 8.6-3.8 0-6.9-3.8-6.9-8.6 0-4.7 3.1-8.6 6.9-8.6 3.9 0 6.9 3.8 6.9 8.6zm-5.3-1.7c0 1.6-1.1 3-2.4 3-1.3 0-2.4-1.3-2.4-3 0-1.6 1.1-3 2.4-3 1.4.1 2.4 1.4 2.4 3zm56.2 1.7c0 4.7-3.1 8.6-6.9 8.6-3.8 0-6.9-3.8-6.9-8.6 0-4.7 3.1-8.6 6.9-8.6 3.9 0 6.9 3.8 6.9 8.6zm-5.3-1.7c0 1.6-1.1 3-2.4 3-1.3 0-2.4-1.3-2.4-3 0-1.6 1.1-3 2.4-3 1.4.1 2.4 1.4 2.4 3zm-20.1 15c0 2.4-3 4.3-6.6 4.3s-6.6-1.9-6.6-4.3 3-4.3 6.6-4.3 6.6 1.9 6.6 4.3zm-34.1 2.9c11.4 0 20.6-9.6 20.6-21.5s-9.2-21.5-20.6-21.5c-11.4 0-20.6 9.6-20.6 21.5s9.2 21.5 20.6 21.5zm1.4-4.2c8.2 0 14.9-7 14.9-15.6s-6.7-15.6-14.9-15.6-14.9 7-14.9 15.6 6.7 15.6 14.9 15.6zm25.3 6.3c.7 2 .7 4.3-1.3 5.5-2.5 1.5-8.5 2-11.7-1.5-2-2.2-3.3-.5-2.3 1s3.5 3 7.5 3.5c2.1.3 4.6-.4 6.5-.9 1-.3 1.8-.5 2.4-.6-.6.2 6.7 3.2 11.1 1 .3-.2.6-.3.9-.4 2.4-1.2 3.6-1.8 4.1-2.6 1-1.5-.2-2-2-1-.2.1-.6.3-.9.6-2.3 1.5-6.8 4.4-11.1.9-2-1.6-2-3.5-1.2-5.5h-2z" fill-rule="evenodd" clip-rule="evenodd" fill="url(#a)"/></svg>