<svg xmlns="http://www.w3.org/2000/svg" viewBox="0 0 262 262"><path d="M194.3 157.5c-.6.3-1.2.5-1.7.8-1.1.5-2.3 1-3.6 1.5-4.8-11.5-1.5-20.9 6.4-30.1-14-9.9-23.5-22.2-22.4-40.8-18.1.8-31.1-8.2-41.1-22.7-8.9 7.7-18.4 11-29.8 6.4.5-1.1.8-2.2 1.2-3.3.3-.7.5-1.5.8-2.3 12.5 4.8 20.9-1.8 29.1-11 10.7 18.6 24.2 31.4 48 24.5-7.1 23.7 5.9 37 24.5 48-8.9 8.1-16 16.3-11.4 29zm-60.2-31.1c2.6 2.6 3.8 3.8 6.1 5.9 1.1-1.2 2.1-2.5 3.1-3.8 1.3-1.6 2.6-3.2 4-4.7 4.3-4.3 7.7-4.6 11-1.3 3.3 3.6 2.8 6.6-1.5 11-2.2 2.3-4.5 4.6-6.8 6.9-2.3 2.3-4.6 4.6-6.8 6.9-5.9 6.4-5.1 14.5 1.8 19.6.6.6 1.2 1 2 1.5.6.4 1.4.9 2.3 1.6-2.6 2.2-5.1 4.4-7.6 6.5-5.3 4.6-10.6 9.2-16.1 13.4-6.1 4.6-13 6.9-20.9 4.1-1-.3-2.6.3-3.3 1-1.9 1.2-3.6 2.7-5.4 4.2-.8.7-1.7 1.4-2.5 2.2.8.9 1.4 1.6 2 2.2.9 1 1.6 1.7 2.1 2.4 1-.7 1.9-1.4 2.7-2.1 2.2-1.7 4.1-3.2 5.7-3 12.8 1.5 22.4-4.1 31.1-12 12-11.2 23.7-23 35.2-34.7 5.4-5.4 4.6-13.8-1.5-18.6-1.5-1-3.3-2-5.1-3.1 1.3-11.2-1.3-15.1-13.3-18.9-.5-7.7-5.6-11.7-12.5-13.5 0-1.5 0-2.8-.3-4.1-1.3-8.7-11.5-14.3-18.6-9.4-3.8 2.5-7 5.7-10.3 9-1.3 1.3-2.6 2.7-4 4 1 .9 1.8 1.7 2.6 2.4.8.8 1.5 1.5 2.6 2.4 3.3-3.6 6.4-6.9 9.4-10.2 3.6-3.8 6.9-4.1 10.2-1 3.3 3.1 3.1 6.6-.8 10.5-1.6 1.5-3.2 2.9-4.9 4.3-1.8 1.6-3.7 3.1-5.5 4.9 2.3 2 3.6 3.3 5.6 5.4 1.3-1.4 2.5-2.8 3.6-4.1 1.5-1.8 2.9-3.4 4.5-5.1 3.3-3.6 6.9-3.6 9.9-.8 3.3 3.1 3.3 6.6-.5 10.2-2.7 2.8-6 5.4-9.3 7.9zm34.9 16.5c.4.5.7 1 1.1 1.3 0 5.4-14 19.4-17.6 18.9-2.3-.5-5.1-2.3-6.1-4.3-.8-1.5-.5-4.8.8-6.4 3.6-4.3 7.9-8.7 12.2-12.2 1.5-1 4.6-1.3 6.4-.5 1.3.7 2.3 2.1 3.2 3.2zm-70.4 21.5c5.6-4.6 7.1-10.7 7.7-16.3 1.7.3 3.4.7 5 1.1 3.6.9 7.1 1.7 10.5 1.7 5.4 0 10.2-2.8 12.2-8.2s-1-8.9-4.6-12.5c-5.1-4.9-10.1-10-15.1-15-2.5-2.6-5.1-5.1-7.6-7.7-4.3-4.6-9.9-7.4-16.1-4.8-4.6 1.8-9.2 4.8-12.5 8.7-9.7 11-14.8 24.2-15.8 39 0 5.6 0 10.7-6.4 14.3 1.8 1.8 3.1 3.1 5.4 5.6.8-1 1.5-2 2.2-2.9 1-1.4 1.9-2.6 2.9-3.7 2-2 2.6-3.8 2.6-6.6.3-6.6.5-13.3 2-19.6 2.6-9.9 7.4-18.9 15.1-25.8 4.8-4.3 9.9-5.1 14-1.3 6.9 6.5 13.5 13.1 20.1 19.8 2.2 2.2 4.4 4.5 6.7 6.7 2 2 1.8 4.1-.8 5.9-4.6 3.3-9.7 3.1-14 0-2.7-1.8-5-4.1-7.4-6.5-1-1-2.1-2.1-3.3-3.2-1 .5-2.6 1.3-4.3 2.3 4.1 9.2 4.1 17.6-2.6 25.3 1.6 1.2 2.8 2.4 4.1 3.7zm50.6-70.2c-.3.8-.7 1.6-1.1 2.6 1.3.4 2.7.7 4 1 2.6.6 5 1.1 6.8 2.6 1.7 1.3 2.7 3.6 3.7 6.1.6 1.3 1.2 2.6 1.9 3.9.7-.4 1.6-.8 2.5-1.1l2.1-.9c-.6-3.1-1.1-5.7-1.7-8.3-.2-.9-.4-1.8-.6-2.6-.3-1-1.3-2.3-2-2.6-4.6-1.3-9.2-2.3-14.3-3.3-.5.7-.9 1.6-1.3 2.6z" fill-rule="evenodd" clip-rule="evenodd" fill="#d81690"/><radialGradient id="a" cx="-10.021" cy="273.547" r="1" gradientTransform="matrix(-107.682 72.3675 94.3985 140.4638 -26717.854 -37514.621)" gradientUnits="userSpaceOnUse"><stop offset="0" stop-color="#d01e8d"/><stop offset="1" stop-color="#621461"/></radialGradient><path d="M194.3 157.5c-.6.3-1.2.5-1.7.8-1.1.5-2.3 1-3.6 1.5-4.8-11.5-1.5-20.9 6.4-30.1-14-9.9-23.5-22.2-22.4-40.8-18.1.8-31.1-8.2-41.1-22.7-8.9 7.7-18.4 11-29.8 6.4.5-1.1.8-2.2 1.2-3.3.3-.7.5-1.5.8-2.3 12.5 4.8 20.9-1.8 29.1-11 10.7 18.6 24.2 31.4 48 24.5-7.1 23.7 5.9 37 24.5 48-8.9 8.1-16 16.3-11.4 29zm-60.2-31.1c2.6 2.6 3.8 3.8 6.1 5.9 1.1-1.2 2.1-2.5 3.1-3.8 1.3-1.6 2.6-3.2 4-4.7 4.3-4.3 7.7-4.6 11-1.3 3.3 3.6 2.8 6.6-1.5 11-2.2 2.3-4.5 4.6-6.8 6.9-2.3 2.3-4.6 4.6-6.8 6.9-5.9 6.4-5.1 14.5 1.8 19.6.6.6 1.2 1 2 1.5.6.4 1.4.9 2.3 1.6-2.6 2.2-5.1 4.4-7.6 6.5-5.3 4.6-10.6 9.2-16.1 13.4-6.1 4.6-13 6.9-20.9 4.1-1-.3-2.6.3-3.3 1-1.9 1.2-3.6 2.7-5.4 4.2-.8.7-1.7 1.4-2.5 2.2.8.9 1.4 1.6 2 2.2.9 1 1.6 1.7 2.1 2.4 1-.7 1.9-1.4 2.7-2.1 2.2-1.7 4.1-3.2 5.7-3 12.8 1.5 22.4-4.1 31.1-12 12-11.2 23.7-23 35.2-34.7 5.4-5.4 4.6-13.8-1.5-18.6-1.5-1-3.3-2-5.1-3.1 1.3-11.2-1.3-15.1-13.3-18.9-.5-7.7-5.6-11.7-12.5-13.5 0-1.5 0-2.8-.3-4.1-1.3-8.7-11.5-14.3-18.6-9.4-3.8 2.5-7 5.7-10.3 9-1.3 1.3-2.6 2.7-4 4 1 .9 1.8 1.7 2.6 2.4.8.8 1.5 1.5 2.6 2.4 3.3-3.6 6.4-6.9 9.4-10.2 3.6-3.8 6.9-4.1 10.2-1 3.3 3.1 3.1 6.6-.8 10.5-1.6 1.5-3.2 2.9-4.9 4.3-1.8 1.6-3.7 3.1-5.5 4.9 2.3 2 3.6 3.3 5.6 5.4 1.3-1.4 2.5-2.8 3.6-4.1 1.5-1.8 2.9-3.4 4.5-5.1 3.3-3.6 6.9-3.6 9.9-.8 3.3 3.1 3.3 6.6-.5 10.2-2.7 2.8-6 5.4-9.3 7.9zm34.9 16.5c.4.5.7 1 1.1 1.3 0 5.4-14 19.4-17.6 18.9-2.3-.5-5.1-2.3-6.1-4.3-.8-1.5-.5-4.8.8-6.4 3.6-4.3 7.9-8.7 12.2-12.2 1.5-1 4.6-1.3 6.4-.5 1.3.7 2.3 2.1 3.2 3.2zm-70.4 21.5c5.6-4.6 7.1-10.7 7.7-16.3 1.7.3 3.4.7 5 1.1 3.6.9 7.1 1.7 10.5 1.7 5.4 0 10.2-2.8 12.2-8.2s-1-8.9-4.6-12.5c-5.1-4.9-10.1-10-15.1-15-2.5-2.6-5.1-5.1-7.6-7.7-4.3-4.6-9.9-7.4-16.1-4.8-4.6 1.8-9.2 4.8-12.5 8.7-9.7 11-14.8 24.2-15.8 39 0 5.6 0 10.7-6.4 14.3 1.8 1.8 3.1 3.1 5.4 5.6.8-1 1.5-2 2.2-2.9 1-1.4 1.9-2.6 2.9-3.7 2-2 2.6-3.8 2.6-6.6.3-6.6.5-13.3 2-19.6 2.6-9.9 7.4-18.9 15.1-25.8 4.8-4.3 9.9-5.1 14-1.3 6.9 6.5 13.5 13.1 20.1 19.8 2.2 2.2 4.4 4.5 6.7 6.7 2 2 1.8 4.1-.8 5.9-4.6 3.3-9.7 3.1-14 0-2.7-1.8-5-4.1-7.4-6.5-1-1-2.1-2.1-3.3-3.2-1 .5-2.6 1.3-4.3 2.3 4.1 9.2 4.1 17.6-2.6 25.3 1.6 1.2 2.8 2.4 4.1 3.7zm50.6-70.2c-.3.8-.7 1.6-1.1 2.6 1.3.4 2.7.7 4 1 2.6.6 5 1.1 6.8 2.6 1.7 1.3 2.7 3.6 3.7 6.1.6 1.3 1.2 2.6 1.9 3.9.7-.4 1.6-.8 2.5-1.1l2.1-.9c-.6-3.1-1.1-5.7-1.7-8.3-.2-.9-.4-1.8-.6-2.6-.3-1-1.3-2.3-2-2.6-4.6-1.3-9.2-2.3-14.3-3.3-.5.7-.9 1.6-1.3 2.6z" fill-rule="evenodd" clip-rule="evenodd" fill="url(#a)"/></svg>