<svg xmlns="http://www.w3.org/2000/svg" viewBox="0 0 262 262"><path d="M130.9 49.6l-4 11.2v7.5h8v-7.5l-4-11.2zm2.5-8.7l6.6 18.5c.1 0 .2.1.2.1v8.8h2.7c13.2 0 24-10.8 24-24V43c.2-1.3 1.3-2.3 2.6-2.3.5 0 1.1.2 1.5.4 17.2 10 27.9 28.6 27.9 48.5s-10.7 38.5-28 48.6c-.1.1-.3.2-.5.2-1 .4-2.1.1-2.8-.6-.2-.2-.3-.3-.4-.6-.3-.5-.4-.9-.4-1.4v-.8c0-13.3-10.8-24-24.1-24H140c.1.4.2.7.2 1.1v91.2c1.5 0 2.7 1.2 2.7 2.7 0 1.5-1.2 2.7-2.7 2.7v4c0 2.5-1 4.8-2.7 6.6-1.8 1.8-4.1 2.7-6.6 2.7-2.6 0-4.9-1.1-6.6-2.7-1.7-1.7-2.7-4-2.7-6.6v-4a2.732 2.732 0 01-2.7-2.7c0-1.5 1.2-2.7 2.7-2.7v-91.2c0-.4.1-.8.2-1.2H119c-13.3 0-24 10.8-24.1 24.1v.9c0 .3-.1.6-.2.8l-.3.6c-.2.3-.5.5-.7.7-.4.3-.9.4-1.5.4-.5 0-1-.2-1.5-.4-4.2-2.5-8-5.4-11.4-8.8-10.4-10.4-16.5-24.7-16.5-39.7 0-20 10.7-38.6 28.1-48.6.2-.1.3-.2.5-.2.3-.1.5-.1.8-.1 1.5 0 2.7 1.2 2.7 2.7v1c0 13.2 10.8 24 24 24h2.7v-8.8c0-.1.1-.1.2-.1l6.6-18.5c.2-.8.8-1.5 1.7-1.7.1 0 .1 0 .2-.1.5-.1 1.1-.1 1.6.1.7.3 1.3.9 1.5 1.7zm-6.6 162.6v-91.2c0-.4-.1-.8-.2-1.2h8.4c-.1.4-.2.7-.2 1.2v91.2h-8zm8 5.3v4c0 1.1-.4 2.1-1.2 2.8-.8.8-1.8 1.2-2.8 1.2-2.2 0-4-1.8-4-4v-4.1l8 .1zm8.1-103h-24.1c-14.9 0-27.2 11.2-29.1 25.5-13.4-9.5-21.6-25-21.6-41.6s8.2-32.1 21.6-41.6c.9 6.6 3.9 12.5 8.4 16.9 5.3 5.3 12.7 8.6 20.8 8.6h24c14.9 0 27.2-11.1 29.1-25.5 13.4 9.5 21.6 25 21.6 41.6s-8.2 32.1-21.6 41.6c-1.9-14.3-14.2-25.5-29.1-25.5z" fill-rule="evenodd" clip-rule="evenodd" fill="#d81690"/><radialGradient id="a" cx="-9.89" cy="273.459" r="1" gradientTransform="matrix(98.1647 88.3854 123.8361 -137.5378 -32810.457 38680.39)" gradientUnits="userSpaceOnUse"><stop offset="0" stop-color="#d01e8d"/><stop offset="1" stop-color="#621461"/></radialGradient><path d="M131 50l-4 11.2v7.5h8v-7.5L131 50zm2.6-8.7l6.6 18.5c.1 0 .2.1.2.1v8.8h2.7c13.2 0 24-10.8 24-24v-1.2c.2-1.3 1.3-2.3 2.6-2.3.5 0 1.1.2 1.5.4 17.2 10 27.9 28.6 27.9 48.5s-10.7 38.5-28 48.6c-.1.1-.3.2-.5.2-1 .4-2.1.1-2.8-.6-.2-.2-.3-.3-.4-.6-.3-.5-.4-.9-.4-1.4v-.8c0-13.3-10.8-24-24.1-24H140c.1.4.2.7.2 1.1v91.2c1.5 0 2.7 1.2 2.7 2.7 0 1.5-1.2 2.7-2.7 2.7v4c0 2.5-1 4.8-2.7 6.6-1.8 1.8-4.1 2.7-6.6 2.7-2.6 0-4.9-1.1-6.6-2.7-1.7-1.7-2.7-4-2.7-6.6v-4a2.732 2.732 0 01-2.7-2.7c0-1.5 1.2-2.7 2.7-2.7v-91.2c0-.4.1-.8.2-1.2H119c-13.3 0-24 10.8-24.1 24.1v.9c0 .3-.1.6-.2.8l-.3.6c-.2.3-.5.5-.7.7-.4.3-.9.4-1.5.4-.5 0-1-.2-1.5-.4-4.2-2.5-8-5.4-11.4-8.8-10.3-10.2-16.4-24.5-16.4-39.5 0-20 10.7-38.6 28.1-48.6.2-.1.3-.2.5-.2.3-.1.5-.1.8-.1 1.5 0 2.7 1.2 2.7 2.7v1c0 13.2 10.8 24 24 24h2.7v-8.8c0-.1.1-.1.2-.1l6.6-18.5c.2-.8.8-1.5 1.7-1.7.1 0 .1 0 .2-.1.5-.1 1.1-.1 1.6.1.7 0 1.3.6 1.6 1.4zM127 203.9v-91.2c0-.4-.1-.8-.2-1.2h8.4c-.1.4-.2.7-.2 1.2v91.2h-8zm8 5.3v4c0 1.1-.4 2.1-1.2 2.8-.8.8-1.8 1.2-2.8 1.2-2.2 0-4-1.8-4-4v-4.1l8 .1zm8-103h-24c-14.9 0-27.2 11.2-29.1 25.5-13.4-9.5-21.6-25-21.6-41.6S76.5 58 89.9 48.5c.9 6.6 3.9 12.5 8.4 16.9 5.3 5.3 12.7 8.6 20.8 8.6h24c14.9 0 27.2-11.1 29.1-25.5 13.4 9.5 21.6 25 21.6 41.6s-8.2 32.1-21.6 41.6c-1.9-14.3-14.3-25.5-29.2-25.5z" fill-rule="evenodd" clip-rule="evenodd" fill="url(#a)"/></svg>