<svg version="1.1" id="圖層_1" xmlns="http://www.w3.org/2000/svg" xmlns:xlink="http://www.w3.org/1999/xlink" x="0" y="0" viewBox="0 0 262 262" xml:space="preserve"><style>.st1{fill:#d81690}</style><defs><path id="SVGID_1_" d="M66 55h137v153H66z"/></defs><clipPath id="SVGID_2_"><use xlink:href="#SVGID_1_" overflow="visible"/></clipPath><g clip-path="url(#SVGID_2_)"><path class="st1" d="M82.3 186.3c-6-.2-10.6-2-13.3-6.5-1.6-2.5-2.6-5.7-2.8-8.7-.4-8.2-.2-16.3-.1-24.5 0-9.7 4.2-14.9 13.7-16.8.7-.2 1.3-.2 2.4-.5 0-4.1-.1-8.2 0-12.2.2-9.1 4.9-13.7 14-13.7h35.4c0-4.2.2-8-.2-11.9-.1-.9-2-1.9-3.2-2.4-7-2.9-11.3-9.1-11.3-16.5s4.4-13.8 11.3-16.4c8.8-3.4 19.2 1.1 22.7 9.8 3.6 9-.4 19.3-9.5 22.6-3.5 1.3-4.2 3-3.9 6.2.2 2.7.1 5.4.1 8.6h12.2c8.2 0 16.4-.1 24.6 0 7.1.1 12.1 4.7 12.6 11.8.2 4.6.1 9.2.1 14 1.1.3 2 .6 2.9.7 8.9 2 13.2 7.2 13.3 16.4.1 7.9.1 15.8 0 23.7-.1 9.1-4.6 14.5-13.4 16.2-1 .2-2.3 1.6-2.5 2.7-.4 2.5-.1 5.1-.2 7.8-.6 6.8-5.3 11.4-12 11.4-26.8.1-53.7.1-80.6 0-6.5 0-11.4-4.7-11.9-11.1-.7-3.5-.4-6.9-.4-10.7zm6-30.8h.2v38.4c0 5.6 2.1 7.9 7.5 7.9 25.6.1 51.3.1 76.9 0 5.3 0 7.5-2.3 7.5-7.5v-77.2c0-5.1-2-7.3-7.1-7.3-25.8-.2-51.6-.3-77.3-.3-5.6 0-7.8 2.4-7.8 8.1.1 12.6.1 25.2.1 37.9z"/><radialGradient id="SVGID_3_" cx="-10.016" cy="273.549" r="1" gradientTransform="matrix(-98.7777 73.8495 99.7895 133.4739 -28103.604 -35586.613)" gradientUnits="userSpaceOnUse"><stop offset="0" stop-color="#d01e8d"/><stop offset="1" stop-color="#621461"/></radialGradient><path d="M82.3 186.3c-6-.2-10.6-2-13.3-6.5-1.6-2.5-2.6-5.7-2.8-8.7-.4-8.2-.2-16.3-.1-24.5 0-9.7 4.2-14.9 13.7-16.8.7-.2 1.3-.2 2.4-.5 0-4.1-.1-8.2 0-12.2.2-9.1 4.9-13.7 14-13.7h35.4c0-4.2.2-8-.2-11.9-.1-.9-2-1.9-3.2-2.4-7-2.9-11.3-9.1-11.3-16.5s4.4-13.8 11.3-16.4c8.8-3.4 19.2 1.1 22.7 9.8 3.6 9-.4 19.3-9.5 22.6-3.5 1.3-4.2 3-3.9 6.2.2 2.7.1 5.4.1 8.6h12.2c8.2 0 16.4-.1 24.6 0 7.1.1 12.1 4.7 12.6 11.8.2 4.6.1 9.2.1 14 1.1.3 2 .6 2.9.7 8.9 2 13.2 7.2 13.3 16.4.1 7.9.1 15.8 0 23.7-.1 9.1-4.6 14.5-13.4 16.2-1 .2-2.3 1.6-2.5 2.7-.4 2.5-.1 5.1-.2 7.8-.6 6.8-5.3 11.4-12 11.4-26.8.1-53.7.1-80.6 0-6.5 0-11.4-4.7-11.9-11.1-.7-3.5-.4-6.9-.4-10.7zm6-30.8h.2v38.4c0 5.6 2.1 7.9 7.5 7.9 25.6.1 51.3.1 76.9 0 5.3 0 7.5-2.3 7.5-7.5v-77.2c0-5.1-2-7.3-7.1-7.3-25.8-.2-51.6-.3-77.3-.3-5.6 0-7.8 2.4-7.8 8.1.1 12.6.1 25.2.1 37.9z" fill="url(#SVGID_3_)"/><path class="st1" d="M134.5 193.9c-7.4 0-14.7.2-22-.1-6.9-.2-11.6-3.8-13.6-9.8-1.9-5.9-.7-11.2 4-15.2 2-1.7 5-3.3 7.5-3.4 16-.3 32.1-.4 48.1-.1 6.4.2 11.6 5.6 12.4 11.6 1 6.7-2.4 13.1-8.5 15.5-2.5 1-5.3 1.2-7.9 1.3-6.7.3-13.4.2-20 .2zM119 187h5.9v-15.7H119V187zm25.3-.1h6v-15.5h-6v15.5zm-12.7-15.6V187h6.1v-15.7h-6.1zm-19.6.2c-4.8.7-7.6 3.5-7.6 7.5 0 4.4 2.8 7.3 7.6 7.8v-15.3zm45.2 15.4c4.9-.7 7.6-3.7 7.5-8-.1-4-3-6.9-7.5-7.2v15.2z"/><radialGradient id="SVGID_4_" cx="-10.131" cy="273.787" r="1" gradientTransform="matrix(-52.6676 13.9124 9.6793 36.6423 -3023.149 -9701.638)" gradientUnits="userSpaceOnUse"><stop offset="0" stop-color="#d01e8d"/><stop offset="1" stop-color="#621461"/></radialGradient><path d="M134.5 193.9c-7.4 0-14.7.2-22-.1-6.9-.2-11.6-3.8-13.6-9.8-1.9-5.9-.7-11.2 4-15.2 2-1.7 5-3.3 7.5-3.4 16-.3 32.1-.4 48.1-.1 6.4.2 11.6 5.6 12.4 11.6 1 6.7-2.4 13.1-8.5 15.5-2.5 1-5.3 1.2-7.9 1.3-6.7.3-13.4.2-20 .2zM119 187h5.9v-15.7H119V187zm25.3-.1h6v-15.5h-6v15.5zm-12.7-15.6V187h6.1v-15.7h-6.1zm-19.6.2c-4.8.7-7.6 3.5-7.6 7.5 0 4.4 2.8 7.3 7.6 7.8v-15.3zm45.2 15.4c4.9-.7 7.6-3.7 7.5-8-.1-4-3-6.9-7.5-7.2v15.2z" fill="url(#SVGID_4_)"/><path class="st1" d="M155 151.7c-7.9-.1-14-6.2-14-14 0-8 6.3-14.1 14.4-14 7.6.2 14.1 6.6 13.9 14.2-.1 7.6-6.6 13.8-14.3 13.8zm.2-6.6c4.3-.1 7.4-3.3 7.4-7.6-.1-4.2-3.4-7.3-7.7-7.3-4.2.1-7.5 3.5-7.4 7.6.1 4.1 3.5 7.4 7.7 7.3z"/><radialGradient id="SVGID_5_" cx="-10.116" cy="273.902" r="1" gradientTransform="matrix(-20.3996 13.4725 17.4564 26.4318 -4822.47 -6955.933)" gradientUnits="userSpaceOnUse"><stop offset="0" stop-color="#d01e8d"/><stop offset="1" stop-color="#621461"/></radialGradient><path d="M155 151.7c-7.9-.1-14-6.2-14-14 0-8 6.3-14.1 14.4-14 7.6.2 14.1 6.6 13.9 14.2-.1 7.6-6.6 13.8-14.3 13.8zm.2-6.6c4.3-.1 7.4-3.3 7.4-7.6-.1-4.2-3.4-7.3-7.7-7.3-4.2.1-7.5 3.5-7.4 7.6.1 4.1 3.5 7.4 7.7 7.3z" fill="url(#SVGID_5_)"/><path class="st1" d="M113.8 151.7c-7.7 0-14-6.3-14-14s6.3-13.9 14.1-14c8 0 14.2 6.2 14.2 14.2-.2 7.8-6.4 13.8-14.3 13.8zm.6-21.4c-4.3-.2-7.7 2.9-7.9 7-.2 4.2 2.9 7.6 7.1 7.8 4.3.2 7.7-2.9 7.9-7 .3-4.2-3-7.7-7.1-7.8z"/><radialGradient id="SVGID_6_" cx="-10.115" cy="273.902" r="1" gradientTransform="matrix(-20.3391 13.4708 17.4737 26.3829 -4867.93 -6942.582)" gradientUnits="userSpaceOnUse"><stop offset="0" stop-color="#d01e8d"/><stop offset="1" stop-color="#621461"/></radialGradient><path d="M113.8 151.7c-7.7 0-14-6.3-14-14s6.3-13.9 14.1-14c8 0 14.2 6.2 14.2 14.2-.2 7.8-6.4 13.8-14.3 13.8zm.6-21.4c-4.3-.2-7.7 2.9-7.9 7-.2 4.2 2.9 7.6 7.1 7.8 4.3.2 7.7-2.9 7.9-7 .3-4.2-3-7.7-7.1-7.8z" fill="url(#SVGID_6_)"/><path d="M124.8 171.3h-5.9V187h5.9v-15.7zm25.5.1h-6v15.5h6v-15.5zm-18.7-.1h6.1v15.6h-6.1v-15.6zm-19.6.2v15.3c-4.7-.4-7.5-3.3-7.6-7.8 0-4 2.8-6.8 7.6-7.5zm45.2 15.4v-15.2c4.5.3 7.4 3.2 7.5 7.2 0 4.3-2.6 7.3-7.5 8z" fill="#fff"/></g></svg>