<svg xmlns="http://www.w3.org/2000/svg" viewBox="0 0 262 262"><path d="M65.1 65.1c.8-.8 2-1.2 3.2-1.1l36.8 5.3c.9.1 1.7.6 2.3 1.3l49 59.1c4.1-1.8 9-1.1 12.4 2.3l1.9 1.9c1.5 1.5 1.5 3.8 0 5.3l-7.9 7.9 23.4 23.4h1.5c6.2 0 11.2 5 11.2 11.2v6.2c0 6.2-5 11.2-11.2 11.2h-6.2c-6.2 0-11.2-5-11.2-11.2v-1.5L146.9 163l-7.9 7.9c-1.5 1.5-3.8 1.5-5.3 0l-5.3-5.3c-3.4-3.4-.7-5 1.1-9l-59.1-49c-.7-.6-1.2-1.4-1.3-2.3L64 68.2c-.1-1.1.3-2.3 1.1-3.1zm112.8 122.7c0 2.1 1.7 3.7 3.7 3.7h6.2c2.1 0 3.7-1.7 3.7-3.7v-6.2c0-2.1-1.7-3.7-3.7-3.7h-1.5l-8.3 8.3v1.6zm-3.7-8.4l5.3-5.3-21.8-21.8-5.3 5.3 21.8 21.8zm-36.9-15.8l-.8-.8 26.3-26.3.8.8c-1.5-1.5-3.8-1.5-5.3 0l-21 21c-1.5 1.5-1.5 3.8 0 5.3zm-60.8-61l58 48.1 5.5-5.5-10.3-10.2c-1.5-1.5-1.5-3.8 0-5.3s3.8-1.5 5.3 0l10.2 10.2 5.5-5.5-48.1-58L72.1 72l4.4 30.6z" fill="#d81690"/><radialGradient id="a" cx="-9.881" cy="273.447" r="1" gradientTransform="matrix(97.192 65.0948 84.8024 -126.617 -22144.777 35444.988)" gradientUnits="userSpaceOnUse"><stop offset="0" stop-color="#d01e8d"/><stop offset="1" stop-color="#621461"/></radialGradient><path d="M65.1 65.1c.8-.8 2-1.2 3.2-1.1l36.8 5.3c.9.1 1.7.6 2.3 1.3l49 59.1c4.1-1.8 9-1.1 12.4 2.3l1.9 1.9c1.5 1.5 1.5 3.8 0 5.3l-7.9 7.9 23.4 23.4h1.5c6.2 0 11.2 5 11.2 11.2v6.2c0 6.2-5 11.2-11.2 11.2h-6.2c-6.2 0-11.2-5-11.2-11.2v-1.5L146.9 163l-7.9 7.9c-1.5 1.5-3.8 1.5-5.3 0l-5.3-5.3c-3.4-3.4-.7-5 1.1-9l-59.1-49c-.7-.6-1.2-1.4-1.3-2.3L64 68.2c-.1-1.1.3-2.3 1.1-3.1zm112.8 122.7c0 2.1 1.7 3.7 3.7 3.7h6.2c2.1 0 3.7-1.7 3.7-3.7v-6.2c0-2.1-1.7-3.7-3.7-3.7h-1.5l-8.3 8.3v1.6zm-3.7-8.4l5.3-5.3-21.8-21.8-5.3 5.3 21.8 21.8zm-36.9-15.8l-.8-.8 26.3-26.3.8.8c-1.5-1.5-3.8-1.5-5.3 0l-21 21c-1.5 1.5-1.5 3.8 0 5.3zm-60.8-61l58 48.1 5.5-5.5-10.3-10.2c-1.5-1.5-1.5-3.8 0-5.3s3.8-1.5 5.3 0l10.2 10.2 5.5-5.5-48.1-58L72.1 72l4.4 30.6z" fill="url(#a)"/></svg>