<svg xmlns="http://www.w3.org/2000/svg" viewBox="0 0 262 262"><path d="M110.4 69.7c0-2.9.9-4.8 1.9-5.9 1-1.1 2.4-1.7 4-1.7H148c.8 0 1.8.4 2.6 1.4.9 1.1 1.6 3.1 1.6 6.2v38.6h45.1c1.1 0 1.7.3 2 .6.4.4.7.9 1 1.7.2.8.3 1.7.3 2.4v32.3c0 1.4-.5 3.3-1.4 4.8-.9 1.6-1.7 1.8-1.9 1.8h-3.6.3-1.2.2-1.2.2-32.1.1-1.2.2-1.3.3-1.6.6-.3v3-3h-3v43c0 4.1-2.6 5.8-4.3 5.8h-6 .6-1.5.5-1.4.4-1.4.4-1.3.3-1.3.3-1.2.2-1.2.2-1.2.2-1.1.1-1.2.2-1.1.1-1.1.1-1.1.1-1.1.1-1.2.2-1.1.1-1.2.2-1.2.2-1.2.2-1.2.2-1.3.3-1.3.3-1.4.4-1.5.5-1.7.7-.1c-1.3 0-2.8-.5-4-1.4-1-.9-1.9-2.2-1.9-4.5v-43H67.8c-1.3 0-2.8-.7-4-2-1.2-1.3-1.9-3-1.9-4.6v-30.9c0-1.5.7-3 1.8-4.2 1.2-1.2 2.6-1.9 3.8-1.9h42.8V69.7zM158.2 195v-37h38.5c3.5 0 5.8-2.7 7.1-4.8 1.3-2.3 2.2-5.3 2.2-7.8v-32.5c0-1-.1-2.4-.6-3.9-.4-1.5-1.2-3.2-2.7-4.5-1.5-1.4-3.6-2.2-6.1-2.2h-39.1V69.7c0-4.1-1-7.5-2.9-9.9-1.9-2.4-4.6-3.8-7.4-3.8h-31.7c-3.1 0-6.2 1.2-8.4 3.7-2.2 2.4-3.4 5.9-3.4 10v32.6H67.6c-3.2 0-6.1 1.6-8.1 3.7-2 2.2-3.4 5.1-3.4 8.4v30.9c0 3.3 1.4 6.4 3.4 8.7 2.1 2.3 5 3.9 8.4 3.9h36.8v37c0 4 1.6 7.1 4 9.1 2.3 1.9 5.2 2.8 7.8 2.8h37.4c-.4 0 4.3-5 4.3-11.8zm-34.1-63.2c0-4 3.3-7.1 7.1-7.1s7.1 3.3 7.1 7.1-3.3 7.1-7.1 7.1c-3.9 0-7.1-3.3-7.1-7.1zm7.2-13.1c-7.1 0-13.1 5.7-13.1 13.1 0 7.1 5.7 13.1 13.1 13.1 7.1 0 13.1-6 13.1-13.1s-6-13.1-13.1-13.1zm-.7-49.4c1 0 1.9.4 2.5 1.2l12.2 15.9c.7.9.8 2.1.3 3.2-.5 1-1.5 1.7-2.7 1.7h-22.4c-1.1 0-2.1-.6-2.6-1.6s-.5-2.1.1-3.1l10.1-15.9c.7-.9 1.5-1.4 2.5-1.4zm.4 8.2l-4.9 7.6h10.8l-5.9-7.6zm-10.4 93.7c-1.1 0-2.2.7-2.7 1.7s-.4 2.2.3 3.2l12.2 15.9c.6.8 1.5 1.2 2.5 1.2s1.9-.6 2.4-1.4l10.1-15.9c.6-.9.6-2.1.1-3.1s-1.5-1.6-2.6-1.6h-22.3zm12 13.6l-5.9-7.6h10.8l-4.9 7.6zm-40.8-67.1c1 .5 1.7 1.5 1.7 2.7v22.1c0 1.1-.6 2.1-1.6 2.6s-2.1.5-3.1-.1L73 134.8c-.8-.5-1.3-1.4-1.4-2.4 0-1 .4-1.9 1.2-2.5l15.9-12c.9-.6 2.1-.7 3.1-.2zm-12 14.4l7.6 4.9v-10.6l-7.6 5.7zm93.4-14.3c-.9-.6-2.1-.6-3.1-.1s-1.6 1.5-1.6 2.6v22.1c0 1.1.6 2.2 1.7 2.7 1 .5 2.2.4 3.1-.3l15.9-12c.8-.6 1.2-1.5 1.2-2.5s-.6-1.9-1.4-2.4l-15.8-10.1zm1.4 18.6v-10.6l7.6 4.9-7.6 5.7z" fill-rule="evenodd" clip-rule="evenodd" fill="#d81690"/><radialGradient id="a" cx="-10.021" cy="273.546" r="1" gradientTransform="matrix(-108.4769 72.7533 94.8286 141.3916 -26842.49 -37763.777)" gradientUnits="userSpaceOnUse"><stop offset="0" stop-color="#d01e8d"/><stop offset="1" stop-color="#621461"/></radialGradient><path d="M110.4 69.7c0-2.9.9-4.8 1.9-5.9 1-1.1 2.4-1.7 4-1.7H148c.8 0 1.8.4 2.6 1.4.9 1.1 1.6 3.1 1.6 6.2v38.6h45.1c1.1 0 1.7.3 2 .6.4.4.7.9 1 1.7.2.8.3 1.7.3 2.4v32.3c0 1.4-.5 3.3-1.4 4.8-.9 1.6-1.7 1.8-1.9 1.8h-3.6.3-1.2.2-1.2.2-32.1.1-1.2.2-1.3.3-1.6.6-.3v3-3h-3v43c0 4.1-2.6 5.8-4.3 5.8h-6 .6-1.5.5-1.4.4-1.4.4-1.3.3-1.3.3-1.2.2-1.2.2-1.2.2-1.1.1-1.2.2-1.1.1-1.1.1-1.1.1-1.1.1-1.2.2-1.1.1-1.2.2-1.2.2-1.2.2-1.2.2-1.3.3-1.3.3-1.4.4-1.5.5-1.7.7-.1c-1.3 0-2.8-.5-4-1.4-1-.9-1.9-2.2-1.9-4.5v-43H67.8c-1.3 0-2.8-.7-4-2-1.2-1.3-1.9-3-1.9-4.6v-30.9c0-1.5.7-3 1.8-4.2 1.2-1.2 2.6-1.9 3.8-1.9h42.8V69.7zM158.2 195v-37h38.5c3.5 0 5.8-2.7 7.1-4.8 1.3-2.3 2.2-5.3 2.2-7.8v-32.5c0-1-.1-2.4-.6-3.9-.4-1.5-1.2-3.2-2.7-4.5-1.5-1.4-3.6-2.2-6.1-2.2h-39.1V69.7c0-4.1-1-7.5-2.9-9.9-1.9-2.4-4.6-3.8-7.4-3.8h-31.7c-3.1 0-6.2 1.2-8.4 3.7-2.2 2.4-3.4 5.9-3.4 10v32.6H67.6c-3.2 0-6.1 1.6-8.1 3.7-2 2.2-3.4 5.1-3.4 8.4v30.9c0 3.3 1.4 6.4 3.4 8.7 2.1 2.3 5 3.9 8.4 3.9h36.8v37c0 4 1.6 7.1 4 9.1 2.3 1.9 5.2 2.8 7.8 2.8h37.4c-.4 0 4.3-5 4.3-11.8zm-34.1-63.2c0-4 3.3-7.1 7.1-7.1s7.1 3.3 7.1 7.1-3.3 7.1-7.1 7.1c-3.9 0-7.1-3.3-7.1-7.1zm7.2-13.1c-7.1 0-13.1 5.7-13.1 13.1 0 7.1 5.7 13.1 13.1 13.1 7.1 0 13.1-6 13.1-13.1s-6-13.1-13.1-13.1zm-.7-49.4c1 0 1.9.4 2.5 1.2l12.2 15.9c.7.9.8 2.1.3 3.2-.5 1-1.5 1.7-2.7 1.7h-22.4c-1.1 0-2.1-.6-2.6-1.6s-.5-2.1.1-3.1l10.1-15.9c.7-.9 1.5-1.4 2.5-1.4zm.4 8.2l-4.9 7.6h10.8l-5.9-7.6zm-10.4 93.7c-1.1 0-2.2.7-2.7 1.7s-.4 2.2.3 3.2l12.2 15.9c.6.8 1.5 1.2 2.5 1.2s1.9-.6 2.4-1.4l10.1-15.9c.6-.9.6-2.1.1-3.1s-1.5-1.6-2.6-1.6h-22.3zm12 13.6l-5.9-7.6h10.8l-4.9 7.6zm-40.8-67.1c1 .5 1.7 1.5 1.7 2.7v22.1c0 1.1-.6 2.1-1.6 2.6s-2.1.5-3.1-.1L73 134.8c-.8-.5-1.3-1.4-1.4-2.4 0-1 .4-1.9 1.2-2.5l15.9-12c.9-.6 2.1-.7 3.1-.2zm-12 14.4l7.6 4.9v-10.6l-7.6 5.7zm93.4-14.3c-.9-.6-2.1-.6-3.1-.1s-1.6 1.5-1.6 2.6v22.1c0 1.1.6 2.2 1.7 2.7 1 .5 2.2.4 3.1-.3l15.9-12c.8-.6 1.2-1.5 1.2-2.5s-.6-1.9-1.4-2.4l-15.8-10.1zm1.4 18.6v-10.6l7.6 4.9-7.6 5.7z" fill-rule="evenodd" clip-rule="evenodd" fill="url(#a)"/></svg>