<svg xmlns="http://www.w3.org/2000/svg" viewBox="0 0 262 262"><path d="M86.7 104.3c-1.2 0-2.4-.5-3.2-1.5-3-3.8-7.1-9-8.5-10.9-1-1.4-2.2-2.3-3.7-3.5-1.8-1.4-4.2-3.3-7.5-6.9-.1-.2.2-.4.4-.3 2.6 2.3 5.9 4.2 9.7 4.7 7.4 1 14.3 3.5 18.6 5.2 1.5.6 2.4 2.1 2.3 3.6-3 2.8-5.7 6-8.1 9.6zm-11.6 25.4c-1.1 3.9-2 7.9-2.6 12.1-.1.6-.2 1.3-.3 1.9-1 .4-2.9 2.4-4.8 5-2.4 3.2-3.8 6.2-3.2 6.6.6.4 3-1.8 5.4-5 .9-1.2 1.7-2.4 2.3-3.5-.9 7.6-.8 14.8.4 21.3-3.1-4.3-7-7.7-11.4-10.6.7-10.8-1.5-22.2-10.7-35.7 7.3-3.9 8.1-13.7 5-26.8 6.6 3.2 11.5 3.6 14-1.5 3.8 4.9 6.3 9.7 8 13.7.9 2.1 3.5 3.3 5.7 3.1-1.1 2-2.1 4-3.1 6.1-1.4-1.7-4.2-4.2-7.5-6.7-5.3-4-10.1-6.7-10.7-5.9-.6.8 3.2 4.7 8.5 8.7 3.6 2.7 6.9 4.8 8.9 5.6-1.3 3.1-2.5 6.4-3.5 9.7-1.5-1-4.7-2.2-8.4-3.2-5.4-1.5-10.1-1.9-10.3-.9-.3 1 3.9 2.9 9.4 4.4 3.8 1.2 7.1 1.7 8.9 1.6zm.1 48.3c-.3 0-.6-.1-.9-.1-4.3-10.6-10.9-14.8-18-18.8 2-12.7.7-25.7-13.3-41.5 12.3-.7 11.5-13.5 6.8-29.9 7.1 4.6 13.3 7.4 16 1.8-1.4-1.5-2.8-3-4.5-4.5-7.6-7-11.3-15.7-13.1-23.3-1-4.1 3.7-5.2 5.7-1.5 2.7 4.8 5.9 9.8 9.3 13.1 6.2 6 23.7 11 33.9 13.5 1.7.4 2.8 1.7 3.1 3.2 2-1.4 4-2.7 6.1-3.9-.6-.6-1-1.3-1.2-2.2L102 66.7c-.8-4.5 5.3-6.6 7.5-2.6l7.9 14.7c.5.9.6 2 .3 3 1.9-.5 3.9-.9 6-1.2l3.2-16.1c.8-4.2 6.8-4.3 7.8-.2l3.9 16.3c2.1.3 4.1.7 6 1.2-.2-.9-.1-1.9.4-2.8l7.9-14.7c2.2-4 8.3-1.9 7.5 2.6l-3.1 17.3c-.2.9-.6 1.7-1.2 2.2 2.3 1.3 4.4 2.7 6.4 4.4.5-.9 1.4-1.5 2.5-1.8 10.2-2.5 27.7-7.5 33.9-13.5 3.4-3.3 6.6-8.3 9.3-13.1 2.1-3.7 6.7-2.6 5.7 1.5-1.8 7.6-5.6 16.3-13.1 23.3-1.6 1.4-3 2.9-4.3 4.4 2.7 5.9 8.9 3.1 16.1-1.6-4.7 16.4-5.5 29.1 6.8 29.9-13.9 15.8-15.2 28.8-13.3 41.5-7.2 3.9-13.8 8.2-18 18.8-.3 0-.7.1-1 .1h-.1c-7.8 14.3-25.3 23.3-55.6 23.3-32.3-.1-49.2-10-56.2-25.6zm115.5-8.6c3-3.9 6.6-7 10.7-9.7-.7-10.8 1.5-22.2 10.7-35.7-7.3-3.9-8.1-13.7-5-26.8-6.7 3.3-11.7 3.6-14.1-1.7-3.9 5-6.5 9.8-8.2 13.9-.8 2-3.1 3.1-5.3 3.2 1 1.9 1.9 3.8 2.8 5.8 1.4-1.7 4.2-4.2 7.6-6.8 5.3-4 10.1-6.7 10.7-5.9.6.8-3.2 4.7-8.5 8.7-3.7 2.8-7.1 4.9-9.1 5.7 1.3 3.1 2.5 6.4 3.5 9.7 1.5-1 4.7-2.3 8.5-3.3 5.4-1.5 10.1-1.9 10.3-.9.3 1-3.9 2.9-9.4 4.4-3.8 1-7.1 1.5-8.9 1.4 1 3.4 1.9 6.9 2.7 10.5.3 1.3.5 2.6.8 3.8 1.1.7 2.7 2.5 4.4 4.7 2.4 3.2 3.8 6.2 3.2 6.6-.6.4-3-1.8-5.4-5-.6-.8-1.2-1.6-1.6-2.4 1 7.1.9 13.8-.4 19.8zm-28.2-73.8c.1.2.3.3.4.4l2 1.9c10.3 10.4 17.2 25.9 21.1 43.6 7.2 32.6-5.8 57.6-54.9 57.6-49 0-60.2-24.6-54.9-57.6 4.9-29.8 21-52.8 46.5-56.9l-4.5 22.7c-.3 1.7.5 3.5 2.1 4.3l8.3 4.3c1.1.6 2.3.6 3.4.1l10.4-4.5c1.8-.8 2.8-2.7 2.3-4.6l-5.4-22.4c9.2 1.5 16.8 5.4 23.2 11.1zm-26.8-13.7l.2 2.1h.2l3.8 21.8c.3 1.9-.7 3.7-2.4 4.4l-4.9 2c-1 .4-2.2.4-3.2-.1l-3.9-1.8c-1.6-.8-2.5-2.5-2.3-4.2l4.1-27.1c.7-4.5 7.1-4.6 7.9-.1l.5 3zm40.3 24.5c.9-.1 1.9-.6 2.5-1.5 3-3.8 7.1-9 8.5-10.9 1-1.4 2.2-2.3 3.7-3.5 1.8-1.4 4.2-3.3 7.5-6.9.1-.2-.2-.4-.4-.3-2.6 2.3-5.9 4.2-9.7 4.7-7.4 1-14.3 3.5-18.6 5.2-1 .4-1.7 1.2-2.1 2.2 3.1 3.2 6 6.9 8.6 11zm-24-22c1.1-.3 2.1-1.1 2.4-2.3 1-3.8-4.4-5.7-6-2.1-.5 1-.3 2.2.2 3 1.1.5 2.3.9 3.4 1.4zM113.7 83c.6-.9.8-2.1.3-3.1-1.6-3.6-7-1.7-6 2.1.3 1.2 1.3 2 2.4 2.3 1-.5 2.1-.9 3.3-1.3zm-8.2 83.7c3.9 0 7.1-4 7.1-8.8 0-3.5-1.7-6.6-4.1-8 2.7.2 4.5.2 4.5-.1.1-.4-4.9-1.4-11-2.2-6.1-.8-11.1-1-11.2-.6-.1.4 4.9 1.4 11 2.2.5.1 1.1.1 1.6.2-2.9 1.1-5.1 4.5-5.1 8.5.1 4.9 3.3 8.8 7.2 8.8zm-.8-7.5c1.4 0 2.5-1.4 2.5-3.1 0-1.7-1.1-3.1-2.5-3.1s-2.5 1.4-2.5 3.1c.1 1.8 1.2 3.1 2.5 3.1zm53.2 7.5c3.9 0 7.1-4 7.1-8.8 0-4.9-3.2-8.8-7.1-8.8-3.9 0-7.1 4-7.1 8.8 0 4.9 3.2 8.8 7.1 8.8zm-.8-7.5c1.4 0 2.5-1.4 2.5-3.1 0-1.7-1.1-3.1-2.5-3.1s-2.5 1.4-2.5 3.1c.1 1.8 1.2 3.1 2.5 3.1zm-25.1 9.6c3.8 0 6.8-2 6.8-4.4 0-2.4-3.1-4.4-6.8-4.4-3.8 0-6.8 2-6.8 4.4 0 2.4 3 4.4 6.8 4.4zm40.8-24.7c.1.4-4.6 2.1-10.6 3.7s-10.9 2.5-11 2.1c-.1-.4 4.6-2.1 10.6-3.7s10.9-2.5 11-2.1zM149.2 179c.4-.3.6-.6.5-.8-.3-1-4.9-.6-10.3.9s-9.6 3.4-9.4 4.4c.3 1 4.9.6 10.3-.9 1.4-.4 2.7-.8 3.8-1.2.1.8.6 1.6 1.4 2 1.4.8 3.2.3 3.9-1.1.8-1.1.6-2.4-.2-3.3zm-3.2 1.7c.8-.3 1.5-.6 2-.9.6.4.9 1.1.5 1.8s-1.2.9-1.9.5c-.5-.3-.7-.9-.6-1.4z" fill-rule="evenodd" clip-rule="evenodd" fill="#d81690"/><radialGradient id="a" cx="-10.027" cy="273.543" r="1" gradientTransform="matrix(-126.9069 70.1836 83.7488 151.4357 -23988.021 -40538.738)" gradientUnits="userSpaceOnUse"><stop offset="0" stop-color="#d01e8d"/><stop offset="1" stop-color="#621461"/></radialGradient><path d="M86.7 104.3c-1.2 0-2.4-.5-3.2-1.5-3-3.8-7.1-9-8.5-10.9-1-1.4-2.2-2.3-3.7-3.5-1.8-1.4-4.2-3.3-7.5-6.9-.1-.2.2-.4.4-.3 2.6 2.3 5.9 4.2 9.7 4.7 7.4 1 14.3 3.5 18.6 5.2 1.5.6 2.4 2.1 2.3 3.6-3 2.8-5.7 6-8.1 9.6zm-11.6 25.4c-1.1 3.9-2 7.9-2.6 12.1-.1.6-.2 1.3-.3 1.9-1 .4-2.9 2.4-4.8 5-2.4 3.2-3.8 6.2-3.2 6.6.6.4 3-1.8 5.4-5 .9-1.2 1.7-2.4 2.3-3.5-.9 7.6-.8 14.8.4 21.3-3.1-4.3-7-7.7-11.4-10.6.7-10.8-1.5-22.2-10.7-35.7 7.3-3.9 8.1-13.7 5-26.8 6.6 3.2 11.5 3.6 14-1.5 3.8 4.9 6.3 9.7 8 13.7.9 2.1 3.5 3.3 5.7 3.1-1.1 2-2.1 4-3.1 6.1-1.4-1.7-4.2-4.2-7.5-6.7-5.3-4-10.1-6.7-10.7-5.9-.6.8 3.2 4.7 8.5 8.7 3.6 2.7 6.9 4.8 8.9 5.6-1.3 3.1-2.5 6.4-3.5 9.7-1.5-1-4.7-2.2-8.4-3.2-5.4-1.5-10.1-1.9-10.3-.9-.3 1 3.9 2.9 9.4 4.4 3.8 1.2 7.1 1.7 8.9 1.6zm.1 48.3c-.3 0-.6-.1-.9-.1-4.3-10.6-10.9-14.8-18-18.8 2-12.7.7-25.7-13.3-41.5 12.3-.7 11.5-13.5 6.8-29.9 7.1 4.6 13.3 7.4 16 1.8-1.4-1.5-2.8-3-4.5-4.5-7.6-7-11.3-15.7-13.1-23.3-1-4.1 3.7-5.2 5.7-1.5 2.7 4.8 5.9 9.8 9.3 13.1 6.2 6 23.7 11 33.9 13.5 1.7.4 2.8 1.7 3.1 3.2 2-1.4 4-2.7 6.1-3.9-.6-.6-1-1.3-1.2-2.2L102 66.7c-.8-4.5 5.3-6.6 7.5-2.6l7.9 14.7c.5.9.6 2 .3 3 1.9-.5 3.9-.9 6-1.2l3.2-16.1c.8-4.2 6.8-4.3 7.8-.2l3.9 16.3c2.1.3 4.1.7 6 1.2-.2-.9-.1-1.9.4-2.8l7.9-14.7c2.2-4 8.3-1.9 7.5 2.6l-3.1 17.3c-.2.9-.6 1.7-1.2 2.2 2.3 1.3 4.4 2.7 6.4 4.4.5-.9 1.4-1.5 2.5-1.8 10.2-2.5 27.7-7.5 33.9-13.5 3.4-3.3 6.6-8.3 9.3-13.1 2.1-3.7 6.7-2.6 5.7 1.5-1.8 7.6-5.6 16.3-13.1 23.3-1.6 1.4-3 2.9-4.3 4.4 2.7 5.9 8.9 3.1 16.1-1.6-4.7 16.4-5.5 29.1 6.8 29.9-13.9 15.8-15.2 28.8-13.3 41.5-7.2 3.9-13.8 8.2-18 18.8-.3 0-.7.1-1 .1h-.1c-7.8 14.3-25.3 23.3-55.6 23.3-32.3-.1-49.2-10-56.2-25.6zm115.5-8.6c3-3.9 6.6-7 10.7-9.7-.7-10.8 1.5-22.2 10.7-35.7-7.3-3.9-8.1-13.7-5-26.8-6.7 3.3-11.7 3.6-14.1-1.7-3.9 5-6.5 9.8-8.2 13.9-.8 2-3.1 3.1-5.3 3.2 1 1.9 1.9 3.8 2.8 5.8 1.4-1.7 4.2-4.2 7.6-6.8 5.3-4 10.1-6.7 10.7-5.9.6.8-3.2 4.7-8.5 8.7-3.7 2.8-7.1 4.9-9.1 5.7 1.3 3.1 2.5 6.4 3.5 9.7 1.5-1 4.7-2.3 8.5-3.3 5.4-1.5 10.1-1.9 10.3-.9.3 1-3.9 2.9-9.4 4.4-3.8 1-7.1 1.5-8.9 1.4 1 3.4 1.9 6.9 2.7 10.5.3 1.3.5 2.6.8 3.8 1.1.7 2.7 2.5 4.4 4.7 2.4 3.2 3.8 6.2 3.2 6.6-.6.4-3-1.8-5.4-5-.6-.8-1.2-1.6-1.6-2.4 1 7.1.9 13.8-.4 19.8zm-28.2-73.8c.1.2.3.3.4.4l2 1.9c10.3 10.4 17.2 25.9 21.1 43.6 7.2 32.6-5.8 57.6-54.9 57.6-49 0-60.2-24.6-54.9-57.6 4.9-29.8 21-52.8 46.5-56.9l-4.5 22.7c-.3 1.7.5 3.5 2.1 4.3l8.3 4.3c1.1.6 2.3.6 3.4.1l10.4-4.5c1.8-.8 2.8-2.7 2.3-4.6l-5.4-22.4c9.2 1.5 16.8 5.4 23.2 11.1zm-26.8-13.7l.2 2.1h.2l3.8 21.8c.3 1.9-.7 3.7-2.4 4.4l-4.9 2c-1 .4-2.2.4-3.2-.1l-3.9-1.8c-1.6-.8-2.5-2.5-2.3-4.2l4.1-27.1c.7-4.5 7.1-4.6 7.9-.1l.5 3zm40.3 24.5c.9-.1 1.9-.6 2.5-1.5 3-3.8 7.1-9 8.5-10.9 1-1.4 2.2-2.3 3.7-3.5 1.8-1.4 4.2-3.3 7.5-6.9.1-.2-.2-.4-.4-.3-2.6 2.3-5.9 4.2-9.7 4.7-7.4 1-14.3 3.5-18.6 5.2-1 .4-1.7 1.2-2.1 2.2 3.1 3.2 6 6.9 8.6 11zm-24-22c1.1-.3 2.1-1.1 2.4-2.3 1-3.8-4.4-5.7-6-2.1-.5 1-.3 2.2.2 3 1.1.5 2.3.9 3.4 1.4zM113.7 83c.6-.9.8-2.1.3-3.1-1.6-3.6-7-1.7-6 2.1.3 1.2 1.3 2 2.4 2.3 1-.5 2.1-.9 3.3-1.3zm-8.2 83.7c3.9 0 7.1-4 7.1-8.8 0-3.5-1.7-6.6-4.1-8 2.7.2 4.5.2 4.5-.1.1-.4-4.9-1.4-11-2.2-6.1-.8-11.1-1-11.2-.6-.1.4 4.9 1.4 11 2.2.5.1 1.1.1 1.6.2-2.9 1.1-5.1 4.5-5.1 8.5.1 4.9 3.3 8.8 7.2 8.8zm-.8-7.5c1.4 0 2.5-1.4 2.5-3.1 0-1.7-1.1-3.1-2.5-3.1s-2.5 1.4-2.5 3.1c.1 1.8 1.2 3.1 2.5 3.1zm53.2 7.5c3.9 0 7.1-4 7.1-8.8 0-4.9-3.2-8.8-7.1-8.8-3.9 0-7.1 4-7.1 8.8 0 4.9 3.2 8.8 7.1 8.8zm-.8-7.5c1.4 0 2.5-1.4 2.5-3.1 0-1.7-1.1-3.1-2.5-3.1s-2.5 1.4-2.5 3.1c.1 1.8 1.2 3.1 2.5 3.1zm-25.1 9.6c3.8 0 6.8-2 6.8-4.4 0-2.4-3.1-4.4-6.8-4.4-3.8 0-6.8 2-6.8 4.4 0 2.4 3 4.4 6.8 4.4zm40.8-24.7c.1.4-4.6 2.1-10.6 3.7s-10.9 2.5-11 2.1c-.1-.4 4.6-2.1 10.6-3.7s10.9-2.5 11-2.1zM149.2 179c.4-.3.6-.6.5-.8-.3-1-4.9-.6-10.3.9s-9.6 3.4-9.4 4.4c.3 1 4.9.6 10.3-.9 1.4-.4 2.7-.8 3.8-1.2.1.8.6 1.6 1.4 2 1.4.8 3.2.3 3.9-1.1.8-1.1.6-2.4-.2-3.3zm-3.2 1.7c.8-.3 1.5-.6 2-.9.6.4.9 1.1.5 1.8s-1.2.9-1.9.5c-.5-.3-.7-.9-.6-1.4z" fill-rule="evenodd" clip-rule="evenodd" fill="url(#a)"/></svg>