<svg xmlns="http://www.w3.org/2000/svg" viewBox="0 0 262 262"><path d="M220.9 154.6c-2.3 7.4-7.7 10.1-15.1 10.4-15.6.6-29.5 6-42.1 15.1-19.9 14.4-45 14.6-65.1.2-13-9.2-27.2-14.9-43.3-15.4-7.3-.2-12.1-3.3-14.3-10.3v-47.2c2.2-7 7.1-10 14.3-10.3 16.1-.6 30.5-6.2 43.6-15.7 19.1-13.8 44.5-14 63.8-.2 13.4 9.5 27.8 15.4 44.3 15.9 7.1.2 11.7 3.6 13.9 10.2v47.3zM48.4 131v18.8c0 5.9 1.2 7.4 7.1 7.7 17.7.9 33.3 6.9 47.7 17.1 17.1 12.2 38.5 11.9 55.6-.1 3.3-2.3 6.6-4.5 10.1-6.4 11.7-6.5 24.2-10 37.7-10.6 5.1-.2 6.9-1.8 6.9-5.8.1-13.8.1-27.4 0-41.2 0-3.4-1.8-5.4-5.4-5.8-.9-.1-1.8-.1-2.6-.2-2.2-.1-4.4-.3-6.5-.6-14.8-2-28.1-7.8-40.2-16.3-16.8-11.9-37.9-12.4-54.2-.9-15.2 10.7-31.6 17.3-50.3 18-4.3.2-5.9 2-5.9 6.3-.1 4.5 0 8.9 0 13.4-.1 2.2 0 4.4 0 6.6zm37.6-.2c-.1-24.5 20.1-44.6 44.8-44.7 24.9-.1 45 20.2 45 45.3 0 24.2-20.1 44.3-44.7 44.5-24.8.3-45-19.8-45.1-45.1zm82.4.3c-.3-21.3-17.3-38.1-38-37.6-20.6.4-37.3 17.2-37 37.3.2 21.3 17 38.1 37.7 37.8 20.7-.2 37.7-17.3 37.3-37.5zm-54.9 17.5c-.2 1.1-.3 2.2-.5 3.4 0 3.4 3.4 5 7 2.2 7.4-5.4 14.4-6 21.8-.1 1.3 1 4.5 1.4 5.4.6.9-.9 1-2.8 1.1-4.5 0-.4 0-.7.1-1.1.1-1.3-.2-2.6-.6-3.9-1.8-5.4-1-9.8 4-13 1.5-1 2.9-2.4 3.9-3.9.9-1.3 2.1-3.4 1.6-4.4-.6-1.4-2.6-2.3-4.2-2.8-2.3-.6-4.7-.8-7.1-1-3.8-.2-6.5-1.5-7.7-5.4-.7-2.2-1.8-4.5-3.2-6.4-1-1.4-2.8-3.4-4.2-3.4-1.4 0-3.1 2.1-4.1 3.6-.8 1.4-1.5 2.8-2.2 4.2-.7 1.4-1.4 2.9-2.2 4.2-.7 1.2-2.2 2.2-3.4 2.6-1.5.4-3.1.6-4.7.8-1.6.2-3.2.4-4.7.8-1.8.5-4 1.5-5 3-.5.8 1 3.3 2.1 4.6 1.8 2.2 4 4.2 6.2 6.2 2.1 1.8 2.8 3.5 2.1 6.2-.8 2.4-1.2 4.9-1.5 7.5zm2.6-20.9c8 .2 12.8-3.2 14.8-11 2.2 7.5 6.6 11.5 15 10.8-6.7 4.6-8.5 10.2-5.6 17.7-6.3-5-12.2-5.2-18.5 0 2.7-7.5 1.1-13.1-5.7-17.5zm-62 3.7c0-6.8 5.6-12.4 12.5-12.4s12.5 5.6 12.5 12.6c0 6.7-5.6 12.3-12.4 12.3-6.9.1-12.5-5.5-12.6-12.5zm22.9.1c-.1-5.9-4.8-10.6-10.6-10.4-5.7.1-10.3 4.8-10.2 10.3.1 5.9 4.7 10.6 10.5 10.5 5.6-.1 10.4-4.8 10.3-10.4zm-15.3 5c0 .2-.1.5-.1.8 0 1 .9 1.4 2 .5 2.1-1.4 4-1.6 6.1 0 .4.3 1.3.4 1.5.2.3-.2.3-1 .3-1.5 0-.4-.1-.8-.2-1.1-.5-1.4-.2-2.7 1.1-3.6.5-.3.8-.7 1.1-1.1.2-.3.6-1 .4-1.2-.2-.4-.7-.6-1.2-.8-.4-.1-.9-.1-1.3-.2-.2 0-.5 0-.7-.1-1-.1-1.8-.4-2.2-1.5-.2-.6-.5-1.2-.9-1.8-.3-.4-.8-1-1.2-1-.4.1-.9.6-1.1 1l-.6 1.2-.6 1.2c-.2.3-.6.6-1 .7-.4.1-.9.2-1.3.2s-.9.1-1.3.2c-.5.2-1.1.5-1.4.9-.2.2.2.9.6 1.3.6.6 1.1 1.1 1.8 1.7.6.5.8 1 .6 1.8-.2.7-.3 1.4-.4 2.2zm.8-5.9c2.2.1 3.5-.9 4.1-3 .6 2.1 1.8 3.2 4.2 3-1.9 1.3-2.4 2.8-1.6 4.9-1.8-1.4-3.4-1.4-5.1 0 .7-2.2.2-3.7-1.6-4.9zm120.2.8c0-6.8 5.6-12.4 12.4-12.4 6.9 0 12.5 5.6 12.5 12.6 0 6.7-5.6 12.3-12.4 12.3-6.9.1-12.5-5.5-12.5-12.5zm22.8.1c-.1-5.9-4.8-10.6-10.6-10.4-5.7.1-10.3 4.8-10.2 10.3.1 5.9 4.7 10.6 10.5 10.5 5.7-.1 10.4-4.8 10.3-10.4zm-15.2 5c0 .2-.1.5-.1.8 0 1 .9 1.4 1.9.5 2.1-1.4 4-1.6 6.1 0 .4.3 1.3.4 1.5.2.3-.2.3-1 .3-1.5 0-.4-.1-.8-.2-1.1-.5-1.4-.2-2.7 1.1-3.6.5-.3.8-.7 1.1-1.1.3-.3.6-1 .5-1.2-.2-.4-.7-.6-1.2-.8-.4-.1-.9-.1-1.3-.2-.2 0-.5 0-.7-.1-1-.1-1.8-.4-2.2-1.5-.2-.6-.5-1.2-.9-1.8-.3-.4-.8-1-1.2-1-.4.1-.9.6-1.1 1l-.6 1.2-.6 1.2c-.2.3-.6.6-1 .7-.4.1-.9.2-1.3.2s-.9.1-1.3.2c-.5.2-1.1.5-1.4.9-.2.2.2.9.6 1.3.6.6 1.1 1.1 1.8 1.7.6.5.8 1 .6 1.8-.2.7-.3 1.4-.4 2.2zm.8-5.9c2.2.1 3.5-.9 4.1-3 .6 2.1 1.8 3.2 4.2 3-1.9 1.3-2.4 2.8-1.6 4.9-1.8-1.4-3.4-1.4-5.1 0 .7-2.2.2-3.7-1.6-4.9z" fill-rule="evenodd" clip-rule="evenodd" fill="#d81690"/><radialGradient id="a" cx="-10.036" cy="273.553" r="1" gradientTransform="matrix(-129.5729 57.8929 60.7545 135.9777 -17725.404 -36443.074)" gradientUnits="userSpaceOnUse"><stop offset="0" stop-color="#d01e8d"/><stop offset="1" stop-color="#621461"/></radialGradient><path d="M220.9 154.6c-2.3 7.4-7.7 10.1-15.1 10.4-15.6.6-29.5 6-42.1 15.1-19.9 14.4-45 14.6-65.1.2-13-9.2-27.2-14.9-43.3-15.4-7.3-.2-12.1-3.3-14.3-10.3v-47.2c2.2-7 7.1-10 14.3-10.3 16.1-.6 30.5-6.2 43.6-15.7 19.1-13.8 44.5-14 63.8-.2 13.4 9.5 27.8 15.4 44.3 15.9 7.1.2 11.7 3.6 13.9 10.2v47.3zM48.4 131v18.8c0 5.9 1.2 7.4 7.1 7.7 17.7.9 33.3 6.9 47.7 17.1 17.1 12.2 38.5 11.9 55.6-.1 3.3-2.3 6.6-4.5 10.1-6.4 11.7-6.5 24.2-10 37.7-10.6 5.1-.2 6.9-1.8 6.9-5.8.1-13.8.1-27.4 0-41.2 0-3.4-1.8-5.4-5.4-5.8-.9-.1-1.8-.1-2.6-.2-2.2-.1-4.4-.3-6.5-.6-14.8-2-28.1-7.8-40.2-16.3-16.8-11.9-37.9-12.4-54.2-.9-15.2 10.7-31.6 17.3-50.3 18-4.3.2-5.9 2-5.9 6.3-.1 4.5 0 8.9 0 13.4-.1 2.2 0 4.4 0 6.6zm37.6-.2c-.1-24.5 20.1-44.6 44.8-44.7 24.9-.1 45 20.2 45 45.3 0 24.2-20.1 44.3-44.7 44.5-24.8.3-45-19.8-45.1-45.1zm82.4.3c-.3-21.3-17.3-38.1-38-37.6-20.6.4-37.3 17.2-37 37.3.2 21.3 17 38.1 37.7 37.8 20.7-.2 37.7-17.3 37.3-37.5zm-54.9 17.5c-.2 1.1-.3 2.2-.5 3.4 0 3.4 3.4 5 7 2.2 7.4-5.4 14.4-6 21.8-.1 1.3 1 4.5 1.4 5.4.6.9-.9 1-2.8 1.1-4.5 0-.4 0-.7.1-1.1.1-1.3-.2-2.6-.6-3.9-1.8-5.4-1-9.8 4-13 1.5-1 2.9-2.4 3.9-3.9.9-1.3 2.1-3.4 1.6-4.4-.6-1.4-2.6-2.3-4.2-2.8-2.3-.6-4.7-.8-7.1-1-3.8-.2-6.5-1.5-7.7-5.4-.7-2.2-1.8-4.5-3.2-6.4-1-1.4-2.8-3.4-4.2-3.4-1.4 0-3.1 2.1-4.1 3.6-.8 1.4-1.5 2.8-2.2 4.2-.7 1.4-1.4 2.9-2.2 4.2-.7 1.2-2.2 2.2-3.4 2.6-1.5.4-3.1.6-4.7.8-1.6.2-3.2.4-4.7.8-1.8.5-4 1.5-5 3-.5.8 1 3.3 2.1 4.6 1.8 2.2 4 4.2 6.2 6.2 2.1 1.8 2.8 3.5 2.1 6.2-.8 2.4-1.2 4.9-1.5 7.5zm2.6-20.9c8 .2 12.8-3.2 14.8-11 2.2 7.5 6.6 11.5 15 10.8-6.7 4.6-8.5 10.2-5.6 17.7-6.3-5-12.2-5.2-18.5 0 2.7-7.5 1.1-13.1-5.7-17.5zm-62 3.7c0-6.8 5.6-12.4 12.5-12.4s12.5 5.6 12.5 12.6c0 6.7-5.6 12.3-12.4 12.3-6.9.1-12.5-5.5-12.6-12.5zm22.9.1c-.1-5.9-4.8-10.6-10.6-10.4-5.7.1-10.3 4.8-10.2 10.3.1 5.9 4.7 10.6 10.5 10.5 5.6-.1 10.4-4.8 10.3-10.4zm-15.3 5c0 .2-.1.5-.1.8 0 1 .9 1.4 2 .5 2.1-1.4 4-1.6 6.1 0 .4.3 1.3.4 1.5.2.3-.2.3-1 .3-1.5 0-.4-.1-.8-.2-1.1-.5-1.4-.2-2.7 1.1-3.6.5-.3.8-.7 1.1-1.1.2-.3.6-1 .4-1.2-.2-.4-.7-.6-1.2-.8-.4-.1-.9-.1-1.3-.2-.2 0-.5 0-.7-.1-1-.1-1.8-.4-2.2-1.5-.2-.6-.5-1.2-.9-1.8-.3-.4-.8-1-1.2-1-.4.1-.9.6-1.1 1l-.6 1.2-.6 1.2c-.2.3-.6.6-1 .7-.4.1-.9.2-1.3.2s-.9.1-1.3.2c-.5.2-1.1.5-1.4.9-.2.2.2.9.6 1.3.6.6 1.1 1.1 1.8 1.7.6.5.8 1 .6 1.8-.2.7-.3 1.4-.4 2.2zm.8-5.9c2.2.1 3.5-.9 4.1-3 .6 2.1 1.8 3.2 4.2 3-1.9 1.3-2.4 2.8-1.6 4.9-1.8-1.4-3.4-1.4-5.1 0 .7-2.2.2-3.7-1.6-4.9zm120.2.8c0-6.8 5.6-12.4 12.4-12.4 6.9 0 12.5 5.6 12.5 12.6 0 6.7-5.6 12.3-12.4 12.3-6.9.1-12.5-5.5-12.5-12.5zm22.8.1c-.1-5.9-4.8-10.6-10.6-10.4-5.7.1-10.3 4.8-10.2 10.3.1 5.9 4.7 10.6 10.5 10.5 5.7-.1 10.4-4.8 10.3-10.4zm-15.2 5c0 .2-.1.5-.1.8 0 1 .9 1.4 1.9.5 2.1-1.4 4-1.6 6.1 0 .4.3 1.3.4 1.5.2.3-.2.3-1 .3-1.5 0-.4-.1-.8-.2-1.1-.5-1.4-.2-2.7 1.1-3.6.5-.3.8-.7 1.1-1.1.3-.3.6-1 .5-1.2-.2-.4-.7-.6-1.2-.8-.4-.1-.9-.1-1.3-.2-.2 0-.5 0-.7-.1-1-.1-1.8-.4-2.2-1.5-.2-.6-.5-1.2-.9-1.8-.3-.4-.8-1-1.2-1-.4.1-.9.6-1.1 1l-.6 1.2-.6 1.2c-.2.3-.6.6-1 .7-.4.1-.9.2-1.3.2s-.9.1-1.3.2c-.5.2-1.1.5-1.4.9-.2.2.2.9.6 1.3.6.6 1.1 1.1 1.8 1.7.6.5.8 1 .6 1.8-.2.7-.3 1.4-.4 2.2zm.8-5.9c2.2.1 3.5-.9 4.1-3 .6 2.1 1.8 3.2 4.2 3-1.9 1.3-2.4 2.8-1.6 4.9-1.8-1.4-3.4-1.4-5.1 0 .7-2.2.2-3.7-1.6-4.9z" fill-rule="evenodd" clip-rule="evenodd" fill="url(#a)"/></svg>