<svg xmlns="http://www.w3.org/2000/svg" viewBox="0 0 262 262"><path d="M89.1 80.5c5.4-6.7 15.2-13.4 31.3-9.6l4.3-7.4c5.9-10.2 14-9.1 28.5-.7 14.4 8.3 48.7 28.1 48.7 28.1 10.2 5.9 13.8 18.6 7.9 28.8l-6.1 10.5c-3.6 6.2-12 20.8-21.8 34.4-11.2 15.6-16.9 18.3-26 23.7L144 208.7c-2.5 4.3-8.1 5.8-12.4 3.3l-50.9-29.4c-4.4-2.5-5.8-8.1-3.3-12.4l11.3-19.6c-4.4-8.6-11.5-14.5-11.4-28.8.1-10.2 1.8-29 11.8-41.3zm109.6 15.6l-47.2-27.2c-7.3-4.2-17.5-9.6-21.7-2.3l-3.6 6.2c5.3 2 9.4 5.2 11.8 9.3 2.4 4.1 3 8.8 1.7 13.2-1.6 5.1-5.4 9-10.9 11.2-3.3 1.3-7.2 1.9-11.3 1.8 2.3 8.3 7.6 15.2 15.4 19.7l19.8 11.4c16 9.2 36.4 3.7 45.6-12.2l6.1-10.5c4.8-8.4-.3-17.5-5.7-20.6zm-115 81.2l50.9 29.4c1.4.8 3.3.3 4.1-1.1l12.1-21c.8-1.5.3-3.3-1.1-4.1L98.9 151c-1.5-.8-3.3-.3-4.1 1.1l-1.5 2.6 11.1 6.4c1.5.8 2 2.7 1.1 4.1l-6.1 10.5c-.8 1.5-2.7 1.9-4.1 1.1l-11.1-6.4-1.5 2.6c-1 1.6-.5 3.5 1 4.3zm3.4-12l8.5 4.9 3-5.3-8.5-4.9-3 5.3zm5.9-19.6c2.7-1.5 6.1-1.5 8.9.1l50.9 29.4c2 1.2 3.4 3 4.1 5 12.6-9.5 21-19.8 30.3-34.6-11.5 5.8-25.6 5.9-37.5-1l-19.8-11.4c-9.9-5.7-16.5-14.8-18.8-25.7-1.2-.2-2.4-.5-3.7-.9-1.6-.4-2.6-2.1-2.1-3.7.4-1.6 2.1-2.6 3.7-2.1 6.9 1.9 12.9 1.9 17.6 0 3.7-1.5 6.3-4.1 7.3-7.4 1.6-5.1-1-12.1-10.5-15.4-12.7-4.4-22.7-2.3-29.7 6.2-13.3 16.5-8 44.6-.7 61.5z" fill="#d81690"/><radialGradient id="a" cx="-9.883" cy="273.499" r="1" gradientTransform="matrix(43.9067 103.3414 139.9217 -59.4486 -37765.965 17431.986)" gradientUnits="userSpaceOnUse"><stop offset="0" stop-color="#d01e8d"/><stop offset="1" stop-color="#621461"/></radialGradient><path d="M89.1 80.5c5.4-6.7 15.2-13.4 31.3-9.6l4.3-7.4c5.9-10.2 14-9.1 28.5-.7 14.4 8.3 48.7 28.1 48.7 28.1 10.2 5.9 13.8 18.6 7.9 28.8l-6.1 10.5c-3.6 6.2-12 20.8-21.8 34.4-11.2 15.6-16.9 18.3-26 23.7L144 208.7c-2.5 4.3-8.1 5.8-12.4 3.3l-50.9-29.4c-4.4-2.5-5.8-8.1-3.3-12.4l11.3-19.6c-4.4-8.6-11.5-14.5-11.4-28.8.1-10.2 1.8-29 11.8-41.3zm109.6 15.6l-47.2-27.2c-7.3-4.2-17.5-9.6-21.7-2.3l-3.6 6.2c5.3 2 9.4 5.2 11.8 9.3 2.4 4.1 3 8.8 1.7 13.2-1.6 5.1-5.4 9-10.9 11.2-3.3 1.3-7.2 1.9-11.3 1.8 2.3 8.3 7.6 15.2 15.4 19.7l19.8 11.4c16 9.2 36.4 3.7 45.6-12.2l6.1-10.5c4.8-8.4-.3-17.5-5.7-20.6zm-115 81.2l50.9 29.4c1.4.8 3.3.3 4.1-1.1l12.1-21c.8-1.5.3-3.3-1.1-4.1L98.9 151c-1.5-.8-3.3-.3-4.1 1.1l-1.5 2.6 11.1 6.4c1.5.8 2 2.7 1.1 4.1l-6.1 10.5c-.8 1.5-2.7 1.9-4.1 1.1l-11.1-6.4-1.5 2.6c-1 1.6-.5 3.5 1 4.3zm3.4-12l8.5 4.9 3-5.3-8.5-4.9-3 5.3zm5.9-19.6c2.7-1.5 6.1-1.5 8.9.1l50.9 29.4c2 1.2 3.4 3 4.1 5 12.6-9.5 21-19.8 30.3-34.6-11.5 5.8-25.6 5.9-37.5-1l-19.8-11.4c-9.9-5.7-16.5-14.8-18.8-25.7-1.2-.2-2.4-.5-3.7-.9-1.6-.4-2.6-2.1-2.1-3.7.4-1.6 2.1-2.6 3.7-2.1 6.9 1.9 12.9 1.9 17.6 0 3.7-1.5 6.3-4.1 7.3-7.4 1.6-5.1-1-12.1-10.5-15.4-12.7-4.4-22.7-2.3-29.7 6.2-13.3 16.5-8 44.6-.7 61.5z" fill="url(#a)"/></svg>