<svg xmlns="http://www.w3.org/2000/svg" viewBox="0 0 262 262"><path d="M188 151.2c-3.2-14.3-8.1-27.2-15.2-37.4 2.3-6.4 3.7-14.1 3.7-22.4 0-22.3-9.8-40.4-21.8-40.4-11.9 0-21.5 17.5-21.8 39.4-.9 0-1.8-.1-2.8-.1-2 0-4 .1-5.9.3-.2-21.9-9.9-39.6-21.8-39.6-12 0-21.8 18.1-21.8 40.4 0 9.2 1.7 17.7 4.5 24.5-6.3 9.8-10.7 21.9-12.9 35.3-5.6 34.8 6.2 60.8 58 60.8s65.5-26.4 57.8-60.8zm-99.2-40.5c7.9-10 18.4-17 31-19.4-1-14.2-8.2-25.2-16.8-25.2-9.4 0-17 12.9-17 28.8.1 5.8 1.1 11.2 2.8 15.8zm65.4-44.6c-8.5 0-15.6 10.7-16.8 24.7 13 1.7 23.5 8.3 31.7 18 1.3-4.1 2.1-8.9 2.1-13.9 0-15.9-7.6-28.8-17-28.8zM111.9 167c0 4.8-3.1 8.7-7 8.7s-7-3.9-7-8.7c0-4.8 3.1-8.7 7-8.7s7 3.9 7 8.7zm-5.4-1.7c0 1.7-1.1 3-2.4 3-1.3 0-2.4-1.4-2.4-3 0-1.7 1.1-3 2.4-3 1.4 0 2.4 1.4 2.4 3zm57.1 1.7c0 4.8-3.1 8.7-7 8.7s-7-3.9-7-8.7c0-4.8 3.1-8.7 7-8.7s7 3.9 7 8.7zm-5.4-1.7c0 1.7-1.1 3-2.4 3s-2.4-1.4-2.4-3c0-1.7 1.1-3 2.4-3s2.4 1.4 2.4 3zm-20.4 8.1c0 2.4-3 4.4-6.7 4.4s-6.7-2-6.7-4.4c0-2.4 3-4.4 6.7-4.4s6.7 2 6.7 4.4zm-7.5 34.2c48.4 0 61.3-24.6 54.1-56.8-7.1-32.2-24.2-56.8-54.1-56.8-29.9 0-48.8 24.3-54.1 56.8-5.3 32.5 5.7 56.8 54.1 56.8zm43.7-26.7c.1.4-4.6 2.1-10.5 3.6-5.9 1.6-10.8 2.5-10.9 2.1-.1-.4 4.6-2.1 10.5-3.6 5.9-1.6 10.8-2.6 10.9-2.1zm-70.1 10.7c-5.9 1.6-10.6 3.2-10.5 3.6.1.4 5-.5 10.9-2.1s10.6-3.2 10.5-3.6c-.1-.4-5 .5-10.9 2.1zm70.4.8c-.1.4-5 .2-11.1-.6-6-.8-10.9-1.7-10.9-2.2.1-.4 5-.2 11.1.6s11 1.8 10.9 2.2zm-70.1-8.1c-6-.8-11-1-11.1-.6-.1.4 4.8 1.4 10.9 2.2 6 .8 11 1 11.1.6 0-.5-4.8-1.4-10.9-2.2z" fill-rule="evenodd" clip-rule="evenodd" fill="#d81690"/><radialGradient id="a" cx="-10.006" cy="273.552" r="1" gradientTransform="matrix(-85.7198 77.6742 108.8991 120.1791 -30474.676 -31910.031)" gradientUnits="userSpaceOnUse"><stop offset="0" stop-color="#d01e8d"/><stop offset="1" stop-color="#621461"/></radialGradient><path d="M188 151.2c-3.2-14.3-8.1-27.2-15.2-37.4 2.3-6.4 3.7-14.1 3.7-22.4 0-22.3-9.8-40.4-21.8-40.4-11.9 0-21.5 17.5-21.8 39.4-.9 0-1.8-.1-2.8-.1-2 0-4 .1-5.9.3-.2-21.9-9.9-39.6-21.8-39.6-12 0-21.8 18.1-21.8 40.4 0 9.2 1.7 17.7 4.5 24.5-6.3 9.8-10.7 21.9-12.9 35.3-5.6 34.8 6.2 60.8 58 60.8s65.5-26.4 57.8-60.8zm-99.2-40.5c7.9-10 18.4-17 31-19.4-1-14.2-8.2-25.2-16.8-25.2-9.4 0-17 12.9-17 28.8.1 5.8 1.1 11.2 2.8 15.8zm65.4-44.6c-8.5 0-15.6 10.7-16.8 24.7 13 1.7 23.5 8.3 31.7 18 1.3-4.1 2.1-8.9 2.1-13.9 0-15.9-7.6-28.8-17-28.8zM111.9 167c0 4.8-3.1 8.7-7 8.7s-7-3.9-7-8.7c0-4.8 3.1-8.7 7-8.7s7 3.9 7 8.7zm-5.4-1.7c0 1.7-1.1 3-2.4 3-1.3 0-2.4-1.4-2.4-3 0-1.7 1.1-3 2.4-3 1.4 0 2.4 1.4 2.4 3zm57.1 1.7c0 4.8-3.1 8.7-7 8.7s-7-3.9-7-8.7c0-4.8 3.1-8.7 7-8.7s7 3.9 7 8.7zm-5.4-1.7c0 1.7-1.1 3-2.4 3s-2.4-1.4-2.4-3c0-1.7 1.1-3 2.4-3s2.4 1.4 2.4 3zm-20.4 8.1c0 2.4-3 4.4-6.7 4.4s-6.7-2-6.7-4.4c0-2.4 3-4.4 6.7-4.4s6.7 2 6.7 4.4zm-7.5 34.2c48.4 0 61.3-24.6 54.1-56.8-7.1-32.2-24.2-56.8-54.1-56.8-29.9 0-48.8 24.3-54.1 56.8-5.3 32.5 5.7 56.8 54.1 56.8zm43.7-26.7c.1.4-4.6 2.1-10.5 3.6-5.9 1.6-10.8 2.5-10.9 2.1-.1-.4 4.6-2.1 10.5-3.6 5.9-1.6 10.8-2.6 10.9-2.1zm-70.1 10.7c-5.9 1.6-10.6 3.2-10.5 3.6.1.4 5-.5 10.9-2.1s10.6-3.2 10.5-3.6c-.1-.4-5 .5-10.9 2.1zm70.4.8c-.1.4-5 .2-11.1-.6-6-.8-10.9-1.7-10.9-2.2.1-.4 5-.2 11.1.6s11 1.8 10.9 2.2zm-70.1-8.1c-6-.8-11-1-11.1-.6-.1.4 4.8 1.4 10.9 2.2 6 .8 11 1 11.1.6 0-.5-4.8-1.4-10.9-2.2z" fill-rule="evenodd" clip-rule="evenodd" fill="url(#a)"/></svg>