<svg xmlns="http://www.w3.org/2000/svg" viewBox="0 0 262 262"><path d="M195.1 83.6l11.3 1.9c1.9.3 3.4 1.8 3.5 3.6.2 1.8-1 3.5-2.8 4.1h-.1L196.3 97c-.4 1.7-.9 3.4-1.7 5-.7 1.6-1.7 3.1-2.8 4.5l4 10.7c.7 1.8.1 3.8-1.4 4.8-.3.2-.6.3-.9.5-1.4.5-2.9.2-4.2-.9l-8.7-7.4c-3.2 1.1-6.7 1.4-10 1-.1 0-.3.2-.6.5-.4.4-1.1 1.1-1.8 1.9-3.1 3.2-8.2 8.6-10.2 7.6-1.7-.8-2.5-2.6-2.2-4.6l2.1-11.2c-2.6-2.4-4.7-5.3-6-8.6l-11.3-1.9c-1.9-.3-3.4-1.8-3.5-3.6-.2-1.8 1-3.5 2.9-4.2l10.7-3.8c.4-1.7.9-3.4 1.7-5 .7-1.6 1.7-3.1 2.8-4.5l-4-10.7c-.7-1.8-.1-3.8 1.4-4.8 1.5-1.1 3.5-.9 5 .4l8.7 7.4c3.4-1.1 6.9-1.4 10.5-.9l7.3-8.8c1.3-1.5 3.2-2 4.9-1.2 1.7.8 2.5 2.6 2.2 4.6L189.1 75c2.6 2.4 4.7 5.3 6 8.6zm-93.8 63.1l-1.4 3c1.7.8 8.2 4.8 8.8 6.5.6 1.8.6 3.6-.2 5.3-.8 1.7-2.2 3-3.9 3.6-1 .4-2.1.5-3.2.4l-16 32.2c1.9 2 2.6 5.1 1.3 7.8-.8 1.7-2.2 3-3.9 3.6-1.8.6-3.6.6-5.3-.2L64.9 203c-3.5-1.6-5-5.8-3.4-9.3 1.3-2.7 4-4.2 6.8-4l16.5-31.9c-.8-.7-1.4-1.7-1.8-2.7-.6-1.8-.6-3.6.2-5.3.8-1.7 2.2-3 3.9-3.6 1.8-.6 3.6-.6 5.3.2l3.2 1.4 1.4-3c.5-1.2 1.9-1.7 3.1-1.1 1.3.4 1.8 1.8 1.2 3zm-28.6 44.6l8.8 4.1L97 163.8l-8.1-3.8-16.2 31.3zm8.5 13.4c.6-.2 1.1-.6 1.3-1.2.5-1.2 0-2.5-1.1-3.1l-12.6-5.9c-.6-.3-1.2-.3-1.8-.1-.6.2-1.1.6-1.3 1.2-.3.6-.3 1.2-.1 1.8.2.6.6 1.1 1.2 1.3l12.6 5.9c.6.3 1.2.3 1.8.1zm20-44c1.2.5 2.5 0 3.1-1.1.3-.6.3-1.2.1-1.8-.2-.6-.6-1.1-1.2-1.3l-12.7-5.9c-.6-.3-1.2-.3-1.8-.1-.6.2-1 .6-1.3 1.2-.3.6-.3 1.2-.1 1.8.2.6.6 1.1 1.2 1.3l12.7 5.9zm83-85.2l1.9-10.2-7.8 9.4c.7.7 1.6 1.3 2.6 1.8.9.4 2 .7 3 .8l.3-1.8zm-19.8-.8c0-.1 0-.1 0 0l-7.9-6.8 3.6 9.7.6 1.7c1-.3 2-.7 2.8-1.3.9-.6 1.6-1.3 2.2-2.2l-1.3-1.1zm-10.7 16.7l-9.8 3.5 10.3 1.7 1.8.3c.3-1 .3-2.1.3-3.1-.1-1-.4-2.1-.8-3l-1.8.6zm9.2 17.7l-1.9 10.2 6.6-8 1.2-1.4c-.7-.7-1.6-1.3-2.6-1.8-.9-.4-2-.7-3-.8l-.3 1.8zm19.8.8l7.9 6.8-3.6-9.7-.6-1.7c-1 .3-2 .7-2.8 1.3-.9.6-1.6 1.3-2.2 2.2l1.3 1.1zm4.9-9.6c.9-.1 1.7.3 2.1 1l.6-1.2c.2-.4.4-.8.5-1.2-.8.1-1.7-.3-2.2-1-1.4-2-2.3-4.3-2.5-6.8-.2-2.4.2-4.9 1.3-7.1.4-.8 1.1-1.3 2-1.3-.5-.8-1-1.5-1.5-2.2-.3.6-.7 1-1.3 1.3-.2.1-.4.1-.6.1-2.4.2-4.9-.2-7.1-1.3-2.2-1-4.1-2.6-5.5-4.6-.5-.7-.5-1.6-.2-2.4-.9 0-1.8.1-2.6.2.5.7.6 1.6.2 2.4-1 2.2-2.6 4.1-4.6 5.5-1 .7-2.1 1.3-3.2 1.7-1.1.4-2.3.7-3.5.8-.9.1-1.7-.3-2.1-1l-.6 1.2c-.2.4-.4.8-.5 1.2.8-.1 1.7.3 2.2 1 1.4 2 2.3 4.3 2.5 6.8.2 2.4-.2 4.9-1.3 7.1-.3.6-.7 1-1.3 1.2-.2.1-.4.1-.7.1.5.8 1 1.5 1.5 2.2.3-.8 1.1-1.3 1.9-1.4 2.4-.2 4.9.2 7.1 1.3 2.2 1 4.1 2.6 5.5 4.6.5.7.5 1.6.2 2.4.9 0 1.8-.1 2.6-.2-.5-.7-.6-1.6-.2-2.4 1-2.2 2.6-4.1 4.6-5.5 2-1.5 4.3-2.3 6.7-2.5zm5.8-7.1l9.8-3.5L193 88l-1.8-.3c-.3 1-.3 2.1-.3 3.1.1 1 .4 2.1.8 3l1.7-.6zm-27.6-5.7c-.9 2-1 4.2-.3 6.2s2.2 3.7 4.2 4.6c2 .9 4.2 1 6.2.3s3.7-2.2 4.6-4.2c.9-2 1-4.2.3-6.2s-2.2-3.7-4.2-4.6c-4.1-1.9-8.9-.1-10.8 3.9zm10.5 4.9c-.4.8-1.1 1.5-2 1.8-.9.3-1.8.3-2.7-.1-.8-.4-1.5-1.1-1.8-2-.3-.9-.3-1.8.1-2.7.4-.9 1.1-1.5 2-1.8.8-.3 1.8-.3 2.7.1.8.4 1.5 1.1 1.8 2 .3.9.3 1.9-.1 2.7zm-71.1 47.9c.6-.2 1-.6 1.3-1.2.5-1.2 0-2.5-1.1-3.1-1.2-.5-2.5 0-3.1 1.1-.5 1.2 0 2.5 1.1 3.1.6.3 1.2.3 1.8.1zm14.8-2.6c-.3.6-.8 1-1.3 1.2-.6.2-1.2.2-1.8-.1-.2-.1-.4-.2-.5-.3-.8-.7-1.1-1.8-.6-2.8.5-1.2 1.9-1.7 3.1-1.1 1 .5 1.6 1.6 1.3 2.7-.1.1-.1.2-.2.4zm13.9-1.9c.6-.2 1-.6 1.3-1.2.3-.7.3-1.4 0-2-.2-.4-.6-.8-1.1-1-1.2-.5-2.5 0-3.1 1.1-.2.4-.3.9-.2 1.3.1.8.6 1.4 1.3 1.8.6.2 1.3.2 1.8 0zm13.4-8.1c-.3.6-.8 1-1.3 1.2-.6.2-1.2.2-1.8-.1-1.2-.5-1.7-1.9-1.1-3.1.5-1.2 1.9-1.7 3.1-1.1s1.7 2 1.1 3.1zm3.7-11.5c.6-.2 1-.6 1.3-1.2.5-1.2 0-2.5-1.1-3.1-1.2-.5-2.5 0-3.1 1.1-.5 1.2 0 2.5 1.1 3.1.6.3 1.3.3 1.8.1z" fill-rule="evenodd" clip-rule="evenodd" fill="#d81690"/><radialGradient id="a" cx="-10.003" cy="273.564" r="1" gradientTransform="matrix(-101.2407 95.401 97.6539 103.6315 -27523.852 -27248.477)" gradientUnits="userSpaceOnUse"><stop offset="0" stop-color="#d01e8d"/><stop offset="1" stop-color="#621461"/></radialGradient><path d="M195.1 83.6l11.3 1.9c1.9.3 3.4 1.8 3.5 3.6.2 1.8-1 3.5-2.8 4.1h-.1L196.3 97c-.4 1.7-.9 3.4-1.7 5-.7 1.6-1.7 3.1-2.8 4.5l4 10.7c.7 1.8.1 3.8-1.4 4.8-.3.2-.6.3-.9.5-1.4.5-2.9.2-4.2-.9l-8.7-7.4c-3.2 1.1-6.7 1.4-10 1-.1 0-.3.2-.6.5-.4.4-1.1 1.1-1.8 1.9-3.1 3.2-8.2 8.6-10.2 7.6-1.7-.8-2.5-2.6-2.2-4.6l2.1-11.2c-2.6-2.4-4.7-5.3-6-8.6l-11.3-1.9c-1.9-.3-3.4-1.8-3.5-3.6-.2-1.8 1-3.5 2.9-4.2l10.7-3.8c.4-1.7.9-3.4 1.7-5 .7-1.6 1.7-3.1 2.8-4.5l-4-10.7c-.7-1.8-.1-3.8 1.4-4.8 1.5-1.1 3.5-.9 5 .4l8.7 7.4c3.4-1.1 6.9-1.4 10.5-.9l7.3-8.8c1.3-1.5 3.2-2 4.9-1.2 1.7.8 2.5 2.6 2.2 4.6L189.1 75c2.6 2.4 4.7 5.3 6 8.6zm-93.8 63.1l-1.4 3c1.7.8 8.2 4.8 8.8 6.5.6 1.8.6 3.6-.2 5.3-.8 1.7-2.2 3-3.9 3.6-1 .4-2.1.5-3.2.4l-16 32.2c1.9 2 2.6 5.1 1.3 7.8-.8 1.7-2.2 3-3.9 3.6-1.8.6-3.6.6-5.3-.2L64.9 203c-3.5-1.6-5-5.8-3.4-9.3 1.3-2.7 4-4.2 6.8-4l16.5-31.9c-.8-.7-1.4-1.7-1.8-2.7-.6-1.8-.6-3.6.2-5.3.8-1.7 2.2-3 3.9-3.6 1.8-.6 3.6-.6 5.3.2l3.2 1.4 1.4-3c.5-1.2 1.9-1.7 3.1-1.1 1.3.4 1.8 1.8 1.2 3zm-28.6 44.6l8.8 4.1L97 163.8l-8.1-3.8-16.2 31.3zm8.5 13.4c.6-.2 1.1-.6 1.3-1.2.5-1.2 0-2.5-1.1-3.1l-12.6-5.9c-.6-.3-1.2-.3-1.8-.1-.6.2-1.1.6-1.3 1.2-.3.6-.3 1.2-.1 1.8.2.6.6 1.1 1.2 1.3l12.6 5.9c.6.3 1.2.3 1.8.1zm20-44c1.2.5 2.5 0 3.1-1.1.3-.6.3-1.2.1-1.8-.2-.6-.6-1.1-1.2-1.3l-12.7-5.9c-.6-.3-1.2-.3-1.8-.1-.6.2-1 .6-1.3 1.2-.3.6-.3 1.2-.1 1.8.2.6.6 1.1 1.2 1.3l12.7 5.9zm83-85.2l1.9-10.2-7.8 9.4c.7.7 1.6 1.3 2.6 1.8.9.4 2 .7 3 .8l.3-1.8zm-19.8-.8c0-.1 0-.1 0 0l-7.9-6.8 3.6 9.7.6 1.7c1-.3 2-.7 2.8-1.3.9-.6 1.6-1.3 2.2-2.2l-1.3-1.1zm-10.7 16.7l-9.8 3.5 10.3 1.7 1.8.3c.3-1 .3-2.1.3-3.1-.1-1-.4-2.1-.8-3l-1.8.6zm9.2 17.7l-1.9 10.2 6.6-8 1.2-1.4c-.7-.7-1.6-1.3-2.6-1.8-.9-.4-2-.7-3-.8l-.3 1.8zm19.8.8l7.9 6.8-3.6-9.7-.6-1.7c-1 .3-2 .7-2.8 1.3-.9.6-1.6 1.3-2.2 2.2l1.3 1.1zm4.9-9.6c.9-.1 1.7.3 2.1 1l.6-1.2c.2-.4.4-.8.5-1.2-.8.1-1.7-.3-2.2-1-1.4-2-2.3-4.3-2.5-6.8-.2-2.4.2-4.9 1.3-7.1.4-.8 1.1-1.3 2-1.3-.5-.8-1-1.5-1.5-2.2-.3.6-.7 1-1.3 1.3-.2.1-.4.1-.6.1-2.4.2-4.9-.2-7.1-1.3-2.2-1-4.1-2.6-5.5-4.6-.5-.7-.5-1.6-.2-2.4-.9 0-1.8.1-2.6.2.5.7.6 1.6.2 2.4-1 2.2-2.6 4.1-4.6 5.5-1 .7-2.1 1.3-3.2 1.7-1.1.4-2.3.7-3.5.8-.9.1-1.7-.3-2.1-1l-.6 1.2c-.2.4-.4.8-.5 1.2.8-.1 1.7.3 2.2 1 1.4 2 2.3 4.3 2.5 6.8.2 2.4-.2 4.9-1.3 7.1-.3.6-.7 1-1.3 1.2-.2.1-.4.1-.7.1.5.8 1 1.5 1.5 2.2.3-.8 1.1-1.3 1.9-1.4 2.4-.2 4.9.2 7.1 1.3 2.2 1 4.1 2.6 5.5 4.6.5.7.5 1.6.2 2.4.9 0 1.8-.1 2.6-.2-.5-.7-.6-1.6-.2-2.4 1-2.2 2.6-4.1 4.6-5.5 2-1.5 4.3-2.3 6.7-2.5zm5.8-7.1l9.8-3.5L193 88l-1.8-.3c-.3 1-.3 2.1-.3 3.1.1 1 .4 2.1.8 3l1.7-.6zm-27.6-5.7c-.9 2-1 4.2-.3 6.2s2.2 3.7 4.2 4.6c2 .9 4.2 1 6.2.3s3.7-2.2 4.6-4.2c.9-2 1-4.2.3-6.2s-2.2-3.7-4.2-4.6c-4.1-1.9-8.9-.1-10.8 3.9zm10.5 4.9c-.4.8-1.1 1.5-2 1.8-.9.3-1.8.3-2.7-.1-.8-.4-1.5-1.1-1.8-2-.3-.9-.3-1.8.1-2.7.4-.9 1.1-1.5 2-1.8.8-.3 1.8-.3 2.7.1.8.4 1.5 1.1 1.8 2 .3.9.3 1.9-.1 2.7zm-71.1 47.9c.6-.2 1-.6 1.3-1.2.5-1.2 0-2.5-1.1-3.1-1.2-.5-2.5 0-3.1 1.1-.5 1.2 0 2.5 1.1 3.1.6.3 1.2.3 1.8.1zm14.8-2.6c-.3.6-.8 1-1.3 1.2-.6.2-1.2.2-1.8-.1-.2-.1-.4-.2-.5-.3-.8-.7-1.1-1.8-.6-2.8.5-1.2 1.9-1.7 3.1-1.1 1 .5 1.6 1.6 1.3 2.7-.1.1-.1.2-.2.4zm13.9-1.9c.6-.2 1-.6 1.3-1.2.3-.7.3-1.4 0-2-.2-.4-.6-.8-1.1-1-1.2-.5-2.5 0-3.1 1.1-.2.4-.3.9-.2 1.3.1.8.6 1.4 1.3 1.8.6.2 1.3.2 1.8 0zm13.4-8.1c-.3.6-.8 1-1.3 1.2-.6.2-1.2.2-1.8-.1-1.2-.5-1.7-1.9-1.1-3.1.5-1.2 1.9-1.7 3.1-1.1s1.7 2 1.1 3.1zm3.7-11.5c.6-.2 1-.6 1.3-1.2.5-1.2 0-2.5-1.1-3.1-1.2-.5-2.5 0-3.1 1.1-.5 1.2 0 2.5 1.1 3.1.6.3 1.3.3 1.8.1z" fill-rule="evenodd" clip-rule="evenodd" fill="url(#a)"/></svg>