<svg xmlns="http://www.w3.org/2000/svg" viewBox="0 0 262 262"><path d="M129.3 66.2c23.5-1.4 44 5.4 59.3 24.2 9.4 11.6 14 25.2 14.7 40.1 1.3 25.8-10.6 48.2-35.1 58.6-19.2 8.2-39 9-58.8 3-24.5-7.4-39.6-23.6-42.8-49.5-.6-5.2-.5-10.5-.3-15.9.1-2.5.1-5 .1-7.5-14.1 1.6-24.6-5.6-33.5-16.8 7.2-4.1 14.7-5.5 22.7-5.6C48 86.3 45.1 79.7 45.4 74c13.1-1.6 25.3 4.5 34.4 17.6 12.8-16.1 29.5-24.2 49.5-25.4zm-25 47.2c-8.7 3.1-16.1 7.8-19.1 17.1-4.5 14.1 5 28.7 20 30.1 5.1.4 10.5.4 15.4-.7 10-2.2 19.7-1.7 29.7.1 5.3 1 11.1.7 16.5-.2 9.7-1.7 15.9-7.9 17.8-17.5 2.1-10.1-1.5-18.3-9.9-24.1-9.7-6.7-21-8.2-32.4-9.1-1.7-.1-3.5-.1-5.2-.1-.9 0-1.7.1-2.6.1-10.2-.2-20.4.8-30.2 4.3zm42.4 27.6c1.8 1.5 5 1.8 8.2.7 4.2-1.5 6.9-5 5.9-7.9-.2-.7-.7-1.3-1.2-1.8l6.2-4.7c1.5-1.2 1.8-3.4.7-4.9-1.2-1.5-3.4-1.8-4.9-.7l-17.1 13c-1.5 1.2-1.8 3.4-.7 4.9.8.9 1.8 1.4 2.9 1.4zm-22.9 0c-1.8 1.5-5 1.8-8.2.7-4.2-1.5-6.9-5-5.9-7.9.2-.7.7-1.3 1.2-1.8l-6.2-4.7c-1.5-1.2-1.8-3.4-.7-4.9 1.2-1.5 3.4-1.8 4.9-.7l17.1 13c1.5 1.2 1.8 3.4.7 4.9-.8 1-1.8 1.4-2.9 1.4z" fill-rule="evenodd" clip-rule="evenodd" fill="#d81690"/><radialGradient id="a" cx="-10.032" cy="273.55" r="1" gradientTransform="matrix(-122.7331 62.7192 71.6067 140.1248 -20640.799 -37525.398)" gradientUnits="userSpaceOnUse"><stop offset="0" stop-color="#d01e8d"/><stop offset="1" stop-color="#621461"/></radialGradient><path d="M129.3 66.2c23.5-1.4 44 5.4 59.3 24.2 9.4 11.6 14 25.2 14.7 40.1 1.3 25.8-10.6 48.2-35.1 58.6-19.2 8.2-39 9-58.8 3-24.5-7.4-39.6-23.6-42.8-49.5-.6-5.2-.5-10.5-.3-15.9.1-2.5.1-5 .1-7.5-14.1 1.6-24.6-5.6-33.5-16.8 7.2-4.1 14.7-5.5 22.7-5.6C48 86.3 45.1 79.7 45.4 74c13.1-1.6 25.3 4.5 34.4 17.6 12.8-16.1 29.5-24.2 49.5-25.4zm-25 47.2c-8.7 3.1-16.1 7.8-19.1 17.1-4.5 14.1 5 28.7 20 30.1 5.1.4 10.5.4 15.4-.7 10-2.2 19.7-1.7 29.7.1 5.3 1 11.1.7 16.5-.2 9.7-1.7 15.9-7.9 17.8-17.5 2.1-10.1-1.5-18.3-9.9-24.1-9.7-6.7-21-8.2-32.4-9.1-1.7-.1-3.5-.1-5.2-.1-.9 0-1.7.1-2.6.1-10.2-.2-20.4.8-30.2 4.3zm42.4 27.6c1.8 1.5 5 1.8 8.2.7 4.2-1.5 6.9-5 5.9-7.9-.2-.7-.7-1.3-1.2-1.8l6.2-4.7c1.5-1.2 1.8-3.4.7-4.9-1.2-1.5-3.4-1.8-4.9-.7l-17.1 13c-1.5 1.2-1.8 3.4-.7 4.9.8.9 1.8 1.4 2.9 1.4zm-22.9 0c-1.8 1.5-5 1.8-8.2.7-4.2-1.5-6.9-5-5.9-7.9.2-.7.7-1.3 1.2-1.8l-6.2-4.7c-1.5-1.2-1.8-3.4-.7-4.9 1.2-1.5 3.4-1.8 4.9-.7l17.1 13c1.5 1.2 1.8 3.4.7 4.9-.8 1-1.8 1.4-2.9 1.4z" fill-rule="evenodd" clip-rule="evenodd" fill="url(#a)"/></svg>