<svg xmlns="http://www.w3.org/2000/svg" viewBox="0 0 262 262"><path d="M168 94c1.1 0 2 .9 2 2v2.9h10V96c0-1.1.9-2 2-2s2 .9 2 2v2.9h13.9c.4 0 .7.1 1 .3.7.3 1.1 1 1.1 1.8v18.9h5.9c1 0 1.7.8 1.7 1.7v10.9c4.3 3.7 7 9.2 7 15.3 0 11.2-9.1 20.3-20.3 20.3-9.8 0-17.9-6.9-19.8-16.1h-13.7l-3 3c-.4.4-1 .6-1.5.5H99.1c-3 7.4-10.3 12.6-18.8 12.6s-15.8-5.2-18.8-12.6c-.1 0-.3.1-.4.1h-28c-.2 0-.4 0-.5-.1-.4 0-.7-.2-1.1-.4-.7-.6-.8-1.7-.2-2.5l11.4-13.2c.3-.4.8-.6 1.3-.6h18.2c3.3-6.6 10.2-11.2 18.1-11.2 5.3 0 10.2 2.1 13.8 5.4l11.5-11.5-3.8-3.5c-.7-.7-.7-1.8-.1-2.5.7-.7 1.8-.7 2.5-.1l10.2 9.4c.7.7.7 1.8.1 2.5-.7.7-1.8.7-2.5.1l-3.8-3.6-11.7 11.7c.7 1 1.4 2 2 3.1h28.1l.3-.6 25.1-29.4.1-.1c-.1-.2-.1-.4-.1-.6v-7c0-.2 0-.4.1-.6.1-.8.9-1.5 1.7-1.5H166V96c0-1.1.9-2 2-2zm-13.7 17.5L131 138.8h29.1v-27.3h-5.8zm15.2 27.3h-6v-15.4h40.6v6.7c-2.9-1.6-6.2-2.5-9.8-2.5-11.2 0-20.3 9.1-20.3 20.3v.7h-9.7l6.8-6.8c.7-.7.7-1.8 0-2.5-.3-.3-.8-.5-1.2-.5h-.4zm26.5-18.9h-32.4v-10.1c0-1-.8-1.7-1.7-1.7H156v-5.6h10v.6c0 1.1.9 2 2 2s2-.9 2-2v-.6h10v.6c0 1.1.9 2 2 2s2-.9 2-2v-.6h12v17.4zm-96.1 22.4h65.8l-9.8 9.8h-55.7c.3-1.4.4-2.8.4-4.2.1-2-.2-3.9-.7-5.6zM36.5 152h24c-.3-1.4-.4-2.8-.4-4.2 0-1.9.3-3.8.8-5.6h-16l-8.4 9.8zm60.7-4.1c0 9.3-7.5 16.8-16.8 16.8s-16.8-7.5-16.8-16.8 7.5-16.8 16.8-16.8c9.2 0 16.8 7.5 16.8 16.8zm-5.6.3c0 6.4-5.2 11.5-11.5 11.5-6.4 0-11.5-5.2-11.5-11.5 0-6.4 5.2-11.5 11.5-11.5s11.5 5.1 11.5 11.5zm-2 0c0 5.3-4.3 9.5-9.5 9.5-5.3 0-9.5-4.3-9.5-9.5 0-5.3 4.3-9.5 9.5-9.5s9.5 4.2 9.5 9.5zm104.7 16.4c9.3 0 16.8-7.5 16.8-16.8s-7.5-16.8-16.8-16.8-16.8 7.5-16.8 16.8c.1 9.3 7.6 16.8 16.8 16.8zm11.2-16.4c0 6.4-5.2 11.5-11.5 11.5-6.4 0-11.5-5.2-11.5-11.5 0-6.4 5.2-11.5 11.5-11.5 6.4 0 11.5 5.1 11.5 11.5zm-2 0c0 5.3-4.3 9.5-9.5 9.5-5.3 0-9.5-4.3-9.5-9.5 0-5.3 4.3-9.5 9.5-9.5 5.3 0 9.5 4.2 9.5 9.5zm26.5-43.7c0 1.4-1.1 2.5-2.5 2.5h-22c-1.4 0-2.5-1.1-2.5-2.5s1.1-2.5 2.5-2.5h22c1.4 0 2.5 1.1 2.5 2.5zM214.5 116c1.4 0 2.5-1.1 2.5-2.5s-1.1-2.5-2.5-2.5h-8c-1.4 0-2.5 1.1-2.5 2.5s1.1 2.5 2.5 2.5h8z" fill-rule="evenodd" clip-rule="evenodd" fill="#d81690"/><radialGradient id="a" cx="-10.049" cy="273.589" r="1" gradientTransform="matrix(-143.3459 35.7641 23.668 94.8636 -7714.957 -25437.152)" gradientUnits="userSpaceOnUse"><stop offset="0" stop-color="#d01e8d"/><stop offset="1" stop-color="#621461"/></radialGradient><path d="M168 94c1.1 0 2 .9 2 2v2.9h10V96c0-1.1.9-2 2-2s2 .9 2 2v2.9h13.9c.4 0 .7.1 1 .3.7.3 1.1 1 1.1 1.8v18.9h5.9c1 0 1.7.8 1.7 1.7v10.9c4.3 3.7 7 9.2 7 15.3 0 11.2-9.1 20.3-20.3 20.3-9.8 0-17.9-6.9-19.8-16.1h-13.7l-3 3c-.4.4-1 .6-1.5.5H99.1c-3 7.4-10.3 12.6-18.8 12.6s-15.8-5.2-18.8-12.6c-.1 0-.3.1-.4.1h-28c-.2 0-.4 0-.5-.1-.4 0-.7-.2-1.1-.4-.7-.6-.8-1.7-.2-2.5l11.4-13.2c.3-.4.8-.6 1.3-.6h18.2c3.3-6.6 10.2-11.2 18.1-11.2 5.3 0 10.2 2.1 13.8 5.4l11.5-11.5-3.8-3.5c-.7-.7-.7-1.8-.1-2.5.7-.7 1.8-.7 2.5-.1l10.2 9.4c.7.7.7 1.8.1 2.5-.7.7-1.8.7-2.5.1l-3.8-3.6-11.7 11.7c.7 1 1.4 2 2 3.1h28.1l.3-.6 25.1-29.4.1-.1c-.1-.2-.1-.4-.1-.6v-7c0-.2 0-.4.1-.6.1-.8.9-1.5 1.7-1.5H166V96c0-1.1.9-2 2-2zm-13.7 17.5L131 138.8h29.1v-27.3h-5.8zm15.2 27.3h-6v-15.4h40.6v6.7c-2.9-1.6-6.2-2.5-9.8-2.5-11.2 0-20.3 9.1-20.3 20.3v.7h-9.7l6.8-6.8c.7-.7.7-1.8 0-2.5-.3-.3-.8-.5-1.2-.5h-.4zm26.5-18.9h-32.4v-10.1c0-1-.8-1.7-1.7-1.7H156v-5.6h10v.6c0 1.1.9 2 2 2s2-.9 2-2v-.6h10v.6c0 1.1.9 2 2 2s2-.9 2-2v-.6h12v17.4zm-96.1 22.4h65.8l-9.8 9.8h-55.7c.3-1.4.4-2.8.4-4.2.1-2-.2-3.9-.7-5.6zM36.5 152h24c-.3-1.4-.4-2.8-.4-4.2 0-1.9.3-3.8.8-5.6h-16l-8.4 9.8zm60.7-4.1c0 9.3-7.5 16.8-16.8 16.8s-16.8-7.5-16.8-16.8 7.5-16.8 16.8-16.8c9.2 0 16.8 7.5 16.8 16.8zm-5.6.3c0 6.4-5.2 11.5-11.5 11.5-6.4 0-11.5-5.2-11.5-11.5 0-6.4 5.2-11.5 11.5-11.5s11.5 5.1 11.5 11.5zm-2 0c0 5.3-4.3 9.5-9.5 9.5-5.3 0-9.5-4.3-9.5-9.5 0-5.3 4.3-9.5 9.5-9.5s9.5 4.2 9.5 9.5zm104.7 16.4c9.3 0 16.8-7.5 16.8-16.8s-7.5-16.8-16.8-16.8-16.8 7.5-16.8 16.8c.1 9.3 7.6 16.8 16.8 16.8zm11.2-16.4c0 6.4-5.2 11.5-11.5 11.5-6.4 0-11.5-5.2-11.5-11.5 0-6.4 5.2-11.5 11.5-11.5 6.4 0 11.5 5.1 11.5 11.5zm-2 0c0 5.3-4.3 9.5-9.5 9.5-5.3 0-9.5-4.3-9.5-9.5 0-5.3 4.3-9.5 9.5-9.5 5.3 0 9.5 4.2 9.5 9.5zm26.5-43.7c0 1.4-1.1 2.5-2.5 2.5h-22c-1.4 0-2.5-1.1-2.5-2.5s1.1-2.5 2.5-2.5h22c1.4 0 2.5 1.1 2.5 2.5zM214.5 116c1.4 0 2.5-1.1 2.5-2.5s-1.1-2.5-2.5-2.5h-8c-1.4 0-2.5 1.1-2.5 2.5s1.1 2.5 2.5 2.5h8z" fill-rule="evenodd" clip-rule="evenodd" fill="url(#a)"/></svg>