<svg xmlns="http://www.w3.org/2000/svg" viewBox="0 0 262 262"><path d="M64.4 120.9c-8-4.5-13.4-13-13.4-22.8C51 83.7 62.7 72 77.1 72c11.4 0 21.1 7.3 24.6 17.5 9-3.2 19.2-4.9 30.6-4.9 10.7 0 20.2 1.6 28.6 4.4 3.7-9.9 13.3-17 24.5-17 14.4 0 26.1 11.7 26.1 26.1 0 9.5-5 17.7-12.5 22.3 3 5.1 5.4 10.6 7.3 16.4 0 .1.1.2.1.3 5.7-1.4 10.1-2.2 10.2-1.8.1.4-4 2-9.7 3.6 1.3 4.6 2 9 1.9 13.2 4.7 1.4 7.9 2.6 7.8 3-.1.4-3.4-.1-7.9-1.2-1.8 20.8-23.6 35.2-76.3 35.2-53.3 0-73.4-14.5-75.4-35.8-5.9 1.5-10.4 2.3-10.5 1.9-.1-.5 4.4-2.1 10.4-3.8-.2-3.8.2-7.8 1.1-11.9-6.5-1.8-11.6-3.6-11.5-4.1.1-.5 5.4.5 11.9 2.2.1-.2.1-.4.2-.7 1.2-5.7 3.2-11 5.8-16zM62 151.8c5.6-1.6 9.7-3.1 9.6-3.5-.1-.4-4.2.3-9.7 1.6-.1-3 .1-6.1.7-9.4 5.1 1.3 8.9 1.9 9 1.5.1-.4-3.6-1.8-8.7-3.3.2-.7.3-1.5.5-2.3 5.7-23.5 23.7-41.9 52-47.2-.2.9-.4 2.2-.4 4.2 0 8 2 14.5 4.5 14.5s4.5-6.5 4.5-14.5c0-3.1-.3-4.6-.8-5.3 3-.3 6.1-.4 9.3-.4 3.2 0 6.2.1 9.2.4-.4.9-.7 2.6-.7 5.3 0 8 2 14.5 4.5 14.5s4.5-6.5 4.5-14.5c0-1.9-.1-3.2-.3-4.2 27.7 5.4 44.3 24 51.9 47.2.2.6.4 1.1.5 1.7-6.2 1.7-10.9 3.4-10.8 3.9.1.5 5-.4 11.3-2 .9 3.7 1.4 7.3 1.3 10.7-6.8-1.8-12.4-2.9-12.6-2.4-.1.5 5.4 2.4 12.3 4.3h.1c-1.8 19.3-22.3 32.6-71.3 32.6-49.7 0-68.6-13.5-70.4-33.4zm4.6-34.6c7.1-11.5 17.8-20.7 31.7-26.4-3.5-6.7-10.6-11.2-18.6-11.2-11.6 0-21.1 9.4-21.1 21.1-.1 6.6 3.1 12.6 8 16.5zM165 90.5c13.8 5.6 24.3 14.9 31.8 26.4 4.7-3.9 7.8-9.7 7.8-16.3 0-11.6-9.4-21.1-21.1-21.1-7.9 0-14.9 4.5-18.5 11zM102.1 155c4.5 0 8.2-3.7 8.2-8.2 0-4.5-3.7-8.2-8.2-8.2-4.5 0-8.2 3.7-8.2 8.2 0 4.6 3.6 8.2 8.2 8.2zm-1-6.9c1.6 0 2.8-1.3 2.8-2.8 0-1.6-1.3-2.8-2.8-2.8-1.6 0-2.8 1.3-2.8 2.8 0 1.5 1.3 2.8 2.8 2.8zm61.4 6.9c4.5 0 8.2-3.7 8.2-8.2 0-4.5-3.7-8.2-8.2-8.2-4.5 0-8.2 3.7-8.2 8.2 0 4.6 3.6 8.2 8.2 8.2zm-1-6.9c1.6 0 2.8-1.3 2.8-2.8 0-1.6-1.3-2.8-2.8-2.8-1.6 0-2.8 1.3-2.8 2.8 0 1.5 1.2 2.8 2.8 2.8zm-21.1 4.7c0 2.2-3.3 4-7.4 4.1-.5 1.7-.2 3.2 1.5 4.6 4.3 3.5 8.8.6 11.1-.9.4-.2.7-.4.9-.6 1.8-1 3-.5 2 1-.5.8-1.7 1.4-4.1 2.6-.3.1-.6.3-.9.4-4.4 2.2-11.6-.8-11.1-1-.6.1-1.5.3-2.4.6-1.9.5-4.4 1.2-6.5.9-4-.5-6.5-2-7.5-3.5s.3-3.2 2.3-1c3.2 3.5 9.2 3 11.7 1.5 1.7-1 2-2.9 1.6-4.6-3.9-.3-6.9-2-6.9-4.1 0-2.3 3.5-4.1 7.9-4.1 4.3 0 7.8 1.9 7.8 4.1z" fill-rule="evenodd" clip-rule="evenodd" fill="#d81690"/><radialGradient id="a" cx="-10.036" cy="273.556" r="1" gradientTransform="matrix(-122.5804 56.4455 60.424 131.2204 -17567.988 -35158.148)" gradientUnits="userSpaceOnUse"><stop offset="0" stop-color="#d01e8d"/><stop offset="1" stop-color="#621461"/></radialGradient><path d="M64.4 120.9c-8-4.5-13.4-13-13.4-22.8C51 83.7 62.7 72 77.1 72c11.4 0 21.1 7.3 24.6 17.5 9-3.2 19.2-4.9 30.6-4.9 10.7 0 20.2 1.6 28.6 4.4 3.7-9.9 13.3-17 24.5-17 14.4 0 26.1 11.7 26.1 26.1 0 9.5-5 17.7-12.5 22.3 3 5.1 5.4 10.6 7.3 16.4 0 .1.1.2.1.3 5.7-1.4 10.1-2.2 10.2-1.8.1.4-4 2-9.7 3.6 1.3 4.6 2 9 1.9 13.2 4.7 1.4 7.9 2.6 7.8 3-.1.4-3.4-.1-7.9-1.2-1.8 20.8-23.6 35.2-76.3 35.2-53.3 0-73.4-14.5-75.4-35.8-5.9 1.5-10.4 2.3-10.5 1.9-.1-.5 4.4-2.1 10.4-3.8-.2-3.8.2-7.8 1.1-11.9-6.5-1.8-11.6-3.6-11.5-4.1.1-.5 5.4.5 11.9 2.2.1-.2.1-.4.2-.7 1.2-5.7 3.2-11 5.8-16zM62 151.8c5.6-1.6 9.7-3.1 9.6-3.5-.1-.4-4.2.3-9.7 1.6-.1-3 .1-6.1.7-9.4 5.1 1.3 8.9 1.9 9 1.5.1-.4-3.6-1.8-8.7-3.3.2-.7.3-1.5.5-2.3 5.7-23.5 23.7-41.9 52-47.2-.2.9-.4 2.2-.4 4.2 0 8 2 14.5 4.5 14.5s4.5-6.5 4.5-14.5c0-3.1-.3-4.6-.8-5.3 3-.3 6.1-.4 9.3-.4 3.2 0 6.2.1 9.2.4-.4.9-.7 2.6-.7 5.3 0 8 2 14.5 4.5 14.5s4.5-6.5 4.5-14.5c0-1.9-.1-3.2-.3-4.2 27.7 5.4 44.3 24 51.9 47.2.2.6.4 1.1.5 1.7-6.2 1.7-10.9 3.4-10.8 3.9.1.5 5-.4 11.3-2 .9 3.7 1.4 7.3 1.3 10.7-6.8-1.8-12.4-2.9-12.6-2.4-.1.5 5.4 2.4 12.3 4.3h.1c-1.8 19.3-22.3 32.6-71.3 32.6-49.7 0-68.6-13.5-70.4-33.4zm4.6-34.6c7.1-11.5 17.8-20.7 31.7-26.4-3.5-6.7-10.6-11.2-18.6-11.2-11.6 0-21.1 9.4-21.1 21.1-.1 6.6 3.1 12.6 8 16.5zM165 90.5c13.8 5.6 24.3 14.9 31.8 26.4 4.7-3.9 7.8-9.7 7.8-16.3 0-11.6-9.4-21.1-21.1-21.1-7.9 0-14.9 4.5-18.5 11zM102.1 155c4.5 0 8.2-3.7 8.2-8.2 0-4.5-3.7-8.2-8.2-8.2-4.5 0-8.2 3.7-8.2 8.2 0 4.6 3.6 8.2 8.2 8.2zm-1-6.9c1.6 0 2.8-1.3 2.8-2.8 0-1.6-1.3-2.8-2.8-2.8-1.6 0-2.8 1.3-2.8 2.8 0 1.5 1.3 2.8 2.8 2.8zm61.4 6.9c4.5 0 8.2-3.7 8.2-8.2 0-4.5-3.7-8.2-8.2-8.2-4.5 0-8.2 3.7-8.2 8.2 0 4.6 3.6 8.2 8.2 8.2zm-1-6.9c1.6 0 2.8-1.3 2.8-2.8 0-1.6-1.3-2.8-2.8-2.8-1.6 0-2.8 1.3-2.8 2.8 0 1.5 1.2 2.8 2.8 2.8zm-21.1 4.7c0 2.2-3.3 4-7.4 4.1-.5 1.7-.2 3.2 1.5 4.6 4.3 3.5 8.8.6 11.1-.9.4-.2.7-.4.9-.6 1.8-1 3-.5 2 1-.5.8-1.7 1.4-4.1 2.6-.3.1-.6.3-.9.4-4.4 2.2-11.6-.8-11.1-1-.6.1-1.5.3-2.4.6-1.9.5-4.4 1.2-6.5.9-4-.5-6.5-2-7.5-3.5s.3-3.2 2.3-1c3.2 3.5 9.2 3 11.7 1.5 1.7-1 2-2.9 1.6-4.6-3.9-.3-6.9-2-6.9-4.1 0-2.3 3.5-4.1 7.9-4.1 4.3 0 7.8 1.9 7.8 4.1z" fill-rule="evenodd" clip-rule="evenodd" fill="url(#a)"/></svg>