<svg xmlns="http://www.w3.org/2000/svg" viewBox="0 0 262 262"><path d="M131.6 75c-4 0-7.2 3.2-7.2 7.2s3.2 7.2 7.2 7.2 7.2-3.2 7.2-7.2-3.2-7.2-7.2-7.2zm-13.2 7.2c0-7.3 5.9-13.2 13.2-13.2 7.3 0 13.2 5.9 13.2 13.2 0 5.2-3.1 9.8-7.5 11.9 4.2 13.9 8.9 24.3 14.3 31.3 5.6 7.4 11.8 11.1 18.7 11.6 6.4.6 12.1-3.7 16.6-8.9 2.2-2.5 3.9-5.1 5.1-7.1.2-.3.4-.7.6-1-5.5-4-7-11.7-3.4-17.6 3.8-6.2 12-8.1 18.2-4.3 6.2 3.8 8.1 12 4.3 18.2-1.9 3-4.8 5-8 5.9L193 178.1c2.7 1.3 4.6 4.1 4.6 7.3 0 4.6-3.9 7.9-8.1 7.9H73.3c-4.3 0-8.1-3.3-8.1-7.9 0-3 1.7-5.7 4.2-7.1l-9.3-57.1c-6.3-1-11.2-6.5-11.2-13.1 0-7.3 5.9-13.2 13.2-13.2 7.3 0 13.2 5.9 13.2 13.2 0 5.2-3 9.7-7.4 11.9.2.4.5.8.7 1.2 1.2 1.9 3 4.4 5.4 6.9 4.8 5.1 11.4 9.9 19.7 10.2 3.4.1 7.2-2 11.3-6.4 4-4.3 7.9-10.2 11.2-16.3 3.3-6 6.1-12.1 8-16.7.8-1.9 1.4-3.5 1.9-4.7-4.5-1.9-7.7-6.6-7.7-12zm78.9 41.8l-.1.2c-1.3 2.2-3.2 5.1-5.7 7.9-4.8 5.6-12.3 11.8-21.7 11-9.1-.7-16.7-5.5-23.1-13.9-5.9-7.7-10.8-18.6-15-32.4-.5 1.3-1.1 2.9-1.9 4.7-2 4.7-4.8 11-8.3 17.3-3.4 6.3-7.5 12.7-12.1 17.5-4.5 4.7-9.9 8.5-15.9 8.3-10.5-.4-18.6-6.5-23.9-12.1-.8-.8-1.5-1.6-2.2-2.4l7.7 47.6h111.8l10.4-53.7zm-124 59.4c-1.1 0-2.1 1-2.1 2.1 0 .9.8 1.9 2.1 1.9h116.3c1.3 0 2.1-.9 2.1-1.9 0-1.1-1-2.1-2.1-2.1H73.3zM62.2 101c-4 0-7.2 3.2-7.2 7.2s3.2 7.2 7.2 7.2 7.2-3.2 7.2-7.2-3.2-7.2-7.2-7.2zm134.5 14.6c-3.4-2.1-4.4-6.5-2.3-9.9 2.1-3.4 6.5-4.4 9.9-2.3 3.4 2.1 4.4 6.5 2.3 9.9-2 3.3-6.5 4.4-9.9 2.3zM89.1 164.4c0-1.8 1.4-3.3 3.3-3.3 1.8 0 3.3 1.4 3.3 3.3 0 1.8-1.4 3.3-3.3 3.3-1.8-.1-3.3-1.5-3.3-3.3zm3.3-9.3c-5.1 0-9.3 4.1-9.3 9.3 0 5.1 4.1 9.3 9.3 9.3 5.1 0 9.3-4.1 9.3-9.3-.1-5.2-4.2-9.3-9.3-9.3zm39 5.8c-1.8 0-3.3 1.4-3.3 3.3 0 1.8 1.4 3.3 3.3 3.3 1.8 0 3.3-1.4 3.3-3.3-.1-1.9-1.5-3.3-3.3-3.3zm-9.3 3.2c0-5.1 4.1-9.3 9.3-9.3 5.1 0 9.3 4.1 9.3 9.3s-4.1 9.3-9.3 9.3c-5.2 0-9.3-4.1-9.3-9.3zm45.9.3c0-1.8 1.4-3.3 3.3-3.3 1.8 0 3.3 1.4 3.3 3.3 0 1.8-1.4 3.3-3.3 3.3-1.8-.1-3.3-1.5-3.3-3.3zm3.3-9.3c-5.1 0-9.3 4.1-9.3 9.3 0 5.1 4.1 9.3 9.3 9.3 5.1 0 9.3-4.1 9.3-9.3 0-5.2-4.2-9.3-9.3-9.3z" fill-rule="evenodd" clip-rule="evenodd" fill="#d81690"/><radialGradient id="a" cx="-10.033" cy="273.554" r="1" gradientTransform="matrix(-118.6712 60.0024 68.0774 134.6418 -19623.857 -36054.969)" gradientUnits="userSpaceOnUse"><stop offset="0" stop-color="#d01e8d"/><stop offset="1" stop-color="#621461"/></radialGradient><path d="M131.6 75c-4 0-7.2 3.2-7.2 7.2s3.2 7.2 7.2 7.2 7.2-3.2 7.2-7.2-3.2-7.2-7.2-7.2zm-13.2 7.2c0-7.3 5.9-13.2 13.2-13.2 7.3 0 13.2 5.9 13.2 13.2 0 5.2-3.1 9.8-7.5 11.9 4.2 13.9 8.9 24.3 14.3 31.3 5.6 7.4 11.8 11.1 18.7 11.6 6.4.6 12.1-3.7 16.6-8.9 2.2-2.5 3.9-5.1 5.1-7.1.2-.3.4-.7.6-1-5.5-4-7-11.7-3.4-17.6 3.8-6.2 12-8.1 18.2-4.3 6.2 3.8 8.1 12 4.3 18.2-1.9 3-4.8 5-8 5.9L193 178.1c2.7 1.3 4.6 4.1 4.6 7.3 0 4.6-3.9 7.9-8.1 7.9H73.3c-4.3 0-8.1-3.3-8.1-7.9 0-3 1.7-5.7 4.2-7.1l-9.3-57.1c-6.3-1-11.2-6.5-11.2-13.1 0-7.3 5.9-13.2 13.2-13.2 7.3 0 13.2 5.9 13.2 13.2 0 5.2-3 9.7-7.4 11.9.2.4.5.8.7 1.2 1.2 1.9 3 4.4 5.4 6.9 4.8 5.1 11.4 9.9 19.7 10.2 3.4.1 7.2-2 11.3-6.4 4-4.3 7.9-10.2 11.2-16.3 3.3-6 6.1-12.1 8-16.7.8-1.9 1.4-3.5 1.9-4.7-4.5-1.9-7.7-6.6-7.7-12zm78.9 41.8l-.1.2c-1.3 2.2-3.2 5.1-5.7 7.9-4.8 5.6-12.3 11.8-21.7 11-9.1-.7-16.7-5.5-23.1-13.9-5.9-7.7-10.8-18.6-15-32.4-.5 1.3-1.1 2.9-1.9 4.7-2 4.7-4.8 11-8.3 17.3-3.4 6.3-7.5 12.7-12.1 17.5-4.5 4.7-9.9 8.5-15.9 8.3-10.5-.4-18.6-6.5-23.9-12.1-.8-.8-1.5-1.6-2.2-2.4l7.7 47.6h111.8l10.4-53.7zm-124 59.4c-1.1 0-2.1 1-2.1 2.1 0 .9.8 1.9 2.1 1.9h116.3c1.3 0 2.1-.9 2.1-1.9 0-1.1-1-2.1-2.1-2.1H73.3zM62.2 101c-4 0-7.2 3.2-7.2 7.2s3.2 7.2 7.2 7.2 7.2-3.2 7.2-7.2-3.2-7.2-7.2-7.2zm134.5 14.6c-3.4-2.1-4.4-6.5-2.3-9.9 2.1-3.4 6.5-4.4 9.9-2.3 3.4 2.1 4.4 6.5 2.3 9.9-2 3.3-6.5 4.4-9.9 2.3zM89.1 164.4c0-1.8 1.4-3.3 3.3-3.3 1.8 0 3.3 1.4 3.3 3.3 0 1.8-1.4 3.3-3.3 3.3-1.8-.1-3.3-1.5-3.3-3.3zm3.3-9.3c-5.1 0-9.3 4.1-9.3 9.3 0 5.1 4.1 9.3 9.3 9.3 5.1 0 9.3-4.1 9.3-9.3-.1-5.2-4.2-9.3-9.3-9.3zm39 5.8c-1.8 0-3.3 1.4-3.3 3.3 0 1.8 1.4 3.3 3.3 3.3 1.8 0 3.3-1.4 3.3-3.3-.1-1.9-1.5-3.3-3.3-3.3zm-9.3 3.2c0-5.1 4.1-9.3 9.3-9.3 5.1 0 9.3 4.1 9.3 9.3s-4.1 9.3-9.3 9.3c-5.2 0-9.3-4.1-9.3-9.3zm45.9.3c0-1.8 1.4-3.3 3.3-3.3 1.8 0 3.3 1.4 3.3 3.3 0 1.8-1.4 3.3-3.3 3.3-1.8-.1-3.3-1.5-3.3-3.3zm3.3-9.3c-5.1 0-9.3 4.1-9.3 9.3 0 5.1 4.1 9.3 9.3 9.3 5.1 0 9.3-4.1 9.3-9.3 0-5.2-4.2-9.3-9.3-9.3z" fill-rule="evenodd" clip-rule="evenodd" fill="url(#a)"/></svg>