<svg xmlns="http://www.w3.org/2000/svg" viewBox="0 0 262 262"><path d="M189.4 53.1c2.8-2.8 7.7-2.8 10.5-.1l8.9 8.9c1.4 1.4 2.2 3.3 2.2 5.3s-.8 3.9-2.2 5.3l-.1.1-9.8 9.8c1 .7 1.7 1.8 1.7 3.3v10.7c0 2.2-1.8 4-4 4h-11.1c-1.3 0-2.4-.6-3.1-1.5l-13.6 13.6c1.6.4 3 1.9 3 3.9v10.7c0 2.2-1.8 4-4 4h-11.1c-1.9 0-3.3-1.2-3.8-2.7l-12.8 12.8c-.1.1-.2.2-.4.3l-24.6 17.6-40.5 40.5c.5.5.7 1.1.7 1.8s-.3 1.3-.7 1.8l-7.1 7.1c-.5.5-1.1.7-1.8.7s-1.3-.3-1.8-.7l-12.4-12.4c-1-1-1-2.6 0-3.5l7.1-7.1c1-1 2.6-1 3.5 0l40.6-40.6 17.5-24.5c.1-.1.1-.2.2-.2 0-.1.1-.1.1-.2l7.7-7.7c-1.6-.5-2.9-1.9-2.9-3.8V99.6c0-2.2 1.8-4 4-4h11.1c1.8 0 3.2 1.1 3.7 2.5L158.5 84c-1-.7-1.6-1.8-1.6-3.2V70.1c0-2.2 1.8-4 4-4H172c1.3 0 2.3.6 3 1.4l14.4-14.4 3.5 3.6-68.5 68.5-17.6 24.6c-.1.2-.2.3-.4.4l-6 6 5.9 4.7 5.4-5.4.2-.2.1-.1 24.6-17.5 68.5-68.5c.5-.5.7-1.1.7-1.8s-.3-1.3-.7-1.8l-.1-.1-8.8-8.8-3.6.1.1-.1c.6-.6 1.4-.8 2.2-.7l1.3.7c-.4-.4-.8-.6-1.3-.7l-5.5-2.9zM97 159.7l5.9 4.7-5.5 5.5-5.9-4.7 5.5-5.5zm-9.1 9.1l-4 4 5.9 4.7 4-4-5.9-4.7zm-11.8 11.8l4.2-4.2 5.9 4.7-4.2 4.2-5.9-4.7zm-3.6 3.6l-6.6 6.6 5.3 5.3 7.2-7.2-5.9-4.7zm-3.1 17.2l-8.8-8.8-3.5 3.5 8.8 8.8 3.5-3.5zm96-74.3c-3.1 0-4.6-3.7-2.3-5.9 2.2-2 5.7-.5 5.7 2.5 0 1.8-1.5 3.4-3.4 3.4zm26.5-36.6c-2.2 2.1-.7 5.9 2.3 5.9 1.9 0 3.4-1.5 3.4-3.4 0-3-3.5-4.5-5.7-2.5zm-28.5-20.3c3.1 0 4.6 3.8 2.3 5.9-2.2 2-5.7.5-5.7-2.5 0-1.9 1.6-3.4 3.4-3.4zm-29 35.3c2.2-2.1.7-5.9-2.3-5.9-1.9 0-3.4 1.5-3.4 3.4 0 3 3.6 4.5 5.7 2.5z" fill-rule="evenodd" clip-rule="evenodd" fill="#d81690"/><radialGradient id="a" cx="-10.02" cy="273.541" r="1" gradientTransform="matrix(-115.3091 77.1927 100.5438 150.1905 -28470.607 -40122.75)" gradientUnits="userSpaceOnUse"><stop offset="0" stop-color="#d01e8d"/><stop offset="1" stop-color="#621461"/></radialGradient><path d="M189.4 53.1c2.8-2.8 7.7-2.8 10.5-.1l8.9 8.9c1.4 1.4 2.2 3.3 2.2 5.3s-.8 3.9-2.2 5.3l-.1.1-9.8 9.8c1 .7 1.7 1.8 1.7 3.3v10.7c0 2.2-1.8 4-4 4h-11.1c-1.3 0-2.4-.6-3.1-1.5l-13.6 13.6c1.6.4 3 1.9 3 3.9v10.7c0 2.2-1.8 4-4 4h-11.1c-1.9 0-3.3-1.2-3.8-2.7l-12.8 12.8c-.1.1-.2.2-.4.3l-24.6 17.6-40.5 40.5c.5.5.7 1.1.7 1.8s-.3 1.3-.7 1.8l-7.1 7.1c-.5.5-1.1.7-1.8.7s-1.3-.3-1.8-.7l-12.4-12.4c-1-1-1-2.6 0-3.5l7.1-7.1c1-1 2.6-1 3.5 0l40.6-40.6 17.5-24.5c.1-.1.1-.2.2-.2 0-.1.1-.1.1-.2l7.7-7.7c-1.6-.5-2.9-1.9-2.9-3.8V99.6c0-2.2 1.8-4 4-4h11.1c1.8 0 3.2 1.1 3.7 2.5L158.5 84c-1-.7-1.6-1.8-1.6-3.2V70.1c0-2.2 1.8-4 4-4H172c1.3 0 2.3.6 3 1.4l14.4-14.4 3.5 3.6-68.5 68.5-17.6 24.6c-.1.2-.2.3-.4.4l-6 6 5.9 4.7 5.4-5.4.2-.2.1-.1 24.6-17.5 68.5-68.5c.5-.5.7-1.1.7-1.8s-.3-1.3-.7-1.8l-.1-.1-8.8-8.8-3.6.1.1-.1c.6-.6 1.4-.8 2.2-.7l1.3.7c-.4-.4-.8-.6-1.3-.7l-5.5-2.9zM97 159.7l5.9 4.7-5.5 5.5-5.9-4.7 5.5-5.5zm-9.1 9.1l-4 4 5.9 4.7 4-4-5.9-4.7zm-11.8 11.8l4.2-4.2 5.9 4.7-4.2 4.2-5.9-4.7zm-3.6 3.6l-6.6 6.6 5.3 5.3 7.2-7.2-5.9-4.7zm-3.1 17.2l-8.8-8.8-3.5 3.5 8.8 8.8 3.5-3.5zm96-74.3c-3.1 0-4.6-3.7-2.3-5.9 2.2-2 5.7-.5 5.7 2.5 0 1.8-1.5 3.4-3.4 3.4zm26.5-36.6c-2.2 2.1-.7 5.9 2.3 5.9 1.9 0 3.4-1.5 3.4-3.4 0-3-3.5-4.5-5.7-2.5zm-28.5-20.3c3.1 0 4.6 3.8 2.3 5.9-2.2 2-5.7.5-5.7-2.5 0-1.9 1.6-3.4 3.4-3.4zm-29 35.3c2.2-2.1.7-5.9-2.3-5.9-1.9 0-3.4 1.5-3.4 3.4 0 3 3.6 4.5 5.7 2.5z" fill-rule="evenodd" clip-rule="evenodd" fill="url(#a)"/></svg>