<svg xmlns="http://www.w3.org/2000/svg" viewBox="0 0 262 262"><path d="M165.2 149.8c.9.2 1.5 1.2 1.3 2.2l-8.2 30.9c-.2.6-.6 1.1-1.2 1.3-.6.2-1.3 0-1.7-.4l-23-21.5c-.7-.7-.8-1.8-.1-2.5.7-.8 1.4-1.7 1.9-2.6 3.9-6.8 1.6-15.5-5.2-19.5-6.8-3.9-15.5-1.6-19.5 5.2-.5.9-1 1.9-1.3 3-.3.9-1.3 1.5-2.2 1.2l-30.1-9.2c-.1 0-.3-.1-.4-.2-.4-.2-.7-.7-.8-1.1-.1-.6.1-1.3.5-1.7l23.4-21.8c.7-.6 1.7-.6 2.4 0s1.4 1.1 2.2 1.6c6.8 3.9 15.5 1.6 19.5-5.2 3.9-6.8 1.6-15.5-5.2-19.5-.8-.5-1.6-.8-2.5-1.1-.9-.3-1.4-1.2-1.2-2.1l7.1-31.2c.1-.6.6-1.1 1.2-1.3.6-.2 1.3 0 1.8.5l22.6 22.6c.3.3.5.8.5 1.3s-.2.9-.5 1.3c-.9.9-1.6 1.9-2.3 3-3.9 6.8-1.6 15.5 5.2 19.5 6.8 3.9 15.5 1.6 19.5-5.2.6-1.1 1.1-2.2 1.4-3.5.3-1 1.2-1.5 2.2-1.3l30.9 8.2c.6.2 1.1.6 1.3 1.3.2.6 0 1.3-.5 1.7l-22.6 22.6c-.7.7-1.8.7-2.5 0-.9-.9-1.9-1.6-3-2.3-6.8-3.9-15.5-1.6-19.5 5.2-3.9 6.8-1.6 15.5 5.2 19.5 1 .3 2.2.8 3.4 1.1zm-28 9.1c-.4.7-.8 1.3-1.2 1.9l19.4 15.3 7.3-23.3c-.9-.3-1.8-.8-2.6-1.2-8.5-4.9-11.4-15.8-6.5-24.3s15.8-11.4 24.3-6.5c.8.5 1.6 1 2.4 1.6l16.8-18.8-23.9-7.6c-.3.9-.8 1.8-1.2 2.6-4.9 8.5-15.8 11.4-24.3 6.5s-11.4-15.8-6.5-24.3c.5-.8 1-1.6 1.6-2.4L123.9 63l-6.3 22.9c.5.2 1.1.5 1.6.8 8.5 4.9 11.4 15.8 6.5 24.3s-15.8 11.4-24.3 6.5c-.5-.3-1-.6-1.5-1l-16.3 17.9 21.8 8.5c.3-.7.6-1.4 1-2 4.9-8.5 15.8-11.4 24.3-6.5 8.5 5 11.4 15.9 6.5 24.5zm-20.9 48.6l-7.2-16.3c-.1-.3-.3-.4-.6-.5-.3-.1-.5-.1-.8.1-1.5.9-3.4.6-4.7-.6-1.5-1.5-1.5-4 0-5.5 1.2-1.2 3.1-1.5 4.7-.6.2.1.5.2.8.1.3-.1.5-.3.6-.5l7.2-16.3c.2-.4.1-.8-.2-1.1-.3-.3-.7-.4-1.1-.2l-16.3 7.2c-.3.1-.4.3-.5.6-.1.3-.1.5.1.8.9 1.5.6 3.4-.6 4.7-1.5 1.5-4 1.5-5.5 0-1.2-1.2-1.5-3.1-.6-4.7.1-.2.2-.5.1-.8-.1-.3-.3-.5-.5-.6L74.7 166c-.4-.2-.8-.1-1.1.2-.3.3-.4.7-.2 1.1l7.2 16.3c.1.3.3.4.6.5.3.1.5.1.8-.1 1.5-.9 3.4-.6 4.7.6 1.5 1.5 1.5 4 0 5.5-1.2 1.2-3.1 1.5-4.7.6-.2-.1-.5-.2-.8-.1-.3.1-.5.3-.6.5l-7.2 16.3c-.2.4-.1.8.2 1.1.3.3.7.4 1.1.2l16.3-7.2c.3-.1.4-.3.5-.6.1-.3.1-.5-.1-.8-.9-1.5-.6-3.4.6-4.7 1.5-1.5 4-1.5 5.5 0 1.2 1.2 1.5 3.1.6 4.7-.1.2-.2.5-.1.8.1.3.3.5.5.6l16.3 7.2c.4.2.8.1 1.1-.2.5-.2.5-.6.4-1zm-16-7.3c.7-2.1.2-4.4-1.4-6-2.3-2.3-5.9-2.3-8.2 0-1.6 1.6-2.1 3.9-1.4 6l-10.9 3.3 3.5-10.6c2.1.7 4.4.2 6-1.4 2.3-2.3 2.3-5.9 0-8.2-1.6-1.6-3.9-2.1-6-1.4l-3-9.9 10.4 2.5c-.7 2.1-.2 4.4 1.4 6 2.3 2.3 5.9 2.3 8.2 0 1.6-1.6 2.1-3.9 1.4-6l10.7-3-3.3 10.4c-2.1-.7-4.4-.2-6 1.4-2.3 2.3-2.3 5.9 0 8.2 1.6 1.6 3.9 2.1 6 1.4l3.3 10.6-10.7-3.3zm-5.4-16.8c-2.2 0-4 1.8-4 4s1.8 4 4 4 4-1.8 4-4-1.8-4-4-4zm0 6c-1.1 0-2-.9-2-2s.9-2 2-2 2 .9 2 2-.9 2-2 2zM81.3 62c.5.5 1.2.8 1.9.8h18.7c1.5 0 2.7-1.2 2.7-2.7 0-1.5-1.2-2.7-2.7-2.7H83.2c-1.5 0-2.7 1.2-2.7 2.7 0 .7.3 1.4.8 1.9zM59.7 99.8a2.732 2.732 0 01-2.7-2.7c0-1.5 1.2-2.7 2.7-2.7h41.2c1.5 0 2.7 1.2 2.7 2.7 0 1.5-1.2 2.7-2.7 2.7H59.7zm.1 77.7c.3.3.6.4 1 .4H71c.8 0 1.5-.7 1.5-1.5s-.7-1.5-1.5-1.5H60.8c-.8 0-1.5.7-1.5 1.5.1.5.3.8.5 1.1zm70.8-56.6c0-4.9 4-8.9 8.9-8.9s8.9 4 8.9 8.9-4 8.9-8.9 8.9-8.9-4-8.9-8.9zm3.6 0c0 2.9 2.4 5.3 5.3 5.3s5.3-2.4 5.3-5.3-2.4-5.3-5.3-5.3c-2.9-.1-5.3 2.3-5.3 5.3z" fill-rule="evenodd" clip-rule="evenodd" fill="#d81690"/><radialGradient id="a" cx="-10.019" cy="273.545" r="1" gradientTransform="matrix(-106.3473 74.7227 99.0384 140.9539 -27973.94 -37622.938)" gradientUnits="userSpaceOnUse"><stop offset="0" stop-color="#d01e8d"/><stop offset="1" stop-color="#621461"/></radialGradient><path d="M165.2 149.8c.9.2 1.5 1.2 1.3 2.2l-8.2 30.9c-.2.6-.6 1.1-1.2 1.3-.6.2-1.3 0-1.7-.4l-23-21.5c-.7-.7-.8-1.8-.1-2.5.7-.8 1.4-1.7 1.9-2.6 3.9-6.8 1.6-15.5-5.2-19.5-6.8-3.9-15.5-1.6-19.5 5.2-.5.9-1 1.9-1.3 3-.3.9-1.3 1.5-2.2 1.2l-30.1-9.2c-.1 0-.3-.1-.4-.2-.4-.2-.7-.7-.8-1.1-.1-.6.1-1.3.5-1.7l23.4-21.8c.7-.6 1.7-.6 2.4 0s1.4 1.1 2.2 1.6c6.8 3.9 15.5 1.6 19.5-5.2 3.9-6.8 1.6-15.5-5.2-19.5-.8-.5-1.6-.8-2.5-1.1-.9-.3-1.4-1.2-1.2-2.1l7.1-31.2c.1-.6.6-1.1 1.2-1.3.6-.2 1.3 0 1.8.5l22.6 22.6c.3.3.5.8.5 1.3s-.2.9-.5 1.3c-.9.9-1.6 1.9-2.3 3-3.9 6.8-1.6 15.5 5.2 19.5 6.8 3.9 15.5 1.6 19.5-5.2.6-1.1 1.1-2.2 1.4-3.5.3-1 1.2-1.5 2.2-1.3l30.9 8.2c.6.2 1.1.6 1.3 1.3.2.6 0 1.3-.5 1.7l-22.6 22.6c-.7.7-1.8.7-2.5 0-.9-.9-1.9-1.6-3-2.3-6.8-3.9-15.5-1.6-19.5 5.2-3.9 6.8-1.6 15.5 5.2 19.5 1 .3 2.2.8 3.4 1.1zm-28 9.1c-.4.7-.8 1.3-1.2 1.9l19.4 15.3 7.3-23.3c-.9-.3-1.8-.8-2.6-1.2-8.5-4.9-11.4-15.8-6.5-24.3s15.8-11.4 24.3-6.5c.8.5 1.6 1 2.4 1.6l16.8-18.8-23.9-7.6c-.3.9-.8 1.8-1.2 2.6-4.9 8.5-15.8 11.4-24.3 6.5s-11.4-15.8-6.5-24.3c.5-.8 1-1.6 1.6-2.4L123.9 63l-6.3 22.9c.5.2 1.1.5 1.6.8 8.5 4.9 11.4 15.8 6.5 24.3s-15.8 11.4-24.3 6.5c-.5-.3-1-.6-1.5-1l-16.3 17.9 21.8 8.5c.3-.7.6-1.4 1-2 4.9-8.5 15.8-11.4 24.3-6.5 8.5 5 11.4 15.9 6.5 24.5zm-20.9 48.6l-7.2-16.3c-.1-.3-.3-.4-.6-.5-.3-.1-.5-.1-.8.1-1.5.9-3.4.6-4.7-.6-1.5-1.5-1.5-4 0-5.5 1.2-1.2 3.1-1.5 4.7-.6.2.1.5.2.8.1.3-.1.5-.3.6-.5l7.2-16.3c.2-.4.1-.8-.2-1.1-.3-.3-.7-.4-1.1-.2l-16.3 7.2c-.3.1-.4.3-.5.6-.1.3-.1.5.1.8.9 1.5.6 3.4-.6 4.7-1.5 1.5-4 1.5-5.5 0-1.2-1.2-1.5-3.1-.6-4.7.1-.2.2-.5.1-.8-.1-.3-.3-.5-.5-.6L74.7 166c-.4-.2-.8-.1-1.1.2-.3.3-.4.7-.2 1.1l7.2 16.3c.1.3.3.4.6.5.3.1.5.1.8-.1 1.5-.9 3.4-.6 4.7.6 1.5 1.5 1.5 4 0 5.5-1.2 1.2-3.1 1.5-4.7.6-.2-.1-.5-.2-.8-.1-.3.1-.5.3-.6.5l-7.2 16.3c-.2.4-.1.8.2 1.1.3.3.7.4 1.1.2l16.3-7.2c.3-.1.4-.3.5-.6.1-.3.1-.5-.1-.8-.9-1.5-.6-3.4.6-4.7 1.5-1.5 4-1.5 5.5 0 1.2 1.2 1.5 3.1.6 4.7-.1.2-.2.5-.1.8.1.3.3.5.5.6l16.3 7.2c.4.2.8.1 1.1-.2.5-.2.5-.6.4-1zm-16-7.3c.7-2.1.2-4.4-1.4-6-2.3-2.3-5.9-2.3-8.2 0-1.6 1.6-2.1 3.9-1.4 6l-10.9 3.3 3.5-10.6c2.1.7 4.4.2 6-1.4 2.3-2.3 2.3-5.9 0-8.2-1.6-1.6-3.9-2.1-6-1.4l-3-9.9 10.4 2.5c-.7 2.1-.2 4.4 1.4 6 2.3 2.3 5.9 2.3 8.2 0 1.6-1.6 2.1-3.9 1.4-6l10.7-3-3.3 10.4c-2.1-.7-4.4-.2-6 1.4-2.3 2.3-2.3 5.9 0 8.2 1.6 1.6 3.9 2.1 6 1.4l3.3 10.6-10.7-3.3zm-5.4-16.8c-2.2 0-4 1.8-4 4s1.8 4 4 4 4-1.8 4-4-1.8-4-4-4zm0 6c-1.1 0-2-.9-2-2s.9-2 2-2 2 .9 2 2-.9 2-2 2zM81.3 62c.5.5 1.2.8 1.9.8h18.7c1.5 0 2.7-1.2 2.7-2.7 0-1.5-1.2-2.7-2.7-2.7H83.2c-1.5 0-2.7 1.2-2.7 2.7 0 .7.3 1.4.8 1.9zM59.7 99.8a2.732 2.732 0 01-2.7-2.7c0-1.5 1.2-2.7 2.7-2.7h41.2c1.5 0 2.7 1.2 2.7 2.7 0 1.5-1.2 2.7-2.7 2.7H59.7zm.1 77.7c.3.3.6.4 1 .4H71c.8 0 1.5-.7 1.5-1.5s-.7-1.5-1.5-1.5H60.8c-.8 0-1.5.7-1.5 1.5.1.5.3.8.5 1.1zm70.8-56.6c0-4.9 4-8.9 8.9-8.9s8.9 4 8.9 8.9-4 8.9-8.9 8.9-8.9-4-8.9-8.9zm3.6 0c0 2.9 2.4 5.3 5.3 5.3s5.3-2.4 5.3-5.3-2.4-5.3-5.3-5.3c-2.9-.1-5.3 2.3-5.3 5.3z" fill-rule="evenodd" clip-rule="evenodd" fill="url(#a)"/></svg>