<?xml version="1.0" encoding="utf-8"?>
<!-- Generator: Adobe Illustrator 24.3.0, SVG Export Plug-In . SVG Version: 6.00 Build 0)  -->
<svg version="1.1" id="圖層_1" xmlns="http://www.w3.org/2000/svg" xmlns:xlink="http://www.w3.org/1999/xlink" x="0px" y="0px"
	 viewBox="0 0 262 262" style="enable-background:new 0 0 262 262;" xml:space="preserve">
<style type="text/css">
	.st0{fill-rule:evenodd;clip-rule:evenodd;fill:#D81690;}
	.st1{fill-rule:evenodd;clip-rule:evenodd;fill:url(#SVGID_1_);}
</style>
<path class="st0" d="M74,119.5c-6-4.9-10-13.4-10-23C64,81.3,73.9,69,86,69c9.4,0,17.4,7.4,20.6,17.7c7.2-2.9,15.3-4.5,24.3-4.5
	c9,0,17.1,1.6,24.1,4.6c3.1-10.4,11.2-17.9,20.6-17.9c12.2,0,22,12.3,22,27.4c0,9.9-4.2,18.6-10.6,23.5c2.5,5.4,4.5,11.2,6.1,17.2
	c8.2,31.1-6.6,54.9-62.3,54.9c-55.7,0-68.4-23.5-62.3-54.9C69.8,130.9,71.6,125,74,119.5z M77.3,121.6c0.1,0.1,0.2,0.1,0.3,0.2
	c0.3-1,0.6-1.9,0.9-2.9C87.8,99,105.8,85.5,131,85.5c32.2,0,50.6,22.2,58.3,51.2c7.7,29-6.2,51.2-58.3,51.2
	c-52.1,0-64-21.9-58.3-51.2C73.8,131.5,75.3,126.4,77.3,121.6z M76,115.3c-3.5-4-5.7-9.8-5.7-16.2c0-12.2,8-22.2,17.8-22.2
	c6.6,0,12.4,4.5,15.4,11.1C91.5,93.8,82.2,103.3,76,115.3z M158.4,88.4c11.7,5.9,20.5,15.7,26.8,27.8c4-4.1,6.5-10.2,6.5-17.2
	c0-12.2-8-22.2-17.8-22.2C167.3,76.9,161.4,81.6,158.4,88.4z M112.2,148.7c0,4.7-3.1,8.6-6.9,8.6c-3.8,0-6.9-3.8-6.9-8.6
	c0-4.7,3.1-8.6,6.9-8.6C109.2,140.1,112.2,143.9,112.2,148.7z M106.9,147c0,1.6-1.1,3-2.4,3c-1.3,0-2.4-1.3-2.4-3c0-1.6,1.1-3,2.4-3
	C105.9,144.1,106.9,145.4,106.9,147z M163.1,148.7c0,4.7-3.1,8.6-6.9,8.6c-3.8,0-6.9-3.8-6.9-8.6c0-4.7,3.1-8.6,6.9-8.6
	C160.1,140.1,163.1,143.9,163.1,148.7z M157.8,147c0,1.6-1.1,3-2.4,3c-1.3,0-2.4-1.3-2.4-3c0-1.6,1.1-3,2.4-3
	C156.8,144.1,157.8,145.4,157.8,147z M137.7,162c0,2.4-3,4.3-6.6,4.3s-6.6-1.9-6.6-4.3c0-2.4,3-4.3,6.6-4.3S137.7,159.6,137.7,162z
	 M103.6,164.9c11.4,0,20.6-9.6,20.6-21.5c0-11.9-9.2-21.5-20.6-21.5c-11.4,0-20.6,9.6-20.6,21.5C83,155.3,92.2,164.9,103.6,164.9z
	 M105,160.7c8.2,0,14.9-7,14.9-15.6s-6.7-15.6-14.9-15.6c-8.2,0-14.9,7-14.9,15.6S96.8,160.7,105,160.7z M130.3,167
	c0.7,2,0.7,4.3-1.3,5.5c-2.5,1.5-8.5,2-11.7-1.5c-2-2.2-3.3-0.5-2.3,1s3.5,3,7.5,3.5c2.1,0.3,4.6-0.4,6.5-0.9c1-0.3,1.8-0.5,2.4-0.6
	c-0.6,0.2,6.7,3.2,11.1,1c0.3-0.2,0.6-0.3,0.9-0.4c2.4-1.2,3.6-1.8,4.1-2.6c1-1.5-0.2-2-2-1c-0.2,0.1-0.6,0.3-0.9,0.6
	c-2.3,1.5-6.8,4.4-11.1,0.9c-2-1.6-2-3.5-1.2-5.5H130.3z"/>
<radialGradient id="SVGID_1_" cx="-10.0289" cy="273.5612" r="1" gradientTransform="matrix(-96.2388 59.3409 74.6969 121.1431 -21221.2988 -32371.3066)" gradientUnits="userSpaceOnUse">
	<stop  offset="0" style="stop-color:#D01E8D"/>
	<stop  offset="1" style="stop-color:#621461"/>
</radialGradient>
<path class="st1" d="M74,119.5c-6-4.9-10-13.4-10-23C64,81.3,73.9,69,86,69c9.4,0,17.4,7.4,20.6,17.7c7.2-2.9,15.3-4.5,24.3-4.5
	c9,0,17.1,1.6,24.1,4.6c3.1-10.4,11.2-17.9,20.6-17.9c12.2,0,22,12.3,22,27.4c0,9.9-4.2,18.6-10.6,23.5c2.5,5.4,4.5,11.2,6.1,17.2
	c8.2,31.1-6.6,54.9-62.3,54.9c-55.7,0-68.4-23.5-62.3-54.9C69.8,130.9,71.6,125,74,119.5z M77.3,121.6c0.1,0.1,0.2,0.1,0.3,0.2
	c0.3-1,0.6-1.9,0.9-2.9C87.8,99,105.8,85.5,131,85.5c32.2,0,50.6,22.2,58.3,51.2c7.7,29-6.2,51.2-58.3,51.2
	c-52.1,0-64-21.9-58.3-51.2C73.8,131.5,75.3,126.4,77.3,121.6z M76,115.3c-3.5-4-5.7-9.8-5.7-16.2c0-12.2,8-22.2,17.8-22.2
	c6.6,0,12.4,4.5,15.4,11.1C91.5,93.8,82.2,103.3,76,115.3z M158.4,88.4c11.7,5.9,20.5,15.7,26.8,27.8c4-4.1,6.5-10.2,6.5-17.2
	c0-12.2-8-22.2-17.8-22.2C167.3,76.9,161.4,81.6,158.4,88.4z M112.2,148.7c0,4.7-3.1,8.6-6.9,8.6c-3.8,0-6.9-3.8-6.9-8.6
	c0-4.7,3.1-8.6,6.9-8.6C109.2,140.1,112.2,143.9,112.2,148.7z M106.9,147c0,1.6-1.1,3-2.4,3c-1.3,0-2.4-1.3-2.4-3c0-1.6,1.1-3,2.4-3
	C105.9,144.1,106.9,145.4,106.9,147z M163.1,148.7c0,4.7-3.1,8.6-6.9,8.6c-3.8,0-6.9-3.8-6.9-8.6c0-4.7,3.1-8.6,6.9-8.6
	C160.1,140.1,163.1,143.9,163.1,148.7z M157.8,147c0,1.6-1.1,3-2.4,3c-1.3,0-2.4-1.3-2.4-3c0-1.6,1.1-3,2.4-3
	C156.8,144.1,157.8,145.4,157.8,147z M137.7,162c0,2.4-3,4.3-6.6,4.3s-6.6-1.9-6.6-4.3c0-2.4,3-4.3,6.6-4.3S137.7,159.6,137.7,162z
	 M103.6,164.9c11.4,0,20.6-9.6,20.6-21.5c0-11.9-9.2-21.5-20.6-21.5c-11.4,0-20.6,9.6-20.6,21.5C83,155.3,92.2,164.9,103.6,164.9z
	 M105,160.7c8.2,0,14.9-7,14.9-15.6s-6.7-15.6-14.9-15.6c-8.2,0-14.9,7-14.9,15.6S96.8,160.7,105,160.7z M130.3,167
	c0.7,2,0.7,4.3-1.3,5.5c-2.5,1.5-8.5,2-11.7-1.5c-2-2.2-3.3-0.5-2.3,1s3.5,3,7.5,3.5c2.1,0.3,4.6-0.4,6.5-0.9c1-0.3,1.8-0.5,2.4-0.6
	c-0.6,0.2,6.7,3.2,11.1,1c0.3-0.2,0.6-0.3,0.9-0.4c2.4-1.2,3.6-1.8,4.1-2.6c1-1.5-0.2-2-2-1c-0.2,0.1-0.6,0.3-0.9,0.6
	c-2.3,1.5-6.8,4.4-11.1,0.9c-2-1.6-2-3.5-1.2-5.5H130.3z"/>
</svg>
