<?xml version="1.0" encoding="utf-8"?>
<!-- Generator: Adobe Illustrator 24.3.0, SVG Export Plug-In . SVG Version: 6.00 Build 0)  -->
<svg version="1.1" id="圖層_1" xmlns="http://www.w3.org/2000/svg" xmlns:xlink="http://www.w3.org/1999/xlink" x="0px" y="0px"
	 viewBox="0 0 262 262" style="enable-background:new 0 0 262 262;" xml:space="preserve">
<style type="text/css">
	.st0{fill-rule:evenodd;clip-rule:evenodd;fill:#D81690;}
	.st1{fill-rule:evenodd;clip-rule:evenodd;fill:url(#SVGID_1_);}
</style>
<path class="st0" d="M131.6,75c-4,0-7.2,3.2-7.2,7.2c0,4,3.2,7.2,7.2,7.2c4,0,7.2-3.2,7.2-7.2C138.8,78.2,135.6,75,131.6,75z
	 M118.4,82.2c0-7.3,5.9-13.2,13.2-13.2c7.3,0,13.2,5.9,13.2,13.2c0,5.2-3.1,9.8-7.5,11.9c4.2,13.9,8.9,24.3,14.3,31.3
	c5.6,7.4,11.8,11.1,18.7,11.6l0,0l0,0c6.4,0.6,12.1-3.7,16.6-8.9c2.2-2.5,3.9-5.1,5.1-7.1c0.2-0.3,0.4-0.7,0.6-1
	c-5.5-4-7-11.7-3.4-17.6c3.8-6.2,12-8.1,18.2-4.3c6.2,3.8,8.1,12,4.3,18.2c-1.9,3-4.8,5-8,5.9l-10.7,55.9c2.7,1.3,4.6,4.1,4.6,7.3
	c0,4.6-3.9,7.9-8.1,7.9H73.3c-4.3,0-8.1-3.3-8.1-7.9c0-3,1.7-5.7,4.2-7.1l-9.3-57.1c-6.3-1-11.2-6.5-11.2-13.1
	c0-7.3,5.9-13.2,13.2-13.2c7.3,0,13.2,5.9,13.2,13.2c0,5.2-3,9.7-7.4,11.9c0.2,0.4,0.5,0.8,0.7,1.2c1.2,1.9,3,4.4,5.4,6.9
	c4.8,5.1,11.4,9.9,19.7,10.2c3.4,0.1,7.2-2,11.3-6.4c4-4.3,7.9-10.2,11.2-16.3c3.3-6,6.1-12.1,8-16.7c0.8-1.9,1.4-3.5,1.9-4.7
	C121.6,92.3,118.4,87.6,118.4,82.2z M197.3,124l-0.1,0.2c-1.3,2.2-3.2,5.1-5.7,7.9c-4.8,5.6-12.3,11.8-21.7,11
	c-9.1-0.7-16.7-5.5-23.1-13.9c-5.9-7.7-10.8-18.6-15-32.4c-0.5,1.3-1.1,2.9-1.9,4.7c-2,4.7-4.8,11-8.3,17.3
	c-3.4,6.3-7.5,12.7-12.1,17.5c-4.5,4.7-9.9,8.5-15.9,8.3c-10.5-0.4-18.6-6.5-23.9-12.1c-0.8-0.8-1.5-1.6-2.2-2.4l7.7,47.6h111.8
	L197.3,124z M73.3,183.4c-1.1,0-2.1,1-2.1,2.1c0,0.9,0.8,1.9,2.1,1.9h116.3c1.3,0,2.1-0.9,2.1-1.9c0-1.1-1-2.1-2.1-2.1H73.3z
	 M62.2,101c-4,0-7.2,3.2-7.2,7.2c0,4,3.2,7.2,7.2,7.2c4,0,7.2-3.2,7.2-7.2C69.4,104.2,66.2,101,62.2,101z M196.7,115.6
	c-3.4-2.1-4.4-6.5-2.3-9.9c2.1-3.4,6.5-4.4,9.9-2.3c3.4,2.1,4.4,6.5,2.3,9.9C204.6,116.6,200.1,117.7,196.7,115.6z M89.1,164.4
	c0-1.8,1.4-3.3,3.3-3.3c1.8,0,3.3,1.4,3.3,3.3c0,1.8-1.4,3.3-3.3,3.3C90.6,167.6,89.1,166.2,89.1,164.4z M92.4,155.1
	c-5.1,0-9.3,4.1-9.3,9.3c0,5.1,4.1,9.3,9.3,9.3c5.1,0,9.3-4.1,9.3-9.3C101.6,159.2,97.5,155.1,92.4,155.1z M131.4,160.9
	c-1.8,0-3.3,1.4-3.3,3.3c0,1.8,1.4,3.3,3.3,3.3c1.8,0,3.3-1.4,3.3-3.3C134.6,162.3,133.2,160.9,131.4,160.9z M122.1,164.1
	c0-5.1,4.1-9.3,9.3-9.3c5.1,0,9.3,4.1,9.3,9.3s-4.1,9.3-9.3,9.3C126.2,173.4,122.1,169.3,122.1,164.1z M168,164.4
	c0-1.8,1.4-3.3,3.3-3.3c1.8,0,3.3,1.4,3.3,3.3c0,1.8-1.4,3.3-3.3,3.3C169.5,167.6,168,166.2,168,164.4z M171.3,155.1
	c-5.1,0-9.3,4.1-9.3,9.3c0,5.1,4.1,9.3,9.3,9.3c5.1,0,9.3-4.1,9.3-9.3C180.6,159.2,176.4,155.1,171.3,155.1z"/>
<radialGradient id="SVGID_1_" cx="-10.0332" cy="273.5536" r="1" gradientTransform="matrix(-118.6712 60.0024 68.0774 134.6418 -19623.8574 -36054.9688)" gradientUnits="userSpaceOnUse">
	<stop  offset="0" style="stop-color:#D01E8D"/>
	<stop  offset="1" style="stop-color:#621461"/>
</radialGradient>
<path class="st1" d="M131.6,75c-4,0-7.2,3.2-7.2,7.2c0,4,3.2,7.2,7.2,7.2c4,0,7.2-3.2,7.2-7.2C138.8,78.2,135.6,75,131.6,75z
	 M118.4,82.2c0-7.3,5.9-13.2,13.2-13.2c7.3,0,13.2,5.9,13.2,13.2c0,5.2-3.1,9.8-7.5,11.9c4.2,13.9,8.9,24.3,14.3,31.3
	c5.6,7.4,11.8,11.1,18.7,11.6l0,0l0,0c6.4,0.6,12.1-3.7,16.6-8.9c2.2-2.5,3.9-5.1,5.1-7.1c0.2-0.3,0.4-0.7,0.6-1
	c-5.5-4-7-11.7-3.4-17.6c3.8-6.2,12-8.1,18.2-4.3c6.2,3.8,8.1,12,4.3,18.2c-1.9,3-4.8,5-8,5.9l-10.7,55.9c2.7,1.3,4.6,4.1,4.6,7.3
	c0,4.6-3.9,7.9-8.1,7.9H73.3c-4.3,0-8.1-3.3-8.1-7.9c0-3,1.7-5.7,4.2-7.1l-9.3-57.1c-6.3-1-11.2-6.5-11.2-13.1
	c0-7.3,5.9-13.2,13.2-13.2c7.3,0,13.2,5.9,13.2,13.2c0,5.2-3,9.7-7.4,11.9c0.2,0.4,0.5,0.8,0.7,1.2c1.2,1.9,3,4.4,5.4,6.9
	c4.8,5.1,11.4,9.9,19.7,10.2c3.4,0.1,7.2-2,11.3-6.4c4-4.3,7.9-10.2,11.2-16.3c3.3-6,6.1-12.1,8-16.7c0.8-1.9,1.4-3.5,1.9-4.7
	C121.6,92.3,118.4,87.6,118.4,82.2z M197.3,124l-0.1,0.2c-1.3,2.2-3.2,5.1-5.7,7.9c-4.8,5.6-12.3,11.8-21.7,11
	c-9.1-0.7-16.7-5.5-23.1-13.9c-5.9-7.7-10.8-18.6-15-32.4c-0.5,1.3-1.1,2.9-1.9,4.7c-2,4.7-4.8,11-8.3,17.3
	c-3.4,6.3-7.5,12.7-12.1,17.5c-4.5,4.7-9.9,8.5-15.9,8.3c-10.5-0.4-18.6-6.5-23.9-12.1c-0.8-0.8-1.5-1.6-2.2-2.4l7.7,47.6h111.8
	L197.3,124z M73.3,183.4c-1.1,0-2.1,1-2.1,2.1c0,0.9,0.8,1.9,2.1,1.9h116.3c1.3,0,2.1-0.9,2.1-1.9c0-1.1-1-2.1-2.1-2.1H73.3z
	 M62.2,101c-4,0-7.2,3.2-7.2,7.2c0,4,3.2,7.2,7.2,7.2c4,0,7.2-3.2,7.2-7.2C69.4,104.2,66.2,101,62.2,101z M196.7,115.6
	c-3.4-2.1-4.4-6.5-2.3-9.9c2.1-3.4,6.5-4.4,9.9-2.3c3.4,2.1,4.4,6.5,2.3,9.9C204.6,116.6,200.1,117.7,196.7,115.6z M89.1,164.4
	c0-1.8,1.4-3.3,3.3-3.3c1.8,0,3.3,1.4,3.3,3.3c0,1.8-1.4,3.3-3.3,3.3C90.6,167.6,89.1,166.2,89.1,164.4z M92.4,155.1
	c-5.1,0-9.3,4.1-9.3,9.3c0,5.1,4.1,9.3,9.3,9.3c5.1,0,9.3-4.1,9.3-9.3C101.6,159.2,97.5,155.1,92.4,155.1z M131.4,160.9
	c-1.8,0-3.3,1.4-3.3,3.3c0,1.8,1.4,3.3,3.3,3.3c1.8,0,3.3-1.4,3.3-3.3C134.6,162.3,133.2,160.9,131.4,160.9z M122.1,164.1
	c0-5.1,4.1-9.3,9.3-9.3c5.1,0,9.3,4.1,9.3,9.3s-4.1,9.3-9.3,9.3C126.2,173.4,122.1,169.3,122.1,164.1z M168,164.4
	c0-1.8,1.4-3.3,3.3-3.3c1.8,0,3.3,1.4,3.3,3.3c0,1.8-1.4,3.3-3.3,3.3C169.5,167.6,168,166.2,168,164.4z M171.3,155.1
	c-5.1,0-9.3,4.1-9.3,9.3c0,5.1,4.1,9.3,9.3,9.3c5.1,0,9.3-4.1,9.3-9.3C180.6,159.2,176.4,155.1,171.3,155.1z"/>
</svg>
