<?xml version="1.0" encoding="utf-8"?>
<!-- Generator: Adobe Illustrator 24.3.0, SVG Export Plug-In . SVG Version: 6.00 Build 0)  -->
<svg version="1.1" id="圖層_1" xmlns="http://www.w3.org/2000/svg" xmlns:xlink="http://www.w3.org/1999/xlink" x="0px" y="0px"
	 viewBox="0 0 262 262" style="enable-background:new 0 0 262 262;" xml:space="preserve">
<style type="text/css">
	.st0{fill-rule:evenodd;clip-rule:evenodd;fill:#D81690;}
	.st1{fill-rule:evenodd;clip-rule:evenodd;fill:url(#SVGID_1_);}
</style>
<path class="st0" d="M195.1,83.6l11.3,1.9c1.9,0.3,3.4,1.8,3.5,3.6c0.2,1.8-1,3.5-2.8,4.1l0,0c0,0,0,0-0.1,0l-10.7,3.8
	c-0.4,1.7-0.9,3.4-1.7,5c-0.7,1.6-1.7,3.1-2.8,4.5l4,10.7c0.7,1.8,0.1,3.8-1.4,4.8c-0.3,0.2-0.6,0.3-0.9,0.5
	c-1.4,0.5-2.9,0.2-4.2-0.9l-8.7-7.4c-3.2,1.1-6.7,1.4-10,1c-0.1,0-0.3,0.2-0.6,0.5c-0.4,0.4-1.1,1.1-1.8,1.9
	c-3.1,3.2-8.2,8.6-10.2,7.6c-1.7-0.8-2.5-2.6-2.2-4.6l2.1-11.2c-2.6-2.4-4.7-5.3-6-8.6l-11.3-1.9c-1.9-0.3-3.4-1.8-3.5-3.6
	c-0.2-1.8,1-3.5,2.9-4.2l10.7-3.8c0.4-1.7,0.9-3.4,1.7-5c0.7-1.6,1.7-3.1,2.8-4.5l-4-10.7c-0.7-1.8-0.1-3.8,1.4-4.8
	c1.5-1.1,3.5-0.9,5,0.4l8.7,7.4c3.4-1.1,6.9-1.4,10.5-0.9l7.3-8.8c1.3-1.5,3.2-2,4.9-1.2c1.7,0.8,2.5,2.6,2.2,4.6L189.1,75
	C191.7,77.4,193.8,80.3,195.1,83.6z M101.3,146.7l-1.4,3c1.7,0.8,8.2,4.8,8.8,6.5c0.6,1.8,0.6,3.6-0.2,5.3c-0.8,1.7-2.2,3-3.9,3.6
	c-1,0.4-2.1,0.5-3.2,0.4l-16,32.2c1.9,2,2.6,5.1,1.3,7.8c-0.8,1.7-2.2,3-3.9,3.6c-1.8,0.6-3.6,0.6-5.3-0.2L64.9,203
	c-3.5-1.6-5-5.8-3.4-9.3c1.3-2.7,4-4.2,6.8-4l16.5-31.9c-0.8-0.7-1.4-1.7-1.8-2.7c-0.6-1.8-0.6-3.6,0.2-5.3c0.8-1.7,2.2-3,3.9-3.6
	c1.8-0.6,3.6-0.6,5.3,0.2l3.2,1.4l1.4-3c0.5-1.2,1.9-1.7,3.1-1.1C101.4,144.1,101.9,145.5,101.3,146.7z M72.7,191.3l8.8,4.1
	L97,163.8l-8.1-3.8L72.7,191.3z M81.2,204.7c0.6-0.2,1.1-0.6,1.3-1.2c0.5-1.2,0-2.5-1.1-3.1l-12.6-5.9c-0.6-0.3-1.2-0.3-1.8-0.1
	c-0.6,0.2-1.1,0.6-1.3,1.2c-0.3,0.6-0.3,1.2-0.1,1.8c0.2,0.6,0.6,1.1,1.2,1.3l12.6,5.9C80,204.9,80.6,204.9,81.2,204.7z
	 M101.2,160.7c1.2,0.5,2.5,0,3.1-1.1c0.3-0.6,0.3-1.2,0.1-1.8c-0.2-0.6-0.6-1.1-1.2-1.3l-12.7-5.9c-0.6-0.3-1.2-0.3-1.8-0.1
	c-0.6,0.2-1,0.6-1.3,1.2c-0.3,0.6-0.3,1.2-0.1,1.8c0.2,0.6,0.6,1.1,1.2,1.3L101.2,160.7z M184.2,75.5l1.9-10.2l-7.8,9.4
	c0.7,0.7,1.6,1.3,2.6,1.8c0.9,0.4,2,0.7,3,0.8L184.2,75.5L184.2,75.5z M164.4,74.7C164.4,74.6,164.4,74.6,164.4,74.7l-7.9-6.8
	l3.6,9.7l0,0l0.6,1.7c1-0.3,2-0.7,2.8-1.3c0.9-0.6,1.6-1.3,2.2-2.2L164.4,74.7z M153.7,91.4C153.7,91.4,153.7,91.4,153.7,91.4
	l-9.8,3.5l10.3,1.7l0,0c0,0,0,0,0,0l1.8,0.3c0.3-1,0.3-2.1,0.3-3.1c-0.1-1-0.4-2.1-0.8-3L153.7,91.4L153.7,91.4z M162.9,109.1
	C162.9,109.1,162.9,109.1,162.9,109.1l-1.9,10.2l6.6-8l0,0l1.2-1.4c-0.7-0.7-1.6-1.3-2.6-1.8c-0.9-0.4-2-0.7-3-0.8L162.9,109.1
	C162.9,109.1,162.9,109.1,162.9,109.1z M182.7,109.9C182.7,109.9,182.7,109.9,182.7,109.9l7.9,6.8L187,107l0,0l-0.6-1.7
	c-1,0.3-2,0.7-2.8,1.3c-0.9,0.6-1.6,1.3-2.2,2.2L182.7,109.9z M187.6,100.3c0.9-0.1,1.7,0.3,2.1,1c0.2-0.4,0.4-0.8,0.6-1.2
	c0.2-0.4,0.4-0.8,0.5-1.2c-0.8,0.1-1.7-0.3-2.2-1c-1.4-2-2.3-4.3-2.5-6.8c-0.2-2.4,0.2-4.9,1.3-7.1c0.4-0.8,1.1-1.3,2-1.3
	c-0.5-0.8-1-1.5-1.5-2.2c-0.3,0.6-0.7,1-1.3,1.3c-0.2,0.1-0.4,0.1-0.6,0.1c-2.4,0.2-4.9-0.2-7.1-1.3c-2.2-1-4.1-2.6-5.5-4.6
	c-0.5-0.7-0.5-1.6-0.2-2.4c-0.9,0-1.8,0.1-2.6,0.2c0.5,0.7,0.6,1.6,0.2,2.4c-1,2.2-2.6,4.1-4.6,5.5c-1,0.7-2.1,1.3-3.2,1.7
	c-1.1,0.4-2.3,0.7-3.5,0.8c-0.9,0.1-1.7-0.3-2.1-1c-0.2,0.4-0.4,0.8-0.6,1.2c-0.2,0.4-0.4,0.8-0.5,1.2c0.8-0.1,1.7,0.3,2.2,1
	c1.4,2,2.3,4.3,2.5,6.8c0.2,2.4-0.2,4.9-1.3,7.1c-0.3,0.6-0.7,1-1.3,1.2c-0.2,0.1-0.4,0.1-0.7,0.1c0.5,0.8,1,1.5,1.5,2.2
	c0.3-0.8,1.1-1.3,1.9-1.4c2.4-0.2,4.9,0.2,7.1,1.3c2.2,1,4.1,2.6,5.5,4.6c0.5,0.7,0.5,1.6,0.2,2.4c0.9,0,1.8-0.1,2.6-0.2
	c-0.5-0.7-0.6-1.6-0.2-2.4c1-2.2,2.6-4.1,4.6-5.5C182.9,101.3,185.2,100.5,187.6,100.3z M193.4,93.2L193.4,93.2l9.8-3.5L193,88
	c0,0,0,0,0,0l-1.8-0.3c-0.3,1-0.3,2.1-0.3,3.1c0.1,1,0.4,2.1,0.8,3L193.4,93.2z M165.8,87.5c-0.9,2-1,4.2-0.3,6.2
	c0.7,2,2.2,3.7,4.2,4.6v0c2,0.9,4.2,1,6.2,0.3c2-0.7,3.7-2.2,4.6-4.2c0.9-2,1-4.2,0.3-6.2c-0.7-2-2.2-3.7-4.2-4.6
	C172.5,81.7,167.7,83.5,165.8,87.5z M176.3,92.4c-0.4,0.8-1.1,1.5-2,1.8c-0.9,0.3-1.8,0.3-2.7-0.1v0l0,0c-0.8-0.4-1.5-1.1-1.8-2
	c-0.3-0.9-0.3-1.8,0.1-2.7c0.4-0.9,1.1-1.5,2-1.8c0.8-0.3,1.8-0.3,2.7,0.1c0.8,0.4,1.5,1.1,1.8,2C176.7,90.6,176.7,91.6,176.3,92.4z
	 M105.2,140.3c0.6-0.2,1-0.6,1.3-1.2v0c0.5-1.2,0-2.5-1.1-3.1c-1.2-0.5-2.5,0-3.1,1.1c-0.5,1.2,0,2.5,1.1,3.1
	C104,140.5,104.6,140.5,105.2,140.3z M120,137.7c-0.3,0.6-0.8,1-1.3,1.2c-0.6,0.2-1.2,0.2-1.8-0.1c-0.2-0.1-0.4-0.2-0.5-0.3
	c-0.8-0.7-1.1-1.8-0.6-2.8c0.5-1.2,1.9-1.7,3.1-1.1c1,0.5,1.6,1.6,1.3,2.7C120.1,137.4,120.1,137.5,120,137.7L120,137.7z
	 M133.9,135.8c0.6-0.2,1-0.6,1.3-1.2l0,0c0.3-0.7,0.3-1.4,0-2c-0.2-0.4-0.6-0.8-1.1-1c-1.2-0.5-2.5,0-3.1,1.1
	c-0.2,0.4-0.3,0.9-0.2,1.3c0.1,0.8,0.6,1.4,1.3,1.8C132.7,136,133.4,136,133.9,135.8z M147.3,127.7c-0.3,0.6-0.8,1-1.3,1.2
	c-0.6,0.2-1.2,0.2-1.8-0.1c-1.2-0.5-1.7-1.9-1.1-3.1c0.5-1.2,1.9-1.7,3.1-1.1S147.9,126.6,147.3,127.7L147.3,127.7z M151,116.2
	c0.6-0.2,1-0.6,1.3-1.2v0c0.5-1.2,0-2.5-1.1-3.1c-1.2-0.5-2.5,0-3.1,1.1c-0.5,1.2,0,2.5,1.1,3.1C149.8,116.4,150.5,116.4,151,116.2z
	"/>
<radialGradient id="SVGID_1_" cx="-10.003" cy="273.5638" r="1" gradientTransform="matrix(-101.2407 95.401 97.6539 103.6315 -27523.8516 -27248.4766)" gradientUnits="userSpaceOnUse">
	<stop  offset="0" style="stop-color:#D01E8D"/>
	<stop  offset="1" style="stop-color:#621461"/>
</radialGradient>
<path class="st1" d="M195.1,83.6l11.3,1.9c1.9,0.3,3.4,1.8,3.5,3.6c0.2,1.8-1,3.5-2.8,4.1l0,0c0,0,0,0-0.1,0l-10.7,3.8
	c-0.4,1.7-0.9,3.4-1.7,5c-0.7,1.6-1.7,3.1-2.8,4.5l4,10.7c0.7,1.8,0.1,3.8-1.4,4.8c-0.3,0.2-0.6,0.3-0.9,0.5
	c-1.4,0.5-2.9,0.2-4.2-0.9l-8.7-7.4c-3.2,1.1-6.7,1.4-10,1c-0.1,0-0.3,0.2-0.6,0.5c-0.4,0.4-1.1,1.1-1.8,1.9
	c-3.1,3.2-8.2,8.6-10.2,7.6c-1.7-0.8-2.5-2.6-2.2-4.6l2.1-11.2c-2.6-2.4-4.7-5.3-6-8.6l-11.3-1.9c-1.9-0.3-3.4-1.8-3.5-3.6
	c-0.2-1.8,1-3.5,2.9-4.2l10.7-3.8c0.4-1.7,0.9-3.4,1.7-5c0.7-1.6,1.7-3.1,2.8-4.5l-4-10.7c-0.7-1.8-0.1-3.8,1.4-4.8
	c1.5-1.1,3.5-0.9,5,0.4l8.7,7.4c3.4-1.1,6.9-1.4,10.5-0.9l7.3-8.8c1.3-1.5,3.2-2,4.9-1.2c1.7,0.8,2.5,2.6,2.2,4.6L189.1,75
	C191.7,77.4,193.8,80.3,195.1,83.6z M101.3,146.7l-1.4,3c1.7,0.8,8.2,4.8,8.8,6.5c0.6,1.8,0.6,3.6-0.2,5.3c-0.8,1.7-2.2,3-3.9,3.6
	c-1,0.4-2.1,0.5-3.2,0.4l-16,32.2c1.9,2,2.6,5.1,1.3,7.8c-0.8,1.7-2.2,3-3.9,3.6c-1.8,0.6-3.6,0.6-5.3-0.2L64.9,203
	c-3.5-1.6-5-5.8-3.4-9.3c1.3-2.7,4-4.2,6.8-4l16.5-31.9c-0.8-0.7-1.4-1.7-1.8-2.7c-0.6-1.8-0.6-3.6,0.2-5.3c0.8-1.7,2.2-3,3.9-3.6
	c1.8-0.6,3.6-0.6,5.3,0.2l3.2,1.4l1.4-3c0.5-1.2,1.9-1.7,3.1-1.1C101.4,144.1,101.9,145.5,101.3,146.7z M72.7,191.3l8.8,4.1
	L97,163.8l-8.1-3.8L72.7,191.3z M81.2,204.7c0.6-0.2,1.1-0.6,1.3-1.2c0.5-1.2,0-2.5-1.1-3.1l-12.6-5.9c-0.6-0.3-1.2-0.3-1.8-0.1
	c-0.6,0.2-1.1,0.6-1.3,1.2c-0.3,0.6-0.3,1.2-0.1,1.8c0.2,0.6,0.6,1.1,1.2,1.3l12.6,5.9C80,204.9,80.6,204.9,81.2,204.7z
	 M101.2,160.7c1.2,0.5,2.5,0,3.1-1.1c0.3-0.6,0.3-1.2,0.1-1.8c-0.2-0.6-0.6-1.1-1.2-1.3l-12.7-5.9c-0.6-0.3-1.2-0.3-1.8-0.1
	c-0.6,0.2-1,0.6-1.3,1.2c-0.3,0.6-0.3,1.2-0.1,1.8c0.2,0.6,0.6,1.1,1.2,1.3L101.2,160.7z M184.2,75.5l1.9-10.2l-7.8,9.4
	c0.7,0.7,1.6,1.3,2.6,1.8c0.9,0.4,2,0.7,3,0.8L184.2,75.5L184.2,75.5z M164.4,74.7C164.4,74.6,164.4,74.6,164.4,74.7l-7.9-6.8
	l3.6,9.7l0,0l0.6,1.7c1-0.3,2-0.7,2.8-1.3c0.9-0.6,1.6-1.3,2.2-2.2L164.4,74.7z M153.7,91.4C153.7,91.4,153.7,91.4,153.7,91.4
	l-9.8,3.5l10.3,1.7l0,0c0,0,0,0,0,0l1.8,0.3c0.3-1,0.3-2.1,0.3-3.1c-0.1-1-0.4-2.1-0.8-3L153.7,91.4L153.7,91.4z M162.9,109.1
	C162.9,109.1,162.9,109.1,162.9,109.1l-1.9,10.2l6.6-8l0,0l1.2-1.4c-0.7-0.7-1.6-1.3-2.6-1.8c-0.9-0.4-2-0.7-3-0.8L162.9,109.1
	C162.9,109.1,162.9,109.1,162.9,109.1z M182.7,109.9C182.7,109.9,182.7,109.9,182.7,109.9l7.9,6.8L187,107l0,0l-0.6-1.7
	c-1,0.3-2,0.7-2.8,1.3c-0.9,0.6-1.6,1.3-2.2,2.2L182.7,109.9z M187.6,100.3c0.9-0.1,1.7,0.3,2.1,1c0.2-0.4,0.4-0.8,0.6-1.2
	c0.2-0.4,0.4-0.8,0.5-1.2c-0.8,0.1-1.7-0.3-2.2-1c-1.4-2-2.3-4.3-2.5-6.8c-0.2-2.4,0.2-4.9,1.3-7.1c0.4-0.8,1.1-1.3,2-1.3
	c-0.5-0.8-1-1.5-1.5-2.2c-0.3,0.6-0.7,1-1.3,1.3c-0.2,0.1-0.4,0.1-0.6,0.1c-2.4,0.2-4.9-0.2-7.1-1.3c-2.2-1-4.1-2.6-5.5-4.6
	c-0.5-0.7-0.5-1.6-0.2-2.4c-0.9,0-1.8,0.1-2.6,0.2c0.5,0.7,0.6,1.6,0.2,2.4c-1,2.2-2.6,4.1-4.6,5.5c-1,0.7-2.1,1.3-3.2,1.7
	c-1.1,0.4-2.3,0.7-3.5,0.8c-0.9,0.1-1.7-0.3-2.1-1c-0.2,0.4-0.4,0.8-0.6,1.2c-0.2,0.4-0.4,0.8-0.5,1.2c0.8-0.1,1.7,0.3,2.2,1
	c1.4,2,2.3,4.3,2.5,6.8c0.2,2.4-0.2,4.9-1.3,7.1c-0.3,0.6-0.7,1-1.3,1.2c-0.2,0.1-0.4,0.1-0.7,0.1c0.5,0.8,1,1.5,1.5,2.2
	c0.3-0.8,1.1-1.3,1.9-1.4c2.4-0.2,4.9,0.2,7.1,1.3c2.2,1,4.1,2.6,5.5,4.6c0.5,0.7,0.5,1.6,0.2,2.4c0.9,0,1.8-0.1,2.6-0.2
	c-0.5-0.7-0.6-1.6-0.2-2.4c1-2.2,2.6-4.1,4.6-5.5C182.9,101.3,185.2,100.5,187.6,100.3z M193.4,93.2L193.4,93.2l9.8-3.5L193,88
	c0,0,0,0,0,0l-1.8-0.3c-0.3,1-0.3,2.1-0.3,3.1c0.1,1,0.4,2.1,0.8,3L193.4,93.2z M165.8,87.5c-0.9,2-1,4.2-0.3,6.2
	c0.7,2,2.2,3.7,4.2,4.6v0c2,0.9,4.2,1,6.2,0.3c2-0.7,3.7-2.2,4.6-4.2c0.9-2,1-4.2,0.3-6.2c-0.7-2-2.2-3.7-4.2-4.6
	C172.5,81.7,167.7,83.5,165.8,87.5z M176.3,92.4c-0.4,0.8-1.1,1.5-2,1.8c-0.9,0.3-1.8,0.3-2.7-0.1v0l0,0c-0.8-0.4-1.5-1.1-1.8-2
	c-0.3-0.9-0.3-1.8,0.1-2.7c0.4-0.9,1.1-1.5,2-1.8c0.8-0.3,1.8-0.3,2.7,0.1c0.8,0.4,1.5,1.1,1.8,2C176.7,90.6,176.7,91.6,176.3,92.4z
	 M105.2,140.3c0.6-0.2,1-0.6,1.3-1.2v0c0.5-1.2,0-2.5-1.1-3.1c-1.2-0.5-2.5,0-3.1,1.1c-0.5,1.2,0,2.5,1.1,3.1
	C104,140.5,104.6,140.5,105.2,140.3z M120,137.7c-0.3,0.6-0.8,1-1.3,1.2c-0.6,0.2-1.2,0.2-1.8-0.1c-0.2-0.1-0.4-0.2-0.5-0.3
	c-0.8-0.7-1.1-1.8-0.6-2.8c0.5-1.2,1.9-1.7,3.1-1.1c1,0.5,1.6,1.6,1.3,2.7C120.1,137.4,120.1,137.5,120,137.7L120,137.7z
	 M133.9,135.8c0.6-0.2,1-0.6,1.3-1.2l0,0c0.3-0.7,0.3-1.4,0-2c-0.2-0.4-0.6-0.8-1.1-1c-1.2-0.5-2.5,0-3.1,1.1
	c-0.2,0.4-0.3,0.9-0.2,1.3c0.1,0.8,0.6,1.4,1.3,1.8C132.7,136,133.4,136,133.9,135.8z M147.3,127.7c-0.3,0.6-0.8,1-1.3,1.2
	c-0.6,0.2-1.2,0.2-1.8-0.1c-1.2-0.5-1.7-1.9-1.1-3.1c0.5-1.2,1.9-1.7,3.1-1.1S147.9,126.6,147.3,127.7L147.3,127.7z M151,116.2
	c0.6-0.2,1-0.6,1.3-1.2v0c0.5-1.2,0-2.5-1.1-3.1c-1.2-0.5-2.5,0-3.1,1.1c-0.5,1.2,0,2.5,1.1,3.1C149.8,116.4,150.5,116.4,151,116.2z
	"/>
</svg>
