<?xml version="1.0" encoding="utf-8"?>
<!-- Generator: Adobe Illustrator 24.3.0, SVG Export Plug-In . SVG Version: 6.00 Build 0)  -->
<svg version="1.1" id="圖層_1" xmlns="http://www.w3.org/2000/svg" xmlns:xlink="http://www.w3.org/1999/xlink" x="0px" y="0px"
	 viewBox="0 0 262 262" style="enable-background:new 0 0 262 262;" xml:space="preserve">
<style type="text/css">
	.st0{fill-rule:evenodd;clip-rule:evenodd;fill:#D81690;}
	.st1{fill-rule:evenodd;clip-rule:evenodd;fill:url(#SVGID_1_);}
</style>
<path class="st0" d="M194.3,157.5c-0.6,0.3-1.2,0.5-1.7,0.8l0,0c-1.1,0.5-2.3,1-3.6,1.5c-4.8-11.5-1.5-20.9,6.4-30.1
	c-14-9.9-23.5-22.2-22.4-40.8c-18.1,0.8-31.1-8.2-41.1-22.7c-8.9,7.7-18.4,11-29.8,6.4c0.5-1.1,0.8-2.2,1.2-3.3v0
	c0.3-0.7,0.5-1.5,0.8-2.3c12.5,4.8,20.9-1.8,29.1-11c10.7,18.6,24.2,31.4,48,24.5c-7.1,23.7,5.9,37,24.5,48
	C196.8,136.6,189.7,144.8,194.3,157.5z M134.1,126.4c2.6,2.6,3.8,3.8,6.1,5.9c1.1-1.2,2.1-2.5,3.1-3.8l0,0l0,0
	c1.3-1.6,2.6-3.2,4-4.7c4.3-4.3,7.7-4.6,11-1.3c3.3,3.6,2.8,6.6-1.5,11c-2.2,2.3-4.5,4.6-6.8,6.9l0,0c-2.3,2.3-4.6,4.6-6.8,6.9
	c-5.9,6.4-5.1,14.5,1.8,19.6c0.6,0.6,1.2,1,2,1.5c0.6,0.4,1.4,0.9,2.3,1.6c-2.6,2.2-5.1,4.4-7.6,6.5c-5.3,4.6-10.6,9.2-16.1,13.4
	c-6.1,4.6-13,6.9-20.9,4.1c-1-0.3-2.6,0.3-3.3,1c-1.9,1.2-3.6,2.7-5.4,4.2c-0.8,0.7-1.7,1.4-2.5,2.2c0.8,0.9,1.4,1.6,2,2.2
	c0.9,1,1.6,1.7,2.1,2.4c1-0.7,1.9-1.4,2.7-2.1c2.2-1.7,4.1-3.2,5.7-3c12.8,1.5,22.4-4.1,31.1-12c12-11.2,23.7-23,35.2-34.7
	c5.4-5.4,4.6-13.8-1.5-18.6c-1.5-1-3.3-2-5.1-3.1c1.3-11.2-1.3-15.1-13.3-18.9c-0.5-7.7-5.6-11.7-12.5-13.5c0-1.5,0-2.8-0.3-4.1
	c-1.3-8.7-11.5-14.3-18.6-9.4c-3.8,2.5-7,5.7-10.3,9c-1.3,1.3-2.6,2.7-4,4c1,0.9,1.8,1.7,2.6,2.4l0,0c0.8,0.8,1.5,1.5,2.6,2.4
	c3.3-3.6,6.4-6.9,9.4-10.2l0,0c3.6-3.8,6.9-4.1,10.2-1c3.3,3.1,3.1,6.6-0.8,10.5c-1.6,1.5-3.2,2.9-4.9,4.3c-1.8,1.6-3.7,3.1-5.5,4.9
	c2.3,2,3.6,3.3,5.6,5.4c1.3-1.4,2.5-2.8,3.6-4.1c1.5-1.8,2.9-3.4,4.5-5.1c3.3-3.6,6.9-3.6,9.9-0.8c3.3,3.1,3.3,6.6-0.5,10.2
	C140.7,121.3,137.4,123.9,134.1,126.4z M169,142.9c0.4,0.5,0.7,1,1.1,1.3c0,5.4-14,19.4-17.6,18.9c-2.3-0.5-5.1-2.3-6.1-4.3
	c-0.8-1.5-0.5-4.8,0.8-6.4c3.6-4.3,7.9-8.7,12.2-12.2c1.5-1,4.6-1.3,6.4-0.5C167.1,140.4,168.1,141.8,169,142.9z M98.6,164.4
	c5.6-4.6,7.1-10.7,7.7-16.3c1.7,0.3,3.4,0.7,5,1.1c3.6,0.9,7.1,1.7,10.5,1.7c5.4,0,10.2-2.8,12.2-8.2s-1-8.9-4.6-12.5
	c-5.1-4.9-10.1-10-15.1-15l0,0v0c-2.5-2.6-5.1-5.1-7.6-7.7c-4.3-4.6-9.9-7.4-16.1-4.8c-4.6,1.8-9.2,4.8-12.5,8.7
	c-9.7,11-14.8,24.2-15.8,39c0,5.6,0,10.7-6.4,14.3c1.8,1.8,3.1,3.1,5.4,5.6c0.8-1,1.5-2,2.2-2.9c1-1.4,1.9-2.6,2.9-3.7
	c2-2,2.6-3.8,2.6-6.6c0.3-6.6,0.5-13.3,2-19.6c2.6-9.9,7.4-18.9,15.1-25.8c4.8-4.3,9.9-5.1,14-1.3c6.9,6.5,13.5,13.1,20.1,19.8
	c2.2,2.2,4.4,4.5,6.7,6.7c2,2,1.8,4.1-0.8,5.9c-4.6,3.3-9.7,3.1-14,0c-2.7-1.8-5-4.1-7.4-6.5h0l0,0c-1-1-2.1-2.1-3.3-3.2
	c-1,0.5-2.6,1.3-4.3,2.3c4.1,9.2,4.1,17.6-2.6,25.3C96.1,161.9,97.3,163.1,98.6,164.4z M149.2,94.2c-0.3,0.8-0.7,1.6-1.1,2.6
	c1.3,0.4,2.7,0.7,4,1c2.6,0.6,5,1.1,6.8,2.6c1.7,1.3,2.7,3.6,3.7,6.1c0.6,1.3,1.2,2.6,1.9,3.9c0.7-0.4,1.6-0.8,2.5-1.1
	c0.7-0.3,1.4-0.6,2.1-0.9c-0.6-3.1-1.1-5.7-1.7-8.3c-0.2-0.9-0.4-1.8-0.6-2.6c-0.3-1-1.3-2.3-2-2.6c-4.6-1.3-9.2-2.3-14.3-3.3
	C150,92.3,149.6,93.2,149.2,94.2z"/>
<radialGradient id="SVGID_1_" cx="-10.021" cy="273.5466" r="1" gradientTransform="matrix(-107.682 72.3675 94.3985 140.4638 -26717.8535 -37514.6211)" gradientUnits="userSpaceOnUse">
	<stop  offset="0" style="stop-color:#D01E8D"/>
	<stop  offset="1" style="stop-color:#621461"/>
</radialGradient>
<path class="st1" d="M194.3,157.5c-0.6,0.3-1.2,0.5-1.7,0.8l0,0c-1.1,0.5-2.3,1-3.6,1.5c-4.8-11.5-1.5-20.9,6.4-30.1
	c-14-9.9-23.5-22.2-22.4-40.8c-18.1,0.8-31.1-8.2-41.1-22.7c-8.9,7.7-18.4,11-29.8,6.4c0.5-1.1,0.8-2.2,1.2-3.3v0
	c0.3-0.7,0.5-1.5,0.8-2.3c12.5,4.8,20.9-1.8,29.1-11c10.7,18.6,24.2,31.4,48,24.5c-7.1,23.7,5.9,37,24.5,48
	C196.8,136.6,189.7,144.8,194.3,157.5z M134.1,126.4c2.6,2.6,3.8,3.8,6.1,5.9c1.1-1.2,2.1-2.5,3.1-3.8l0,0l0,0
	c1.3-1.6,2.6-3.2,4-4.7c4.3-4.3,7.7-4.6,11-1.3c3.3,3.6,2.8,6.6-1.5,11c-2.2,2.3-4.5,4.6-6.8,6.9l0,0c-2.3,2.3-4.6,4.6-6.8,6.9
	c-5.9,6.4-5.1,14.5,1.8,19.6c0.6,0.6,1.2,1,2,1.5c0.6,0.4,1.4,0.9,2.3,1.6c-2.6,2.2-5.1,4.4-7.6,6.5c-5.3,4.6-10.6,9.2-16.1,13.4
	c-6.1,4.6-13,6.9-20.9,4.1c-1-0.3-2.6,0.3-3.3,1c-1.9,1.2-3.6,2.7-5.4,4.2c-0.8,0.7-1.7,1.4-2.5,2.2c0.8,0.9,1.4,1.6,2,2.2
	c0.9,1,1.6,1.7,2.1,2.4c1-0.7,1.9-1.4,2.7-2.1c2.2-1.7,4.1-3.2,5.7-3c12.8,1.5,22.4-4.1,31.1-12c12-11.2,23.7-23,35.2-34.7
	c5.4-5.4,4.6-13.8-1.5-18.6c-1.5-1-3.3-2-5.1-3.1c1.3-11.2-1.3-15.1-13.3-18.9c-0.5-7.7-5.6-11.7-12.5-13.5c0-1.5,0-2.8-0.3-4.1
	c-1.3-8.7-11.5-14.3-18.6-9.4c-3.8,2.5-7,5.7-10.3,9c-1.3,1.3-2.6,2.7-4,4c1,0.9,1.8,1.7,2.6,2.4l0,0c0.8,0.8,1.5,1.5,2.6,2.4
	c3.3-3.6,6.4-6.9,9.4-10.2l0,0c3.6-3.8,6.9-4.1,10.2-1c3.3,3.1,3.1,6.6-0.8,10.5c-1.6,1.5-3.2,2.9-4.9,4.3c-1.8,1.6-3.7,3.1-5.5,4.9
	c2.3,2,3.6,3.3,5.6,5.4c1.3-1.4,2.5-2.8,3.6-4.1c1.5-1.8,2.9-3.4,4.5-5.1c3.3-3.6,6.9-3.6,9.9-0.8c3.3,3.1,3.3,6.6-0.5,10.2
	C140.7,121.3,137.4,123.9,134.1,126.4z M169,142.9c0.4,0.5,0.7,1,1.1,1.3c0,5.4-14,19.4-17.6,18.9c-2.3-0.5-5.1-2.3-6.1-4.3
	c-0.8-1.5-0.5-4.8,0.8-6.4c3.6-4.3,7.9-8.7,12.2-12.2c1.5-1,4.6-1.3,6.4-0.5C167.1,140.4,168.1,141.8,169,142.9z M98.6,164.4
	c5.6-4.6,7.1-10.7,7.7-16.3c1.7,0.3,3.4,0.7,5,1.1c3.6,0.9,7.1,1.7,10.5,1.7c5.4,0,10.2-2.8,12.2-8.2s-1-8.9-4.6-12.5
	c-5.1-4.9-10.1-10-15.1-15l0,0v0c-2.5-2.6-5.1-5.1-7.6-7.7c-4.3-4.6-9.9-7.4-16.1-4.8c-4.6,1.8-9.2,4.8-12.5,8.7
	c-9.7,11-14.8,24.2-15.8,39c0,5.6,0,10.7-6.4,14.3c1.8,1.8,3.1,3.1,5.4,5.6c0.8-1,1.5-2,2.2-2.9c1-1.4,1.9-2.6,2.9-3.7
	c2-2,2.6-3.8,2.6-6.6c0.3-6.6,0.5-13.3,2-19.6c2.6-9.9,7.4-18.9,15.1-25.8c4.8-4.3,9.9-5.1,14-1.3c6.9,6.5,13.5,13.1,20.1,19.8
	c2.2,2.2,4.4,4.5,6.7,6.7c2,2,1.8,4.1-0.8,5.9c-4.6,3.3-9.7,3.1-14,0c-2.7-1.8-5-4.1-7.4-6.5h0l0,0c-1-1-2.1-2.1-3.3-3.2
	c-1,0.5-2.6,1.3-4.3,2.3c4.1,9.2,4.1,17.6-2.6,25.3C96.1,161.9,97.3,163.1,98.6,164.4z M149.2,94.2c-0.3,0.8-0.7,1.6-1.1,2.6
	c1.3,0.4,2.7,0.7,4,1c2.6,0.6,5,1.1,6.8,2.6c1.7,1.3,2.7,3.6,3.7,6.1c0.6,1.3,1.2,2.6,1.9,3.9c0.7-0.4,1.6-0.8,2.5-1.1
	c0.7-0.3,1.4-0.6,2.1-0.9c-0.6-3.1-1.1-5.7-1.7-8.3c-0.2-0.9-0.4-1.8-0.6-2.6c-0.3-1-1.3-2.3-2-2.6c-4.6-1.3-9.2-2.3-14.3-3.3
	C150,92.3,149.6,93.2,149.2,94.2z"/>
</svg>
