<?xml version="1.0" encoding="utf-8"?>
<!-- Generator: Adobe Illustrator 24.3.0, SVG Export Plug-In . SVG Version: 6.00 Build 0)  -->
<svg version="1.1" id="圖層_1" xmlns="http://www.w3.org/2000/svg" xmlns:xlink="http://www.w3.org/1999/xlink" x="0px" y="0px"
	 viewBox="0 0 262 262" style="enable-background:new 0 0 262 262;" xml:space="preserve">
<style type="text/css">
	.st0{fill-rule:evenodd;clip-rule:evenodd;fill:#D81690;}
	.st1{fill-rule:evenodd;clip-rule:evenodd;fill:url(#SVGID_1_);}
</style>
<path class="st0" d="M64.4,120.9c-8-4.5-13.4-13-13.4-22.8C51,83.7,62.7,72,77.1,72c11.4,0,21.1,7.3,24.6,17.5
	c9-3.2,19.2-4.9,30.6-4.9c10.7,0,20.2,1.6,28.6,4.4c3.7-9.9,13.3-17,24.5-17c14.4,0,26.1,11.7,26.1,26.1c0,9.5-5,17.7-12.5,22.3
	c3,5.1,5.4,10.6,7.3,16.4c0,0.1,0.1,0.2,0.1,0.3c5.7-1.4,10.1-2.2,10.2-1.8c0.1,0.4-4,2-9.7,3.6c1.3,4.6,2,9,1.9,13.2
	c4.7,1.4,7.9,2.6,7.8,3c-0.1,0.4-3.4-0.1-7.9-1.2c-1.8,20.8-23.6,35.2-76.3,35.2c-53.3,0-73.4-14.5-75.4-35.8
	c-5.9,1.5-10.4,2.3-10.5,1.9c-0.1-0.5,4.4-2.1,10.4-3.8c-0.2-3.8,0.2-7.8,1.1-11.9c-6.5-1.8-11.6-3.6-11.5-4.1
	c0.1-0.5,5.4,0.5,11.9,2.2c0.1-0.2,0.1-0.4,0.2-0.7C59.8,131.2,61.8,125.9,64.4,120.9z M62,151.8c5.6-1.6,9.7-3.1,9.6-3.5
	c-0.1-0.4-4.2,0.3-9.7,1.6c-0.1-3,0.1-6.1,0.7-9.4c5.1,1.3,8.9,1.9,9,1.5c0.1-0.4-3.6-1.8-8.7-3.3c0.2-0.7,0.3-1.5,0.5-2.3
	c5.7-23.5,23.7-41.9,52-47.2c-0.2,0.9-0.4,2.2-0.4,4.2c0,8,2,14.5,4.5,14.5c2.5,0,4.5-6.5,4.5-14.5c0-3.1-0.3-4.6-0.8-5.3
	c3-0.3,6.1-0.4,9.3-0.4c3.2,0,6.2,0.1,9.2,0.4c-0.4,0.9-0.7,2.6-0.7,5.3c0,8,2,14.5,4.5,14.5c2.5,0,4.5-6.5,4.5-14.5
	c0-1.9-0.1-3.2-0.3-4.2c27.7,5.4,44.3,24,51.9,47.2c0.2,0.6,0.4,1.1,0.5,1.7c-6.2,1.7-10.9,3.4-10.8,3.9c0.1,0.5,5-0.4,11.3-2
	c0.9,3.7,1.4,7.3,1.3,10.7c-6.8-1.8-12.4-2.9-12.6-2.4c-0.1,0.5,5.4,2.4,12.3,4.3l0.1,0c-1.8,19.3-22.3,32.6-71.3,32.6
	C82.7,185.2,63.8,171.7,62,151.8z M66.6,117.2c7.1-11.5,17.8-20.7,31.7-26.4c-3.5-6.7-10.6-11.2-18.6-11.2
	c-11.6,0-21.1,9.4-21.1,21.1C58.5,107.3,61.7,113.3,66.6,117.2z M165,90.5c13.8,5.6,24.3,14.9,31.8,26.4c4.7-3.9,7.8-9.7,7.8-16.3
	c0-11.6-9.4-21.1-21.1-21.1C175.6,79.5,168.6,84,165,90.5z M102.1,155c4.5,0,8.2-3.7,8.2-8.2c0-4.5-3.7-8.2-8.2-8.2
	c-4.5,0-8.2,3.7-8.2,8.2C93.9,151.4,97.5,155,102.1,155z M101.1,148.1c1.6,0,2.8-1.3,2.8-2.8c0-1.6-1.3-2.8-2.8-2.8
	c-1.6,0-2.8,1.3-2.8,2.8C98.3,146.8,99.6,148.1,101.1,148.1z M162.5,155c4.5,0,8.2-3.7,8.2-8.2c0-4.5-3.7-8.2-8.2-8.2
	c-4.5,0-8.2,3.7-8.2,8.2C154.3,151.4,157.9,155,162.5,155z M161.5,148.1c1.6,0,2.8-1.3,2.8-2.8c0-1.6-1.3-2.8-2.8-2.8
	c-1.6,0-2.8,1.3-2.8,2.8C158.7,146.8,159.9,148.1,161.5,148.1z M140.4,152.8c0,2.2-3.3,4-7.4,4.1c-0.5,1.7-0.2,3.2,1.5,4.6
	c4.3,3.5,8.8,0.6,11.1-0.9l0,0h0v0c0.4-0.2,0.7-0.4,0.9-0.6c1.8-1,3-0.5,2,1c-0.5,0.8-1.7,1.4-4.1,2.6c-0.3,0.1-0.6,0.3-0.9,0.4
	c-4.4,2.2-11.6-0.8-11.1-1c-0.6,0.1-1.5,0.3-2.4,0.6l0,0c-1.9,0.5-4.4,1.2-6.5,0.9c-4-0.5-6.5-2-7.5-3.5s0.3-3.2,2.3-1
	c3.2,3.5,9.2,3,11.7,1.5c1.7-1,2-2.9,1.6-4.6c-3.9-0.3-6.9-2-6.9-4.1c0-2.3,3.5-4.1,7.9-4.1C136.9,148.7,140.4,150.6,140.4,152.8z"
	/>
<radialGradient id="SVGID_1_" cx="-10.0363" cy="273.5564" r="1" gradientTransform="matrix(-122.5804 56.4455 60.424 131.2204 -17567.9883 -35158.1484)" gradientUnits="userSpaceOnUse">
	<stop  offset="0" style="stop-color:#D01E8D"/>
	<stop  offset="1" style="stop-color:#621461"/>
</radialGradient>
<path class="st1" d="M64.4,120.9c-8-4.5-13.4-13-13.4-22.8C51,83.7,62.7,72,77.1,72c11.4,0,21.1,7.3,24.6,17.5
	c9-3.2,19.2-4.9,30.6-4.9c10.7,0,20.2,1.6,28.6,4.4c3.7-9.9,13.3-17,24.5-17c14.4,0,26.1,11.7,26.1,26.1c0,9.5-5,17.7-12.5,22.3
	c3,5.1,5.4,10.6,7.3,16.4c0,0.1,0.1,0.2,0.1,0.3c5.7-1.4,10.1-2.2,10.2-1.8c0.1,0.4-4,2-9.7,3.6c1.3,4.6,2,9,1.9,13.2
	c4.7,1.4,7.9,2.6,7.8,3c-0.1,0.4-3.4-0.1-7.9-1.2c-1.8,20.8-23.6,35.2-76.3,35.2c-53.3,0-73.4-14.5-75.4-35.8
	c-5.9,1.5-10.4,2.3-10.5,1.9c-0.1-0.5,4.4-2.1,10.4-3.8c-0.2-3.8,0.2-7.8,1.1-11.9c-6.5-1.8-11.6-3.6-11.5-4.1
	c0.1-0.5,5.4,0.5,11.9,2.2c0.1-0.2,0.1-0.4,0.2-0.7C59.8,131.2,61.8,125.9,64.4,120.9z M62,151.8c5.6-1.6,9.7-3.1,9.6-3.5
	c-0.1-0.4-4.2,0.3-9.7,1.6c-0.1-3,0.1-6.1,0.7-9.4c5.1,1.3,8.9,1.9,9,1.5c0.1-0.4-3.6-1.8-8.7-3.3c0.2-0.7,0.3-1.5,0.5-2.3
	c5.7-23.5,23.7-41.9,52-47.2c-0.2,0.9-0.4,2.2-0.4,4.2c0,8,2,14.5,4.5,14.5c2.5,0,4.5-6.5,4.5-14.5c0-3.1-0.3-4.6-0.8-5.3
	c3-0.3,6.1-0.4,9.3-0.4c3.2,0,6.2,0.1,9.2,0.4c-0.4,0.9-0.7,2.6-0.7,5.3c0,8,2,14.5,4.5,14.5c2.5,0,4.5-6.5,4.5-14.5
	c0-1.9-0.1-3.2-0.3-4.2c27.7,5.4,44.3,24,51.9,47.2c0.2,0.6,0.4,1.1,0.5,1.7c-6.2,1.7-10.9,3.4-10.8,3.9c0.1,0.5,5-0.4,11.3-2
	c0.9,3.7,1.4,7.3,1.3,10.7c-6.8-1.8-12.4-2.9-12.6-2.4c-0.1,0.5,5.4,2.4,12.3,4.3l0.1,0c-1.8,19.3-22.3,32.6-71.3,32.6
	C82.7,185.2,63.8,171.7,62,151.8z M66.6,117.2c7.1-11.5,17.8-20.7,31.7-26.4c-3.5-6.7-10.6-11.2-18.6-11.2
	c-11.6,0-21.1,9.4-21.1,21.1C58.5,107.3,61.7,113.3,66.6,117.2z M165,90.5c13.8,5.6,24.3,14.9,31.8,26.4c4.7-3.9,7.8-9.7,7.8-16.3
	c0-11.6-9.4-21.1-21.1-21.1C175.6,79.5,168.6,84,165,90.5z M102.1,155c4.5,0,8.2-3.7,8.2-8.2c0-4.5-3.7-8.2-8.2-8.2
	c-4.5,0-8.2,3.7-8.2,8.2C93.9,151.4,97.5,155,102.1,155z M101.1,148.1c1.6,0,2.8-1.3,2.8-2.8c0-1.6-1.3-2.8-2.8-2.8
	c-1.6,0-2.8,1.3-2.8,2.8C98.3,146.8,99.6,148.1,101.1,148.1z M162.5,155c4.5,0,8.2-3.7,8.2-8.2c0-4.5-3.7-8.2-8.2-8.2
	c-4.5,0-8.2,3.7-8.2,8.2C154.3,151.4,157.9,155,162.5,155z M161.5,148.1c1.6,0,2.8-1.3,2.8-2.8c0-1.6-1.3-2.8-2.8-2.8
	c-1.6,0-2.8,1.3-2.8,2.8C158.7,146.8,159.9,148.1,161.5,148.1z M140.4,152.8c0,2.2-3.3,4-7.4,4.1c-0.5,1.7-0.2,3.2,1.5,4.6
	c4.3,3.5,8.8,0.6,11.1-0.9l0,0h0v0c0.4-0.2,0.7-0.4,0.9-0.6c1.8-1,3-0.5,2,1c-0.5,0.8-1.7,1.4-4.1,2.6c-0.3,0.1-0.6,0.3-0.9,0.4
	c-4.4,2.2-11.6-0.8-11.1-1c-0.6,0.1-1.5,0.3-2.4,0.6l0,0c-1.9,0.5-4.4,1.2-6.5,0.9c-4-0.5-6.5-2-7.5-3.5s0.3-3.2,2.3-1
	c3.2,3.5,9.2,3,11.7,1.5c1.7-1,2-2.9,1.6-4.6c-3.9-0.3-6.9-2-6.9-4.1c0-2.3,3.5-4.1,7.9-4.1C136.9,148.7,140.4,150.6,140.4,152.8z"
	/>
</svg>
