<?xml version="1.0" encoding="utf-8"?>
<!-- Generator: Adobe Illustrator 24.3.0, SVG Export Plug-In . SVG Version: 6.00 Build 0)  -->
<svg version="1.1" id="圖層_1" xmlns="http://www.w3.org/2000/svg" xmlns:xlink="http://www.w3.org/1999/xlink" x="0px" y="0px"
	 viewBox="0 0 262 262" style="enable-background:new 0 0 262 262;" xml:space="preserve">
<style type="text/css">
	.st0{fill:#D81690;}
	.st1{fill:url(#SVGID_1_);}
</style>
<path class="st0" d="M89.1,80.5c5.4-6.7,15.2-13.4,31.3-9.6l4.3-7.4c5.9-10.2,14-9.1,28.5-0.7c14.4,8.3,48.7,28.1,48.7,28.1
	c10.2,5.9,13.8,18.6,7.9,28.8l-6.1,10.5c-3.6,6.2-12,20.8-21.8,34.4c-11.2,15.6-16.9,18.3-26,23.7L144,208.7
	c-2.5,4.3-8.1,5.8-12.4,3.3l-50.9-29.4c-4.4-2.5-5.8-8.1-3.3-12.4l11.3-19.6c-4.4-8.6-11.5-14.5-11.4-28.8
	C77.4,111.6,79.1,92.8,89.1,80.5z M198.7,96.1l-47.2-27.2c-7.3-4.2-17.5-9.6-21.7-2.3l-3.6,6.2c5.3,2,9.4,5.2,11.8,9.3
	c2.4,4.1,3,8.8,1.7,13.2c-1.6,5.1-5.4,9-10.9,11.2c-3.3,1.3-7.2,1.9-11.3,1.8c2.3,8.3,7.6,15.2,15.4,19.7l19.8,11.4
	c16,9.2,36.4,3.7,45.6-12.2l6.1-10.5C209.2,108.3,204.1,99.2,198.7,96.1z M83.7,177.3l50.9,29.4c1.4,0.8,3.3,0.3,4.1-1.1l12.1-21
	c0.8-1.5,0.3-3.3-1.1-4.1L98.9,151c-1.5-0.8-3.3-0.3-4.1,1.1l0,0l0,0l-1.5,2.6l11.1,6.4c1.5,0.8,2,2.7,1.1,4.1l-6.1,10.5
	c-0.8,1.5-2.7,1.9-4.1,1.1l-11.1-6.4l-1.5,2.6C81.7,174.6,82.2,176.5,83.7,177.3z M87.1,165.3l8.5,4.9l3-5.3l-8.5-4.9L87.1,165.3z
	 M93,145.7c2.7-1.5,6.1-1.5,8.9,0.1l50.9,29.4c2,1.2,3.4,3,4.1,5c12.6-9.5,21-19.8,30.3-34.6c-11.5,5.8-25.6,5.9-37.5-1l-19.8-11.4
	c-9.9-5.7-16.5-14.8-18.8-25.7c-1.2-0.2-2.4-0.5-3.7-0.9c-1.6-0.4-2.6-2.1-2.1-3.7c0.4-1.6,2.1-2.6,3.7-2.1c6.9,1.9,12.9,1.9,17.6,0
	c3.7-1.5,6.3-4.1,7.3-7.4c1.6-5.1-1-12.1-10.5-15.4c-12.7-4.4-22.7-2.3-29.7,6.2C80.4,100.7,85.7,128.8,93,145.7z"/>
<radialGradient id="SVGID_1_" cx="-9.8832" cy="273.4994" r="1" gradientTransform="matrix(43.9067 103.3414 139.9217 -59.4486 -37765.9648 17431.9863)" gradientUnits="userSpaceOnUse">
	<stop  offset="0" style="stop-color:#D01E8D"/>
	<stop  offset="1" style="stop-color:#621461"/>
</radialGradient>
<path class="st1" d="M89.1,80.5c5.4-6.7,15.2-13.4,31.3-9.6l4.3-7.4c5.9-10.2,14-9.1,28.5-0.7c14.4,8.3,48.7,28.1,48.7,28.1
	c10.2,5.9,13.8,18.6,7.9,28.8l-6.1,10.5c-3.6,6.2-12,20.8-21.8,34.4c-11.2,15.6-16.9,18.3-26,23.7L144,208.7
	c-2.5,4.3-8.1,5.8-12.4,3.3l-50.9-29.4c-4.4-2.5-5.8-8.1-3.3-12.4l11.3-19.6c-4.4-8.6-11.5-14.5-11.4-28.8
	C77.4,111.6,79.1,92.8,89.1,80.5z M198.7,96.1l-47.2-27.2c-7.3-4.2-17.5-9.6-21.7-2.3l-3.6,6.2c5.3,2,9.4,5.2,11.8,9.3
	c2.4,4.1,3,8.8,1.7,13.2c-1.6,5.1-5.4,9-10.9,11.2c-3.3,1.3-7.2,1.9-11.3,1.8c2.3,8.3,7.6,15.2,15.4,19.7l19.8,11.4
	c16,9.2,36.4,3.7,45.6-12.2l6.1-10.5C209.2,108.3,204.1,99.2,198.7,96.1z M83.7,177.3l50.9,29.4c1.4,0.8,3.3,0.3,4.1-1.1l12.1-21
	c0.8-1.5,0.3-3.3-1.1-4.1L98.9,151c-1.5-0.8-3.3-0.3-4.1,1.1l0,0l0,0l-1.5,2.6l11.1,6.4c1.5,0.8,2,2.7,1.1,4.1l-6.1,10.5
	c-0.8,1.5-2.7,1.9-4.1,1.1l-11.1-6.4l-1.5,2.6C81.7,174.6,82.2,176.5,83.7,177.3z M87.1,165.3l8.5,4.9l3-5.3l-8.5-4.9L87.1,165.3z
	 M93,145.7c2.7-1.5,6.1-1.5,8.9,0.1l50.9,29.4c2,1.2,3.4,3,4.1,5c12.6-9.5,21-19.8,30.3-34.6c-11.5,5.8-25.6,5.9-37.5-1l-19.8-11.4
	c-9.9-5.7-16.5-14.8-18.8-25.7c-1.2-0.2-2.4-0.5-3.7-0.9c-1.6-0.4-2.6-2.1-2.1-3.7c0.4-1.6,2.1-2.6,3.7-2.1c6.9,1.9,12.9,1.9,17.6,0
	c3.7-1.5,6.3-4.1,7.3-7.4c1.6-5.1-1-12.1-10.5-15.4c-12.7-4.4-22.7-2.3-29.7,6.2C80.4,100.7,85.7,128.8,93,145.7z"/>
</svg>
