<?xml version="1.0" encoding="utf-8"?>
<!-- Generator: Adobe Illustrator 24.3.0, SVG Export Plug-In . SVG Version: 6.00 Build 0)  -->
<svg version="1.1" id="圖層_1" xmlns="http://www.w3.org/2000/svg" xmlns:xlink="http://www.w3.org/1999/xlink" x="0px" y="0px"
	 viewBox="0 0 262 262" style="enable-background:new 0 0 262 262;" xml:space="preserve">
<style type="text/css">
	.st0{clip-path:url(#SVGID_2_);}
	.st1{fill-rule:evenodd;clip-rule:evenodd;fill:#D81690;}
	.st2{fill-rule:evenodd;clip-rule:evenodd;fill:url(#SVGID_3_);}
</style>
<g>
	<defs>
		<rect id="SVGID_1_" x="68" y="55" width="125.2" height="152.4"/>
	</defs>
	<clipPath id="SVGID_2_">
		<use xlink:href="#SVGID_1_"  style="overflow:visible;"/>
	</clipPath>
	<g class="st0">
		<path class="st1" d="M181.9,173.4c8.3-18,10.3-37.1,11.1-59.5c0.7-7.8-0.6-18.2-6.2-27.8c-17.6-29.4-57.5-40.1-88-23
			c-20.6,11.6-32.6,28.5-30.5,53.3c0.2,2.9,0.4,5.7,0.5,8.6c0.3,4.6,0.5,9.2,1.1,13.8c2.1,17.1,6.6,33.2,17,47.4
			c11.4,15.5,27.4,21.8,45.6,21.2C155.6,206.6,172.1,194.6,181.9,173.4z M182.2,89.2c5.4,9.2,6,19.1,5.5,25.5
			c-1.3,23.6-3.4,43-13,60.9c-14.5,27-46.4,33.3-70.9,19c-12.3-7.2-18.9-19.4-23.3-32.6c-6.2-18.4-7.3-37.5-6.7-56.7
			c0.3-8.3,4-15.3,9-21.8C108.1,50.6,161.6,53.7,182.2,89.2z M106.3,112.7c-8.9-2.9-17.3-6.4-21-16.4c-3.3,7.3-5.4,29.4-3.8,35.8
			c1.4,5.8,4.7,10.3,9.7,13.4c10.5,6.4,22.1,6.8,33.8,5.9c1-0.1,2.4-1.7,2.6-2.8C130.6,130.7,123.4,118.4,106.3,112.7z M116.3,140.5
			c-0.2-12.6-8.3-19.5-23.9-20.4C89.6,134,99.1,142.3,116.3,140.5z M177.5,96.8c0.3,3.4,0.7,6.7,1,10.1c0.8,7.2,1.6,14.4,1.6,21.5
			c-0.1,10.4-6.9,17.6-16.7,20.1c-6.3,1.7-12.9,2.1-19.5,2.6h0c-2.2,0.2-4.4,0.3-6.6,0.5c-2.9,0.3-4.2-1.3-4-4.2
			c0.1-1.5,0.2-3,0.2-4.5c0.1-3,0.2-6,0.7-8.9c1.5-9.9,6.9-16.7,16.6-19.9c0.8-0.3,1.6-0.6,2.4-0.9l0,0c1-0.4,2.1-0.8,3.2-1.1
			c8.5-2.4,15.7-6.5,19.1-15.4C176.2,96.8,176.9,96.8,177.5,96.8z M168.3,119.5c-1.8,0.6-3.6,1.3-5.4,1.9c-2.4,0.8-4.8,1.7-7.1,2.5
			c-8.4,2.9-11.3,7.3-10.7,17.6c1.5-0.3,3.1-0.6,4.7-0.8c3.5-0.6,6.9-1.2,10.2-2.3C168.4,135.6,171.3,128.7,168.3,119.5z M124.1,188
			c2.2,0.3,4.4,0.7,6.6,1c2.5-0.4,4.9-0.7,7.4-1.1l0,0l0,0c6.7-1,13.3-2,19.8-3.1c5.2-1,7-3.8,5.9-9c-0.7-3.4-1.7-6.8-2.8-10.1
			c-1.7-5.1-3.8-6.3-9-5c-11.8,2.9-23.7,3.3-35.6,1.4c-15.5-2.5-15.8-2.4-19.1,13.1c-1.1,5.4,0.5,8.5,5.9,9.5
			C110.1,185.9,117.1,187,124.1,188z M131.8,183.7c-0.2-0.2-0.4-0.4-0.6-0.6c1.4-2.1,2.8-4.2,4.2-6.4l4.8,5.7
			c-0.1,0.2-0.3,0.5-0.4,0.7c-0.1,0.2-0.3,0.4-0.4,0.7c-2.3,0.2-4.7,0.4-7,0.5C132.1,184.1,131.9,183.9,131.8,183.7L131.8,183.7z
			 M160.2,179.4c-0.2,0.3-0.3,0.6-0.5,0.9c-2,0.5-4,1-6.1,1.5c-0.2-0.2-0.5-0.3-0.8-0.4s-0.5-0.2-0.8-0.4c0.4-1.2,0.9-2.4,1.4-3.6v0
			h0c0.5-1.2,0.9-2.4,1.4-3.6c2,1.6,3.9,3.2,5.8,4.8C160.6,178.9,160.4,179.2,160.2,179.4z M129.9,183.1l-1.3,1.3
			c-2.2-0.2-4.4-0.4-8.4-0.6c1.4-1.9,2.5-3.3,3.5-4.6h0v0l0,0c0.6-0.8,1.2-1.6,1.8-2.4c0.8,1.1,1.5,2.1,2.2,3.1l0,0
			C128.4,181,129.1,182.1,129.9,183.1z M108.2,181.4L108.2,181.4c-0.3,0.2-0.7,0.4-0.9,0.5c-2-0.6-4-1.1-7.8-2
			c2.7-2.6,4.5-4.3,6.3-6l3.4,7C108.9,181.1,108.6,181.2,108.2,181.4z M111.6,182.6c-0.4-0.6-0.7-1.2-1-1.8c1.9-1.7,3.7-3.3,5.6-4.9
			c0.6,1.2,1.1,2.3,1.7,3.4c0.6,1.1,1.1,2.2,1.7,3.4c-0.3,0.2-0.6,0.4-0.9,0.7v0c-0.1,0.1-0.3,0.2-0.4,0.3c-1.1-0.2-2.2-0.4-3.3-0.6
			h0C113.8,183,112.7,182.8,111.6,182.6z M148.6,165.5c3.5-0.8,5.5-1.3,9.1-2.3c-0.6,1.7-1.1,3-1.5,4.3l0,0l0,0
			c-0.6,1.5-1,2.8-1.5,4.1c-1.7-1.6-3.5-3.3-6.2-5.8L148.6,165.5z M148.6,165.5l0.1-0.2c-1.7,0.3-3.1,0.6-4.3,0.8l0,0
			c-1.5,0.3-2.9,0.6-4.9,0.9c2.4,2.8,4,4.7,5.6,6.6l0,0l0,0l0,0c0.3-0.8,0.7-1.5,1-2.4c0.7-1.5,1.4-3.2,2.3-5.4l-0.3-0.2
			L148.6,165.5z M150.1,181.8L150.1,181.8c-0.2,0.3-0.4,0.6-0.6,0.8l-6.2,1.1c-0.2-0.1-0.5-0.3-0.7-0.4c-0.2-0.1-0.5-0.3-0.7-0.4
			c0.6-1.2,1.1-2.3,1.7-3.5v0c0.6-1.2,1.1-2.4,1.6-3.5l5.4,5.2C150.4,181.2,150.2,181.5,150.1,181.8L150.1,181.8z M113.9,166.1
			c0.1-0.1,0.3-0.2,0.4-0.4l0,0c1.8,0.3,3.6,0.6,7.2,1c-1.5,2-2.6,3.5-3.7,4.9c-0.5,0.7-1,1.3-1.4,1.9c-0.6-1.1-1.2-2.2-1.8-3.4
			c-0.6-1.1-1.2-2.2-1.8-3.3C113.2,166.6,113.5,166.3,113.9,166.1L113.9,166.1z M110.8,165c0.4,0.6,0.7,1.2,1,1.8
			c-1.8,1.6-3.7,3.2-5.5,4.7c-0.4-1.2-0.8-2.4-1.3-3.9l0,0l0,0c-0.4-1.3-0.9-2.7-1.4-4.4c1.7,0.4,3,0.7,4.1,1
			C108.9,164.5,109.9,164.7,110.8,165z"/>
		
			<radialGradient id="SVGID_3_" cx="-10.0122" cy="273.5522" r="1" gradientTransform="matrix(-90.1216 73.58 101.5646 124.3975 -28510.6875 -33107.8594)" gradientUnits="userSpaceOnUse">
			<stop  offset="0" style="stop-color:#D01E8D"/>
			<stop  offset="1" style="stop-color:#621461"/>
		</radialGradient>
		<path class="st2" d="M181.9,173.4c8.3-18,10.3-37.1,11.1-59.5c0.7-7.8-0.6-18.2-6.2-27.8c-17.6-29.4-57.5-40.1-88-23
			c-20.6,11.6-32.6,28.5-30.5,53.3c0.2,2.9,0.4,5.7,0.5,8.6c0.3,4.6,0.5,9.2,1.1,13.8c2.1,17.1,6.6,33.2,17,47.4
			c11.4,15.5,27.4,21.8,45.6,21.2C155.6,206.6,172.1,194.6,181.9,173.4z M182.2,89.2c5.4,9.2,6,19.1,5.5,25.5
			c-1.3,23.6-3.4,43-13,60.9c-14.5,27-46.4,33.3-70.9,19c-12.3-7.2-18.9-19.4-23.3-32.6c-6.2-18.4-7.3-37.5-6.7-56.7
			c0.3-8.3,4-15.3,9-21.8C108.1,50.6,161.6,53.7,182.2,89.2z M106.3,112.7c-8.9-2.9-17.3-6.4-21-16.4c-3.3,7.3-5.4,29.4-3.8,35.8
			c1.4,5.8,4.7,10.3,9.7,13.4c10.5,6.4,22.1,6.8,33.8,5.9c1-0.1,2.4-1.7,2.6-2.8C130.6,130.7,123.4,118.4,106.3,112.7z M116.3,140.5
			c-0.2-12.6-8.3-19.5-23.9-20.4C89.6,134,99.1,142.3,116.3,140.5z M177.5,96.8c0.3,3.4,0.7,6.7,1,10.1c0.8,7.2,1.6,14.4,1.6,21.5
			c-0.1,10.4-6.9,17.6-16.7,20.1c-6.3,1.7-12.9,2.1-19.5,2.6h0c-2.2,0.2-4.4,0.3-6.6,0.5c-2.9,0.3-4.2-1.3-4-4.2
			c0.1-1.5,0.2-3,0.2-4.5c0.1-3,0.2-6,0.7-8.9c1.5-9.9,6.9-16.7,16.6-19.9c0.8-0.3,1.6-0.6,2.4-0.9l0,0c1-0.4,2.1-0.8,3.2-1.1
			c8.5-2.4,15.7-6.5,19.1-15.4C176.2,96.8,176.9,96.8,177.5,96.8z M168.3,119.5c-1.8,0.6-3.6,1.3-5.4,1.9c-2.4,0.8-4.8,1.7-7.1,2.5
			c-8.4,2.9-11.3,7.3-10.7,17.6c1.5-0.3,3.1-0.6,4.7-0.8c3.5-0.6,6.9-1.2,10.2-2.3C168.4,135.6,171.3,128.7,168.3,119.5z M124.1,188
			c2.2,0.3,4.4,0.7,6.6,1c2.5-0.4,4.9-0.7,7.4-1.1l0,0l0,0c6.7-1,13.3-2,19.8-3.1c5.2-1,7-3.8,5.9-9c-0.7-3.4-1.7-6.8-2.8-10.1
			c-1.7-5.1-3.8-6.3-9-5c-11.8,2.9-23.7,3.3-35.6,1.4c-15.5-2.5-15.8-2.4-19.1,13.1c-1.1,5.4,0.5,8.5,5.9,9.5
			C110.1,185.9,117.1,187,124.1,188z M131.8,183.7c-0.2-0.2-0.4-0.4-0.6-0.6c1.4-2.1,2.8-4.2,4.2-6.4l4.8,5.7
			c-0.1,0.2-0.3,0.5-0.4,0.7c-0.1,0.2-0.3,0.4-0.4,0.7c-2.3,0.2-4.7,0.4-7,0.5C132.1,184.1,131.9,183.9,131.8,183.7L131.8,183.7z
			 M160.2,179.4c-0.2,0.3-0.3,0.6-0.5,0.9c-2,0.5-4,1-6.1,1.5c-0.2-0.2-0.5-0.3-0.8-0.4s-0.5-0.2-0.8-0.4c0.4-1.2,0.9-2.4,1.4-3.6v0
			h0c0.5-1.2,0.9-2.4,1.4-3.6c2,1.6,3.9,3.2,5.8,4.8C160.6,178.9,160.4,179.2,160.2,179.4z M129.9,183.1l-1.3,1.3
			c-2.2-0.2-4.4-0.4-8.4-0.6c1.4-1.9,2.5-3.3,3.5-4.6h0v0l0,0c0.6-0.8,1.2-1.6,1.8-2.4c0.8,1.1,1.5,2.1,2.2,3.1l0,0
			C128.4,181,129.1,182.1,129.9,183.1z M108.2,181.4L108.2,181.4c-0.3,0.2-0.7,0.4-0.9,0.5c-2-0.6-4-1.1-7.8-2
			c2.7-2.6,4.5-4.3,6.3-6l3.4,7C108.9,181.1,108.6,181.2,108.2,181.4z M111.6,182.6c-0.4-0.6-0.7-1.2-1-1.8c1.9-1.7,3.7-3.3,5.6-4.9
			c0.6,1.2,1.1,2.3,1.7,3.4c0.6,1.1,1.1,2.2,1.7,3.4c-0.3,0.2-0.6,0.4-0.9,0.7v0c-0.1,0.1-0.3,0.2-0.4,0.3c-1.1-0.2-2.2-0.4-3.3-0.6
			h0C113.8,183,112.7,182.8,111.6,182.6z M148.6,165.5c3.5-0.8,5.5-1.3,9.1-2.3c-0.6,1.7-1.1,3-1.5,4.3l0,0l0,0
			c-0.6,1.5-1,2.8-1.5,4.1c-1.7-1.6-3.5-3.3-6.2-5.8L148.6,165.5z M148.6,165.5l0.1-0.2c-1.7,0.3-3.1,0.6-4.3,0.8l0,0
			c-1.5,0.3-2.9,0.6-4.9,0.9c2.4,2.8,4,4.7,5.6,6.6l0,0l0,0l0,0c0.3-0.8,0.7-1.5,1-2.4c0.7-1.5,1.4-3.2,2.3-5.4l-0.3-0.2
			L148.6,165.5z M150.1,181.8L150.1,181.8c-0.2,0.3-0.4,0.6-0.6,0.8l-6.2,1.1c-0.2-0.1-0.5-0.3-0.7-0.4c-0.2-0.1-0.5-0.3-0.7-0.4
			c0.6-1.2,1.1-2.3,1.7-3.5v0c0.6-1.2,1.1-2.4,1.6-3.5l5.4,5.2C150.4,181.2,150.2,181.5,150.1,181.8L150.1,181.8z M113.9,166.1
			c0.1-0.1,0.3-0.2,0.4-0.4l0,0c1.8,0.3,3.6,0.6,7.2,1c-1.5,2-2.6,3.5-3.7,4.9c-0.5,0.7-1,1.3-1.4,1.9c-0.6-1.1-1.2-2.2-1.8-3.4
			c-0.6-1.1-1.2-2.2-1.8-3.3C113.2,166.6,113.5,166.3,113.9,166.1L113.9,166.1z M110.8,165c0.4,0.6,0.7,1.2,1,1.8
			c-1.8,1.6-3.7,3.2-5.5,4.7c-0.4-1.2-0.8-2.4-1.3-3.9l0,0l0,0c-0.4-1.3-0.9-2.7-1.4-4.4c1.7,0.4,3,0.7,4.1,1
			C108.9,164.5,109.9,164.7,110.8,165z"/>
	</g>
</g>
</svg>
