<?xml version="1.0" encoding="utf-8"?>
<!-- Generator: Adobe Illustrator 24.3.0, SVG Export Plug-In . SVG Version: 6.00 Build 0)  -->
<svg version="1.1" id="圖層_1" xmlns="http://www.w3.org/2000/svg" xmlns:xlink="http://www.w3.org/1999/xlink" x="0px" y="0px"
	 viewBox="0 0 262 262" style="enable-background:new 0 0 262 262;" xml:space="preserve">
<style type="text/css">
	.st0{fill-rule:evenodd;clip-rule:evenodd;fill:#D81690;}
	.st1{fill-rule:evenodd;clip-rule:evenodd;fill:url(#SVGID_1_);}
</style>
<path class="st0" d="M148.7,62.9c19.8,4.5,31.7,18.5,32.7,38.7c0.8,15.2-2.5,29.6-10.5,42.8c-1.5,2.4-2.2,5.5-2.9,8.5
	c-0.1,0.6-0.3,1.2-0.4,1.8c-0.6,2.7-1.6,4.1-4.7,3.7c-2.7-0.4-4.3,0.4-5.4,3.1c-0.4,1.2-1.9,2.3-3.1,2.7c-15.8,7.2-31.7,7.2-47.5,0
	c-0.3-0.1-0.6-0.2-0.8-0.3c-0.6-0.2-1.3-0.5-1.4-0.9c-1.4-4.1-4.3-5.4-8.4-4.7c-0.6,0-2.1-1.4-2.3-2.5c-1.2-5.9-3.8-11-6.6-16.3
	c-0.1-0.3-0.3-0.5-0.4-0.8c-7-13.8-8.6-28.8-5.4-44c4.5-20.2,20.2-31.9,43.4-33.6c1.2-0.1,2.4-0.1,3.7,0c0.7,0,1.3,0,2,0
	C130.6,60.9,143,61.7,148.7,62.9z M131.2,66.6c-1.4,0.1-2.9,0.2-4.3,0.2c-1.4,0.1-2.9,0.1-4.3,0.2c-17.9,1.6-30.5,11.1-34.8,27
	c-4.3,15.6-1.9,30.5,5.6,44.7c1.2,2.3,2.2,4.8,3.2,7.1h0c0.6,1.4,1.2,2.8,1.8,4.2c0.4,1,1.2,2.7,1.6,2.7c4.9-0.8,7,2.1,8.6,6
	c0.3,0.6,1.2,0.9,2.1,1.1c0.3,0.1,0.7,0.2,1,0.3c12.1,5.1,24.5,5.8,36.8,0.2c1.2-0.6,2.3-1.6,3.4-2.5c0.8-0.7,1.6-1.4,2.4-2
	c0.3-0.2,0.6-0.5,1-0.7c1.2-0.9,2.5-1.9,3.8-1.9c2.9,0,3.7-1.2,4.3-3.7c0.1-0.5,0.2-0.9,0.3-1.4c0.5-2.1,1-4.2,2.1-6
	c8.6-13.4,11.7-28,9.7-43.6c-2.1-15.4-11.1-25.3-26.1-29.2C143.6,67.5,131.2,66.4,131.2,66.6z M159.8,169.4h5.4
	c0.6,6.6,0.2,12.8-4.5,17.9c-10.9,11.7-24.3,16.1-39.9,12.6c-9.5-2.1-16.7-8-21.8-15.4c-1.9-2.6-2.4-6.2-3-9.9
	c-0.3-1.6-0.5-3.3-0.9-4.9c2.9-0.2,4.3-0.2,6-0.2c0.1,0.3,0.2,0.5,0.4,0.7c0.1,0.2,0.3,0.4,0.3,0.6c1,12.8,9.9,22,22.8,24.3
	c13.2,2.3,23.7-2.1,32.3-11.7c1.7-1.9,2.4-4.8,3-7.3c0-0.2,0.1-0.3,0.1-0.5c0.3-1.4,0.2-2.6,0.1-3.9
	C159.9,170.7,159.8,170.1,159.8,169.4z M130,178.2c-8.2,0-16.4,0-21.7-8.4l-1,1c0.2,0.9,0.3,2,0.4,3c0.2,2.1,0.4,4.1,1.5,5
	c2.7,2.3,6.6,4.1,10.1,4.3c6.5,0.5,13.2,0.3,19.8,0.1h0h0h0h0c1.3,0,2.7-0.1,4-0.1c2.1,0,4.3-1,6.2-2.1c5.1-2.7,5.8-4.7,3.5-11.3
	c-4.9,8.6-12.5,8.5-20.3,8.4c-0.6,0-1.3,0-1.9,0H130z M112.5,105.8c8,0.6,11.5,3.3,13.2,9.7c1.6,7.4-0.4,12.1-7.4,15.2
	c-3.7,1.6-7.6,2.7-11.7,3.1c-6.4,0.8-9.7-1.9-11.7-8.4c-2.5-7.6-1.2-12.8,4.5-15.2c2.8-1.4,5.8-2.2,8.9-3.1
	C109.7,106.6,111.1,106.2,112.5,105.8z M120.3,121c0-6.6-1.9-8.6-7-8.4c-2.7,0-5.6,0.4-8,1.2c-5.4,1.6-6.6,3.7-5.1,8.9
	c1.4,5.4,3.1,6.6,8.9,5.1c2.9-0.6,6-1.6,8.4-3.1c0.9-0.7,1.6-1.8,2.1-2.6C119.9,121.6,120.1,121.2,120.3,121z M152.2,106.7
	L152.2,106.7c-0.6-0.1-1.3-0.2-1.8-0.3c-0.5,0-1.1,0.1-1.6,0.1h0c-4.7,0.3-8.9,0.6-10.6,5c-3.3,6.8-3.9,15.6,6.4,19.3
	c3.7,1.4,7.8,2.7,11.7,2.9c2.5,0.2,5.8-0.8,7.4-2.5c8-7.8,5.1-20-5.6-23.3C156.1,107.4,154,107,152.2,106.7z M141.7,116.9
	c1-3.7,2.5-4.5,7.8-4.7c2.7,0.4,5.1,0.8,7.4,1.6c4.9,1.6,6,3.5,4.7,8.4c-1.2,5.8-2.9,6.8-8.9,5.6c-2.3-0.4-4.5-1-6.6-2.1
	C141.5,123.7,140.5,121.6,141.7,116.9z M130.6,155.2c-8.9,0-11.5-3.7-8.4-12.1c1-3.1,2.5-6.2,4.1-9.1c2.5-3.9,6.6-4.1,8.6-0.2
	c2.3,4.3,4.3,8.9,5.6,13.6C141.7,152.5,137.6,155.2,130.6,155.2z M126.1,148.8h9.5c-0.5-1.2-0.9-2.4-1.4-3.5h0
	c-1-2.6-1.9-4.9-2.9-7.2c-0.4,0-0.8,0-1,0.2c-1,2.3-1.9,4.6-2.8,7.1l0,0l0,0C127,146.5,126.5,147.6,126.1,148.8z M164.7,94.1
	c0.8-0.4,1.5-0.7,2.4-1.1c-5.4-11.9-21.4-19.8-36-17.5v5.1c12.6,0.6,24.5,2.1,31.3,14.6C163.1,94.8,163.9,94.5,164.7,94.1z"/>
<radialGradient id="SVGID_1_" cx="-10.0057" cy="273.5656" r="1" gradientTransform="matrix(-73.1729 67.5432 94.8513 102.757 -26513.502 -27254.8906)" gradientUnits="userSpaceOnUse">
	<stop  offset="0" style="stop-color:#D01E8D"/>
	<stop  offset="1" style="stop-color:#621461"/>
</radialGradient>
<path class="st1" d="M148.7,62.9c19.8,4.5,31.7,18.5,32.7,38.7c0.8,15.2-2.5,29.6-10.5,42.8c-1.5,2.4-2.2,5.5-2.9,8.5
	c-0.1,0.6-0.3,1.2-0.4,1.8c-0.6,2.7-1.6,4.1-4.7,3.7c-2.7-0.4-4.3,0.4-5.4,3.1c-0.4,1.2-1.9,2.3-3.1,2.7c-15.8,7.2-31.7,7.2-47.5,0
	c-0.3-0.1-0.6-0.2-0.8-0.3c-0.6-0.2-1.3-0.5-1.4-0.9c-1.4-4.1-4.3-5.4-8.4-4.7c-0.6,0-2.1-1.4-2.3-2.5c-1.2-5.9-3.8-11-6.6-16.3
	c-0.1-0.3-0.3-0.5-0.4-0.8c-7-13.8-8.6-28.8-5.4-44c4.5-20.2,20.2-31.9,43.4-33.6c1.2-0.1,2.4-0.1,3.7,0c0.7,0,1.3,0,2,0
	C130.6,60.9,143,61.7,148.7,62.9z M131.2,66.6c-1.4,0.1-2.9,0.2-4.3,0.2c-1.4,0.1-2.9,0.1-4.3,0.2c-17.9,1.6-30.5,11.1-34.8,27
	c-4.3,15.6-1.9,30.5,5.6,44.7c1.2,2.3,2.2,4.8,3.2,7.1h0c0.6,1.4,1.2,2.8,1.8,4.2c0.4,1,1.2,2.7,1.6,2.7c4.9-0.8,7,2.1,8.6,6
	c0.3,0.6,1.2,0.9,2.1,1.1c0.3,0.1,0.7,0.2,1,0.3c12.1,5.1,24.5,5.8,36.8,0.2c1.2-0.6,2.3-1.6,3.4-2.5c0.8-0.7,1.6-1.4,2.4-2
	c0.3-0.2,0.6-0.5,1-0.7c1.2-0.9,2.5-1.9,3.8-1.9c2.9,0,3.7-1.2,4.3-3.7c0.1-0.5,0.2-0.9,0.3-1.4c0.5-2.1,1-4.2,2.1-6
	c8.6-13.4,11.7-28,9.7-43.6c-2.1-15.4-11.1-25.3-26.1-29.2C143.6,67.5,131.2,66.4,131.2,66.6z M159.8,169.4h5.4
	c0.6,6.6,0.2,12.8-4.5,17.9c-10.9,11.7-24.3,16.1-39.9,12.6c-9.5-2.1-16.7-8-21.8-15.4c-1.9-2.6-2.4-6.2-3-9.9
	c-0.3-1.6-0.5-3.3-0.9-4.9c2.9-0.2,4.3-0.2,6-0.2c0.1,0.3,0.2,0.5,0.4,0.7c0.1,0.2,0.3,0.4,0.3,0.6c1,12.8,9.9,22,22.8,24.3
	c13.2,2.3,23.7-2.1,32.3-11.7c1.7-1.9,2.4-4.8,3-7.3c0-0.2,0.1-0.3,0.1-0.5c0.3-1.4,0.2-2.6,0.1-3.9
	C159.9,170.7,159.8,170.1,159.8,169.4z M130,178.2c-8.2,0-16.4,0-21.7-8.4l-1,1c0.2,0.9,0.3,2,0.4,3c0.2,2.1,0.4,4.1,1.5,5
	c2.7,2.3,6.6,4.1,10.1,4.3c6.5,0.5,13.2,0.3,19.8,0.1h0h0h0h0c1.3,0,2.7-0.1,4-0.1c2.1,0,4.3-1,6.2-2.1c5.1-2.7,5.8-4.7,3.5-11.3
	c-4.9,8.6-12.5,8.5-20.3,8.4c-0.6,0-1.3,0-1.9,0H130z M112.5,105.8c8,0.6,11.5,3.3,13.2,9.7c1.6,7.4-0.4,12.1-7.4,15.2
	c-3.7,1.6-7.6,2.7-11.7,3.1c-6.4,0.8-9.7-1.9-11.7-8.4c-2.5-7.6-1.2-12.8,4.5-15.2c2.8-1.4,5.8-2.2,8.9-3.1
	C109.7,106.6,111.1,106.2,112.5,105.8z M120.3,121c0-6.6-1.9-8.6-7-8.4c-2.7,0-5.6,0.4-8,1.2c-5.4,1.6-6.6,3.7-5.1,8.9
	c1.4,5.4,3.1,6.6,8.9,5.1c2.9-0.6,6-1.6,8.4-3.1c0.9-0.7,1.6-1.8,2.1-2.6C119.9,121.6,120.1,121.2,120.3,121z M152.2,106.7
	L152.2,106.7c-0.6-0.1-1.3-0.2-1.8-0.3c-0.5,0-1.1,0.1-1.6,0.1h0c-4.7,0.3-8.9,0.6-10.6,5c-3.3,6.8-3.9,15.6,6.4,19.3
	c3.7,1.4,7.8,2.7,11.7,2.9c2.5,0.2,5.8-0.8,7.4-2.5c8-7.8,5.1-20-5.6-23.3C156.1,107.4,154,107,152.2,106.7z M141.7,116.9
	c1-3.7,2.5-4.5,7.8-4.7c2.7,0.4,5.1,0.8,7.4,1.6c4.9,1.6,6,3.5,4.7,8.4c-1.2,5.8-2.9,6.8-8.9,5.6c-2.3-0.4-4.5-1-6.6-2.1
	C141.5,123.7,140.5,121.6,141.7,116.9z M130.6,155.2c-8.9,0-11.5-3.7-8.4-12.1c1-3.1,2.5-6.2,4.1-9.1c2.5-3.9,6.6-4.1,8.6-0.2
	c2.3,4.3,4.3,8.9,5.6,13.6C141.7,152.5,137.6,155.2,130.6,155.2z M126.1,148.8h9.5c-0.5-1.2-0.9-2.4-1.4-3.5h0
	c-1-2.6-1.9-4.9-2.9-7.2c-0.4,0-0.8,0-1,0.2c-1,2.3-1.9,4.6-2.8,7.1l0,0l0,0C127,146.5,126.5,147.6,126.1,148.8z M164.7,94.1
	c0.8-0.4,1.5-0.7,2.4-1.1c-5.4-11.9-21.4-19.8-36-17.5v5.1c12.6,0.6,24.5,2.1,31.3,14.6C163.1,94.8,163.9,94.5,164.7,94.1z"/>
</svg>
