<?xml version="1.0" encoding="utf-8"?>
<!-- Generator: Adobe Illustrator 24.3.0, SVG Export Plug-In . SVG Version: 6.00 Build 0)  -->
<svg version="1.1" id="圖層_1" xmlns="http://www.w3.org/2000/svg" xmlns:xlink="http://www.w3.org/1999/xlink" x="0px" y="0px"
	 viewBox="0 0 262 262" style="enable-background:new 0 0 262 262;" xml:space="preserve">
<style type="text/css">
	.st0{fill-rule:evenodd;clip-rule:evenodd;fill:#D81690;}
	.st1{fill-rule:evenodd;clip-rule:evenodd;fill:url(#SVGID_1_);}
</style>
<path class="st0" d="M165.2,149.8c0.9,0.2,1.5,1.2,1.3,2.2l-8.2,30.9c-0.2,0.6-0.6,1.1-1.2,1.3c-0.6,0.2-1.3,0-1.7-0.4l-23-21.5
	c-0.7-0.7-0.8-1.8-0.1-2.5c0.7-0.8,1.4-1.7,1.9-2.6c3.9-6.8,1.6-15.5-5.2-19.5c-6.8-3.9-15.5-1.6-19.5,5.2c-0.5,0.9-1,1.9-1.3,3
	c-0.3,0.9-1.3,1.5-2.2,1.2l-30.1-9.2c-0.1,0-0.3-0.1-0.4-0.2c-0.4-0.2-0.7-0.7-0.8-1.1c-0.1-0.6,0.1-1.3,0.5-1.7l23.4-21.8
	c0.7-0.6,1.7-0.6,2.4,0c0.7,0.6,1.4,1.1,2.2,1.6c6.8,3.9,15.5,1.6,19.5-5.2c3.9-6.8,1.6-15.5-5.2-19.5c-0.8-0.5-1.6-0.8-2.5-1.1
	c-0.9-0.3-1.4-1.2-1.2-2.1l7.1-31.2c0.1-0.6,0.6-1.1,1.2-1.3c0.6-0.2,1.3,0,1.8,0.5l22.6,22.6c0.3,0.3,0.5,0.8,0.5,1.3
	c0,0.5-0.2,0.9-0.5,1.3c-0.9,0.9-1.6,1.9-2.3,3c-3.9,6.8-1.6,15.5,5.2,19.5c6.8,3.9,15.5,1.6,19.5-5.2c0.6-1.1,1.1-2.2,1.4-3.5
	c0.3-1,1.2-1.5,2.2-1.3l30.9,8.2c0.6,0.2,1.1,0.6,1.3,1.3c0.2,0.6,0,1.3-0.5,1.7l-22.6,22.6c-0.7,0.7-1.8,0.7-2.5,0
	c-0.9-0.9-1.9-1.6-3-2.3c-6.8-3.9-15.5-1.6-19.5,5.2c-3.9,6.8-1.6,15.5,5.2,19.5C162.8,149,164,149.5,165.2,149.8z M137.2,158.9
	c-0.4,0.7-0.8,1.3-1.2,1.9l19.4,15.3l7.3-23.3c-0.9-0.3-1.8-0.8-2.6-1.2c-8.5-4.9-11.4-15.8-6.5-24.3c4.9-8.5,15.8-11.4,24.3-6.5
	c0.8,0.5,1.6,1,2.4,1.6l16.8-18.8L173.2,96c-0.3,0.9-0.8,1.8-1.2,2.6c-4.9,8.5-15.8,11.4-24.3,6.5c-8.5-4.9-11.4-15.8-6.5-24.3
	c0.5-0.8,1-1.6,1.6-2.4L123.9,63l-6.3,22.9c0.5,0.2,1.1,0.5,1.6,0.8c8.5,4.9,11.4,15.8,6.5,24.3c-4.9,8.5-15.8,11.4-24.3,6.5
	c-0.5-0.3-1-0.6-1.5-1l-16.3,17.9l21.8,8.5c0.3-0.7,0.6-1.4,1-2c4.9-8.5,15.8-11.4,24.3-6.5C139.2,139.4,142.1,150.3,137.2,158.9z
	 M116.3,207.5l-7.2-16.3c-0.1-0.3-0.3-0.4-0.6-0.5c-0.3-0.1-0.5-0.1-0.8,0.1c-1.5,0.9-3.4,0.6-4.7-0.6c-1.5-1.5-1.5-4,0-5.5
	c1.2-1.2,3.1-1.5,4.7-0.6c0.2,0.1,0.5,0.2,0.8,0.1c0.3-0.1,0.5-0.3,0.6-0.5l7.2-16.3c0.2-0.4,0.1-0.8-0.2-1.1
	c-0.3-0.3-0.7-0.4-1.1-0.2l-16.3,7.2c-0.3,0.1-0.4,0.3-0.5,0.6c-0.1,0.3-0.1,0.5,0.1,0.8c0.9,1.5,0.6,3.4-0.6,4.7
	c-1.5,1.5-4,1.5-5.5,0c-1.2-1.2-1.5-3.1-0.6-4.7c0.1-0.2,0.2-0.5,0.1-0.8c-0.1-0.3-0.3-0.5-0.5-0.6L74.7,166
	c-0.4-0.2-0.8-0.1-1.1,0.2c-0.3,0.3-0.4,0.7-0.2,1.1l7.2,16.3c0.1,0.3,0.3,0.4,0.6,0.5c0.3,0.1,0.5,0.1,0.8-0.1
	c1.5-0.9,3.4-0.6,4.7,0.6c1.5,1.5,1.5,4,0,5.5c-1.2,1.2-3.1,1.5-4.7,0.6c-0.2-0.1-0.5-0.2-0.8-0.1c-0.3,0.1-0.5,0.3-0.6,0.5
	l-7.2,16.3c-0.2,0.4-0.1,0.8,0.2,1.1c0.3,0.3,0.7,0.4,1.1,0.2l16.3-7.2c0.3-0.1,0.4-0.3,0.5-0.6c0.1-0.3,0.1-0.5-0.1-0.8
	c-0.9-1.5-0.6-3.4,0.6-4.7c1.5-1.5,4-1.5,5.5,0c1.2,1.2,1.5,3.1,0.6,4.7c-0.1,0.2-0.2,0.5-0.1,0.8c0.1,0.3,0.3,0.5,0.5,0.6l16.3,7.2
	c0.4,0.2,0.8,0.1,1.1-0.2C116.4,208.3,116.4,207.9,116.3,207.5z M100.3,200.2c0.7-2.1,0.2-4.4-1.4-6c-2.3-2.3-5.9-2.3-8.2,0
	c-1.6,1.6-2.1,3.9-1.4,6l-10.9,3.3l3.5-10.6c2.1,0.7,4.4,0.2,6-1.4c2.3-2.3,2.3-5.9,0-8.2c-1.6-1.6-3.9-2.1-6-1.4l-3-9.9l10.4,2.5
	c-0.7,2.1-0.2,4.4,1.4,6c2.3,2.3,5.9,2.3,8.2,0c1.6-1.6,2.1-3.9,1.4-6l10.7-3l-3.3,10.4c-2.1-0.7-4.4-0.2-6,1.4
	c-2.3,2.3-2.3,5.9,0,8.2c1.6,1.6,3.9,2.1,6,1.4l3.3,10.6L100.3,200.2z M94.9,183.4c-2.2,0-4,1.8-4,4c0,2.2,1.8,4,4,4s4-1.8,4-4
	C98.9,185.2,97.1,183.4,94.9,183.4z M94.9,189.4c-1.1,0-2-0.9-2-2s0.9-2,2-2c1.1,0,2,0.9,2,2S96,189.4,94.9,189.4z M81.3,62
	c0.5,0.5,1.2,0.8,1.9,0.8l18.7,0c1.5,0,2.7-1.2,2.7-2.7c0-1.5-1.2-2.7-2.7-2.7l-18.7,0c-1.5,0-2.7,1.2-2.7,2.7
	C80.5,60.8,80.8,61.5,81.3,62z M59.7,99.8c-0.7,0-1.4-0.3-1.9-0.8c-0.5-0.5-0.8-1.2-0.8-1.9c0-1.5,1.2-2.7,2.7-2.7l41.2,0
	c1.5,0,2.7,1.2,2.7,2.7c0,1.5-1.2,2.7-2.7,2.7L59.7,99.8z M59.8,177.5c0.3,0.3,0.6,0.4,1,0.4h10.2c0.8,0,1.5-0.7,1.5-1.5
	c0-0.8-0.7-1.5-1.5-1.5l-10.2,0c-0.8,0-1.5,0.7-1.5,1.5C59.4,176.9,59.6,177.2,59.8,177.5z M130.6,120.9c0-4.9,4-8.9,8.9-8.9
	c4.9,0,8.9,4,8.9,8.9c0,4.9-4,8.9-8.9,8.9C134.6,129.8,130.6,125.8,130.6,120.9z M134.2,120.9c0,2.9,2.4,5.3,5.3,5.3
	c2.9,0,5.3-2.4,5.3-5.3c0-2.9-2.4-5.3-5.3-5.3C136.6,115.5,134.2,117.9,134.2,120.9z"/>
<radialGradient id="SVGID_1_" cx="-10.0187" cy="273.5454" r="1" gradientTransform="matrix(-106.3473 74.7227 99.0384 140.9539 -27973.9395 -37622.9375)" gradientUnits="userSpaceOnUse">
	<stop  offset="0" style="stop-color:#D01E8D"/>
	<stop  offset="1" style="stop-color:#621461"/>
</radialGradient>
<path class="st1" d="M165.2,149.8c0.9,0.2,1.5,1.2,1.3,2.2l-8.2,30.9c-0.2,0.6-0.6,1.1-1.2,1.3c-0.6,0.2-1.3,0-1.7-0.4l-23-21.5
	c-0.7-0.7-0.8-1.8-0.1-2.5c0.7-0.8,1.4-1.7,1.9-2.6c3.9-6.8,1.6-15.5-5.2-19.5c-6.8-3.9-15.5-1.6-19.5,5.2c-0.5,0.9-1,1.9-1.3,3
	c-0.3,0.9-1.3,1.5-2.2,1.2l-30.1-9.2c-0.1,0-0.3-0.1-0.4-0.2c-0.4-0.2-0.7-0.7-0.8-1.1c-0.1-0.6,0.1-1.3,0.5-1.7l23.4-21.8
	c0.7-0.6,1.7-0.6,2.4,0c0.7,0.6,1.4,1.1,2.2,1.6c6.8,3.9,15.5,1.6,19.5-5.2c3.9-6.8,1.6-15.5-5.2-19.5c-0.8-0.5-1.6-0.8-2.5-1.1
	c-0.9-0.3-1.4-1.2-1.2-2.1l7.1-31.2c0.1-0.6,0.6-1.1,1.2-1.3c0.6-0.2,1.3,0,1.8,0.5l22.6,22.6c0.3,0.3,0.5,0.8,0.5,1.3
	c0,0.5-0.2,0.9-0.5,1.3c-0.9,0.9-1.6,1.9-2.3,3c-3.9,6.8-1.6,15.5,5.2,19.5c6.8,3.9,15.5,1.6,19.5-5.2c0.6-1.1,1.1-2.2,1.4-3.5
	c0.3-1,1.2-1.5,2.2-1.3l30.9,8.2c0.6,0.2,1.1,0.6,1.3,1.3c0.2,0.6,0,1.3-0.5,1.7l-22.6,22.6c-0.7,0.7-1.8,0.7-2.5,0
	c-0.9-0.9-1.9-1.6-3-2.3c-6.8-3.9-15.5-1.6-19.5,5.2c-3.9,6.8-1.6,15.5,5.2,19.5C162.8,149,164,149.5,165.2,149.8z M137.2,158.9
	c-0.4,0.7-0.8,1.3-1.2,1.9l19.4,15.3l7.3-23.3c-0.9-0.3-1.8-0.8-2.6-1.2c-8.5-4.9-11.4-15.8-6.5-24.3c4.9-8.5,15.8-11.4,24.3-6.5
	c0.8,0.5,1.6,1,2.4,1.6l16.8-18.8L173.2,96c-0.3,0.9-0.8,1.8-1.2,2.6c-4.9,8.5-15.8,11.4-24.3,6.5c-8.5-4.9-11.4-15.8-6.5-24.3
	c0.5-0.8,1-1.6,1.6-2.4L123.9,63l-6.3,22.9c0.5,0.2,1.1,0.5,1.6,0.8c8.5,4.9,11.4,15.8,6.5,24.3c-4.9,8.5-15.8,11.4-24.3,6.5
	c-0.5-0.3-1-0.6-1.5-1l-16.3,17.9l21.8,8.5c0.3-0.7,0.6-1.4,1-2c4.9-8.5,15.8-11.4,24.3-6.5C139.2,139.4,142.1,150.3,137.2,158.9z
	 M116.3,207.5l-7.2-16.3c-0.1-0.3-0.3-0.4-0.6-0.5c-0.3-0.1-0.5-0.1-0.8,0.1c-1.5,0.9-3.4,0.6-4.7-0.6c-1.5-1.5-1.5-4,0-5.5
	c1.2-1.2,3.1-1.5,4.7-0.6c0.2,0.1,0.5,0.2,0.8,0.1c0.3-0.1,0.5-0.3,0.6-0.5l7.2-16.3c0.2-0.4,0.1-0.8-0.2-1.1
	c-0.3-0.3-0.7-0.4-1.1-0.2l-16.3,7.2c-0.3,0.1-0.4,0.3-0.5,0.6c-0.1,0.3-0.1,0.5,0.1,0.8c0.9,1.5,0.6,3.4-0.6,4.7
	c-1.5,1.5-4,1.5-5.5,0c-1.2-1.2-1.5-3.1-0.6-4.7c0.1-0.2,0.2-0.5,0.1-0.8c-0.1-0.3-0.3-0.5-0.5-0.6L74.7,166
	c-0.4-0.2-0.8-0.1-1.1,0.2c-0.3,0.3-0.4,0.7-0.2,1.1l7.2,16.3c0.1,0.3,0.3,0.4,0.6,0.5c0.3,0.1,0.5,0.1,0.8-0.1
	c1.5-0.9,3.4-0.6,4.7,0.6c1.5,1.5,1.5,4,0,5.5c-1.2,1.2-3.1,1.5-4.7,0.6c-0.2-0.1-0.5-0.2-0.8-0.1c-0.3,0.1-0.5,0.3-0.6,0.5
	l-7.2,16.3c-0.2,0.4-0.1,0.8,0.2,1.1c0.3,0.3,0.7,0.4,1.1,0.2l16.3-7.2c0.3-0.1,0.4-0.3,0.5-0.6c0.1-0.3,0.1-0.5-0.1-0.8
	c-0.9-1.5-0.6-3.4,0.6-4.7c1.5-1.5,4-1.5,5.5,0c1.2,1.2,1.5,3.1,0.6,4.7c-0.1,0.2-0.2,0.5-0.1,0.8c0.1,0.3,0.3,0.5,0.5,0.6l16.3,7.2
	c0.4,0.2,0.8,0.1,1.1-0.2C116.4,208.3,116.4,207.9,116.3,207.5z M100.3,200.2c0.7-2.1,0.2-4.4-1.4-6c-2.3-2.3-5.9-2.3-8.2,0
	c-1.6,1.6-2.1,3.9-1.4,6l-10.9,3.3l3.5-10.6c2.1,0.7,4.4,0.2,6-1.4c2.3-2.3,2.3-5.9,0-8.2c-1.6-1.6-3.9-2.1-6-1.4l-3-9.9l10.4,2.5
	c-0.7,2.1-0.2,4.4,1.4,6c2.3,2.3,5.9,2.3,8.2,0c1.6-1.6,2.1-3.9,1.4-6l10.7-3l-3.3,10.4c-2.1-0.7-4.4-0.2-6,1.4
	c-2.3,2.3-2.3,5.9,0,8.2c1.6,1.6,3.9,2.1,6,1.4l3.3,10.6L100.3,200.2z M94.9,183.4c-2.2,0-4,1.8-4,4c0,2.2,1.8,4,4,4s4-1.8,4-4
	C98.9,185.2,97.1,183.4,94.9,183.4z M94.9,189.4c-1.1,0-2-0.9-2-2s0.9-2,2-2c1.1,0,2,0.9,2,2S96,189.4,94.9,189.4z M81.3,62
	c0.5,0.5,1.2,0.8,1.9,0.8l18.7,0c1.5,0,2.7-1.2,2.7-2.7c0-1.5-1.2-2.7-2.7-2.7l-18.7,0c-1.5,0-2.7,1.2-2.7,2.7
	C80.5,60.8,80.8,61.5,81.3,62z M59.7,99.8c-0.7,0-1.4-0.3-1.9-0.8c-0.5-0.5-0.8-1.2-0.8-1.9c0-1.5,1.2-2.7,2.7-2.7l41.2,0
	c1.5,0,2.7,1.2,2.7,2.7c0,1.5-1.2,2.7-2.7,2.7L59.7,99.8z M59.8,177.5c0.3,0.3,0.6,0.4,1,0.4h10.2c0.8,0,1.5-0.7,1.5-1.5
	c0-0.8-0.7-1.5-1.5-1.5l-10.2,0c-0.8,0-1.5,0.7-1.5,1.5C59.4,176.9,59.6,177.2,59.8,177.5z M130.6,120.9c0-4.9,4-8.9,8.9-8.9
	c4.9,0,8.9,4,8.9,8.9c0,4.9-4,8.9-8.9,8.9C134.6,129.8,130.6,125.8,130.6,120.9z M134.2,120.9c0,2.9,2.4,5.3,5.3,5.3
	c2.9,0,5.3-2.4,5.3-5.3c0-2.9-2.4-5.3-5.3-5.3C136.6,115.5,134.2,117.9,134.2,120.9z"/>
</svg>
