<?xml version="1.0" encoding="utf-8"?>
<!-- Generator: Adobe Illustrator 24.3.0, SVG Export Plug-In . SVG Version: 6.00 Build 0)  -->
<svg version="1.1" id="圖層_1" xmlns="http://www.w3.org/2000/svg" xmlns:xlink="http://www.w3.org/1999/xlink" x="0px" y="0px"
	 viewBox="0 0 262 262" style="enable-background:new 0 0 262 262;" xml:space="preserve">
<style type="text/css">
	.st0{fill-rule:evenodd;clip-rule:evenodd;fill:#D81690;}
	.st1{fill-rule:evenodd;clip-rule:evenodd;fill:url(#SVGID_1_);}
</style>
<path class="st0" d="M86.7,104.3c-1.2,0-2.4-0.5-3.2-1.5c-3-3.8-7.1-9-8.5-10.9c-1-1.4-2.2-2.3-3.7-3.5v0l0,0
	c-1.8-1.4-4.2-3.3-7.5-6.9c-0.1-0.2,0.2-0.4,0.4-0.3c2.6,2.3,5.9,4.2,9.7,4.7c7.4,1,14.3,3.5,18.6,5.2c1.5,0.6,2.4,2.1,2.3,3.6
	C91.8,97.5,89.1,100.7,86.7,104.3z M75.1,129.7c-1.1,3.9-2,7.9-2.6,12.1c-0.1,0.6-0.2,1.3-0.3,1.9c-1,0.4-2.9,2.4-4.8,5
	c-2.4,3.2-3.8,6.2-3.2,6.6c0.6,0.4,3-1.8,5.4-5c0.9-1.2,1.7-2.4,2.3-3.5c-0.9,7.6-0.8,14.8,0.4,21.3c-3.1-4.3-7-7.7-11.4-10.6
	c0.7-10.8-1.5-22.2-10.7-35.7c7.3-3.9,8.1-13.7,5-26.8c6.6,3.2,11.5,3.6,14-1.5c3.8,4.9,6.3,9.7,8,13.7c0.9,2.1,3.5,3.3,5.7,3.1
	c-1.1,2-2.1,4-3.1,6.1c-1.4-1.7-4.2-4.2-7.5-6.7c-5.3-4-10.1-6.7-10.7-5.9c-0.6,0.8,3.2,4.7,8.5,8.7c3.6,2.7,6.9,4.8,8.9,5.6
	c-1.3,3.1-2.5,6.4-3.5,9.7c-1.5-1-4.7-2.2-8.4-3.2c-5.4-1.5-10.1-1.9-10.3-0.9c-0.3,1,3.9,2.9,9.4,4.4
	C70,129.3,73.3,129.8,75.1,129.7z M75.2,178c-0.3,0-0.6-0.1-0.9-0.1c-4.3-10.6-10.9-14.8-18-18.8c2-12.7,0.7-25.7-13.3-41.5
	c12.3-0.7,11.5-13.5,6.8-29.9c7.1,4.6,13.3,7.4,16,1.8c-1.4-1.5-2.8-3-4.5-4.5c-7.6-7-11.3-15.7-13.1-23.3c-1-4.1,3.7-5.2,5.7-1.5
	c2.7,4.8,5.9,9.8,9.3,13.1c6.2,6,23.7,11,33.9,13.5c1.7,0.4,2.8,1.7,3.1,3.2c2-1.4,4-2.7,6.1-3.9c-0.6-0.6-1-1.3-1.2-2.2L102,66.7
	c-0.8-4.5,5.3-6.6,7.5-2.6l7.9,14.7c0.5,0.9,0.6,2,0.3,3c1.9-0.5,3.9-0.9,6-1.2l3.2-16.1c0.8-4.2,6.8-4.3,7.8-0.2l3.9,16.3
	c2.1,0.3,4.1,0.7,6,1.2c-0.2-0.9-0.1-1.9,0.4-2.8l7.9-14.7c2.2-4,8.3-1.9,7.5,2.6l-3.1,17.3c-0.2,0.9-0.6,1.7-1.2,2.2
	c2.3,1.3,4.4,2.7,6.4,4.4c0.5-0.9,1.4-1.5,2.5-1.8c10.2-2.5,27.7-7.5,33.9-13.5c3.4-3.3,6.6-8.3,9.3-13.1c2.1-3.7,6.7-2.6,5.7,1.5
	c-1.8,7.6-5.6,16.3-13.1,23.3c-1.6,1.4-3,2.9-4.3,4.4c2.7,5.9,8.9,3.1,16.1-1.6c-4.7,16.4-5.5,29.1,6.8,29.9
	c-13.9,15.8-15.2,28.8-13.3,41.5c-7.2,3.9-13.8,8.2-18,18.8c-0.3,0-0.7,0.1-1,0.1l-0.1,0c-7.8,14.3-25.3,23.3-55.6,23.3
	C99.1,203.5,82.2,193.6,75.2,178z M190.7,169.4c3-3.9,6.6-7,10.7-9.7c-0.7-10.8,1.5-22.2,10.7-35.7c-7.3-3.9-8.1-13.7-5-26.8
	c-6.7,3.3-11.7,3.6-14.1-1.7c-3.9,5-6.5,9.8-8.2,13.9c-0.8,2-3.1,3.1-5.3,3.2c1,1.9,1.9,3.8,2.8,5.8c1.4-1.7,4.2-4.2,7.6-6.8
	c5.3-4,10.1-6.7,10.7-5.9c0.6,0.8-3.2,4.7-8.5,8.7c-3.7,2.8-7.1,4.9-9.1,5.7c1.3,3.1,2.5,6.4,3.5,9.7c1.5-1,4.7-2.3,8.5-3.3
	c5.4-1.5,10.1-1.9,10.3-0.9c0.3,1-3.9,2.9-9.4,4.4c-3.8,1-7.1,1.5-8.9,1.4c1,3.4,1.9,6.9,2.7,10.5c0.3,1.3,0.5,2.6,0.8,3.8
	c1.1,0.7,2.7,2.5,4.4,4.7c2.4,3.2,3.8,6.2,3.2,6.6c-0.6,0.4-3-1.8-5.4-5c-0.6-0.8-1.2-1.6-1.6-2.4
	C192.1,156.7,192,163.4,190.7,169.4z M162.5,95.6c0.1,0.2,0.3,0.3,0.4,0.4l2,1.9c10.3,10.4,17.2,25.9,21.1,43.6
	c7.2,32.6-5.8,57.6-54.9,57.6c-49,0-60.2-24.6-54.9-57.6c4.9-29.8,21-52.8,46.5-56.9l-4.5,22.7c-0.3,1.7,0.5,3.5,2.1,4.3l8.3,4.3
	c1.1,0.6,2.3,0.6,3.4,0.1l10.4-4.5c1.8-0.8,2.8-2.7,2.3-4.6l-5.4-22.4C148.5,86,156.1,89.9,162.5,95.6z M135.7,81.9l0.2,2.1l0.2,0
	l3.8,21.8c0.3,1.9-0.7,3.7-2.4,4.4l-4.9,2c-1,0.4-2.2,0.4-3.2-0.1l-3.9-1.8c-1.6-0.8-2.5-2.5-2.3-4.2l4.1-27.1
	c0.7-4.5,7.1-4.6,7.9-0.1L135.7,81.9z M176,106.4c0.9-0.1,1.9-0.6,2.5-1.5c3-3.8,7.1-9,8.5-10.9c1-1.4,2.2-2.3,3.7-3.5
	c1.8-1.4,4.2-3.3,7.5-6.9c0.1-0.2-0.2-0.4-0.4-0.3c-2.6,2.3-5.9,4.2-9.7,4.7c-7.4,1-14.3,3.5-18.6,5.2c-1,0.4-1.7,1.2-2.1,2.2
	C170.5,98.6,173.4,102.3,176,106.4z M152,84.4c1.1-0.3,2.1-1.1,2.4-2.3c1-3.8-4.4-5.7-6-2.1c-0.5,1-0.3,2.2,0.2,3
	C149.7,83.5,150.9,83.9,152,84.4z M113.7,83c0.6-0.9,0.8-2.1,0.3-3.1c-1.6-3.6-7-1.7-6,2.1c0.3,1.2,1.3,2,2.4,2.3
	C111.4,83.8,112.5,83.4,113.7,83z M105.5,166.7c3.9,0,7.1-4,7.1-8.8c0-3.5-1.7-6.6-4.1-8c2.7,0.2,4.5,0.2,4.5-0.1
	c0.1-0.4-4.9-1.4-11-2.2c-6.1-0.8-11.1-1-11.2-0.6c-0.1,0.4,4.9,1.4,11,2.2c0.5,0.1,1.1,0.1,1.6,0.2c-2.9,1.1-5.1,4.5-5.1,8.5
	C98.4,162.8,101.6,166.7,105.5,166.7z M104.7,159.2c1.4,0,2.5-1.4,2.5-3.1c0-1.7-1.1-3.1-2.5-3.1c-1.4,0-2.5,1.4-2.5,3.1
	C102.3,157.9,103.4,159.2,104.7,159.2z M157.9,166.7c3.9,0,7.1-4,7.1-8.8c0-4.9-3.2-8.8-7.1-8.8c-3.9,0-7.1,4-7.1,8.8
	C150.8,162.8,154,166.7,157.9,166.7z M157.1,159.2c1.4,0,2.5-1.4,2.5-3.1c0-1.7-1.1-3.1-2.5-3.1c-1.4,0-2.5,1.4-2.5,3.1
	C154.7,157.9,155.8,159.2,157.1,159.2z M132,168.8c3.8,0,6.8-2,6.8-4.4c0-2.4-3.1-4.4-6.8-4.4c-3.8,0-6.8,2-6.8,4.4
	C125.2,166.8,128.2,168.8,132,168.8z M172.8,144.1c0.1,0.4-4.6,2.1-10.6,3.7c-6,1.6-10.9,2.5-11,2.1c-0.1-0.4,4.6-2.1,10.6-3.7
	C167.8,144.6,172.7,143.7,172.8,144.1z M149.2,179c0.4-0.3,0.6-0.6,0.5-0.8c-0.3-1-4.9-0.6-10.3,0.9c-5.4,1.5-9.6,3.4-9.4,4.4
	c0.3,1,4.9,0.6,10.3-0.9c1.4-0.4,2.7-0.8,3.8-1.2c0.1,0.8,0.6,1.6,1.4,2c1.4,0.8,3.2,0.3,3.9-1.1C150.2,181.2,150,179.9,149.2,179z
	 M146,180.7c0.8-0.3,1.5-0.6,2-0.9c0.6,0.4,0.9,1.1,0.5,1.8c-0.4,0.7-1.2,0.9-1.9,0.5C146.1,181.8,145.9,181.2,146,180.7z"/>
<radialGradient id="SVGID_1_" cx="-10.027" cy="273.5431" r="1" gradientTransform="matrix(-126.9069 70.1836 83.7488 151.4357 -23988.0215 -40538.7383)" gradientUnits="userSpaceOnUse">
	<stop  offset="0" style="stop-color:#D01E8D"/>
	<stop  offset="1" style="stop-color:#621461"/>
</radialGradient>
<path class="st1" d="M86.7,104.3c-1.2,0-2.4-0.5-3.2-1.5c-3-3.8-7.1-9-8.5-10.9c-1-1.4-2.2-2.3-3.7-3.5v0l0,0
	c-1.8-1.4-4.2-3.3-7.5-6.9c-0.1-0.2,0.2-0.4,0.4-0.3c2.6,2.3,5.9,4.2,9.7,4.7c7.4,1,14.3,3.5,18.6,5.2c1.5,0.6,2.4,2.1,2.3,3.6
	C91.8,97.5,89.1,100.7,86.7,104.3z M75.1,129.7c-1.1,3.9-2,7.9-2.6,12.1c-0.1,0.6-0.2,1.3-0.3,1.9c-1,0.4-2.9,2.4-4.8,5
	c-2.4,3.2-3.8,6.2-3.2,6.6c0.6,0.4,3-1.8,5.4-5c0.9-1.2,1.7-2.4,2.3-3.5c-0.9,7.6-0.8,14.8,0.4,21.3c-3.1-4.3-7-7.7-11.4-10.6
	c0.7-10.8-1.5-22.2-10.7-35.7c7.3-3.9,8.1-13.7,5-26.8c6.6,3.2,11.5,3.6,14-1.5c3.8,4.9,6.3,9.7,8,13.7c0.9,2.1,3.5,3.3,5.7,3.1
	c-1.1,2-2.1,4-3.1,6.1c-1.4-1.7-4.2-4.2-7.5-6.7c-5.3-4-10.1-6.7-10.7-5.9c-0.6,0.8,3.2,4.7,8.5,8.7c3.6,2.7,6.9,4.8,8.9,5.6
	c-1.3,3.1-2.5,6.4-3.5,9.7c-1.5-1-4.7-2.2-8.4-3.2c-5.4-1.5-10.1-1.9-10.3-0.9c-0.3,1,3.9,2.9,9.4,4.4
	C70,129.3,73.3,129.8,75.1,129.7z M75.2,178c-0.3,0-0.6-0.1-0.9-0.1c-4.3-10.6-10.9-14.8-18-18.8c2-12.7,0.7-25.7-13.3-41.5
	c12.3-0.7,11.5-13.5,6.8-29.9c7.1,4.6,13.3,7.4,16,1.8c-1.4-1.5-2.8-3-4.5-4.5c-7.6-7-11.3-15.7-13.1-23.3c-1-4.1,3.7-5.2,5.7-1.5
	c2.7,4.8,5.9,9.8,9.3,13.1c6.2,6,23.7,11,33.9,13.5c1.7,0.4,2.8,1.7,3.1,3.2c2-1.4,4-2.7,6.1-3.9c-0.6-0.6-1-1.3-1.2-2.2L102,66.7
	c-0.8-4.5,5.3-6.6,7.5-2.6l7.9,14.7c0.5,0.9,0.6,2,0.3,3c1.9-0.5,3.9-0.9,6-1.2l3.2-16.1c0.8-4.2,6.8-4.3,7.8-0.2l3.9,16.3
	c2.1,0.3,4.1,0.7,6,1.2c-0.2-0.9-0.1-1.9,0.4-2.8l7.9-14.7c2.2-4,8.3-1.9,7.5,2.6l-3.1,17.3c-0.2,0.9-0.6,1.7-1.2,2.2
	c2.3,1.3,4.4,2.7,6.4,4.4c0.5-0.9,1.4-1.5,2.5-1.8c10.2-2.5,27.7-7.5,33.9-13.5c3.4-3.3,6.6-8.3,9.3-13.1c2.1-3.7,6.7-2.6,5.7,1.5
	c-1.8,7.6-5.6,16.3-13.1,23.3c-1.6,1.4-3,2.9-4.3,4.4c2.7,5.9,8.9,3.1,16.1-1.6c-4.7,16.4-5.5,29.1,6.8,29.9
	c-13.9,15.8-15.2,28.8-13.3,41.5c-7.2,3.9-13.8,8.2-18,18.8c-0.3,0-0.7,0.1-1,0.1l-0.1,0c-7.8,14.3-25.3,23.3-55.6,23.3
	C99.1,203.5,82.2,193.6,75.2,178z M190.7,169.4c3-3.9,6.6-7,10.7-9.7c-0.7-10.8,1.5-22.2,10.7-35.7c-7.3-3.9-8.1-13.7-5-26.8
	c-6.7,3.3-11.7,3.6-14.1-1.7c-3.9,5-6.5,9.8-8.2,13.9c-0.8,2-3.1,3.1-5.3,3.2c1,1.9,1.9,3.8,2.8,5.8c1.4-1.7,4.2-4.2,7.6-6.8
	c5.3-4,10.1-6.7,10.7-5.9c0.6,0.8-3.2,4.7-8.5,8.7c-3.7,2.8-7.1,4.9-9.1,5.7c1.3,3.1,2.5,6.4,3.5,9.7c1.5-1,4.7-2.3,8.5-3.3
	c5.4-1.5,10.1-1.9,10.3-0.9c0.3,1-3.9,2.9-9.4,4.4c-3.8,1-7.1,1.5-8.9,1.4c1,3.4,1.9,6.9,2.7,10.5c0.3,1.3,0.5,2.6,0.8,3.8
	c1.1,0.7,2.7,2.5,4.4,4.7c2.4,3.2,3.8,6.2,3.2,6.6c-0.6,0.4-3-1.8-5.4-5c-0.6-0.8-1.2-1.6-1.6-2.4
	C192.1,156.7,192,163.4,190.7,169.4z M162.5,95.6c0.1,0.2,0.3,0.3,0.4,0.4l2,1.9c10.3,10.4,17.2,25.9,21.1,43.6
	c7.2,32.6-5.8,57.6-54.9,57.6c-49,0-60.2-24.6-54.9-57.6c4.9-29.8,21-52.8,46.5-56.9l-4.5,22.7c-0.3,1.7,0.5,3.5,2.1,4.3l8.3,4.3
	c1.1,0.6,2.3,0.6,3.4,0.1l10.4-4.5c1.8-0.8,2.8-2.7,2.3-4.6l-5.4-22.4C148.5,86,156.1,89.9,162.5,95.6z M135.7,81.9l0.2,2.1l0.2,0
	l3.8,21.8c0.3,1.9-0.7,3.7-2.4,4.4l-4.9,2c-1,0.4-2.2,0.4-3.2-0.1l-3.9-1.8c-1.6-0.8-2.5-2.5-2.3-4.2l4.1-27.1
	c0.7-4.5,7.1-4.6,7.9-0.1L135.7,81.9z M176,106.4c0.9-0.1,1.9-0.6,2.5-1.5c3-3.8,7.1-9,8.5-10.9c1-1.4,2.2-2.3,3.7-3.5
	c1.8-1.4,4.2-3.3,7.5-6.9c0.1-0.2-0.2-0.4-0.4-0.3c-2.6,2.3-5.9,4.2-9.7,4.7c-7.4,1-14.3,3.5-18.6,5.2c-1,0.4-1.7,1.2-2.1,2.2
	C170.5,98.6,173.4,102.3,176,106.4z M152,84.4c1.1-0.3,2.1-1.1,2.4-2.3c1-3.8-4.4-5.7-6-2.1c-0.5,1-0.3,2.2,0.2,3
	C149.7,83.5,150.9,83.9,152,84.4z M113.7,83c0.6-0.9,0.8-2.1,0.3-3.1c-1.6-3.6-7-1.7-6,2.1c0.3,1.2,1.3,2,2.4,2.3
	C111.4,83.8,112.5,83.4,113.7,83z M105.5,166.7c3.9,0,7.1-4,7.1-8.8c0-3.5-1.7-6.6-4.1-8c2.7,0.2,4.5,0.2,4.5-0.1
	c0.1-0.4-4.9-1.4-11-2.2c-6.1-0.8-11.1-1-11.2-0.6c-0.1,0.4,4.9,1.4,11,2.2c0.5,0.1,1.1,0.1,1.6,0.2c-2.9,1.1-5.1,4.5-5.1,8.5
	C98.4,162.8,101.6,166.7,105.5,166.7z M104.7,159.2c1.4,0,2.5-1.4,2.5-3.1c0-1.7-1.1-3.1-2.5-3.1c-1.4,0-2.5,1.4-2.5,3.1
	C102.3,157.9,103.4,159.2,104.7,159.2z M157.9,166.7c3.9,0,7.1-4,7.1-8.8c0-4.9-3.2-8.8-7.1-8.8c-3.9,0-7.1,4-7.1,8.8
	C150.8,162.8,154,166.7,157.9,166.7z M157.1,159.2c1.4,0,2.5-1.4,2.5-3.1c0-1.7-1.1-3.1-2.5-3.1c-1.4,0-2.5,1.4-2.5,3.1
	C154.7,157.9,155.8,159.2,157.1,159.2z M132,168.8c3.8,0,6.8-2,6.8-4.4c0-2.4-3.1-4.4-6.8-4.4c-3.8,0-6.8,2-6.8,4.4
	C125.2,166.8,128.2,168.8,132,168.8z M172.8,144.1c0.1,0.4-4.6,2.1-10.6,3.7c-6,1.6-10.9,2.5-11,2.1c-0.1-0.4,4.6-2.1,10.6-3.7
	C167.8,144.6,172.7,143.7,172.8,144.1z M149.2,179c0.4-0.3,0.6-0.6,0.5-0.8c-0.3-1-4.9-0.6-10.3,0.9c-5.4,1.5-9.6,3.4-9.4,4.4
	c0.3,1,4.9,0.6,10.3-0.9c1.4-0.4,2.7-0.8,3.8-1.2c0.1,0.8,0.6,1.6,1.4,2c1.4,0.8,3.2,0.3,3.9-1.1C150.2,181.2,150,179.9,149.2,179z
	 M146,180.7c0.8-0.3,1.5-0.6,2-0.9c0.6,0.4,0.9,1.1,0.5,1.8c-0.4,0.7-1.2,0.9-1.9,0.5C146.1,181.8,145.9,181.2,146,180.7z"/>
</svg>
