<?xml version="1.0" encoding="utf-8"?>
<!-- Generator: Adobe Illustrator 24.3.0, SVG Export Plug-In . SVG Version: 6.00 Build 0)  -->
<svg version="1.1" id="圖層_1" xmlns="http://www.w3.org/2000/svg" xmlns:xlink="http://www.w3.org/1999/xlink" x="0px" y="0px"
	 viewBox="0 0 262 262" style="enable-background:new 0 0 262 262;" xml:space="preserve">
<style type="text/css">
	.st0{fill-rule:evenodd;clip-rule:evenodd;fill:#D81690;}
	.st1{fill-rule:evenodd;clip-rule:evenodd;fill:url(#SVGID_1_);}
</style>
<path class="st0" d="M110.4,69.7c0-2.9,0.9-4.8,1.9-5.9c1-1.1,2.4-1.7,4-1.7h31.7c0.8,0,1.8,0.4,2.6,1.4c0.9,1.1,1.6,3.1,1.6,6.2
	v35.6v3h3h42.1c1.1,0,1.7,0.3,2,0.6c0.4,0.4,0.7,0.9,1,1.7c0.2,0.8,0.3,1.7,0.3,2.4c0,0.3,0,0.6,0,0.8c0,0.1,0,0.2,0,0.2l0,0v0l0,0
	l0,0.2v0.2v30.9c0,1.4-0.5,3.3-1.4,4.8c-0.9,1.6-1.7,1.8-1.9,1.8h0h0h0h0h0h0h0h0h0h0h0h0h0h0h0h0h0h0h0h0h0h0h0h0h0h0h0h0h0h0h0h0
	h0h0h0h0h0h0h0h-0.1h-0.1h-0.1h-0.1h-0.1h-0.1h-0.1h-0.1h-0.1h-0.1h-0.1h-0.1h-0.1h-0.1h-0.1H195H195h-0.1h-0.1h-0.1h-0.1h-0.1h-0.1
	h-0.1h-0.1h-0.1h-0.1h-0.1h-0.1h-0.1H194H194h-0.1h-0.1h-0.1h-0.1h-0.1h-0.1h-0.1h-0.1h-0.1h-0.1h-0.1h-0.1H193h-0.1h-0.1h-0.1h-0.1
	h-0.1h-0.1h-0.1h-0.1h-0.1h-0.1h-0.1h-0.1H192h-0.1h-0.1h-0.1h-0.1h-0.1h-0.1h-0.1h-0.1h-0.1h-0.1H191h-0.1h-0.1h-0.1h-0.1h-0.1
	h-0.1h-0.1h-0.1h-0.1h-0.1H190h-0.1h-0.1h-0.1h-0.1h-0.1h-0.1h-0.1h-0.1h-0.1h-0.1H189h-0.1h-0.1h-0.1h-0.1h-0.1h-0.1h-0.1h-0.1
	h-0.1H188h-0.1h-0.1h-0.1h-0.1h-0.1h-0.1h-0.1h-0.1h-0.1H187h-0.1h-0.1h-0.1h-0.1h-0.1h-0.1h-0.1h-0.1H186h-0.1h-0.1h-0.1h-0.1h-0.1
	h-0.1h-0.1h-0.1h-0.1h-0.1h-0.1h-0.1h-0.1h-0.1h-0.1h-0.1h-0.1h-0.1H184h-0.1h-0.1h-0.1h-0.1h-0.1h-0.1h-0.1h-0.1h-0.1h-0.1h-0.1
	h-0.1h-0.1h-0.1h-0.1h-0.1H182h-0.1h-0.1h-0.1h-0.1h-0.1h-0.1h-0.1h-0.1H181h-0.1h-0.1h-0.1h-0.1h-0.1h-0.1h-0.1h-0.1H180h-0.1h-0.1
	h-0.1h-0.1h-0.1h-0.1h-0.1H179h-0.1h-0.1h-0.1h-0.1h-0.1h-0.1h-0.1h-0.1H178h-0.1h-0.1h-0.1h-0.1h-0.1h-0.1h-0.1H177h-0.1h-0.1h-0.1
	h-0.1h-0.1h-0.1h-0.1h-0.1h-0.1h-0.1h-0.1h-0.1h-0.1h-0.1h-0.1h-0.1H175h-0.1h-0.1h-0.1h-0.1h-0.1h-0.1h-0.1h-0.1h-0.1h-0.1h-0.1
	h-0.1h-0.1h-0.1h-0.1h-0.1H173h-0.1h-0.1h-0.1h-0.1h-0.1h-0.1h-0.1h-0.1h-0.1h-0.1h-0.1h-0.1h-0.1h-0.1h-0.1h-0.1H171h-0.1h-0.1
	h-0.1h-0.1h-0.1h-0.1h-0.1h-0.1H170h-0.1h-0.1h-0.1h-0.1h-0.1h-0.1h-0.1h-0.1H169h-0.1h-0.1h-0.1h-0.1h-0.1h-0.1h-0.1h-0.1H168h-0.1
	h-0.1h-0.1h-0.1h-0.1h-0.1h-0.1h-0.1H167h-0.1h-0.1h-0.1h-0.1h-0.1h-0.1h-0.1h-0.1h-0.1H166h-0.1h-0.1h-0.1h-0.1h-0.1h-0.1h-0.1
	h-0.1H165h-0.1h-0.1h-0.1h-0.1h-0.1h-0.1h-0.1h-0.1h-0.1H164h-0.1h-0.1h-0.1h-0.1h-0.1h-0.1h-0.1h-0.1h-0.1h-0.1H163h-0.1h-0.1h-0.1
	h-0.1h-0.1h-0.1h-0.1h-0.1h-0.1H162H162h-0.1h-0.1h-0.1h-0.1h-0.1h-0.1h-0.1h-0.1h-0.1h-0.1H161h-0.1h-0.1h-0.1h-0.1h-0.1h-0.1h-0.1
	h-0.1h-0.1h-0.1h-0.1H160h-0.1h-0.1h-0.1h-0.1h-0.1h-0.1h-0.1h-0.1h-0.1h-0.1h-0.1h-0.1H159H159h-0.1h-0.1h-0.1h-0.1h-0.1h-0.1h-0.1
	h-0.1h-0.1h-0.1h-0.1h-0.1h-0.1H158H158h-0.1h-0.1h-0.1h-0.1h-0.1h-0.1h-0.1h-0.1h-0.1h-0.1h-0.1h-0.1h-0.1h-0.1h-0.1h-0.1H157h-0.1
	h-0.1h-0.1h0h0h0h0h0h0h0h0h0h0h0h0h0h0h0h0h0h0h0h0h0h0h0h0h0h0h0h0h0h0h0h0h0h0h0h0h0h0h0h0h0h0h0h0h0h0h0h0h0h0h0h0h0h0h0h0h0h0
	h0h0h0h0h0c0,0,0,0,0,3v-3h-3v3v40c0,4.1-2.6,5.8-4.3,5.8h0h0h0h0h0h0h0h0h0h0h0h0h0h0h0h0h0h0h0h0h0h0h0h0h0h0h0h0h0h0h0h0h0h0h0h0
	h0h0h0h0h0h0h0h0h0h0h0h0h0h0h0h0h0h0h0h0h0h0h0h0h0h0h0h0h0h0h0h0h0h-0.1h0h-0.1h-0.1h-0.1h-0.1h-0.1H145H145h-0.1h-0.1h-0.1h-0.1
	h-0.1h-0.1h-0.1h-0.1h-0.1h-0.1h-0.1h-0.1h-0.1h-0.1h-0.1h-0.1H144H144h-0.1h-0.1h-0.1h-0.1h-0.1h-0.1h-0.1h-0.1h-0.1h-0.1h-0.1
	h-0.1h-0.1h-0.1h-0.1H143H143h-0.1h-0.1h-0.1h-0.1h-0.1h-0.1h-0.1h-0.1h-0.1h-0.1h-0.1h-0.1h-0.1h-0.1H142h-0.1h-0.1h-0.1h-0.1h-0.1
	h-0.1h-0.1h-0.1h-0.1h-0.1h-0.1h-0.1h-0.1h-0.1H141h-0.1h-0.1h-0.1h-0.1h-0.1h-0.1h-0.1h-0.1h-0.1h-0.1h-0.1h-0.1h-0.1H140h-0.1
	h-0.1h-0.1h-0.1h-0.1h-0.1h-0.1h-0.1h-0.1h-0.1h-0.1h-0.1h-0.1H139h-0.1h-0.1h-0.1h-0.1h-0.1h-0.1h-0.1h-0.1h-0.1h-0.1h-0.1h-0.1
	H138h-0.1h-0.1h-0.1h-0.1h-0.1h-0.1h-0.1h-0.1h-0.1h-0.1h-0.1h-0.1H137h-0.1h-0.1h-0.1h-0.1h-0.1h-0.1h-0.1h-0.1h-0.1h-0.1h-0.1
	h-0.1H136h-0.1h-0.1h-0.1h-0.1h-0.1h-0.1h-0.1h-0.1h-0.1h-0.1h-0.1H135h-0.1h-0.1h-0.1h-0.1h-0.1h-0.1h-0.1h-0.1h-0.1h-0.1h-0.1
	h-0.1H134h-0.1h-0.1h-0.1h-0.1h-0.1h-0.1h-0.1h-0.1h-0.1h-0.1h-0.1H133h-0.1h-0.1h-0.1h-0.1h-0.1h-0.1h-0.1h-0.1h-0.1h-0.1h-0.1H132
	H132h-0.1h-0.1h-0.1h-0.1h-0.1h-0.1h-0.1h-0.1h-0.1h-0.1h-0.1H131h-0.1h-0.1h-0.1h-0.1h-0.1h-0.1h-0.1h-0.1h-0.1h-0.1h-0.1H130h-0.1
	h-0.1h-0.1h-0.1h-0.1h-0.1h-0.1h-0.1h-0.1h-0.1h-0.1h-0.1H129h-0.1h-0.1h-0.1h-0.1h-0.1h-0.1h-0.1h-0.1h-0.1h-0.1h-0.1H128h-0.1
	h-0.1h-0.1h-0.1h-0.1h-0.1h-0.1h-0.1h-0.1h-0.1h-0.1h-0.1H127h-0.1h-0.1h-0.1h-0.1h-0.1h-0.1h-0.1h-0.1h-0.1h-0.1h-0.1h-0.1H126
	h-0.1h-0.1h-0.1h-0.1h-0.1h-0.1h-0.1h-0.1h-0.1h-0.1h-0.1h-0.1H125H125h-0.1h-0.1h-0.1h-0.1h-0.1h-0.1h-0.1h-0.1h-0.1h-0.1h-0.1
	h-0.1H124h-0.1h-0.1h-0.1h-0.1h-0.1h-0.1h-0.1h-0.1h-0.1h-0.1h-0.1h-0.1h-0.1H123H123h-0.1h-0.1h-0.1h-0.1h-0.1h-0.1h-0.1h-0.1h-0.1
	h-0.1h-0.1h-0.1h-0.1H122H122h-0.1h-0.1h-0.1h-0.1h-0.1h-0.1h-0.1h-0.1h-0.1h-0.1h-0.1h-0.1h-0.1h-0.1H121H121h-0.1h-0.1h-0.1h-0.1
	h-0.1h-0.1h-0.1h-0.1h-0.1h-0.1h-0.1h-0.1h-0.1h-0.1h-0.1H120H120h-0.1h-0.1h-0.1h-0.1h-0.1h-0.1h-0.1h-0.1h-0.1h-0.1h-0.1h-0.1
	h-0.1h-0.1h-0.1h-0.1h-0.1h0H119h-0.1h0h0h0h0h0h0h0h0h0h0h0h0h0h0h0h0h0h0h0h0h0h0h0h0h0h0h0h0h0h0h0h0h0h0h0h0h0h0h0h0h0h0h0h0h0
	h0h0h0h0h0h0h0h0h0h0h0h0h0h0h0h0h0h0h0h0h0h0c-1.3,0-2.8-0.5-4-1.4c-1-0.9-1.9-2.2-1.9-4.5v-40v-3h-3H67.8c-1.3,0-2.8-0.7-4-2
	c-1.2-1.3-1.9-3-1.9-4.6v-30.9c0-1.5,0.7-3,1.8-4.2c1.2-1.2,2.6-1.9,3.8-1.9h39.8h3v-3V69.7z M158.2,195v-37h0h0.1h0.1h0.1h0.1h0.1
	h0.1h0.1h0.1h0.1h0.1h0.1h0.1h0.1h0.1h0.1h0.1h0.1h0.1h0.1h0.1h0.1h0.1h0.1h0.1h0.1h0.1h0.1h0.1h0.1h0.1h0.1h0.1h0.1h0.1h0.1h0.1
	h0.1h0.1h0.1h0.1h0.1h0.1h0.1h0.1h0.1h0.1h0.1h0.1h0.1h0.1h0.1h0.1h0.1h0.1h0.1h0.1h0.1h0.1h0.1h0.1h0.1h0.1h0.1h0.1h0.1h0.1h0.1
	h0.1h0.1h0.1h0.1h0.1h0.1h0.1h0.1h0.1h0.1h0.1h0.1h0.1h0.1h0.1h0.1h0.1h0.1h0.1h0.1h0.1h0.1h0.1h0.1h0.1h0.1h0.1h0.1h0.1h0.1h0.1
	h0.1h0.1h0.1h0.1h0.1h0.1h0.1h0.1h0.1h0.1h0.1h0.1h0.1h0.1h0.1h0.1h0.1h0.1h0.1h0.1h0.1h0.1h0.1h0.1h0.1h0.1h0.1h0.1h0.1h0.1h0.1
	h0.1h0.1h0.1h0.1h0.1h0.1h0.1h0.1h0.1h0.1h0.1h0.1h0.1h0.1h0.1h0.1h0.1h0.1h0.1h0.1h0.1h0.1h0.1h0.1h0.1h0.1h0.1h0.1h0.1h0.1h0.1
	h0.1h0.1h0.1h0.1h0.1h0.1h0.1h0.1h0.1h0.1h0.1h0.1h0.1h0.1h0.1h0.1h0.1h0.1h0.1h0.1h0.1h0.1h0.1h0.1h0.1h0.1h0.1h0.1h0.1h0.1h0.1
	h0.1h0.1h0.1h0.1h0.1h0.1h0.1h0.1h0.1h0.1h0.1h0.1h0.1h0.1h0.1h0.1h0.1h0.1h0.1h0.1h0.1h0.1h0.1h0.1h0.1h0.1h0.1h0.1h0.1h0.1h0.1
	h0.1h0.1h0.1h0.1h0.1h0.1h0.1h0.1h0.1h0.1h0.1h0.1h0.1h0.1h0.1h0.1h0.1h0.1h0.1h0.1h0.1h0.1h0.1h0.1h0.1h0.1h0.1h0.1h0.1h0.1h0.1
	h0.1h0.1h0.1h0.1h0.1h0.1h0.1h0.1h0.1h0.1h0.1h0.1h0.1h0.1h0.1h0.1h0.1h0.1h0.1h0.1h0.1h0.1h0.1h0.1h0.1h0.1h0.1h0.1h0.1h0.1h0.1
	h0.1h0.1h0.1h0.1h0.1h0.1h0.1h0.1h0.1h0.1h0.1h0.1h0.1h0.1h0.1h0.1h0.1h0.1h0.1h0.1h0.1h0.1h0.1h0.1h0.1h0.1h0.1h0.1h0.1h0.1h0.1
	h0.1h0.1h0.1h0.1h0.1h0.1h0.1h0.1h0.1h0.1h0.1h0.1h0.1h0.1h0.1h0.1h0.1h0.1h0.1h0.1h0.1h0.1h0.1h0.1h0.1h0.1h0.1h0.1h0.1h0.1h0.1
	h0.1h0.1h0.1h0.1h0.1h0.1h0.1h0.1h0.1h0.1h0.1h0.1h0.1h0.1h0.1h0.1h0.1h0.1h0.1h0.1h0.1h0.1h0.1h0.1h0.1h0.1h0.1h0.1h0.1h0.1h0.1
	h0.1h0.1h0.1h0.1h0.1h0.1h0.1h0.1h0h0h0h0h0h0h0h0h0h0h0h0h0h0h0h0h0h0h0h0h0h0h0h0h0h0h0h0h0h0h0h0h0h0h0h0h0h0h0
	c3.5,0,5.8-2.7,7.1-4.8c1.3-2.3,2.2-5.3,2.2-7.8v-30.8c0-0.1,0-0.2,0-0.4c0-0.3,0-0.7,0-1.3c0-1-0.1-2.4-0.6-3.9
	c-0.4-1.5-1.2-3.2-2.7-4.5c-1.5-1.4-3.6-2.2-6.1-2.2h-39.1V69.7c0-4.1-1-7.5-2.9-9.9c-1.9-2.4-4.6-3.8-7.4-3.8h-31.7
	c-3.1,0-6.2,1.2-8.4,3.7c-2.2,2.4-3.4,5.9-3.4,10v32.6H67.6c-3.2,0-6.1,1.6-8.1,3.7c-2,2.2-3.4,5.1-3.4,8.4v30.9
	c0,3.3,1.4,6.4,3.4,8.7c2.1,2.3,5,3.9,8.4,3.9h36.8v37c0,4,1.6,7.1,4,9.1c2.3,1.9,5.2,2.8,7.8,2.8h0h0h0h0h0h0h0h0h0h0h0h0h0h0h0h0
	h0h0h0h0h0h0h0h0h0h0h0h0h0h0h0h0h0h0h0h0h0h0h0h0h0h0h0h0h0h0h0h0h0h0h0h0h0h0h0h0h0h0h0h0h0h0h0h0h0h0h0h0.1h0.1h0h0.1h0.1h0.1
	h0.1h0.1h0.1h0.1h0.1h0.1h0.1h0.1h0.1h0.1h0.1h0.1h0.1h0.1h0.1h0.1h0.1h0.1h0.1h0.1h0.1h0.1h0.1h0.1h0.1h0.1h0.1h0.1h0.1h0.1h0.1
	h0.1h0.1h0.1h0.1h0.1h0.1h0.1h0.1h0.1h0.1h0.1h0.1h0.1h0.1h0.1h0.1h0.1h0.1h0.1h0.1h0.1h0.1h0.1h0.1h0.1h0.1h0.1h0.1h0.1h0.1h0.1
	h0.1h0.1h0.1h0.1h0.1h0.1h0.1h0.1h0.1h0.1h0.1h0.1h0.1h0.1h0.1h0.1h0.1h0.1h0.1h0.1h0.1h0.1h0.1h0.1h0.1h0.1h0.1h0.1h0.1h0.1h0.1
	h0.1h0.1h0.1h0.1h0.1h0.1h0.1h0.1h0.1h0.1h0.1h0.1h0.1h0.1h0.1h0.1h0.1h0.1h0.1h0.1h0.1h0.1h0.1h0.1h0.1h0.1h0.1h0.1h0.1h0.1h0.1
	h0.1h0.1h0.1h0.1h0.1h0.1h0.1h0.1h0.1h0.1h0.1h0.1h0.1h0.1h0.1h0.1h0.1h0.1h0.1h0.1h0.1h0.1h0.1h0.1h0.1h0.1h0.1h0.1h0.1h0.1h0.1
	h0.1h0.1h0.1h0.1h0.1h0.1h0.1h0.1h0.1h0.1h0.1h0.1h0.1h0.1h0.1h0.1h0.1h0.1h0.1h0.1h0.1h0.1h0.1h0.1h0.1h0.1h0.1h0.1h0.1h0.1h0.1
	h0.1h0.1h0.1h0.1h0.1h0.1h0.1h0.1h0.1h0.1h0.1h0.1h0.1h0.1h0.1h0.1h0.1h0.1h0.1h0.1h0.1h0.1h0.1h0.1h0.1h0.1h0.1h0.1h0.1h0.1h0.1
	h0.1h0.1h0.1h0.1h0.1h0.1h0.1h0.1h0.1h0.1h0.1h0.1h0.1h0.1h0.1h0.1h0.1h0.1h0.1h0.1h0.1h0.1h0.1h0.1h0.1h0.1h0.1h0.1h0.1h0.1h0.1
	h0.1h0.1h0.1h0.1h0.1h0.1h0.1h0.1h0.1h0.1h0.1h0.1h0.1h0.1h0.1h0.1h0.1h0.1h0.1h0.1h0.1h0.1h0.1h0.1h0.1h0.1h0.1h0.1h0.1h0.1h0.1
	h0.1h0.1h0.1h0.1h0.1h0.1h0.1h0.1h0.1h0.1h0.1h0.1h0.1h0.1h0.1h0.1h0.1h0.1h0.1h0.1h0.1h0.1h0.1h0.1h0.1h0.1h0.1h0.1h0.1h0.1h0.1
	h0.1h0.1h0.1h0.1h0.1h0.1h0.1h0.1h0.1h0.1h0.1h0.1h0.1h0.1h0.1h0.1h0.1h0.1h0.1h0.1h0.1h0.1h0.1h0.1h0.1h0.1h0.1h0.1h0.1h0.1h0.1
	h0.1h0.1h0.1h0.1h0.1h0.1h0.1h0.1h0.1h0.1h0.1h0.1h0.1h0.1h0.1h0.1h0.1h0.1h0.1h0.1h0.1h0.1h0.1h0.1h0.1h0.1h0.1h0h0.1h0h0h0h0h0h0
	h0h0h0h0h0h0h0h0h0h0h0h0h0h0h0h0h0h0h0h0h0h0h0h0h0h0h0h0h0h0h0h0h0h0h0h0h0h0h0h0h0h0h0h0h0h0h0h0h0h0h0h0h0h0h0h0h0h0h0h0h0h0h0
	C153.5,206.8,158.2,201.8,158.2,195z M124.1,131.8c0-4,3.3-7.1,7.1-7.1c3.8,0,7.1,3.3,7.1,7.1c0,3.8-3.3,7.1-7.1,7.1
	C127.3,138.9,124.1,135.6,124.1,131.8z M131.3,118.7c-7.1,0-13.1,5.7-13.1,13.1c0,7.1,5.7,13.1,13.1,13.1c7.1,0,13.1-6,13.1-13.1
	C144.4,124.7,138.4,118.7,131.3,118.7z M130.6,69.3c1,0,1.9,0.4,2.5,1.2l12.2,15.9c0.7,0.9,0.8,2.1,0.3,3.2c-0.5,1-1.5,1.7-2.7,1.7
	h-22.4c-1.1,0-2.1-0.6-2.6-1.6s-0.5-2.1,0.1-3.1l10.1-15.9C128.8,69.8,129.6,69.3,130.6,69.3z M131,77.5l-4.9,7.6h10.8L131,77.5z
	 M120.6,171.2c-1.1,0-2.2,0.7-2.7,1.7c-0.5,1-0.4,2.2,0.3,3.2l12.2,15.9c0.6,0.8,1.5,1.2,2.5,1.2c1,0,1.9-0.6,2.4-1.4l10.1-15.9
	c0.6-0.9,0.6-2.1,0.1-3.1c-0.5-1-1.5-1.6-2.6-1.6H120.6z M132.6,184.8l-5.9-7.6h10.8L132.6,184.8z M91.8,117.7
	c1,0.5,1.7,1.5,1.7,2.7v22.1c0,1.1-0.6,2.1-1.6,2.6c-1,0.5-2.1,0.5-3.1-0.1L73,134.8c-0.8-0.5-1.3-1.4-1.4-2.4c0-1,0.4-1.9,1.2-2.5
	l15.9-12C89.6,117.3,90.8,117.2,91.8,117.7z M79.8,132.1l7.6,4.9v-10.6L79.8,132.1z M173.2,117.8c-0.9-0.6-2.1-0.6-3.1-0.1
	c-1,0.5-1.6,1.5-1.6,2.6v22.1c0,1.1,0.6,2.2,1.7,2.7c1,0.5,2.2,0.4,3.1-0.3l15.9-12c0.8-0.6,1.2-1.5,1.2-2.5c0-1-0.6-1.9-1.4-2.4
	L173.2,117.8z M174.6,136.4v-10.6l7.6,4.9L174.6,136.4z"/>
<radialGradient id="SVGID_1_" cx="-10.0209" cy="273.5461" r="1" gradientTransform="matrix(-108.4769 72.7533 94.8286 141.3916 -26842.4902 -37763.7773)" gradientUnits="userSpaceOnUse">
	<stop  offset="0" style="stop-color:#D01E8D"/>
	<stop  offset="1" style="stop-color:#621461"/>
</radialGradient>
<path class="st1" d="M110.4,69.7c0-2.9,0.9-4.8,1.9-5.9c1-1.1,2.4-1.7,4-1.7h31.7c0.8,0,1.8,0.4,2.6,1.4c0.9,1.1,1.6,3.1,1.6,6.2
	v35.6v3h3h42.1c1.1,0,1.7,0.3,2,0.6c0.4,0.4,0.7,0.9,1,1.7c0.2,0.8,0.3,1.7,0.3,2.4c0,0.3,0,0.6,0,0.8c0,0.1,0,0.2,0,0.2l0,0v0l0,0
	l0,0.2v0.2v30.9c0,1.4-0.5,3.3-1.4,4.8c-0.9,1.6-1.7,1.8-1.9,1.8h0h0h0h0h0h0h0h0h0h0h0h0h0h0h0h0h0h0h0h0h0h0h0h0h0h0h0h0h0h0h0h0
	h0h0h0h0h0h0h0h-0.1h-0.1h-0.1h-0.1h-0.1h-0.1h-0.1h-0.1h-0.1h-0.1h-0.1h-0.1h-0.1h-0.1h-0.1H195H195h-0.1h-0.1h-0.1h-0.1h-0.1h-0.1
	h-0.1h-0.1h-0.1h-0.1h-0.1h-0.1h-0.1H194H194h-0.1h-0.1h-0.1h-0.1h-0.1h-0.1h-0.1h-0.1h-0.1h-0.1h-0.1h-0.1H193h-0.1h-0.1h-0.1h-0.1
	h-0.1h-0.1h-0.1h-0.1h-0.1h-0.1h-0.1h-0.1H192h-0.1h-0.1h-0.1h-0.1h-0.1h-0.1h-0.1h-0.1h-0.1h-0.1H191h-0.1h-0.1h-0.1h-0.1h-0.1
	h-0.1h-0.1h-0.1h-0.1h-0.1H190h-0.1h-0.1h-0.1h-0.1h-0.1h-0.1h-0.1h-0.1h-0.1h-0.1H189h-0.1h-0.1h-0.1h-0.1h-0.1h-0.1h-0.1h-0.1
	h-0.1H188h-0.1h-0.1h-0.1h-0.1h-0.1h-0.1h-0.1h-0.1h-0.1H187h-0.1h-0.1h-0.1h-0.1h-0.1h-0.1h-0.1h-0.1H186h-0.1h-0.1h-0.1h-0.1h-0.1
	h-0.1h-0.1h-0.1h-0.1h-0.1h-0.1h-0.1h-0.1h-0.1h-0.1h-0.1h-0.1h-0.1H184h-0.1h-0.1h-0.1h-0.1h-0.1h-0.1h-0.1h-0.1h-0.1h-0.1h-0.1
	h-0.1h-0.1h-0.1h-0.1h-0.1H182h-0.1h-0.1h-0.1h-0.1h-0.1h-0.1h-0.1h-0.1H181h-0.1h-0.1h-0.1h-0.1h-0.1h-0.1h-0.1h-0.1H180h-0.1h-0.1
	h-0.1h-0.1h-0.1h-0.1h-0.1H179h-0.1h-0.1h-0.1h-0.1h-0.1h-0.1h-0.1h-0.1H178h-0.1h-0.1h-0.1h-0.1h-0.1h-0.1h-0.1H177h-0.1h-0.1h-0.1
	h-0.1h-0.1h-0.1h-0.1h-0.1h-0.1h-0.1h-0.1h-0.1h-0.1h-0.1h-0.1h-0.1H175h-0.1h-0.1h-0.1h-0.1h-0.1h-0.1h-0.1h-0.1h-0.1h-0.1h-0.1
	h-0.1h-0.1h-0.1h-0.1h-0.1H173h-0.1h-0.1h-0.1h-0.1h-0.1h-0.1h-0.1h-0.1h-0.1h-0.1h-0.1h-0.1h-0.1h-0.1h-0.1h-0.1H171h-0.1h-0.1
	h-0.1h-0.1h-0.1h-0.1h-0.1h-0.1H170h-0.1h-0.1h-0.1h-0.1h-0.1h-0.1h-0.1h-0.1H169h-0.1h-0.1h-0.1h-0.1h-0.1h-0.1h-0.1h-0.1H168h-0.1
	h-0.1h-0.1h-0.1h-0.1h-0.1h-0.1h-0.1H167h-0.1h-0.1h-0.1h-0.1h-0.1h-0.1h-0.1h-0.1h-0.1H166h-0.1h-0.1h-0.1h-0.1h-0.1h-0.1h-0.1
	h-0.1H165h-0.1h-0.1h-0.1h-0.1h-0.1h-0.1h-0.1h-0.1h-0.1H164h-0.1h-0.1h-0.1h-0.1h-0.1h-0.1h-0.1h-0.1h-0.1h-0.1H163h-0.1h-0.1h-0.1
	h-0.1h-0.1h-0.1h-0.1h-0.1h-0.1H162H162h-0.1h-0.1h-0.1h-0.1h-0.1h-0.1h-0.1h-0.1h-0.1h-0.1H161h-0.1h-0.1h-0.1h-0.1h-0.1h-0.1h-0.1
	h-0.1h-0.1h-0.1h-0.1H160h-0.1h-0.1h-0.1h-0.1h-0.1h-0.1h-0.1h-0.1h-0.1h-0.1h-0.1h-0.1H159H159h-0.1h-0.1h-0.1h-0.1h-0.1h-0.1h-0.1
	h-0.1h-0.1h-0.1h-0.1h-0.1h-0.1H158H158h-0.1h-0.1h-0.1h-0.1h-0.1h-0.1h-0.1h-0.1h-0.1h-0.1h-0.1h-0.1h-0.1h-0.1h-0.1h-0.1H157h-0.1
	h-0.1h-0.1h0h0h0h0h0h0h0h0h0h0h0h0h0h0h0h0h0h0h0h0h0h0h0h0h0h0h0h0h0h0h0h0h0h0h0h0h0h0h0h0h0h0h0h0h0h0h0h0h0h0h0h0h0h0h0h0h0h0
	h0h0h0h0h0c0,0,0,0,0,3v-3h-3v3v40c0,4.1-2.6,5.8-4.3,5.8h0h0h0h0h0h0h0h0h0h0h0h0h0h0h0h0h0h0h0h0h0h0h0h0h0h0h0h0h0h0h0h0h0h0h0h0
	h0h0h0h0h0h0h0h0h0h0h0h0h0h0h0h0h0h0h0h0h0h0h0h0h0h0h0h0h0h0h0h0h0h-0.1h0h-0.1h-0.1h-0.1h-0.1h-0.1H145H145h-0.1h-0.1h-0.1h-0.1
	h-0.1h-0.1h-0.1h-0.1h-0.1h-0.1h-0.1h-0.1h-0.1h-0.1h-0.1h-0.1H144H144h-0.1h-0.1h-0.1h-0.1h-0.1h-0.1h-0.1h-0.1h-0.1h-0.1h-0.1
	h-0.1h-0.1h-0.1h-0.1H143H143h-0.1h-0.1h-0.1h-0.1h-0.1h-0.1h-0.1h-0.1h-0.1h-0.1h-0.1h-0.1h-0.1h-0.1H142h-0.1h-0.1h-0.1h-0.1h-0.1
	h-0.1h-0.1h-0.1h-0.1h-0.1h-0.1h-0.1h-0.1h-0.1H141h-0.1h-0.1h-0.1h-0.1h-0.1h-0.1h-0.1h-0.1h-0.1h-0.1h-0.1h-0.1h-0.1H140h-0.1
	h-0.1h-0.1h-0.1h-0.1h-0.1h-0.1h-0.1h-0.1h-0.1h-0.1h-0.1h-0.1H139h-0.1h-0.1h-0.1h-0.1h-0.1h-0.1h-0.1h-0.1h-0.1h-0.1h-0.1h-0.1
	H138h-0.1h-0.1h-0.1h-0.1h-0.1h-0.1h-0.1h-0.1h-0.1h-0.1h-0.1h-0.1H137h-0.1h-0.1h-0.1h-0.1h-0.1h-0.1h-0.1h-0.1h-0.1h-0.1h-0.1
	h-0.1H136h-0.1h-0.1h-0.1h-0.1h-0.1h-0.1h-0.1h-0.1h-0.1h-0.1h-0.1H135h-0.1h-0.1h-0.1h-0.1h-0.1h-0.1h-0.1h-0.1h-0.1h-0.1h-0.1
	h-0.1H134h-0.1h-0.1h-0.1h-0.1h-0.1h-0.1h-0.1h-0.1h-0.1h-0.1h-0.1H133h-0.1h-0.1h-0.1h-0.1h-0.1h-0.1h-0.1h-0.1h-0.1h-0.1h-0.1H132
	H132h-0.1h-0.1h-0.1h-0.1h-0.1h-0.1h-0.1h-0.1h-0.1h-0.1h-0.1H131h-0.1h-0.1h-0.1h-0.1h-0.1h-0.1h-0.1h-0.1h-0.1h-0.1h-0.1H130h-0.1
	h-0.1h-0.1h-0.1h-0.1h-0.1h-0.1h-0.1h-0.1h-0.1h-0.1h-0.1H129h-0.1h-0.1h-0.1h-0.1h-0.1h-0.1h-0.1h-0.1h-0.1h-0.1h-0.1H128h-0.1
	h-0.1h-0.1h-0.1h-0.1h-0.1h-0.1h-0.1h-0.1h-0.1h-0.1h-0.1H127h-0.1h-0.1h-0.1h-0.1h-0.1h-0.1h-0.1h-0.1h-0.1h-0.1h-0.1h-0.1H126
	h-0.1h-0.1h-0.1h-0.1h-0.1h-0.1h-0.1h-0.1h-0.1h-0.1h-0.1h-0.1H125H125h-0.1h-0.1h-0.1h-0.1h-0.1h-0.1h-0.1h-0.1h-0.1h-0.1h-0.1
	h-0.1H124h-0.1h-0.1h-0.1h-0.1h-0.1h-0.1h-0.1h-0.1h-0.1h-0.1h-0.1h-0.1h-0.1H123H123h-0.1h-0.1h-0.1h-0.1h-0.1h-0.1h-0.1h-0.1h-0.1
	h-0.1h-0.1h-0.1h-0.1H122H122h-0.1h-0.1h-0.1h-0.1h-0.1h-0.1h-0.1h-0.1h-0.1h-0.1h-0.1h-0.1h-0.1h-0.1H121H121h-0.1h-0.1h-0.1h-0.1
	h-0.1h-0.1h-0.1h-0.1h-0.1h-0.1h-0.1h-0.1h-0.1h-0.1h-0.1H120H120h-0.1h-0.1h-0.1h-0.1h-0.1h-0.1h-0.1h-0.1h-0.1h-0.1h-0.1h-0.1
	h-0.1h-0.1h-0.1h-0.1h-0.1h0H119h-0.1h0h0h0h0h0h0h0h0h0h0h0h0h0h0h0h0h0h0h0h0h0h0h0h0h0h0h0h0h0h0h0h0h0h0h0h0h0h0h0h0h0h0h0h0h0
	h0h0h0h0h0h0h0h0h0h0h0h0h0h0h0h0h0h0h0h0h0h0c-1.3,0-2.8-0.5-4-1.4c-1-0.9-1.9-2.2-1.9-4.5v-40v-3h-3H67.8c-1.3,0-2.8-0.7-4-2
	c-1.2-1.3-1.9-3-1.9-4.6v-30.9c0-1.5,0.7-3,1.8-4.2c1.2-1.2,2.6-1.9,3.8-1.9h39.8h3v-3V69.7z M158.2,195v-37h0h0.1h0.1h0.1h0.1h0.1
	h0.1h0.1h0.1h0.1h0.1h0.1h0.1h0.1h0.1h0.1h0.1h0.1h0.1h0.1h0.1h0.1h0.1h0.1h0.1h0.1h0.1h0.1h0.1h0.1h0.1h0.1h0.1h0.1h0.1h0.1h0.1
	h0.1h0.1h0.1h0.1h0.1h0.1h0.1h0.1h0.1h0.1h0.1h0.1h0.1h0.1h0.1h0.1h0.1h0.1h0.1h0.1h0.1h0.1h0.1h0.1h0.1h0.1h0.1h0.1h0.1h0.1h0.1
	h0.1h0.1h0.1h0.1h0.1h0.1h0.1h0.1h0.1h0.1h0.1h0.1h0.1h0.1h0.1h0.1h0.1h0.1h0.1h0.1h0.1h0.1h0.1h0.1h0.1h0.1h0.1h0.1h0.1h0.1h0.1
	h0.1h0.1h0.1h0.1h0.1h0.1h0.1h0.1h0.1h0.1h0.1h0.1h0.1h0.1h0.1h0.1h0.1h0.1h0.1h0.1h0.1h0.1h0.1h0.1h0.1h0.1h0.1h0.1h0.1h0.1h0.1
	h0.1h0.1h0.1h0.1h0.1h0.1h0.1h0.1h0.1h0.1h0.1h0.1h0.1h0.1h0.1h0.1h0.1h0.1h0.1h0.1h0.1h0.1h0.1h0.1h0.1h0.1h0.1h0.1h0.1h0.1h0.1
	h0.1h0.1h0.1h0.1h0.1h0.1h0.1h0.1h0.1h0.1h0.1h0.1h0.1h0.1h0.1h0.1h0.1h0.1h0.1h0.1h0.1h0.1h0.1h0.1h0.1h0.1h0.1h0.1h0.1h0.1h0.1
	h0.1h0.1h0.1h0.1h0.1h0.1h0.1h0.1h0.1h0.1h0.1h0.1h0.1h0.1h0.1h0.1h0.1h0.1h0.1h0.1h0.1h0.1h0.1h0.1h0.1h0.1h0.1h0.1h0.1h0.1h0.1
	h0.1h0.1h0.1h0.1h0.1h0.1h0.1h0.1h0.1h0.1h0.1h0.1h0.1h0.1h0.1h0.1h0.1h0.1h0.1h0.1h0.1h0.1h0.1h0.1h0.1h0.1h0.1h0.1h0.1h0.1h0.1
	h0.1h0.1h0.1h0.1h0.1h0.1h0.1h0.1h0.1h0.1h0.1h0.1h0.1h0.1h0.1h0.1h0.1h0.1h0.1h0.1h0.1h0.1h0.1h0.1h0.1h0.1h0.1h0.1h0.1h0.1h0.1
	h0.1h0.1h0.1h0.1h0.1h0.1h0.1h0.1h0.1h0.1h0.1h0.1h0.1h0.1h0.1h0.1h0.1h0.1h0.1h0.1h0.1h0.1h0.1h0.1h0.1h0.1h0.1h0.1h0.1h0.1h0.1
	h0.1h0.1h0.1h0.1h0.1h0.1h0.1h0.1h0.1h0.1h0.1h0.1h0.1h0.1h0.1h0.1h0.1h0.1h0.1h0.1h0.1h0.1h0.1h0.1h0.1h0.1h0.1h0.1h0.1h0.1h0.1
	h0.1h0.1h0.1h0.1h0.1h0.1h0.1h0.1h0.1h0.1h0.1h0.1h0.1h0.1h0.1h0.1h0.1h0.1h0.1h0.1h0.1h0.1h0.1h0.1h0.1h0.1h0.1h0.1h0.1h0.1h0.1
	h0.1h0.1h0.1h0.1h0.1h0.1h0.1h0.1h0h0h0h0h0h0h0h0h0h0h0h0h0h0h0h0h0h0h0h0h0h0h0h0h0h0h0h0h0h0h0h0h0h0h0h0h0h0h0
	c3.5,0,5.8-2.7,7.1-4.8c1.3-2.3,2.2-5.3,2.2-7.8v-30.8c0-0.1,0-0.2,0-0.4c0-0.3,0-0.7,0-1.3c0-1-0.1-2.4-0.6-3.9
	c-0.4-1.5-1.2-3.2-2.7-4.5c-1.5-1.4-3.6-2.2-6.1-2.2h-39.1V69.7c0-4.1-1-7.5-2.9-9.9c-1.9-2.4-4.6-3.8-7.4-3.8h-31.7
	c-3.1,0-6.2,1.2-8.4,3.7c-2.2,2.4-3.4,5.9-3.4,10v32.6H67.6c-3.2,0-6.1,1.6-8.1,3.7c-2,2.2-3.4,5.1-3.4,8.4v30.9
	c0,3.3,1.4,6.4,3.4,8.7c2.1,2.3,5,3.9,8.4,3.9h36.8v37c0,4,1.6,7.1,4,9.1c2.3,1.9,5.2,2.8,7.8,2.8h0h0h0h0h0h0h0h0h0h0h0h0h0h0h0h0
	h0h0h0h0h0h0h0h0h0h0h0h0h0h0h0h0h0h0h0h0h0h0h0h0h0h0h0h0h0h0h0h0h0h0h0h0h0h0h0h0h0h0h0h0h0h0h0h0h0h0h0h0.1h0.1h0h0.1h0.1h0.1
	h0.1h0.1h0.1h0.1h0.1h0.1h0.1h0.1h0.1h0.1h0.1h0.1h0.1h0.1h0.1h0.1h0.1h0.1h0.1h0.1h0.1h0.1h0.1h0.1h0.1h0.1h0.1h0.1h0.1h0.1h0.1
	h0.1h0.1h0.1h0.1h0.1h0.1h0.1h0.1h0.1h0.1h0.1h0.1h0.1h0.1h0.1h0.1h0.1h0.1h0.1h0.1h0.1h0.1h0.1h0.1h0.1h0.1h0.1h0.1h0.1h0.1h0.1
	h0.1h0.1h0.1h0.1h0.1h0.1h0.1h0.1h0.1h0.1h0.1h0.1h0.1h0.1h0.1h0.1h0.1h0.1h0.1h0.1h0.1h0.1h0.1h0.1h0.1h0.1h0.1h0.1h0.1h0.1h0.1
	h0.1h0.1h0.1h0.1h0.1h0.1h0.1h0.1h0.1h0.1h0.1h0.1h0.1h0.1h0.1h0.1h0.1h0.1h0.1h0.1h0.1h0.1h0.1h0.1h0.1h0.1h0.1h0.1h0.1h0.1h0.1
	h0.1h0.1h0.1h0.1h0.1h0.1h0.1h0.1h0.1h0.1h0.1h0.1h0.1h0.1h0.1h0.1h0.1h0.1h0.1h0.1h0.1h0.1h0.1h0.1h0.1h0.1h0.1h0.1h0.1h0.1h0.1
	h0.1h0.1h0.1h0.1h0.1h0.1h0.1h0.1h0.1h0.1h0.1h0.1h0.1h0.1h0.1h0.1h0.1h0.1h0.1h0.1h0.1h0.1h0.1h0.1h0.1h0.1h0.1h0.1h0.1h0.1h0.1
	h0.1h0.1h0.1h0.1h0.1h0.1h0.1h0.1h0.1h0.1h0.1h0.1h0.1h0.1h0.1h0.1h0.1h0.1h0.1h0.1h0.1h0.1h0.1h0.1h0.1h0.1h0.1h0.1h0.1h0.1h0.1
	h0.1h0.1h0.1h0.1h0.1h0.1h0.1h0.1h0.1h0.1h0.1h0.1h0.1h0.1h0.1h0.1h0.1h0.1h0.1h0.1h0.1h0.1h0.1h0.1h0.1h0.1h0.1h0.1h0.1h0.1h0.1
	h0.1h0.1h0.1h0.1h0.1h0.1h0.1h0.1h0.1h0.1h0.1h0.1h0.1h0.1h0.1h0.1h0.1h0.1h0.1h0.1h0.1h0.1h0.1h0.1h0.1h0.1h0.1h0.1h0.1h0.1h0.1
	h0.1h0.1h0.1h0.1h0.1h0.1h0.1h0.1h0.1h0.1h0.1h0.1h0.1h0.1h0.1h0.1h0.1h0.1h0.1h0.1h0.1h0.1h0.1h0.1h0.1h0.1h0.1h0.1h0.1h0.1h0.1
	h0.1h0.1h0.1h0.1h0.1h0.1h0.1h0.1h0.1h0.1h0.1h0.1h0.1h0.1h0.1h0.1h0.1h0.1h0.1h0.1h0.1h0.1h0.1h0.1h0.1h0.1h0.1h0.1h0.1h0.1h0.1
	h0.1h0.1h0.1h0.1h0.1h0.1h0.1h0.1h0.1h0.1h0.1h0.1h0.1h0.1h0.1h0.1h0.1h0.1h0.1h0.1h0.1h0.1h0.1h0.1h0.1h0.1h0.1h0h0.1h0h0h0h0h0h0
	h0h0h0h0h0h0h0h0h0h0h0h0h0h0h0h0h0h0h0h0h0h0h0h0h0h0h0h0h0h0h0h0h0h0h0h0h0h0h0h0h0h0h0h0h0h0h0h0h0h0h0h0h0h0h0h0h0h0h0h0h0h0h0
	C153.5,206.8,158.2,201.8,158.2,195z M124.1,131.8c0-4,3.3-7.1,7.1-7.1c3.8,0,7.1,3.3,7.1,7.1c0,3.8-3.3,7.1-7.1,7.1
	C127.3,138.9,124.1,135.6,124.1,131.8z M131.3,118.7c-7.1,0-13.1,5.7-13.1,13.1c0,7.1,5.7,13.1,13.1,13.1c7.1,0,13.1-6,13.1-13.1
	C144.4,124.7,138.4,118.7,131.3,118.7z M130.6,69.3c1,0,1.9,0.4,2.5,1.2l12.2,15.9c0.7,0.9,0.8,2.1,0.3,3.2c-0.5,1-1.5,1.7-2.7,1.7
	h-22.4c-1.1,0-2.1-0.6-2.6-1.6s-0.5-2.1,0.1-3.1l10.1-15.9C128.8,69.8,129.6,69.3,130.6,69.3z M131,77.5l-4.9,7.6h10.8L131,77.5z
	 M120.6,171.2c-1.1,0-2.2,0.7-2.7,1.7c-0.5,1-0.4,2.2,0.3,3.2l12.2,15.9c0.6,0.8,1.5,1.2,2.5,1.2c1,0,1.9-0.6,2.4-1.4l10.1-15.9
	c0.6-0.9,0.6-2.1,0.1-3.1c-0.5-1-1.5-1.6-2.6-1.6H120.6z M132.6,184.8l-5.9-7.6h10.8L132.6,184.8z M91.8,117.7
	c1,0.5,1.7,1.5,1.7,2.7v22.1c0,1.1-0.6,2.1-1.6,2.6c-1,0.5-2.1,0.5-3.1-0.1L73,134.8c-0.8-0.5-1.3-1.4-1.4-2.4c0-1,0.4-1.9,1.2-2.5
	l15.9-12C89.6,117.3,90.8,117.2,91.8,117.7z M79.8,132.1l7.6,4.9v-10.6L79.8,132.1z M173.2,117.8c-0.9-0.6-2.1-0.6-3.1-0.1
	c-1,0.5-1.6,1.5-1.6,2.6v22.1c0,1.1,0.6,2.2,1.7,2.7c1,0.5,2.2,0.4,3.1-0.3l15.9-12c0.8-0.6,1.2-1.5,1.2-2.5c0-1-0.6-1.9-1.4-2.4
	L173.2,117.8z M174.6,136.4v-10.6l7.6,4.9L174.6,136.4z"/>
</svg>
