<?xml version="1.0" encoding="utf-8"?>
<!-- Generator: Adobe Illustrator 24.3.0, SVG Export Plug-In . SVG Version: 6.00 Build 0)  -->
<svg version="1.1" id="圖層_1" xmlns="http://www.w3.org/2000/svg" xmlns:xlink="http://www.w3.org/1999/xlink" x="0px" y="0px"
	 viewBox="0 0 262 262" style="enable-background:new 0 0 262 262;" xml:space="preserve">
<style type="text/css">
	.st0{fill-rule:evenodd;clip-rule:evenodd;fill:#D81690;}
	.st1{fill-rule:evenodd;clip-rule:evenodd;fill:url(#SVGID_1_);}
</style>
<path class="st0" d="M189.4,53.1c2.8-2.8,7.7-2.8,10.5-0.1l8.9,8.9l0,0c1.4,1.4,2.2,3.3,2.2,5.3c0,2-0.8,3.9-2.2,5.3
	c0,0,0,0-0.1,0.1l-9.8,9.8c1,0.7,1.7,1.8,1.7,3.3v10.7c0,2.2-1.8,4-4,4h-11.1c-1.3,0-2.4-0.6-3.1-1.5l-13.6,13.6
	c1.6,0.4,3,1.9,3,3.9v10.7c0,2.2-1.8,4-4,4h-11.1c-1.9,0-3.3-1.2-3.8-2.7l-12.8,12.8c-0.1,0.1-0.2,0.2-0.4,0.3l-24.6,17.6
	l-40.5,40.5c0.5,0.5,0.7,1.1,0.7,1.8c0,0.7-0.3,1.3-0.7,1.8l-7.1,7.1c-0.5,0.5-1.1,0.7-1.8,0.7s-1.3-0.3-1.8-0.7l-12.4-12.4
	c-1-1-1-2.6,0-3.5l7.1-7.1c1-1,2.6-1,3.5,0l0,0l40.6-40.6l17.5-24.5c0.1-0.1,0.1-0.2,0.2-0.2c0-0.1,0.1-0.1,0.1-0.2l7.7-7.7
	c-1.6-0.5-2.9-1.9-2.9-3.8l0-10.7c0-2.2,1.8-4,4-4l11.1,0c1.8,0,3.2,1.1,3.7,2.5L158.5,84c-1-0.7-1.6-1.8-1.6-3.2l0-10.7
	c0-2.2,1.8-4,4-4l11.1,0c1.3,0,2.3,0.6,3,1.4L189.4,53.1l3.5,3.6l-68.5,68.5l-17.6,24.6c-0.1,0.2-0.2,0.3-0.4,0.4l-6,6l5.9,4.7
	l5.4-5.4c0.1-0.1,0.1-0.1,0.2-0.2c0,0,0.1-0.1,0.1-0.1l24.6-17.5l68.5-68.5l0,0c0.5-0.5,0.7-1.1,0.7-1.8c0-0.7-0.3-1.3-0.7-1.8
	c0,0,0,0-0.1-0.1l-8.8-8.8l-3.6,0.1c0,0,0,0,0.1-0.1c0.6-0.6,1.4-0.8,2.2-0.7l1.3,0.7l0,0c-0.4-0.4-0.8-0.6-1.3-0.7L189.4,53.1
	L189.4,53.1z M97,159.7l5.9,4.7l-5.5,5.5l-5.9-4.7L97,159.7z M87.9,168.8l-4,4l5.9,4.7l4-4L87.9,168.8z M76.1,180.6l4.2-4.2l5.9,4.7
	l-4.2,4.2L76.1,180.6z M72.5,184.2l-6.6,6.6l5.3,5.3l7.2-7.2L72.5,184.2z M69.4,201.4l-8.8-8.8l-3.5,3.5l8.8,8.8L69.4,201.4
	L69.4,201.4z M165.4,127.1c-3.1,0-4.6-3.7-2.3-5.9c2.2-2,5.7-0.5,5.7,2.5C168.8,125.5,167.3,127.1,165.4,127.1z M191.9,90.5
	c-2.2,2.1-0.7,5.9,2.3,5.9c1.9,0,3.4-1.5,3.4-3.4C197.6,90,194.1,88.5,191.9,90.5z M163.4,70.2c3.1,0,4.6,3.8,2.3,5.9
	c-2.2,2-5.7,0.5-5.7-2.5C160,71.7,161.6,70.2,163.4,70.2z M134.4,105.5c2.2-2.1,0.7-5.9-2.3-5.9c-1.9,0-3.4,1.5-3.4,3.4
	C128.7,106,132.3,107.5,134.4,105.5z"/>
<radialGradient id="SVGID_1_" cx="-10.0198" cy="273.5413" r="1" gradientTransform="matrix(-115.3091 77.1927 100.5438 150.1905 -28470.6074 -40122.75)" gradientUnits="userSpaceOnUse">
	<stop  offset="0" style="stop-color:#D01E8D"/>
	<stop  offset="1" style="stop-color:#621461"/>
</radialGradient>
<path class="st1" d="M189.4,53.1c2.8-2.8,7.7-2.8,10.5-0.1l8.9,8.9l0,0c1.4,1.4,2.2,3.3,2.2,5.3c0,2-0.8,3.9-2.2,5.3
	c0,0,0,0-0.1,0.1l-9.8,9.8c1,0.7,1.7,1.8,1.7,3.3v10.7c0,2.2-1.8,4-4,4h-11.1c-1.3,0-2.4-0.6-3.1-1.5l-13.6,13.6
	c1.6,0.4,3,1.9,3,3.9v10.7c0,2.2-1.8,4-4,4h-11.1c-1.9,0-3.3-1.2-3.8-2.7l-12.8,12.8c-0.1,0.1-0.2,0.2-0.4,0.3l-24.6,17.6
	l-40.5,40.5c0.5,0.5,0.7,1.1,0.7,1.8c0,0.7-0.3,1.3-0.7,1.8l-7.1,7.1c-0.5,0.5-1.1,0.7-1.8,0.7s-1.3-0.3-1.8-0.7l-12.4-12.4
	c-1-1-1-2.6,0-3.5l7.1-7.1c1-1,2.6-1,3.5,0l0,0l40.6-40.6l17.5-24.5c0.1-0.1,0.1-0.2,0.2-0.2c0-0.1,0.1-0.1,0.1-0.2l7.7-7.7
	c-1.6-0.5-2.9-1.9-2.9-3.8l0-10.7c0-2.2,1.8-4,4-4l11.1,0c1.8,0,3.2,1.1,3.7,2.5L158.5,84c-1-0.7-1.6-1.8-1.6-3.2l0-10.7
	c0-2.2,1.8-4,4-4l11.1,0c1.3,0,2.3,0.6,3,1.4L189.4,53.1l3.5,3.6l-68.5,68.5l-17.6,24.6c-0.1,0.2-0.2,0.3-0.4,0.4l-6,6l5.9,4.7
	l5.4-5.4c0.1-0.1,0.1-0.1,0.2-0.2c0,0,0.1-0.1,0.1-0.1l24.6-17.5l68.5-68.5l0,0c0.5-0.5,0.7-1.1,0.7-1.8c0-0.7-0.3-1.3-0.7-1.8
	c0,0,0,0-0.1-0.1l-8.8-8.8l-3.6,0.1c0,0,0,0,0.1-0.1c0.6-0.6,1.4-0.8,2.2-0.7l1.3,0.7l0,0c-0.4-0.4-0.8-0.6-1.3-0.7L189.4,53.1
	L189.4,53.1z M97,159.7l5.9,4.7l-5.5,5.5l-5.9-4.7L97,159.7z M87.9,168.8l-4,4l5.9,4.7l4-4L87.9,168.8z M76.1,180.6l4.2-4.2l5.9,4.7
	l-4.2,4.2L76.1,180.6z M72.5,184.2l-6.6,6.6l5.3,5.3l7.2-7.2L72.5,184.2z M69.4,201.4l-8.8-8.8l-3.5,3.5l8.8,8.8L69.4,201.4
	L69.4,201.4z M165.4,127.1c-3.1,0-4.6-3.7-2.3-5.9c2.2-2,5.7-0.5,5.7,2.5C168.8,125.5,167.3,127.1,165.4,127.1z M191.9,90.5
	c-2.2,2.1-0.7,5.9,2.3,5.9c1.9,0,3.4-1.5,3.4-3.4C197.6,90,194.1,88.5,191.9,90.5z M163.4,70.2c3.1,0,4.6,3.8,2.3,5.9
	c-2.2,2-5.7,0.5-5.7-2.5C160,71.7,161.6,70.2,163.4,70.2z M134.4,105.5c2.2-2.1,0.7-5.9-2.3-5.9c-1.9,0-3.4,1.5-3.4,3.4
	C128.7,106,132.3,107.5,134.4,105.5z"/>
</svg>
