<?xml version="1.0" encoding="utf-8"?>
<!-- Generator: Adobe Illustrator 24.3.0, SVG Export Plug-In . SVG Version: 6.00 Build 0)  -->
<svg version="1.1" id="圖層_1" xmlns="http://www.w3.org/2000/svg" xmlns:xlink="http://www.w3.org/1999/xlink" x="0px" y="0px"
	 viewBox="0 0 262 262" style="enable-background:new 0 0 262 262;" xml:space="preserve">
<style type="text/css">
	.st0{fill-rule:evenodd;clip-rule:evenodd;fill:#D81690;}
	.st1{fill-rule:evenodd;clip-rule:evenodd;fill:url(#SVGID_1_);}
</style>
<path class="st0" d="M129.3,66.2c23.5-1.4,44,5.4,59.3,24.2c9.4,11.6,14,25.2,14.7,40.1c1.3,25.8-10.6,48.2-35.1,58.6
	c-19.2,8.2-39,9-58.8,3c-24.5-7.4-39.6-23.6-42.8-49.5c-0.6-5.2-0.5-10.5-0.3-15.9c0.1-2.5,0.1-5,0.1-7.5
	c-14.1,1.6-24.6-5.6-33.5-16.8c7.2-4.1,14.7-5.5,22.7-5.6c-7.6-10.5-10.5-17.1-10.2-22.8c13.1-1.6,25.3,4.5,34.4,17.6
	C92.6,75.5,109.3,67.4,129.3,66.2z M104.3,113.4c-8.7,3.1-16.1,7.8-19.1,17.1c-4.5,14.1,5,28.7,20,30.1c5.1,0.4,10.5,0.4,15.4-0.7
	c10-2.2,19.7-1.7,29.7,0.1c5.3,1,11.1,0.7,16.5-0.2c9.7-1.7,15.9-7.9,17.8-17.5c2.1-10.1-1.5-18.3-9.9-24.1
	c-9.7-6.7-21-8.2-32.4-9.1c-1.7-0.1-3.5-0.1-5.2-0.1c-0.9,0-1.7,0.1-2.6,0.1C124.3,108.9,114.1,109.9,104.3,113.4z M146.7,141
	c1.8,1.5,5,1.8,8.2,0.7c4.2-1.5,6.9-5,5.9-7.9c-0.2-0.7-0.7-1.3-1.2-1.8l6.2-4.7c1.5-1.2,1.8-3.4,0.7-4.9c-1.2-1.5-3.4-1.8-4.9-0.7
	l-17.1,13c-1.5,1.2-1.8,3.4-0.7,4.9C144.6,140.5,145.6,141,146.7,141z M123.8,141c-1.8,1.5-5,1.8-8.2,0.7c-4.2-1.5-6.9-5-5.9-7.9
	c0.2-0.7,0.7-1.3,1.2-1.8l-6.2-4.7c-1.5-1.2-1.8-3.4-0.7-4.9c1.2-1.5,3.4-1.8,4.9-0.7l17.1,13c1.5,1.2,1.8,3.4,0.7,4.9
	C125.9,140.6,124.9,141,123.8,141z"/>
<radialGradient id="SVGID_1_" cx="-10.0316" cy="273.5501" r="1" gradientTransform="matrix(-122.7331 62.7192 71.6067 140.1248 -20640.7988 -37525.3984)" gradientUnits="userSpaceOnUse">
	<stop  offset="0" style="stop-color:#D01E8D"/>
	<stop  offset="1" style="stop-color:#621461"/>
</radialGradient>
<path class="st1" d="M129.3,66.2c23.5-1.4,44,5.4,59.3,24.2c9.4,11.6,14,25.2,14.7,40.1c1.3,25.8-10.6,48.2-35.1,58.6
	c-19.2,8.2-39,9-58.8,3c-24.5-7.4-39.6-23.6-42.8-49.5c-0.6-5.2-0.5-10.5-0.3-15.9c0.1-2.5,0.1-5,0.1-7.5
	c-14.1,1.6-24.6-5.6-33.5-16.8c7.2-4.1,14.7-5.5,22.7-5.6c-7.6-10.5-10.5-17.1-10.2-22.8c13.1-1.6,25.3,4.5,34.4,17.6
	C92.6,75.5,109.3,67.4,129.3,66.2z M104.3,113.4c-8.7,3.1-16.1,7.8-19.1,17.1c-4.5,14.1,5,28.7,20,30.1c5.1,0.4,10.5,0.4,15.4-0.7
	c10-2.2,19.7-1.7,29.7,0.1c5.3,1,11.1,0.7,16.5-0.2c9.7-1.7,15.9-7.9,17.8-17.5c2.1-10.1-1.5-18.3-9.9-24.1
	c-9.7-6.7-21-8.2-32.4-9.1c-1.7-0.1-3.5-0.1-5.2-0.1c-0.9,0-1.7,0.1-2.6,0.1C124.3,108.9,114.1,109.9,104.3,113.4z M146.7,141
	c1.8,1.5,5,1.8,8.2,0.7c4.2-1.5,6.9-5,5.9-7.9c-0.2-0.7-0.7-1.3-1.2-1.8l6.2-4.7c1.5-1.2,1.8-3.4,0.7-4.9c-1.2-1.5-3.4-1.8-4.9-0.7
	l-17.1,13c-1.5,1.2-1.8,3.4-0.7,4.9C144.6,140.5,145.6,141,146.7,141z M123.8,141c-1.8,1.5-5,1.8-8.2,0.7c-4.2-1.5-6.9-5-5.9-7.9
	c0.2-0.7,0.7-1.3,1.2-1.8l-6.2-4.7c-1.5-1.2-1.8-3.4-0.7-4.9c1.2-1.5,3.4-1.8,4.9-0.7l17.1,13c1.5,1.2,1.8,3.4,0.7,4.9
	C125.9,140.6,124.9,141,123.8,141z"/>
</svg>
