<?xml version="1.0" encoding="utf-8"?>
<!-- Generator: Adobe Illustrator 24.3.0, SVG Export Plug-In . SVG Version: 6.00 Build 0)  -->
<svg version="1.1" id="圖層_1" xmlns="http://www.w3.org/2000/svg" xmlns:xlink="http://www.w3.org/1999/xlink" x="0px" y="0px"
	 viewBox="0 0 262 262" style="enable-background:new 0 0 262 262;" xml:space="preserve">
<style type="text/css">
	.st0{fill:#D81690;}
	.st1{fill:url(#SVGID_1_);}
</style>
<path class="st0" d="M65.1,65.1c0.8-0.8,2-1.2,3.2-1.1l36.8,5.3c0.9,0.1,1.7,0.6,2.3,1.3l49,59.1c4.1-1.8,9-1.1,12.4,2.3l1.9,1.9
	c1.5,1.5,1.5,3.8,0,5.3l-7.9,7.9l23.4,23.4h1.5c6.2,0,11.2,5,11.2,11.2v6.2c0,6.2-5,11.2-11.2,11.2h-6.2c-6.2,0-11.2-5-11.2-11.2
	v-1.5l-23.4-23.4l-7.9,7.9c-1.5,1.5-3.8,1.5-5.3,0l-5.3-5.3c-3.4-3.4-0.7-5,1.1-9l-59.1-49c-0.7-0.6-1.2-1.4-1.3-2.3L64,68.2
	C63.9,67.1,64.3,65.9,65.1,65.1z M177.9,187.8c0,2.1,1.7,3.7,3.7,3.7h6.2c2.1,0,3.7-1.7,3.7-3.7v-6.2c0-2.1-1.7-3.7-3.7-3.7h-1.5
	l-8.3,8.3V187.8z M174.2,179.4l5.3-5.3l-21.8-21.8l-5.3,5.3L174.2,179.4z M137.3,163.6l-0.8-0.8l26.3-26.3l0.8,0.8
	c-1.5-1.5-3.8-1.5-5.3,0l-21,21C135.8,159.8,135.8,162.1,137.3,163.6z M76.5,102.6l58,48.1l5.5-5.5L129.7,135
	c-1.5-1.5-1.5-3.8,0-5.3c1.5-1.5,3.8-1.5,5.3,0l10.2,10.2l5.5-5.5l-48.1-58l-30.5-4.4L76.5,102.6z"/>
<radialGradient id="SVGID_1_" cx="-9.8814" cy="273.4466" r="1" gradientTransform="matrix(97.192 65.0948 84.8024 -126.617 -22144.7773 35444.9883)" gradientUnits="userSpaceOnUse">
	<stop  offset="0" style="stop-color:#D01E8D"/>
	<stop  offset="1" style="stop-color:#621461"/>
</radialGradient>
<path class="st1" d="M65.1,65.1c0.8-0.8,2-1.2,3.2-1.1l36.8,5.3c0.9,0.1,1.7,0.6,2.3,1.3l49,59.1c4.1-1.8,9-1.1,12.4,2.3l1.9,1.9
	c1.5,1.5,1.5,3.8,0,5.3l-7.9,7.9l23.4,23.4h1.5c6.2,0,11.2,5,11.2,11.2v6.2c0,6.2-5,11.2-11.2,11.2h-6.2c-6.2,0-11.2-5-11.2-11.2
	v-1.5l-23.4-23.4l-7.9,7.9c-1.5,1.5-3.8,1.5-5.3,0l-5.3-5.3c-3.4-3.4-0.7-5,1.1-9l-59.1-49c-0.7-0.6-1.2-1.4-1.3-2.3L64,68.2
	C63.9,67.1,64.3,65.9,65.1,65.1z M177.9,187.8c0,2.1,1.7,3.7,3.7,3.7h6.2c2.1,0,3.7-1.7,3.7-3.7v-6.2c0-2.1-1.7-3.7-3.7-3.7h-1.5
	l-8.3,8.3V187.8z M174.2,179.4l5.3-5.3l-21.8-21.8l-5.3,5.3L174.2,179.4z M137.3,163.6l-0.8-0.8l26.3-26.3l0.8,0.8
	c-1.5-1.5-3.8-1.5-5.3,0l-21,21C135.8,159.8,135.8,162.1,137.3,163.6z M76.5,102.6l58,48.1l5.5-5.5L129.7,135
	c-1.5-1.5-1.5-3.8,0-5.3c1.5-1.5,3.8-1.5,5.3,0l10.2,10.2l5.5-5.5l-48.1-58l-30.5-4.4L76.5,102.6z"/>
</svg>
