<?xml version="1.0" encoding="utf-8"?>
<!-- Generator: Adobe Illustrator 24.3.0, SVG Export Plug-In . SVG Version: 6.00 Build 0)  -->
<svg version="1.1" id="圖層_1" xmlns="http://www.w3.org/2000/svg" xmlns:xlink="http://www.w3.org/1999/xlink" x="0px" y="0px"
	 viewBox="0 0 262 262" style="enable-background:new 0 0 262 262;" xml:space="preserve">
<style type="text/css">
	.st0{fill-rule:evenodd;clip-rule:evenodd;fill:#D81690;}
	.st1{fill-rule:evenodd;clip-rule:evenodd;fill:url(#SVGID_1_);}
</style>
<path class="st0" d="M130.9,49.6l-4,11.2v7.5l8,0l0-7.5L130.9,49.6z M133.4,40.9l6.6,18.5c0.1,0,0.2,0.1,0.2,0.1l0,8.8l2.7,0l0,0
	c13.2,0,24-10.8,24-24v0v-0.8c0-0.2,0-0.3,0-0.5c0.2-1.3,1.3-2.3,2.6-2.3c0.5,0,1.1,0.2,1.5,0.4c17.2,10,27.9,28.6,27.9,48.5
	c0,19.9-10.7,38.5-28,48.6c-0.1,0.1-0.3,0.2-0.5,0.2c-1,0.4-2.1,0.1-2.8-0.6c-0.2-0.2-0.3-0.3-0.4-0.6c-0.3-0.5-0.4-0.9-0.4-1.4
	v-0.8v0c0-13.3-10.8-24-24.1-24h0H140c0.1,0.4,0.2,0.7,0.2,1.1v91.2c1.5,0,2.7,1.2,2.7,2.7c0,1.5-1.2,2.7-2.7,2.7v3.5
	c0,0.1,0,0.2,0,0.3c0,0.1,0,0.2,0,0.2c0,2.5-1,4.8-2.7,6.6c-1.8,1.8-4.1,2.7-6.6,2.7c-2.6,0-4.9-1.1-6.6-2.7c-1.7-1.7-2.7-4-2.7-6.6
	c0-0.1,0-0.2,0-0.2c0-0.1,0-0.2,0-0.3v-3.5c-0.7,0-1.4-0.3-1.9-0.8c-0.5-0.5-0.8-1.2-0.8-1.9c0-1.5,1.2-2.7,2.7-2.7v-91.2
	c0-0.4,0.1-0.8,0.2-1.2h-2.8h0c-13.3,0-24,10.8-24.1,24.1l0,0v0.8c0,0,0,0,0,0.1c0,0.3-0.1,0.6-0.2,0.8c-0.1,0.2-0.2,0.4-0.3,0.6
	c-0.2,0.3-0.5,0.5-0.7,0.7c-0.4,0.3-0.9,0.4-1.5,0.4c-0.5,0-1-0.2-1.5-0.4c-4.2-2.5-8-5.4-11.4-8.8c-10.4-10.4-16.5-24.7-16.5-39.7
	c0-20,10.7-38.6,28.1-48.6c0.2-0.1,0.3-0.2,0.5-0.2c0.3-0.1,0.5-0.1,0.8-0.1c1.5,0,2.7,1.2,2.7,2.7v0.9c0,0,0,0,0,0.1
	c0,13.2,10.8,24,24,24h0l2.7,0l0-8.8c0-0.1,0.1-0.1,0.2-0.1l6.6-18.5c0.2-0.8,0.8-1.5,1.7-1.7c0.1,0,0.1,0,0.2-0.1
	c0.5-0.1,1.1-0.1,1.6,0.1C132.6,39.5,133.2,40.1,133.4,40.9z M126.8,203.5v-91.2c0-0.4-0.1-0.8-0.2-1.2h8.4
	c-0.1,0.4-0.2,0.7-0.2,1.2v91.2H126.8z M134.8,208.8v3.5c0,0.1,0,0.2,0,0.3c0,0.1,0,0.2,0,0.2c0,1.1-0.4,2.1-1.2,2.8
	c-0.8,0.8-1.8,1.2-2.8,1.2c-2.2,0-4-1.8-4-4c0-0.1,0-0.2,0-0.3c0-0.1,0-0.2,0-0.3v-3.5L134.8,208.8z M142.9,105.8L142.9,105.8h-24.1
	h0c-14.9,0-27.2,11.2-29.1,25.5c-13.4-9.5-21.6-25-21.6-41.6c0-16.6,8.2-32.1,21.6-41.6c0.9,6.6,3.9,12.5,8.4,16.9
	c5.3,5.3,12.7,8.6,20.8,8.6h0l24,0l0,0c14.9,0,27.2-11.1,29.1-25.5c13.4,9.5,21.6,25,21.6,41.6c0,16.6-8.2,32.1-21.6,41.6
	C170.1,117,157.8,105.8,142.9,105.8z"/>
<radialGradient id="SVGID_1_" cx="-9.8903" cy="273.4595" r="1" gradientTransform="matrix(98.1647 88.3854 123.8361 -137.5378 -32810.457 38680.3906)" gradientUnits="userSpaceOnUse">
	<stop  offset="0" style="stop-color:#D01E8D"/>
	<stop  offset="1" style="stop-color:#621461"/>
</radialGradient>
<path class="st1" d="M131,50l-4,11.2v7.5l8,0l0-7.5L131,50z M133.6,41.3l6.6,18.5c0.1,0,0.2,0.1,0.2,0.1l0,8.8l2.7,0l0,0
	c13.2,0,24-10.8,24-24v0V44c0-0.2,0-0.3,0-0.5c0.2-1.3,1.3-2.3,2.6-2.3c0.5,0,1.1,0.2,1.5,0.4c17.2,10,27.9,28.6,27.9,48.5
	c0,19.9-10.7,38.5-28,48.6c-0.1,0.1-0.3,0.2-0.5,0.2c-1,0.4-2.1,0.1-2.8-0.6c-0.2-0.2-0.3-0.3-0.4-0.6c-0.3-0.5-0.4-0.9-0.4-1.4
	v-0.8v0c0-13.3-10.8-24-24.1-24h0h-2.9c0.1,0.4,0.2,0.7,0.2,1.1v91.2c1.5,0,2.7,1.2,2.7,2.7c0,1.5-1.2,2.7-2.7,2.7v3.5
	c0,0.1,0,0.2,0,0.3c0,0.1,0,0.2,0,0.2c0,2.5-1,4.8-2.7,6.6c-1.8,1.8-4.1,2.7-6.6,2.7c-2.6,0-4.9-1.1-6.6-2.7c-1.7-1.7-2.7-4-2.7-6.6
	c0-0.1,0-0.2,0-0.2c0-0.1,0-0.2,0-0.3v-3.5c-0.7,0-1.4-0.3-1.9-0.8c-0.5-0.5-0.8-1.2-0.8-1.9c0-1.5,1.2-2.7,2.7-2.7v-91.2
	c0-0.4,0.1-0.8,0.2-1.2H119h0c-13.3,0-24,10.8-24.1,24.1l0,0v0.8c0,0,0,0,0,0.1c0,0.3-0.1,0.6-0.2,0.8c-0.1,0.2-0.2,0.4-0.3,0.6
	c-0.2,0.3-0.5,0.5-0.7,0.7c-0.4,0.3-0.9,0.4-1.5,0.4c-0.5,0-1-0.2-1.5-0.4c-4.2-2.5-8-5.4-11.4-8.8C69,119.5,62.9,105.2,62.9,90.2
	c0-20,10.7-38.6,28.1-48.6c0.2-0.1,0.3-0.2,0.5-0.2c0.3-0.1,0.5-0.1,0.8-0.1c1.5,0,2.7,1.2,2.7,2.7v0.9c0,0,0,0,0,0.1
	c0,13.2,10.8,24,24,24h0l2.7,0l0-8.8c0-0.1,0.1-0.1,0.2-0.1l6.6-18.5c0.2-0.8,0.8-1.5,1.7-1.7c0.1,0,0.1,0,0.2-0.1
	c0.5-0.1,1.1-0.1,1.6,0.1C132.7,39.9,133.3,40.5,133.6,41.3z M127,203.9v-91.2c0-0.4-0.1-0.8-0.2-1.2h8.4c-0.1,0.4-0.2,0.7-0.2,1.2
	v91.2H127z M135,209.2v3.5c0,0.1,0,0.2,0,0.3c0,0.1,0,0.2,0,0.2c0,1.1-0.4,2.1-1.2,2.8c-0.8,0.8-1.8,1.2-2.8,1.2c-2.2,0-4-1.8-4-4
	c0-0.1,0-0.2,0-0.3c0-0.1,0-0.2,0-0.3v-3.5L135,209.2z M143,106.2L143,106.2H119h0c-14.9,0-27.2,11.2-29.1,25.5
	c-13.4-9.5-21.6-25-21.6-41.6c0-16.6,8.2-32.1,21.6-41.6c0.9,6.6,3.9,12.5,8.4,16.9c5.3,5.3,12.7,8.6,20.8,8.6h0l24,0l0,0
	c14.9,0,27.2-11.1,29.1-25.5c13.4,9.5,21.6,25,21.6,41.6c0,16.6-8.2,32.1-21.6,41.6C170.3,117.4,157.9,106.2,143,106.2z"/>
</svg>
