<?xml version="1.0" encoding="utf-8"?>
<!-- Generator: Adobe Illustrator 24.3.0, SVG Export Plug-In . SVG Version: 6.00 Build 0)  -->
<svg version="1.1" id="圖層_1" xmlns="http://www.w3.org/2000/svg" xmlns:xlink="http://www.w3.org/1999/xlink" x="0px" y="0px"
	 viewBox="0 0 262 262" style="enable-background:new 0 0 262 262;" xml:space="preserve">
<style type="text/css">
	.st0{fill-rule:evenodd;clip-rule:evenodd;fill:#D81690;}
	.st1{fill-rule:evenodd;clip-rule:evenodd;fill:url(#SVGID_1_);}
</style>
<path class="st0" d="M188,151.2c-3.2-14.3-8.1-27.2-15.2-37.4c2.3-6.4,3.7-14.1,3.7-22.4c0-22.3-9.8-40.4-21.8-40.4
	c-11.9,0-21.5,17.5-21.8,39.4c-0.9,0-1.8-0.1-2.8-0.1c-2,0-4,0.1-5.9,0.3c-0.2-21.9-9.9-39.6-21.8-39.6c-12,0-21.8,18.1-21.8,40.4
	c0,9.2,1.7,17.7,4.5,24.5c-6.3,9.8-10.7,21.9-12.9,35.3C66.6,186,78.4,212,130.2,212S195.7,185.6,188,151.2z M88.8,110.7
	c7.9-10,18.4-17,31-19.4c-1-14.2-8.2-25.2-16.8-25.2c-9.4,0-17,12.9-17,28.8C86.1,100.7,87.1,106.1,88.8,110.7z M154.2,66.1
	c-8.5,0-15.6,10.7-16.8,24.7c13,1.7,23.5,8.3,31.7,18c1.3-4.1,2.1-8.9,2.1-13.9C171.2,79,163.6,66.1,154.2,66.1z M111.9,167
	c0,4.8-3.1,8.7-7,8.7c-3.9,0-7-3.9-7-8.7c0-4.8,3.1-8.7,7-8.7C108.8,158.3,111.9,162.2,111.9,167z M106.5,165.3c0,1.7-1.1,3-2.4,3
	c-1.3,0-2.4-1.4-2.4-3c0-1.7,1.1-3,2.4-3C105.5,162.3,106.5,163.7,106.5,165.3z M163.6,167c0,4.8-3.1,8.7-7,8.7c-3.9,0-7-3.9-7-8.7
	c0-4.8,3.1-8.7,7-8.7C160.5,158.3,163.6,162.2,163.6,167z M158.2,165.3c0,1.7-1.1,3-2.4,3s-2.4-1.4-2.4-3c0-1.7,1.1-3,2.4-3
	S158.2,163.7,158.2,165.3z M137.8,173.4c0,2.4-3,4.4-6.7,4.4c-3.7,0-6.7-2-6.7-4.4c0-2.4,3-4.4,6.7-4.4
	C134.8,169,137.8,171,137.8,173.4z M130.3,207.6c48.4,0,61.3-24.6,54.1-56.8c-7.1-32.2-24.2-56.8-54.1-56.8
	c-29.9,0-48.8,24.3-54.1,56.8C70.9,183.3,81.9,207.6,130.3,207.6z M174,180.9c0.1,0.4-4.6,2.1-10.5,3.6c-5.9,1.6-10.8,2.5-10.9,2.1
	c-0.1-0.4,4.6-2.1,10.5-3.6C169,181.4,173.9,180.4,174,180.9z M103.9,191.6c-5.9,1.6-10.6,3.2-10.5,3.6c0.1,0.4,5-0.5,10.9-2.1
	c5.9-1.6,10.6-3.2,10.5-3.6C114.7,189.1,109.8,190,103.9,191.6z M174.3,192.4c-0.1,0.4-5,0.2-11.1-0.6c-6-0.8-10.9-1.7-10.9-2.2
	c0.1-0.4,5-0.2,11.1,0.6C169.5,191,174.4,192,174.3,192.4z M104.2,184.3c-6-0.8-11-1-11.1-0.6c-0.1,0.4,4.8,1.4,10.9,2.2
	c6,0.8,11,1,11.1,0.6C115.1,186,110.3,185.1,104.2,184.3z"/>
<radialGradient id="SVGID_1_" cx="-10.006" cy="273.5517" r="1" gradientTransform="matrix(-85.7198 77.6742 108.8991 120.1791 -30474.6758 -31910.0312)" gradientUnits="userSpaceOnUse">
	<stop  offset="0" style="stop-color:#D01E8D"/>
	<stop  offset="1" style="stop-color:#621461"/>
</radialGradient>
<path class="st1" d="M188,151.2c-3.2-14.3-8.1-27.2-15.2-37.4c2.3-6.4,3.7-14.1,3.7-22.4c0-22.3-9.8-40.4-21.8-40.4
	c-11.9,0-21.5,17.5-21.8,39.4c-0.9,0-1.8-0.1-2.8-0.1c-2,0-4,0.1-5.9,0.3c-0.2-21.9-9.9-39.6-21.8-39.6c-12,0-21.8,18.1-21.8,40.4
	c0,9.2,1.7,17.7,4.5,24.5c-6.3,9.8-10.7,21.9-12.9,35.3C66.6,186,78.4,212,130.2,212S195.7,185.6,188,151.2z M88.8,110.7
	c7.9-10,18.4-17,31-19.4c-1-14.2-8.2-25.2-16.8-25.2c-9.4,0-17,12.9-17,28.8C86.1,100.7,87.1,106.1,88.8,110.7z M154.2,66.1
	c-8.5,0-15.6,10.7-16.8,24.7c13,1.7,23.5,8.3,31.7,18c1.3-4.1,2.1-8.9,2.1-13.9C171.2,79,163.6,66.1,154.2,66.1z M111.9,167
	c0,4.8-3.1,8.7-7,8.7c-3.9,0-7-3.9-7-8.7c0-4.8,3.1-8.7,7-8.7C108.8,158.3,111.9,162.2,111.9,167z M106.5,165.3c0,1.7-1.1,3-2.4,3
	c-1.3,0-2.4-1.4-2.4-3c0-1.7,1.1-3,2.4-3C105.5,162.3,106.5,163.7,106.5,165.3z M163.6,167c0,4.8-3.1,8.7-7,8.7c-3.9,0-7-3.9-7-8.7
	c0-4.8,3.1-8.7,7-8.7C160.5,158.3,163.6,162.2,163.6,167z M158.2,165.3c0,1.7-1.1,3-2.4,3s-2.4-1.4-2.4-3c0-1.7,1.1-3,2.4-3
	S158.2,163.7,158.2,165.3z M137.8,173.4c0,2.4-3,4.4-6.7,4.4c-3.7,0-6.7-2-6.7-4.4c0-2.4,3-4.4,6.7-4.4
	C134.8,169,137.8,171,137.8,173.4z M130.3,207.6c48.4,0,61.3-24.6,54.1-56.8c-7.1-32.2-24.2-56.8-54.1-56.8
	c-29.9,0-48.8,24.3-54.1,56.8C70.9,183.3,81.9,207.6,130.3,207.6z M174,180.9c0.1,0.4-4.6,2.1-10.5,3.6c-5.9,1.6-10.8,2.5-10.9,2.1
	c-0.1-0.4,4.6-2.1,10.5-3.6C169,181.4,173.9,180.4,174,180.9z M103.9,191.6c-5.9,1.6-10.6,3.2-10.5,3.6c0.1,0.4,5-0.5,10.9-2.1
	c5.9-1.6,10.6-3.2,10.5-3.6C114.7,189.1,109.8,190,103.9,191.6z M174.3,192.4c-0.1,0.4-5,0.2-11.1-0.6c-6-0.8-10.9-1.7-10.9-2.2
	c0.1-0.4,5-0.2,11.1,0.6C169.5,191,174.4,192,174.3,192.4z M104.2,184.3c-6-0.8-11-1-11.1-0.6c-0.1,0.4,4.8,1.4,10.9,2.2
	c6,0.8,11,1,11.1,0.6C115.1,186,110.3,185.1,104.2,184.3z"/>
</svg>
