<?xml version="1.0" encoding="utf-8"?>
<!-- Generator: Adobe Illustrator 24.3.0, SVG Export Plug-In . SVG Version: 6.00 Build 0)  -->
<svg version="1.1" id="圖層_1" xmlns="http://www.w3.org/2000/svg" xmlns:xlink="http://www.w3.org/1999/xlink" x="0px" y="0px"
	 viewBox="0 0 262 262" style="enable-background:new 0 0 262 262;" xml:space="preserve">
<style type="text/css">
	.st0{fill-rule:evenodd;clip-rule:evenodd;fill:#D81690;}
	.st1{fill-rule:evenodd;clip-rule:evenodd;fill:url(#SVGID_1_);}
</style>
<path class="st0" d="M220.9,154.6c-2.3,7.4-7.7,10.1-15.1,10.4c-15.6,0.6-29.5,6-42.1,15.1c-19.9,14.4-45,14.6-65.1,0.2
	c-13-9.2-27.2-14.9-43.3-15.4c-7.3-0.2-12.1-3.3-14.3-10.3v-47.2c2.2-7,7.1-10,14.3-10.3c16.1-0.6,30.5-6.2,43.6-15.7
	c19.1-13.8,44.5-14,63.8-0.2c13.4,9.5,27.8,15.4,44.3,15.9c7.1,0.2,11.7,3.6,13.9,10.2V154.6z M48.4,131v18.8c0,5.9,1.2,7.4,7.1,7.7
	c17.7,0.9,33.3,6.9,47.7,17.1c17.1,12.2,38.5,11.9,55.6-0.1c3.3-2.3,6.6-4.5,10.1-6.4c11.7-6.5,24.2-10,37.7-10.6
	c5.1-0.2,6.9-1.8,6.9-5.8c0.1-13.8,0.1-27.4,0-41.2c0-3.4-1.8-5.4-5.4-5.8c-0.9-0.1-1.8-0.1-2.6-0.2c-2.2-0.1-4.4-0.3-6.5-0.6
	c-14.8-2-28.1-7.8-40.2-16.3c-16.8-11.9-37.9-12.4-54.2-0.9C89.4,97.4,73,104,54.3,104.7c-4.3,0.2-5.9,2-5.9,6.3
	c-0.1,4.5,0,8.9,0,13.4l0,0l0,0l0,0l0,0l0,0C48.3,126.6,48.4,128.8,48.4,131z M86,130.8c-0.1-24.5,20.1-44.6,44.8-44.7
	c24.9-0.1,45,20.2,45,45.3c0,24.2-20.1,44.3-44.7,44.5C106.3,176.2,86.1,156.1,86,130.8z M168.4,131.1c-0.3-21.3-17.3-38.1-38-37.6
	c-20.6,0.4-37.3,17.2-37,37.3c0.2,21.3,17,38.1,37.7,37.8C151.8,168.4,168.8,151.3,168.4,131.1z M113.5,148.6
	c-0.2,1.1-0.3,2.2-0.5,3.4c0,3.4,3.4,5,7,2.2c7.4-5.4,14.4-6,21.8-0.1c1.3,1,4.5,1.4,5.4,0.6c0.9-0.9,1-2.8,1.1-4.5
	c0-0.4,0-0.7,0.1-1.1c0.1-1.3-0.2-2.6-0.6-3.9c-1.8-5.4-1-9.8,4-13c1.5-1,2.9-2.4,3.9-3.9c0.9-1.3,2.1-3.4,1.6-4.4
	c-0.6-1.4-2.6-2.3-4.2-2.8c-2.3-0.6-4.7-0.8-7.1-1c-3.8-0.2-6.5-1.5-7.7-5.4c-0.7-2.2-1.8-4.5-3.2-6.4c-1-1.4-2.8-3.4-4.2-3.4
	c-1.4,0-3.1,2.1-4.1,3.6c-0.8,1.4-1.5,2.8-2.2,4.2l0,0c-0.7,1.4-1.4,2.9-2.2,4.2c-0.7,1.2-2.2,2.2-3.4,2.6c-1.5,0.4-3.1,0.6-4.7,0.8
	l0,0l0,0l0,0l0,0c-1.6,0.2-3.2,0.4-4.7,0.8c-1.8,0.5-4,1.5-5,3c-0.5,0.8,1,3.3,2.1,4.6c1.8,2.2,4,4.2,6.2,6.2
	c2.1,1.8,2.8,3.5,2.1,6.2C114.2,143.5,113.8,146,113.5,148.6z M116.1,127.7c8,0.2,12.8-3.2,14.8-11c2.2,7.5,6.6,11.5,15,10.8
	c-6.7,4.6-8.5,10.2-5.6,17.7c-6.3-5-12.2-5.2-18.5,0C124.5,137.7,122.9,132.1,116.1,127.7z M54.1,131.4c0-6.8,5.6-12.4,12.5-12.4
	c6.9,0,12.5,5.6,12.5,12.6c0,6.7-5.6,12.3-12.4,12.3C59.8,144,54.2,138.4,54.1,131.4z M77,131.5c-0.1-5.9-4.8-10.6-10.6-10.4
	c-5.7,0.1-10.3,4.8-10.2,10.3c0.1,5.9,4.7,10.6,10.5,10.5C72.3,141.8,77.1,137.1,77,131.5z M61.7,136.5c0,0.2-0.1,0.5-0.1,0.8
	c0,1,0.9,1.4,2,0.5c2.1-1.4,4-1.6,6.1,0c0.4,0.3,1.3,0.4,1.5,0.2c0.3-0.2,0.3-1,0.3-1.5c0-0.4-0.1-0.8-0.2-1.1
	c-0.5-1.4-0.2-2.7,1.1-3.6c0.5-0.3,0.8-0.7,1.1-1.1c0.2-0.3,0.6-1,0.4-1.2c-0.2-0.4-0.7-0.6-1.2-0.8c-0.4-0.1-0.9-0.1-1.3-0.2
	c-0.2,0-0.5,0-0.7-0.1c-1-0.1-1.8-0.4-2.2-1.5c-0.2-0.6-0.5-1.2-0.9-1.8c-0.3-0.4-0.8-1-1.2-1c-0.4,0.1-0.9,0.6-1.1,1
	c-0.2,0.4-0.4,0.8-0.6,1.2c-0.2,0.4-0.4,0.8-0.6,1.2c-0.2,0.3-0.6,0.6-1,0.7c-0.4,0.1-0.9,0.2-1.3,0.2s-0.9,0.1-1.3,0.2
	c-0.5,0.2-1.1,0.5-1.4,0.9c-0.2,0.2,0.2,0.9,0.6,1.3h0c0.6,0.6,1.1,1.1,1.8,1.7c0.6,0.5,0.8,1,0.6,1.8
	C61.9,135,61.8,135.7,61.7,136.5z M62.5,130.6c2.2,0.1,3.5-0.9,4.1-3c0.6,2.1,1.8,3.2,4.2,3c-1.9,1.3-2.4,2.8-1.6,4.9
	c-1.8-1.4-3.4-1.4-5.1,0C64.8,133.3,64.3,131.8,62.5,130.6z M182.7,131.4c0-6.8,5.6-12.4,12.4-12.4c6.9,0,12.5,5.6,12.5,12.6
	c0,6.7-5.6,12.3-12.4,12.3C188.3,144,182.7,138.4,182.7,131.4z M205.5,131.5c-0.1-5.9-4.8-10.6-10.6-10.4
	c-5.7,0.1-10.3,4.8-10.2,10.3c0.1,5.9,4.7,10.6,10.5,10.5C200.9,141.8,205.6,137.1,205.5,131.5z M190.3,136.5c0,0.2-0.1,0.5-0.1,0.8
	c0,1,0.9,1.4,1.9,0.5c2.1-1.4,4-1.6,6.1,0c0.4,0.3,1.3,0.4,1.5,0.2c0.3-0.2,0.3-1,0.3-1.5c0-0.4-0.1-0.8-0.2-1.1
	c-0.5-1.4-0.2-2.7,1.1-3.6c0.5-0.3,0.8-0.7,1.1-1.1c0.3-0.3,0.6-1,0.5-1.2c-0.2-0.4-0.7-0.6-1.2-0.8c-0.4-0.1-0.9-0.1-1.3-0.2
	c-0.2,0-0.5,0-0.7-0.1c-1-0.1-1.8-0.4-2.2-1.5c-0.2-0.6-0.5-1.2-0.9-1.8c-0.3-0.4-0.8-1-1.2-1c-0.4,0.1-0.9,0.6-1.1,1
	c-0.2,0.4-0.4,0.8-0.6,1.2c-0.2,0.4-0.4,0.8-0.6,1.2c-0.2,0.3-0.6,0.6-1,0.7c-0.4,0.1-0.9,0.2-1.3,0.2s-0.9,0.1-1.3,0.2
	c-0.5,0.2-1.1,0.5-1.4,0.9c-0.2,0.2,0.2,0.9,0.6,1.3c0.6,0.6,1.1,1.1,1.8,1.7c0.6,0.5,0.8,1,0.6,1.8
	C190.5,135,190.4,135.7,190.3,136.5z M191.1,130.6c2.2,0.1,3.5-0.9,4.1-3c0.6,2.1,1.8,3.2,4.2,3c-1.9,1.3-2.4,2.8-1.6,4.9
	c-1.8-1.4-3.4-1.4-5.1,0C193.4,133.3,192.9,131.8,191.1,130.6z"/>
<radialGradient id="SVGID_1_" cx="-10.0356" cy="273.5533" r="1" gradientTransform="matrix(-129.5729 57.8929 60.7545 135.9777 -17725.4043 -36443.0742)" gradientUnits="userSpaceOnUse">
	<stop  offset="0" style="stop-color:#D01E8D"/>
	<stop  offset="1" style="stop-color:#621461"/>
</radialGradient>
<path class="st1" d="M220.9,154.6c-2.3,7.4-7.7,10.1-15.1,10.4c-15.6,0.6-29.5,6-42.1,15.1c-19.9,14.4-45,14.6-65.1,0.2
	c-13-9.2-27.2-14.9-43.3-15.4c-7.3-0.2-12.1-3.3-14.3-10.3v-47.2c2.2-7,7.1-10,14.3-10.3c16.1-0.6,30.5-6.2,43.6-15.7
	c19.1-13.8,44.5-14,63.8-0.2c13.4,9.5,27.8,15.4,44.3,15.9c7.1,0.2,11.7,3.6,13.9,10.2V154.6z M48.4,131v18.8c0,5.9,1.2,7.4,7.1,7.7
	c17.7,0.9,33.3,6.9,47.7,17.1c17.1,12.2,38.5,11.9,55.6-0.1c3.3-2.3,6.6-4.5,10.1-6.4c11.7-6.5,24.2-10,37.7-10.6
	c5.1-0.2,6.9-1.8,6.9-5.8c0.1-13.8,0.1-27.4,0-41.2c0-3.4-1.8-5.4-5.4-5.8c-0.9-0.1-1.8-0.1-2.6-0.2c-2.2-0.1-4.4-0.3-6.5-0.6
	c-14.8-2-28.1-7.8-40.2-16.3c-16.8-11.9-37.9-12.4-54.2-0.9C89.4,97.4,73,104,54.3,104.7c-4.3,0.2-5.9,2-5.9,6.3
	c-0.1,4.5,0,8.9,0,13.4l0,0l0,0l0,0l0,0l0,0C48.3,126.6,48.4,128.8,48.4,131z M86,130.8c-0.1-24.5,20.1-44.6,44.8-44.7
	c24.9-0.1,45,20.2,45,45.3c0,24.2-20.1,44.3-44.7,44.5C106.3,176.2,86.1,156.1,86,130.8z M168.4,131.1c-0.3-21.3-17.3-38.1-38-37.6
	c-20.6,0.4-37.3,17.2-37,37.3c0.2,21.3,17,38.1,37.7,37.8C151.8,168.4,168.8,151.3,168.4,131.1z M113.5,148.6
	c-0.2,1.1-0.3,2.2-0.5,3.4c0,3.4,3.4,5,7,2.2c7.4-5.4,14.4-6,21.8-0.1c1.3,1,4.5,1.4,5.4,0.6c0.9-0.9,1-2.8,1.1-4.5
	c0-0.4,0-0.7,0.1-1.1c0.1-1.3-0.2-2.6-0.6-3.9c-1.8-5.4-1-9.8,4-13c1.5-1,2.9-2.4,3.9-3.9c0.9-1.3,2.1-3.4,1.6-4.4
	c-0.6-1.4-2.6-2.3-4.2-2.8c-2.3-0.6-4.7-0.8-7.1-1c-3.8-0.2-6.5-1.5-7.7-5.4c-0.7-2.2-1.8-4.5-3.2-6.4c-1-1.4-2.8-3.4-4.2-3.4
	c-1.4,0-3.1,2.1-4.1,3.6c-0.8,1.4-1.5,2.8-2.2,4.2l0,0c-0.7,1.4-1.4,2.9-2.2,4.2c-0.7,1.2-2.2,2.2-3.4,2.6c-1.5,0.4-3.1,0.6-4.7,0.8
	l0,0l0,0l0,0l0,0c-1.6,0.2-3.2,0.4-4.7,0.8c-1.8,0.5-4,1.5-5,3c-0.5,0.8,1,3.3,2.1,4.6c1.8,2.2,4,4.2,6.2,6.2
	c2.1,1.8,2.8,3.5,2.1,6.2C114.2,143.5,113.8,146,113.5,148.6z M116.1,127.7c8,0.2,12.8-3.2,14.8-11c2.2,7.5,6.6,11.5,15,10.8
	c-6.7,4.6-8.5,10.2-5.6,17.7c-6.3-5-12.2-5.2-18.5,0C124.5,137.7,122.9,132.1,116.1,127.7z M54.1,131.4c0-6.8,5.6-12.4,12.5-12.4
	c6.9,0,12.5,5.6,12.5,12.6c0,6.7-5.6,12.3-12.4,12.3C59.8,144,54.2,138.4,54.1,131.4z M77,131.5c-0.1-5.9-4.8-10.6-10.6-10.4
	c-5.7,0.1-10.3,4.8-10.2,10.3c0.1,5.9,4.7,10.6,10.5,10.5C72.3,141.8,77.1,137.1,77,131.5z M61.7,136.5c0,0.2-0.1,0.5-0.1,0.8
	c0,1,0.9,1.4,2,0.5c2.1-1.4,4-1.6,6.1,0c0.4,0.3,1.3,0.4,1.5,0.2c0.3-0.2,0.3-1,0.3-1.5c0-0.4-0.1-0.8-0.2-1.1
	c-0.5-1.4-0.2-2.7,1.1-3.6c0.5-0.3,0.8-0.7,1.1-1.1c0.2-0.3,0.6-1,0.4-1.2c-0.2-0.4-0.7-0.6-1.2-0.8c-0.4-0.1-0.9-0.1-1.3-0.2
	c-0.2,0-0.5,0-0.7-0.1c-1-0.1-1.8-0.4-2.2-1.5c-0.2-0.6-0.5-1.2-0.9-1.8c-0.3-0.4-0.8-1-1.2-1c-0.4,0.1-0.9,0.6-1.1,1
	c-0.2,0.4-0.4,0.8-0.6,1.2c-0.2,0.4-0.4,0.8-0.6,1.2c-0.2,0.3-0.6,0.6-1,0.7c-0.4,0.1-0.9,0.2-1.3,0.2s-0.9,0.1-1.3,0.2
	c-0.5,0.2-1.1,0.5-1.4,0.9c-0.2,0.2,0.2,0.9,0.6,1.3h0c0.6,0.6,1.1,1.1,1.8,1.7c0.6,0.5,0.8,1,0.6,1.8
	C61.9,135,61.8,135.7,61.7,136.5z M62.5,130.6c2.2,0.1,3.5-0.9,4.1-3c0.6,2.1,1.8,3.2,4.2,3c-1.9,1.3-2.4,2.8-1.6,4.9
	c-1.8-1.4-3.4-1.4-5.1,0C64.8,133.3,64.3,131.8,62.5,130.6z M182.7,131.4c0-6.8,5.6-12.4,12.4-12.4c6.9,0,12.5,5.6,12.5,12.6
	c0,6.7-5.6,12.3-12.4,12.3C188.3,144,182.7,138.4,182.7,131.4z M205.5,131.5c-0.1-5.9-4.8-10.6-10.6-10.4
	c-5.7,0.1-10.3,4.8-10.2,10.3c0.1,5.9,4.7,10.6,10.5,10.5C200.9,141.8,205.6,137.1,205.5,131.5z M190.3,136.5c0,0.2-0.1,0.5-0.1,0.8
	c0,1,0.9,1.4,1.9,0.5c2.1-1.4,4-1.6,6.1,0c0.4,0.3,1.3,0.4,1.5,0.2c0.3-0.2,0.3-1,0.3-1.5c0-0.4-0.1-0.8-0.2-1.1
	c-0.5-1.4-0.2-2.7,1.1-3.6c0.5-0.3,0.8-0.7,1.1-1.1c0.3-0.3,0.6-1,0.5-1.2c-0.2-0.4-0.7-0.6-1.2-0.8c-0.4-0.1-0.9-0.1-1.3-0.2
	c-0.2,0-0.5,0-0.7-0.1c-1-0.1-1.8-0.4-2.2-1.5c-0.2-0.6-0.5-1.2-0.9-1.8c-0.3-0.4-0.8-1-1.2-1c-0.4,0.1-0.9,0.6-1.1,1
	c-0.2,0.4-0.4,0.8-0.6,1.2c-0.2,0.4-0.4,0.8-0.6,1.2c-0.2,0.3-0.6,0.6-1,0.7c-0.4,0.1-0.9,0.2-1.3,0.2s-0.9,0.1-1.3,0.2
	c-0.5,0.2-1.1,0.5-1.4,0.9c-0.2,0.2,0.2,0.9,0.6,1.3c0.6,0.6,1.1,1.1,1.8,1.7c0.6,0.5,0.8,1,0.6,1.8
	C190.5,135,190.4,135.7,190.3,136.5z M191.1,130.6c2.2,0.1,3.5-0.9,4.1-3c0.6,2.1,1.8,3.2,4.2,3c-1.9,1.3-2.4,2.8-1.6,4.9
	c-1.8-1.4-3.4-1.4-5.1,0C193.4,133.3,192.9,131.8,191.1,130.6z"/>
</svg>
