<?xml version="1.0" encoding="utf-8"?>
<!-- Generator: Adobe Illustrator 24.3.0, SVG Export Plug-In . SVG Version: 6.00 Build 0)  -->
<svg version="1.1" id="圖層_1" xmlns="http://www.w3.org/2000/svg" xmlns:xlink="http://www.w3.org/1999/xlink" x="0px" y="0px"
	 viewBox="0 0 262 262" style="enable-background:new 0 0 262 262;" xml:space="preserve">
<style type="text/css">
	.st0{fill-rule:evenodd;clip-rule:evenodd;fill:#D81690;}
	.st1{fill-rule:evenodd;clip-rule:evenodd;fill:url(#SVGID_1_);}
</style>
<path class="st0" d="M128,52.1c-35.3,1.7-62.8,25.7-61.4,53.7c0.1,1.7,0.3,3.4,0.6,5.1c-0.2,0-0.4,0-0.7,0
	c-9.2,0-17.2,5.5-21.4,13.5c-0.6-0.7-1.4-1.2-2.2-1.3c-2.7-0.4-5.5,2.6-6.1,6.8c-0.7,4.2,1,7.9,3.7,8.4c0.5,0.1,1,0,1.5-0.1
	c0.4,13.2,9.7,23.9,21.7,25.4c2.1,27.9,20.1,46.8,67.3,46.8c47.2,0,66.7-19.2,68.1-47c11.5-2.1,20.3-12.9,20.4-25.9
	c1,0.7,2.1,0.9,3.1,0.7c2.7-0.7,4-4.5,3-8.7c-1-4.1-4-6.9-6.7-6.2c-0.9,0.2-1.7,0.8-2.2,1.7c-4.1-8.4-12.3-14.1-21.7-14.1
	c-0.6,0-1.1,0-1.6,0.1c0.9-3.7,1.2-7.4,1-11.3C193,71.7,163.3,50.4,128,52.1z M65,140.9c-1,5.9-1.5,11.7-1.5,17.1
	c-7.3-1.6-12.8-9.9-12.8-19.9C50.6,127,57.5,118,66,118c1.1,0,2.2,0.2,3.3,0.5c0.3,0.7,0.5,1.3,0.8,2
	C67.8,126.9,66.1,133.8,65,140.9z M69.4,140.5c0.8-5.1,1.9-10,3.3-14.6c4.3,11.8,28.8,19.5,57.7,17.4c30-2.2,53.8-14,54.8-26.9
	c3.2,7.4,5.8,15.6,7.7,24.2c8.1,36.7-6.6,64.8-61.7,64.8C75.9,205.3,63.3,177.6,69.4,140.5z M180.8,109.3c-0.1-1.1-0.4-2.2-0.8-3.2
	c-10.7-18.4-26.7-30.3-48.9-30.3c-26.5,0-45.5,16.8-55.5,41.7c1.1,8.1,13.1,14.2,29.9,16.5c-0.5-11.7,8-22.6,20.7-25.6
	c14.2-3.3,28.2,4.6,31.3,17.8c0.2,1,0.4,1.9,0.5,2.9C172.2,124.3,181.4,116.9,180.8,109.3z M131,71.6c26.8,0,45.2,16.3,56.5,40.6
	c0.9-0.3,1.7-0.5,2.6-0.7c-5.3-27.2-31.3-47-61.5-45.6c-28.2,1.4-51,20.9-56.1,45.9c0.3,0.1,0.7,0.2,1,0.3
	C84.5,87.6,104.1,71.6,131,71.6z M196.9,140.9c-1.7-7.7-3.9-15-6.5-21.8c1.6-0.7,3.2-1.1,5-1.1c8.5,0,15.4,9,15.4,20.1
	c0,9.4-5,17.4-11.6,19.5C199,152.4,198.2,146.8,196.9,140.9z M129.7,134.7c-6.6,0.5-12.9,0.4-18.8-0.1c-0.5-7.6,6.4-15.2,16.4-17.6
	c10.8-2.5,21.2,2.1,23.1,10.4c0.3,1.3,0.4,2.6,0.3,3.9C144.3,133,137.2,134.1,129.7,134.7z M110.1,156.5c0,4.1-3.6,7.5-8,7.5
	c-4.4,0-8-3.3-8-7.5c0-4.1,3.6-7.5,8-7.5C106.6,149.1,110.1,152.4,110.1,156.5z M104,155.1c0,1.4-1.2,2.6-2.8,2.6
	c-1.5,0-2.8-1.2-2.8-2.6c0-1.4,1.2-2.6,2.8-2.6C102.8,152.5,104,153.7,104,155.1z M169.1,156.5c0,4.1-3.6,7.5-8,7.5
	c-4.4,0-8-3.3-8-7.5c0-4.1,3.6-7.5,8-7.5C165.5,149.1,169.1,152.4,169.1,156.5z M162.9,155.1c0,1.4-1.2,2.6-2.8,2.6
	s-2.8-1.2-2.8-2.6c0-1.4,1.2-2.6,2.8-2.6S162.9,153.7,162.9,155.1z M139.6,166.3c0,2.7-3.4,5-7.7,5c-4.2,0-7.7-2.2-7.7-5
	c0-2.7,3.4-5,7.7-5C136.2,161.3,139.6,163.5,139.6,166.3z M200.5,136.4c1.4,5.5,2.9,9.9,3.4,9.8c0.5-0.1-0.2-4.7-1.6-10.2
	s-2.9-9.9-3.4-9.8C198.4,126.3,199.1,130.9,200.5,136.4z M148.5,182c0.1,1.1-4.4,4.5-10.7,5.1c-6.3,0.6-11.5,0.1-11.6-1
	c-0.1-0.7,1.7-0.7,4.4-0.8l0,0c1.8,0,3.9-0.1,6.4-0.3c3.6-0.3,6.8-1.6,8.9-2.4l0,0C147.5,181.9,148.5,181.5,148.5,182z M59.9,135.7
	c-1.1,5.4-1.5,9.8-1,9.9c0.5,0.1,1.8-4.2,2.8-9.6c1.1-5.4,1.5-9.8,1-9.9C62.3,126.1,61,130.4,59.9,135.7z"/>
<radialGradient id="SVGID_1_" cx="-10.0245" cy="273.5371" r="1" gradientTransform="matrix(-136.3163 76.3814 91.7763 163.7912 -26272.5762 -43850.6055)" gradientUnits="userSpaceOnUse">
	<stop  offset="0" style="stop-color:#D01E8D"/>
	<stop  offset="1" style="stop-color:#621461"/>
</radialGradient>
<path class="st1" d="M128,52.1c-35.3,1.7-62.8,25.7-61.4,53.7c0.1,1.7,0.3,3.4,0.6,5.1c-0.2,0-0.4,0-0.7,0
	c-9.2,0-17.2,5.5-21.4,13.5c-0.6-0.7-1.4-1.2-2.2-1.3c-2.7-0.4-5.5,2.6-6.1,6.8c-0.7,4.2,1,7.9,3.7,8.4c0.5,0.1,1,0,1.5-0.1
	c0.4,13.2,9.7,23.9,21.7,25.4c2.1,27.9,20.1,46.8,67.3,46.8c47.2,0,66.7-19.2,68.1-47c11.5-2.1,20.3-12.9,20.4-25.9
	c1,0.7,2.1,0.9,3.1,0.7c2.7-0.7,4-4.5,3-8.7c-1-4.1-4-6.9-6.7-6.2c-0.9,0.2-1.7,0.8-2.2,1.7c-4.1-8.4-12.3-14.1-21.7-14.1
	c-0.6,0-1.1,0-1.6,0.1c0.9-3.7,1.2-7.4,1-11.3C193,71.7,163.3,50.4,128,52.1z M65,140.9c-1,5.9-1.5,11.7-1.5,17.1
	c-7.3-1.6-12.8-9.9-12.8-19.9C50.6,127,57.5,118,66,118c1.1,0,2.2,0.2,3.3,0.5c0.3,0.7,0.5,1.3,0.8,2
	C67.8,126.9,66.1,133.8,65,140.9z M69.4,140.5c0.8-5.1,1.9-10,3.3-14.6c4.3,11.8,28.8,19.5,57.7,17.4c30-2.2,53.8-14,54.8-26.9
	c3.2,7.4,5.8,15.6,7.7,24.2c8.1,36.7-6.6,64.8-61.7,64.8C75.9,205.3,63.3,177.6,69.4,140.5z M180.8,109.3c-0.1-1.1-0.4-2.2-0.8-3.2
	c-10.7-18.4-26.7-30.3-48.9-30.3c-26.5,0-45.5,16.8-55.5,41.7c1.1,8.1,13.1,14.2,29.9,16.5c-0.5-11.7,8-22.6,20.7-25.6
	c14.2-3.3,28.2,4.6,31.3,17.8c0.2,1,0.4,1.9,0.5,2.9C172.2,124.3,181.4,116.9,180.8,109.3z M131,71.6c26.8,0,45.2,16.3,56.5,40.6
	c0.9-0.3,1.7-0.5,2.6-0.7c-5.3-27.2-31.3-47-61.5-45.6c-28.2,1.4-51,20.9-56.1,45.9c0.3,0.1,0.7,0.2,1,0.3
	C84.5,87.6,104.1,71.6,131,71.6z M196.9,140.9c-1.7-7.7-3.9-15-6.5-21.8c1.6-0.7,3.2-1.1,5-1.1c8.5,0,15.4,9,15.4,20.1
	c0,9.4-5,17.4-11.6,19.5C199,152.4,198.2,146.8,196.9,140.9z M129.7,134.7c-6.6,0.5-12.9,0.4-18.8-0.1c-0.5-7.6,6.4-15.2,16.4-17.6
	c10.8-2.5,21.2,2.1,23.1,10.4c0.3,1.3,0.4,2.6,0.3,3.9C144.3,133,137.2,134.1,129.7,134.7z M110.1,156.5c0,4.1-3.6,7.5-8,7.5
	c-4.4,0-8-3.3-8-7.5c0-4.1,3.6-7.5,8-7.5C106.6,149.1,110.1,152.4,110.1,156.5z M104,155.1c0,1.4-1.2,2.6-2.8,2.6
	c-1.5,0-2.8-1.2-2.8-2.6c0-1.4,1.2-2.6,2.8-2.6C102.8,152.5,104,153.7,104,155.1z M169.1,156.5c0,4.1-3.6,7.5-8,7.5
	c-4.4,0-8-3.3-8-7.5c0-4.1,3.6-7.5,8-7.5C165.5,149.1,169.1,152.4,169.1,156.5z M162.9,155.1c0,1.4-1.2,2.6-2.8,2.6
	s-2.8-1.2-2.8-2.6c0-1.4,1.2-2.6,2.8-2.6S162.9,153.7,162.9,155.1z M139.6,166.3c0,2.7-3.4,5-7.7,5c-4.2,0-7.7-2.2-7.7-5
	c0-2.7,3.4-5,7.7-5C136.2,161.3,139.6,163.5,139.6,166.3z M200.5,136.4c1.4,5.5,2.9,9.9,3.4,9.8c0.5-0.1-0.2-4.7-1.6-10.2
	s-2.9-9.9-3.4-9.8C198.4,126.3,199.1,130.9,200.5,136.4z M148.5,182c0.1,1.1-4.4,4.5-10.7,5.1c-6.3,0.6-11.5,0.1-11.6-1
	c-0.1-0.7,1.7-0.7,4.4-0.8l0,0c1.8,0,3.9-0.1,6.4-0.3c3.6-0.3,6.8-1.6,8.9-2.4l0,0C147.5,181.9,148.5,181.5,148.5,182z M59.9,135.7
	c-1.1,5.4-1.5,9.8-1,9.9c0.5,0.1,1.8-4.2,2.8-9.6c1.1-5.4,1.5-9.8,1-9.9C62.3,126.1,61,130.4,59.9,135.7z"/>
</svg>
