<?xml version="1.0" encoding="utf-8"?>
<!-- Generator: Adobe Illustrator 24.3.0, SVG Export Plug-In . SVG Version: 6.00 Build 0)  -->
<svg version="1.1" id="圖層_1" xmlns="http://www.w3.org/2000/svg" xmlns:xlink="http://www.w3.org/1999/xlink" x="0px" y="0px"
	 viewBox="0 0 262 262" style="enable-background:new 0 0 262 262;" xml:space="preserve">
<style type="text/css">
	.st0{fill:#D81690;}
	.st1{fill:url(#SVGID_1_);}
</style>
<path class="st0" d="M69.6,111.9c-0.2-9.7,0.5-19.5,0.6-29.3c0.1-5,3.2-8.1,6.5-10.9c9.6-8.1,21.1-11.8,33.1-13.8
	c21.2-3.5,42-2.4,62,6.3c3.2,1.4,6.2,3.2,9,5.1c6.2,4.3,10.2,9.6,9.8,18c-0.5,9.9,0,19.8,0.9,29.7c0.2,2.9,8.7,19.1,7.6,21.5
	c-1.7,3.8-3.5,7.5-5.2,11.3c-0.6,1.5-1.6,3-1.6,4.5c0,7.4,0.2,14.8,0.4,22.2c0.2,6.4-2.2,10.9-8.1,13.5c-0.2,0.1-0.2,0.2-0.4,0.2
	c-33.4,16.8-34.2,17-71.8,14.7c-4.6-0.3-9.3-1.8-13.5-3.6c-7.9-3.5-15.6-7.6-23.3-11.4c-5.4-2.6-7.9-6.9-7.7-12.9
	c0.2-7.4,0.5-14.8,0.4-22.2c0-1.9-1.3-3.9-2.2-5.8c-1.4-2.9-3.8-5.8-4.1-8.7C61.5,135.7,69.7,117.5,69.6,111.9z M182.9,151.3
	c-0.5-0.1-1.1-0.2-1.5-0.3c-2.2,1.8-4.5,3.4-6.5,5.4c-2.8,2.8-5.4,3.3-9.2,2.2c-10.4-3.2-20.8-6-31.3-8.6c-2.4-0.6-5.3-0.6-7.7,0
	c-11.1,2.8-22.1,6.1-33.2,8.8c-1.8,0.4-4.2-0.2-5.8-1.2c-3-1.9-5.6-4.5-8.3-6.7c-0.5,0.1-0.9,0.2-1.4,0.3c0,9.1-0.1,18.1,0.2,27.2
	c0,1.1,1.8,2.4,3,3.1c7.5,3.9,15.1,7.9,22.8,11.3c3.3,1.5,7.2,2.3,10.9,2.5c10.4,0.3,20.7,0.3,31.2,0c3.6-0.1,7.5-0.9,10.9-2.4
	c7.9-3.5,15.6-7.5,23.2-11.5c1.2-0.6,2.8-2.1,2.8-3.2C183.1,169.1,182.9,160.2,182.9,151.3z M89.2,118.3v17.3
	c10.4,2.3,20.7,4.5,30.9,6.6c1.1-2.3,2-4.1,3.1-6.2C112.1,130.3,101.1,124.5,89.2,118.3z M171.5,135.6v-17.3
	c-11.7,6.2-22.8,11.9-33.9,17.7c1.3,2.4,2.3,4.3,3.3,6.2C151.5,140,161.6,137.7,171.5,135.6z"/>
<radialGradient id="SVGID_1_" cx="-10.0177" cy="273.5495" r="1" gradientTransform="matrix(-98.9166 72.3668 97.1675 132.8161 -27391.8242 -35423.2383)" gradientUnits="userSpaceOnUse">
	<stop  offset="0" style="stop-color:#D01E8D"/>
	<stop  offset="1" style="stop-color:#621461"/>
</radialGradient>
<path class="st1" d="M69.6,111.9c-0.2-9.7,0.5-19.5,0.6-29.3c0.1-5,3.2-8.1,6.5-10.9c9.6-8.1,21.1-11.8,33.1-13.8
	c21.2-3.5,42-2.4,62,6.3c3.2,1.4,6.2,3.2,9,5.1c6.2,4.3,10.2,9.6,9.8,18c-0.5,9.9,0,19.8,0.9,29.7c0.2,2.9,8.7,19.1,7.6,21.5
	c-1.7,3.8-3.5,7.5-5.2,11.3c-0.6,1.5-1.6,3-1.6,4.5c0,7.4,0.2,14.8,0.4,22.2c0.2,6.4-2.2,10.9-8.1,13.5c-0.2,0.1-0.2,0.2-0.4,0.2
	c-33.4,16.8-34.2,17-71.8,14.7c-4.6-0.3-9.3-1.8-13.5-3.6c-7.9-3.5-15.6-7.6-23.3-11.4c-5.4-2.6-7.9-6.9-7.7-12.9
	c0.2-7.4,0.5-14.8,0.4-22.2c0-1.9-1.3-3.9-2.2-5.8c-1.4-2.9-3.8-5.8-4.1-8.7C61.5,135.7,69.7,117.5,69.6,111.9z M182.9,151.3
	c-0.5-0.1-1.1-0.2-1.5-0.3c-2.2,1.8-4.5,3.4-6.5,5.4c-2.8,2.8-5.4,3.3-9.2,2.2c-10.4-3.2-20.8-6-31.3-8.6c-2.4-0.6-5.3-0.6-7.7,0
	c-11.1,2.8-22.1,6.1-33.2,8.8c-1.8,0.4-4.2-0.2-5.8-1.2c-3-1.9-5.6-4.5-8.3-6.7c-0.5,0.1-0.9,0.2-1.4,0.3c0,9.1-0.1,18.1,0.2,27.2
	c0,1.1,1.8,2.4,3,3.1c7.5,3.9,15.1,7.9,22.8,11.3c3.3,1.5,7.2,2.3,10.9,2.5c10.4,0.3,20.7,0.3,31.2,0c3.6-0.1,7.5-0.9,10.9-2.4
	c7.9-3.5,15.6-7.5,23.2-11.5c1.2-0.6,2.8-2.1,2.8-3.2C183.1,169.1,182.9,160.2,182.9,151.3z M89.2,118.3v17.3
	c10.4,2.3,20.7,4.5,30.9,6.6c1.1-2.3,2-4.1,3.1-6.2C112.1,130.3,101.1,124.5,89.2,118.3z M171.5,135.6v-17.3
	c-11.7,6.2-22.8,11.9-33.9,17.7c1.3,2.4,2.3,4.3,3.3,6.2C151.5,140,161.6,137.7,171.5,135.6z"/>
</svg>
