<?xml version="1.0" encoding="utf-8"?>
<!-- Generator: Adobe Illustrator 24.3.0, SVG Export Plug-In . SVG Version: 6.00 Build 0)  -->
<svg version="1.1" id="圖層_1" xmlns="http://www.w3.org/2000/svg" xmlns:xlink="http://www.w3.org/1999/xlink" x="0px" y="0px"
	 viewBox="0 0 262 262" style="enable-background:new 0 0 262 262;" xml:space="preserve">
<style type="text/css">
	.st0{clip-path:url(#SVGID_2_);}
	.st1{fill:#D81690;}
	.st2{fill:url(#SVGID_3_);}
	.st3{fill:url(#SVGID_4_);}
	.st4{fill:#FFFFFF;}
	.st5{fill:url(#SVGID_5_);}
	.st6{fill:url(#SVGID_6_);}
	.st7{fill:url(#SVGID_7_);}
	.st8{fill:url(#SVGID_8_);}
	.st9{fill:url(#SVGID_9_);}
	.st10{fill:url(#SVGID_10_);}
	.st11{fill:url(#SVGID_11_);}
</style>
<g>
	<defs>
		
			<rect id="SVGID_1_" x="47.1" y="52.6" transform="matrix(0.8117 -0.5841 0.5841 0.8117 -44.953 95.8027)" width="158" height="130"/>
	</defs>
	<clipPath id="SVGID_2_">
		<use xlink:href="#SVGID_1_"  style="overflow:visible;"/>
	</clipPath>
	<g class="st0">
		<path class="st1" d="M206.6,139.7c-1.2,0.5-2.4,1.1-3.7,1.5c-9.1,2.9-17.4,1.3-24.3-5.3c-6.8-6.5-8.7-14.6-6.4-23.7
			c0.1-0.3,0.2-0.6,0.4-1c2.6,1.5,5.2,2.9,7.9,4.4c-0.6,3.3-0.3,6.5,1.1,9.5c3.3,7.3,12.2,10.6,19.7,7.3c7.3-3.3,10.7-12.3,7.3-19.6
			c-4.2-9-15.5-11.6-23.2-5.4c-0.3,0.3-1.1,0.5-1.4,0.3c-2.4-1.3-4.7-2.6-7.2-4c3.9-4.5,8.5-7.3,14.2-8.2c8.7-1.3,16,1.3,21.9,7.9
			c0.3,0.3,0.7,0.6,1,0.9l0.7,1c0.2,0.5,0.4,0.9,0.7,1.4c5.2,8.8,4.4,19.5-2.1,27.3c-0.7,0.9-1.6,1.8-2.3,2.6L206.6,139.7z"/>
		
			<radialGradient id="SVGID_3_" cx="-9.8574" cy="273.7045" r="1" gradientTransform="matrix(-14.3934 38.5707 50.2349 18.7461 -13672.9922 -4628.1743)" gradientUnits="userSpaceOnUse">
			<stop  offset="0" style="stop-color:#D01E8D"/>
			<stop  offset="1" style="stop-color:#621461"/>
		</radialGradient>
		<path class="st2" d="M206.6,139.7c-1.2,0.5-2.4,1.1-3.7,1.5c-9.1,2.9-17.4,1.3-24.3-5.3c-6.8-6.5-8.7-14.6-6.4-23.7
			c0.1-0.3,0.2-0.6,0.4-1c2.6,1.5,5.2,2.9,7.9,4.4c-0.6,3.3-0.3,6.5,1.1,9.5c3.3,7.3,12.2,10.6,19.7,7.3c7.3-3.3,10.7-12.3,7.3-19.6
			c-4.2-9-15.5-11.6-23.2-5.4c-0.3,0.3-1.1,0.5-1.4,0.3c-2.4-1.3-4.7-2.6-7.2-4c3.9-4.5,8.5-7.3,14.2-8.2c8.7-1.3,16,1.3,21.9,7.9
			c0.3,0.3,0.7,0.6,1,0.9l0.7,1c0.2,0.5,0.4,0.9,0.7,1.4c5.2,8.8,4.4,19.5-2.1,27.3c-0.7,0.9-1.6,1.8-2.3,2.6L206.6,139.7z"/>
		<path class="st1" d="M116.9,204.3c-1.1,0.4-2.1,0.9-3.3,1.3c-11.8,4.4-24.7-1-30-12.6c-5-10.9-0.6-24.3,10.1-30.3
			c8.7-4.9,19.8-3.7,27.2,2.9c0.1,0.1,0.3,0.3,0.5,0.6c-2.3,1.7-4.6,3.4-6.9,4.9c-0.3,0.2-1.1-0.2-1.6-0.5c-5.4-3-10.8-3-15.9,0.4
			c-4.9,3.2-7.1,8-6.5,13.9c0.8,8.5,8.7,14.5,17.2,13.1c8.3-1.3,13.9-9.5,12-17.7c-0.3-1.3,0-1.9,1-2.6c2-1.3,3.9-2.7,5.9-4.2
			c0.3,0.8,0.7,1.4,0.9,2c2.9,9.4,1.1,17.7-5.7,24.8c-0.2,0.2-0.3,0.5-0.5,0.7L116.9,204.3z"/>
		
			<radialGradient id="SVGID_4_" cx="-9.8541" cy="273.7049" r="1" gradientTransform="matrix(-14.0288 38.3004 50.1287 18.3614 -13730.4443 -4460.7764)" gradientUnits="userSpaceOnUse">
			<stop  offset="0" style="stop-color:#D01E8D"/>
			<stop  offset="1" style="stop-color:#621461"/>
		</radialGradient>
		<path class="st3" d="M116.9,204.3c-1.1,0.4-2.1,0.9-3.3,1.3c-11.8,4.4-24.7-1-30-12.6c-5-10.9-0.6-24.3,10.1-30.3
			c8.7-4.9,19.8-3.7,27.2,2.9c0.1,0.1,0.3,0.3,0.5,0.6c-2.3,1.7-4.6,3.4-6.9,4.9c-0.3,0.2-1.1-0.2-1.6-0.5c-5.4-3-10.8-3-15.9,0.4
			c-4.9,3.2-7.1,8-6.5,13.9c0.8,8.5,8.7,14.5,17.2,13.1c8.3-1.3,13.9-9.5,12-17.7c-0.3-1.3,0-1.9,1-2.6c2-1.3,3.9-2.7,5.9-4.2
			c0.3,0.8,0.7,1.4,0.9,2c2.9,9.4,1.1,17.7-5.7,24.8c-0.2,0.2-0.3,0.5-0.5,0.7L116.9,204.3z"/>
		<path class="st4" d="M210.9,136.7c0.8-0.9,1.6-1.7,2.3-2.6c6.4-7.8,7.2-18.5,2.1-27.3c-0.2-0.4-0.5-0.9-0.7-1.4l13.6,18.8
			L210.9,136.7L210.9,136.7z"/>
		<path class="st1" d="M121.5,115c-0.9-3.2-0.9-3.2,1.6-5c6.9-5,13.9-10,20.8-15l1.7-1.2c-2.9-1.6-5.4-3-8.1-4.5
			c-0.4,0.4-0.8,0.8-1.2,1.2c-1-1.1-2-2.1-3.1-3.3c0.6-0.7,1.3-1.7,2.1-2.5c1-1,2.1-0.7,3.2,0c5.3,3,10.7,6,16,9
			c14.1,7.9,28.1,15.8,42.1,23.7c0.4,0.2,0.7,0.4,1.2,0.8c-0.7,1.3-1.4,2.6-2.2,3.9c-10.6-6-21.2-11.9-31.8-17.9
			c0,0.4-0.1,0.6,0,0.7c1.1,2.5-0.2,3.8-2.1,5.2c-6,4.1-11.9,8.5-17.8,12.8c-0.7,0.5-1.6,0.9-0.3,1.9l21-15.1
			c0.7,1.3,0.7,2.2-0.6,3.1c-3.8,2.6-7.5,5.4-11.3,8.1c-0.3,0.2-0.6,0.3-0.8,0.5c-0.4,0.5-0.6,1-0.9,1.4c0.6-0.1,1.2-0.1,1.6-0.4
			c3.8-2.7,7.5-5.4,11.3-8.1l1.5-1.1c0.2,0.7,0.3,1.2,0.4,1.7c1.5,7.6,2.9,15.2,4.4,22.8c0.2,1.1,0,1.8-0.9,2.4
			c-19.8,14.2-39.6,28.4-59.3,42.6c-0.4,0.3-0.8,0.5-1.2,0.8l-2.5-3.5l20-14.4c-2.2-1.8-4.1-3.6-6.3-5.1c-14.4-9.4-33.9-3.1-40,12.9
			c-1,2.8-3,4.1-5.2,5.6l-3.3-4.6c0.8-0.6,1.5-1.2,2.4-1.7c1.2-0.7,1.6-1.6,1.5-3c-0.3-3.4-0.4-6.9-0.6-10.3c-0.1-0.9,0.2-1.5,1-2
			c7.5-5.4,15-10.8,22.6-16.2c0.7-0.5,1.5-0.7,2.2-1c5.1-1.9,10.1-3.7,15.2-5.6c0.5-0.2,1-0.4,1.7-0.5c0.1,0.6,0.2,1.1,0.3,1.6
			c1.3,6.8,2.5,13.6,3.8,20.3c0.7,3.5,3.4,6,6.8,6.5c3.3,0.5,6.7-1.1,8.3-4.1c1-1.7,1.3-3.6,0.9-5.5c-1.9-10.4-3.8-20.9-5.7-31.3
			C130.9,116.8,127.1,114.4,121.5,115z"/>
		
			<radialGradient id="SVGID_5_" cx="-9.9792" cy="273.6293" r="1" gradientTransform="matrix(-60.8427 82.7819 68.3646 50.2464 -19136.4805 -12799.5498)" gradientUnits="userSpaceOnUse">
			<stop  offset="0" style="stop-color:#D01E8D"/>
			<stop  offset="1" style="stop-color:#621461"/>
		</radialGradient>
		<path class="st5" d="M121.5,115c-0.9-3.2-0.9-3.2,1.6-5c6.9-5,13.9-10,20.8-15l1.7-1.2c-2.9-1.6-5.4-3-8.1-4.5
			c-0.4,0.4-0.8,0.8-1.2,1.2c-1-1.1-2-2.1-3.1-3.3c0.6-0.7,1.3-1.7,2.1-2.5c1-1,2.1-0.7,3.2,0c5.3,3,10.7,6,16,9
			c14.1,7.9,28.1,15.8,42.1,23.7c0.4,0.2,0.7,0.4,1.2,0.8c-0.7,1.3-1.4,2.6-2.2,3.9c-10.6-6-21.2-11.9-31.8-17.9
			c0,0.4-0.1,0.6,0,0.7c1.1,2.5-0.2,3.8-2.1,5.2c-6,4.1-11.9,8.5-17.8,12.8c-0.7,0.5-1.6,0.9-0.3,1.9l21-15.1
			c0.7,1.3,0.7,2.2-0.6,3.1c-3.8,2.6-7.5,5.4-11.3,8.1c-0.3,0.2-0.6,0.3-0.8,0.5c-0.4,0.5-0.6,1-0.9,1.4c0.6-0.1,1.2-0.1,1.6-0.4
			c3.8-2.7,7.5-5.4,11.3-8.1l1.5-1.1c0.2,0.7,0.3,1.2,0.4,1.7c1.5,7.6,2.9,15.2,4.4,22.8c0.2,1.1,0,1.8-0.9,2.4
			c-19.8,14.2-39.6,28.4-59.3,42.6c-0.4,0.3-0.8,0.5-1.2,0.8l-2.5-3.5l20-14.4c-2.2-1.8-4.1-3.6-6.3-5.1c-14.4-9.4-33.9-3.1-40,12.9
			c-1,2.8-3,4.1-5.2,5.6l-3.3-4.6c0.8-0.6,1.5-1.2,2.4-1.7c1.2-0.7,1.6-1.6,1.5-3c-0.3-3.4-0.4-6.9-0.6-10.3c-0.1-0.9,0.2-1.5,1-2
			c7.5-5.4,15-10.8,22.6-16.2c0.7-0.5,1.5-0.7,2.2-1c5.1-1.9,10.1-3.7,15.2-5.6c0.5-0.2,1-0.4,1.7-0.5c0.1,0.6,0.2,1.1,0.3,1.6
			c1.3,6.8,2.5,13.6,3.8,20.3c0.7,3.5,3.4,6,6.8,6.5c3.3,0.5,6.7-1.1,8.3-4.1c1-1.7,1.3-3.6,0.9-5.5c-1.9-10.4-3.8-20.9-5.7-31.3
			C130.9,116.8,127.1,114.4,121.5,115z"/>
		<path class="st1" d="M93.4,97.2c-1.6,0.5-3,0.8-4.4,1.3c-3.2,0.9-4.8,3.8-3.9,6.8c0.8,2.9,3.7,4.5,6.8,3.7
			c1.7-0.4,3.4-0.9,5.3-1.4c0.6,3,1,5.9,1.6,8.8c0.6,2.8,1.4,5.5,2.1,8.5c4.8-1.8,9.3-3.4,13.9-5.1c2.2-0.8,4.4-1.7,6.7-2.5
			c3.9-1.4,7.7,0.7,8.4,4.8c1.9,10.4,3.8,20.7,5.7,31.1c0.7,3.6-1.5,6.8-4.9,7.4c-3.5,0.6-6.6-1.6-7.3-5.3
			c-1.4-7.4-2.7-14.9-4.1-22.3c-0.1-0.5-0.2-1-0.4-1.6c-4.9,1.8-9.8,3.6-14.6,5.4c-2.2,0.8-4.4,1.7-6.7,2.3
			c-5.1,1.4-9.1-0.2-11.6-4.9c-4.8-8.7-7.1-18-6.9-27.9c0.1-4.8,2.1-8.7,6.7-10.8C88.7,94.2,91.4,94.8,93.4,97.2z"/>
		
			<radialGradient id="SVGID_6_" cx="-9.8107" cy="273.619" r="1" gradientTransform="matrix(-2.9106 49.549 68.3315 4.0139 -18588.2109 -470.2393)" gradientUnits="userSpaceOnUse">
			<stop  offset="0" style="stop-color:#D01E8D"/>
			<stop  offset="1" style="stop-color:#621461"/>
		</radialGradient>
		<path class="st6" d="M93.4,97.2c-1.6,0.5-3,0.8-4.4,1.3c-3.2,0.9-4.8,3.8-3.9,6.8c0.8,2.9,3.7,4.5,6.8,3.7
			c1.7-0.4,3.4-0.9,5.3-1.4c0.6,3,1,5.9,1.6,8.8c0.6,2.8,1.4,5.5,2.1,8.5c4.8-1.8,9.3-3.4,13.9-5.1c2.2-0.8,4.4-1.7,6.7-2.5
			c3.9-1.4,7.7,0.7,8.4,4.8c1.9,10.4,3.8,20.7,5.7,31.1c0.7,3.6-1.5,6.8-4.9,7.4c-3.5,0.6-6.6-1.6-7.3-5.3
			c-1.4-7.4-2.7-14.9-4.1-22.3c-0.1-0.5-0.2-1-0.4-1.6c-4.9,1.8-9.8,3.6-14.6,5.4c-2.2,0.8-4.4,1.7-6.7,2.3
			c-5.1,1.4-9.1-0.2-11.6-4.9c-4.8-8.7-7.1-18-6.9-27.9c0.1-4.8,2.1-8.7,6.7-10.8C88.7,94.2,91.4,94.8,93.4,97.2z"/>
		<path class="st1" d="M104,67.1L94,74.2c1.4,1.9,2.6,3.7,4,5.4c0.2,0.3,0.9,0.4,1.3,0.4c2.4-0.1,4.7-0.3,7.2-0.5
			c0.8,2.2,1.7,4.4,2.6,6.7c-2,0.2-3.9,0.4-5.8,0.6c-6.6,0.6-13.1,1.2-19.7,1.9c-1.2,0.1-1.9-0.2-2.5-1.2c-1.1-2-2.4-4-3.4-6.1
			c-1.6-3.5-1.1-6.8,1.6-9.7C85.3,65.2,94,63.2,104,67.1z"/>
		
			<radialGradient id="SVGID_7_" cx="-9.7821" cy="273.8477" r="1" gradientTransform="matrix(-9.4713 24.435 31.4831 12.2033 -8605.6152 -3021.6489)" gradientUnits="userSpaceOnUse">
			<stop  offset="0" style="stop-color:#D01E8D"/>
			<stop  offset="1" style="stop-color:#621461"/>
		</radialGradient>
		<path class="st7" d="M104,67.1L94,74.2c1.4,1.9,2.6,3.7,4,5.4c0.2,0.3,0.9,0.4,1.3,0.4c2.4-0.1,4.7-0.3,7.2-0.5
			c0.8,2.2,1.7,4.4,2.6,6.7c-2,0.2-3.9,0.4-5.8,0.6c-6.6,0.6-13.1,1.2-19.7,1.9c-1.2,0.1-1.9-0.2-2.5-1.2c-1.1-2-2.4-4-3.4-6.1
			c-1.6-3.5-1.1-6.8,1.6-9.7C85.3,65.2,94,63.2,104,67.1z"/>
		<path class="st1" d="M134.1,90.1c1.7,2.4,0.6,5.4-2.4,6.3c-7,2-14,3.9-21,5.8c-6.4,1.8-12.9,3.6-19.3,5.3
			c-1.9,0.5-3.6-0.2-4.5-1.7c-0.9-1.5-0.8-3.4,0.5-4.7c0.6-0.6,1.3-1,2.1-1.2c13.4-3.7,26.7-7.4,40.1-11.1
			C131.6,88.2,133.1,88.7,134.1,90.1z"/>
		
			<radialGradient id="SVGID_8_" cx="-9.9429" cy="273.945" r="1" gradientTransform="matrix(-21.4309 28.7833 23.3621 17.3946 -6484.1738 -4384.2705)" gradientUnits="userSpaceOnUse">
			<stop  offset="0" style="stop-color:#D01E8D"/>
			<stop  offset="1" style="stop-color:#621461"/>
		</radialGradient>
		<path class="st8" d="M134.1,90.1c1.7,2.4,0.6,5.4-2.4,6.3c-7,2-14,3.9-21,5.8c-6.4,1.8-12.9,3.6-19.3,5.3
			c-1.9,0.5-3.6-0.2-4.5-1.7c-0.9-1.5-0.8-3.4,0.5-4.7c0.6-0.6,1.3-1,2.1-1.2c13.4-3.7,26.7-7.4,40.1-11.1
			C131.6,88.2,133.1,88.7,134.1,90.1z"/>
		<path class="st1" d="M163.7,82.7c0.8,1.8,1.7,3.5,2.3,5.3c0.7,2,0.1,3-1.9,3.9c-3.5,1.6-7.5,0.4-9.7-3c-2-3.1-1.5-7.2,1.3-9.8
			c1.1-1.1,2.3-1.2,3.5-0.4C160.8,79.9,162.2,81.4,163.7,82.7z"/>
		
			<radialGradient id="SVGID_9_" cx="-9.2899" cy="274.226" r="1" gradientTransform="matrix(-2.1814 10.7973 15.168 3.0645 -4014.1333 -651.9132)" gradientUnits="userSpaceOnUse">
			<stop  offset="0" style="stop-color:#D01E8D"/>
			<stop  offset="1" style="stop-color:#621461"/>
		</radialGradient>
		<path class="st9" d="M163.7,82.7c0.8,1.8,1.7,3.5,2.3,5.3c0.7,2,0.1,3-1.9,3.9c-3.5,1.6-7.5,0.4-9.7-3c-2-3.1-1.5-7.2,1.3-9.8
			c1.1-1.1,2.3-1.2,3.5-0.4C160.8,79.9,162.2,81.4,163.7,82.7z"/>
		<path class="st1" d="M103.5,78.6c-1.4,0.1-2.7,0.2-4,0.3c-0.3,0-0.8-0.2-1-0.5c-1-1.2-1.9-2.6-2.9-3.9l4-2.9
			C101.8,73.4,103,75.8,103.5,78.6z"/>
		
			<radialGradient id="SVGID_10_" cx="-8.4749" cy="274.9737" r="1" gradientTransform="matrix(-0.8777 5.3332 7.5135 1.2366 -1970.1978 -217.4738)" gradientUnits="userSpaceOnUse">
			<stop  offset="0" style="stop-color:#D01E8D"/>
			<stop  offset="1" style="stop-color:#621461"/>
		</radialGradient>
		<path class="st10" d="M103.5,78.6c-1.4,0.1-2.7,0.2-4,0.3c-0.3,0-0.8-0.2-1-0.5c-1-1.2-1.9-2.6-2.9-3.9l4-2.9
			C101.8,73.4,103,75.8,103.5,78.6z"/>
		<path class="st1" d="M86,89.6c4.8-0.5,9.5-0.9,14.3-1.4C96.6,92.3,89.9,92.9,86,89.6z"/>
		
			<radialGradient id="SVGID_11_" cx="-9.6794" cy="274.9291" r="1" gradientTransform="matrix(-5.1691 8.1606 7.9597 5.0419 -2140.0996 -1218.5635)" gradientUnits="userSpaceOnUse">
			<stop  offset="0" style="stop-color:#D01E8D"/>
			<stop  offset="1" style="stop-color:#621461"/>
		</radialGradient>
		<path class="st11" d="M86,89.6c4.8-0.5,9.5-0.9,14.3-1.4C96.6,92.3,89.9,92.9,86,89.6z"/>
	</g>
</g>
</svg>
