<?xml version="1.0" encoding="utf-8"?>
<!-- Generator: Adobe Illustrator 24.3.0, SVG Export Plug-In . SVG Version: 6.00 Build 0)  -->
<svg version="1.1" id="圖層_1" xmlns="http://www.w3.org/2000/svg" xmlns:xlink="http://www.w3.org/1999/xlink" x="0px" y="0px"
	 viewBox="0 0 262 262" style="enable-background:new 0 0 262 262;" xml:space="preserve">
<style type="text/css">
	.st0{clip-path:url(#SVGID_2_);}
	.st1{fill:#D81690;}
	.st2{fill:url(#SVGID_3_);}
	.st3{fill:url(#SVGID_4_);}
	.st4{fill:url(#SVGID_5_);}
	.st5{fill:#FFFFFF;}
	.st6{fill:url(#SVGID_6_);}
	.st7{fill:url(#SVGID_7_);}
</style>
<g>
	<defs>
		<rect id="SVGID_1_" x="59.7" y="60" transform="matrix(0.9014 -0.433 0.433 0.9014 -43.8302 69.526)" width="142" height="142"/>
	</defs>
	<clipPath id="SVGID_2_">
		<use xlink:href="#SVGID_1_"  style="overflow:visible;"/>
	</clipPath>
	<g class="st0">
		<path class="st1" d="M93.7,144.5c-3.9,0.7-7.4,0.2-10.3-2.5c-2.6-2.4-3.6-5.5-2.4-8.9c3-8.7,5.7-17.5,9.2-26
			c1.7-4.1,4.7-7.7,7.1-11.5c1.2-1.9,2.6-3.8,3.4-5.9c2.8-7.6,5.4-15.3,8.1-23c2.1-6.1,6.3-8.1,12.5-6.5c0.9,0.2,2.5-0.2,3-0.9
			c14.1-16.5,37.6-15.9,50.5,1.3c3.9,5.2,5.9,11.3,5.9,17.9c0,1.9,0.3,2.9,2.3,3.6c5.1,1.9,7.1,6.5,5.3,11.8
			c-2.9,8.4-5.9,16.8-8.8,25.2c-0.5,1.3-0.7,2.8-0.6,4.2c0.4,5.9-0.3,11.6-2.3,17.1c-2.4,6.9-4.8,13.9-7.3,20.8
			c-2.9,8.4-10.5,10.1-16.9,3.9c-0.3-0.3-0.7-0.6-1.2-1.1c-0.7,2.1-1.2,4-1.9,6.2c6.1,3.9,12.9,4.8,19.7,1.9c4.9-2.1,9.5-5,13.8-8.3
			c7.8-5.9,15.8-11.1,25.6-12.9c2.7-0.5,5.5-0.3,8.4-0.3c0.5,0,1,0.9,1.5,1.4c-0.6,0.3-1.2,1-1.8,1c-12.4-0.8-22.1,5-31.3,12.3
			c-4.7,3.8-9.5,7.4-15.2,9.3c-7.3,2.4-10.6,2.1-21.8-1.6c-0.4,0.9-0.7,1.9-1.1,2.9c-3.1,8.9-6.2,17.9-9.4,26.8
			c-1.6,4.5-4.9,7.1-9.5,7.9c-4.6,0.8-8.4-0.9-11.2-4.6c-2.6-3.4-3-7.2-1.6-11.3c2.4-6.9,4.9-13.9,7.2-20.8c0.6-1.7,1-3.5,1.1-5.4
			c0.1-3.1-1.5-5.1-4.5-5.9c-2.8-0.8-5,0-6.5,2.4c-0.8,1.2-1.4,2.5-1.9,3.9c-2.5,6.9-4.9,13.9-7.3,20.8c-2.6,7.2-8.9,10.6-15.5,8.3
			c-6.4-2.3-9.4-9.1-6.9-16.1c3.9-11.3,7.9-22.6,11.9-33.9c0.3-1,1.2-1.8,1.8-2.7C94.3,144.9,94,144.7,93.7,144.5z M85.8,175.2
			c6.2,2.1,11.8,4,18.4,6.2c0.1-0.7,0.1-1.9,0.4-2.9c1.6-4.6,3-9.2,5-13.6c2.1-4.6,6.2-6.2,10.5-4.9c4.4,1.4,6.7,4.9,5.9,10
			c-0.5,3-1.6,5.9-2.6,8.9c-0.9,2.9-2,5.8-2.9,8.2c6.1,2.1,11.7,4.1,17.7,6.2c1.9-5.5,3.7-11.3,5.9-17c1.4-3.5,2.1-6.5-1.9-8.7
			c-0.9-0.5-1.5-1.5-2.1-2.4c-1-1.3-2-1.9-3.9-1.8c-3.4,0.2-6.2-2.2-6.8-5.5c-0.6-3.3,0.8-6.3,3.6-7.8c2.8-1.5,6.2-0.9,8.5,1.5
			c2.2,2.3,2.4,5.7,0.8,8.6c-0.5,0.8-0.9,2.3-0.5,2.9c1.3,1.8,3.1,3.3,5.1,5.4c1.8-5.2,3.3-9.6,4.9-14.1c3.7-10.5,7.3-21,11.1-31.5
			c0.3-0.8,1.3-1.3,2-2c0.1,0.9,0.5,1.9,0.3,2.8c-0.7,2.6-1.7,5.1-2.6,7.7c-1.6,4.7-3.3,9.4-4.8,13.5c4.5,1.6,8.6,3.1,12.8,4.6
			c7.9-18.1,7.6-36.5-0.8-43.2c-1.9,7.4-7.4,9.6-14.1,10.1c-0.8,0-1.7-0.7-2.5-1.1c0.7-0.5,1.4-1.1,2.2-1.3c2.7-0.8,5.4-1.4,7.9-2.4
			c1.9-0.8,3.2-2.4,3.4-5.1c-9.8,5.7-19.6,5.3-29.6,1.4c-10-3.9-17.2-10.5-19.7-21.5c-6,1.3-10.9,4.1-15.3,7.8
			c-8.4,7-10.9,17.1-14,26.2c4.3,1.5,8.6,3,13,4.5c2.2-6.5,4.6-13.3,7-20.1c0.3-0.7,0.4-1.6,0.9-2.1c0.3-0.4,1.1-0.6,1.6-0.8
			c0.2,0.6,0.6,1.2,0.5,1.7c-0.1,0.8-0.4,1.5-0.7,2.2c-5.3,15.1-10.6,30.3-15.9,45.4C91.5,159.3,88.6,167.3,85.8,175.2z M136.1,52.9
			c-15.8,7.7-19.9,28.4-14.2,39.7c6.6,13.1,27.6,19.9,40.6,13.3c13.6-6.9,19.7-26,12.7-39.8C168,51.6,150.2,45.7,136.1,52.9z
			 M121.4,63.3c-4.5-2.1-8.3-1.1-9.7,2.7c-2.9,7.6-5.4,15.3-8,22.9c0,0.1,0.2,0.3,0.2,0.2c4-1.6,7.9-3.2,11.7-4.9
			c0.6-0.3,1.3-1.2,1.2-1.9C116.8,75.7,118.5,69.4,121.4,63.3z M177.9,115.4c2.7-7.8,5.5-15.3,8-22.9c1.4-4.3-0.7-7.4-5-8.3
			c-1.2,3.2-2.2,6.4-3.8,9.3c-1.6,3-3.6,5.6-5.5,8.5c-0.3,0.4-0.4,1.3-0.1,1.8C173.6,107.6,175.7,111.3,177.9,115.4z M82.9,185.2
			c-1.2,4.3,1.2,8.6,5.8,10.2c4.5,1.6,9.2-0.3,10.9-4.4C94.1,189.1,88.5,187.2,82.9,185.2z M134.4,203c-5.7-2.3-11.3-4.5-17-6.8
			c-0.8,5.9,1.5,9.9,5.8,11.4C127.6,209.1,131.7,207.5,134.4,203z M96.8,136.2c-4.3-1.5-8.4-3-12.6-4.5c-1.4,2.6-1.9,5.3,0.4,7.9
			c2,2.3,4.6,3.1,7.6,2.4C95.4,141.3,96.4,138.7,96.8,136.2z M166.4,160.9c-4.3-1.5-8.4-2.9-12.6-4.4c-1.6,4.3,0,8,4.5,9.2
			C162.6,167,165.6,165,166.4,160.9z M85.2,178.4c-0.6,1.2-1.2,2.4-1.6,3.1c6.1,2.2,11.8,4.2,17.1,6.1c0.5-0.9,1.2-2.1,1.7-3.2
			C96.5,182.4,90.8,180.4,85.2,178.4z M136.7,197.1c-6.1-2.2-11.7-4.2-17.5-6.3c-0.4,0.9-0.8,2-1.3,3.1c6.1,2.1,11.8,4.1,17.9,6.2
			C136.1,199.1,136.5,197.9,136.7,197.1z M155,152.8c4.4,1.6,8.5,3,12.1,4.3c0.7-1.2,1.5-2.6,2.1-3.8c-4.5-1.5-8.6-2.9-13-4.4
			C155.9,150,155.4,151.4,155,152.8z M98.1,132.7c0.5-1.2,1.1-2.6,1.5-3.7c-4.5-1.6-8.6-3.1-12.7-4.6c-0.5,1.3-1,2.7-1.5,3.9
			C89.6,129.7,93.7,131.2,98.1,132.7z M140.2,154.7c-1.1-2.3-3.8-3.3-6.1-2.1c-2.2,1.1-3.1,3.8-2,5.9c1.1,2.2,3.6,3.2,5.9,2.2
			C140.3,159.7,141.3,157,140.2,154.7z"/>
		
			<radialGradient id="SVGID_3_" cx="-9.9713" cy="273.5499" r="1" gradientTransform="matrix(-62.5665 106.0643 138.1628 81.5011 -38220.6875 -21082.8066)" gradientUnits="userSpaceOnUse">
			<stop  offset="0" style="stop-color:#D01E8D"/>
			<stop  offset="1" style="stop-color:#621461"/>
		</radialGradient>
		<path class="st2" d="M93.7,144.5c-3.9,0.7-7.4,0.2-10.3-2.5c-2.6-2.4-3.6-5.5-2.4-8.9c3-8.7,5.7-17.5,9.2-26
			c1.7-4.1,4.7-7.7,7.1-11.5c1.2-1.9,2.6-3.8,3.4-5.9c2.8-7.6,5.4-15.3,8.1-23c2.1-6.1,6.3-8.1,12.5-6.5c0.9,0.2,2.5-0.2,3-0.9
			c14.1-16.5,37.6-15.9,50.5,1.3c3.9,5.2,5.9,11.3,5.9,17.9c0,1.9,0.3,2.9,2.3,3.6c5.1,1.9,7.1,6.5,5.3,11.8
			c-2.9,8.4-5.9,16.8-8.8,25.2c-0.5,1.3-0.7,2.8-0.6,4.2c0.4,5.9-0.3,11.6-2.3,17.1c-2.4,6.9-4.8,13.9-7.3,20.8
			c-2.9,8.4-10.5,10.1-16.9,3.9c-0.3-0.3-0.7-0.6-1.2-1.1c-0.7,2.1-1.2,4-1.9,6.2c6.1,3.9,12.9,4.8,19.7,1.9c4.9-2.1,9.5-5,13.8-8.3
			c7.8-5.9,15.8-11.1,25.6-12.9c2.7-0.5,5.5-0.3,8.4-0.3c0.5,0,1,0.9,1.5,1.4c-0.6,0.3-1.2,1-1.8,1c-12.4-0.8-22.1,5-31.3,12.3
			c-4.7,3.8-9.5,7.4-15.2,9.3c-7.3,2.4-10.6,2.1-21.8-1.6c-0.4,0.9-0.7,1.9-1.1,2.9c-3.1,8.9-6.2,17.9-9.4,26.8
			c-1.6,4.5-4.9,7.1-9.5,7.9c-4.6,0.8-8.4-0.9-11.2-4.6c-2.6-3.4-3-7.2-1.6-11.3c2.4-6.9,4.9-13.9,7.2-20.8c0.6-1.7,1-3.5,1.1-5.4
			c0.1-3.1-1.5-5.1-4.5-5.9c-2.8-0.8-5,0-6.5,2.4c-0.8,1.2-1.4,2.5-1.9,3.9c-2.5,6.9-4.9,13.9-7.3,20.8c-2.6,7.2-8.9,10.6-15.5,8.3
			c-6.4-2.3-9.4-9.1-6.9-16.1c3.9-11.3,7.9-22.6,11.9-33.9c0.3-1,1.2-1.8,1.8-2.7C94.3,144.9,94,144.7,93.7,144.5z M85.8,175.2
			c6.2,2.1,11.8,4,18.4,6.2c0.1-0.7,0.1-1.9,0.4-2.9c1.6-4.6,3-9.2,5-13.6c2.1-4.6,6.2-6.2,10.5-4.9c4.4,1.4,6.7,4.9,5.9,10
			c-0.5,3-1.6,5.9-2.6,8.9c-0.9,2.9-2,5.8-2.9,8.2c6.1,2.1,11.7,4.1,17.7,6.2c1.9-5.5,3.7-11.3,5.9-17c1.4-3.5,2.1-6.5-1.9-8.7
			c-0.9-0.5-1.5-1.5-2.1-2.4c-1-1.3-2-1.9-3.9-1.8c-3.4,0.2-6.2-2.2-6.8-5.5c-0.6-3.3,0.8-6.3,3.6-7.8c2.8-1.5,6.2-0.9,8.5,1.5
			c2.2,2.3,2.4,5.7,0.8,8.6c-0.5,0.8-0.9,2.3-0.5,2.9c1.3,1.8,3.1,3.3,5.1,5.4c1.8-5.2,3.3-9.6,4.9-14.1c3.7-10.5,7.3-21,11.1-31.5
			c0.3-0.8,1.3-1.3,2-2c0.1,0.9,0.5,1.9,0.3,2.8c-0.7,2.6-1.7,5.1-2.6,7.7c-1.6,4.7-3.3,9.4-4.8,13.5c4.5,1.6,8.6,3.1,12.8,4.6
			c7.9-18.1,7.6-36.5-0.8-43.2c-1.9,7.4-7.4,9.6-14.1,10.1c-0.8,0-1.7-0.7-2.5-1.1c0.7-0.5,1.4-1.1,2.2-1.3c2.7-0.8,5.4-1.4,7.9-2.4
			c1.9-0.8,3.2-2.4,3.4-5.1c-9.8,5.7-19.6,5.3-29.6,1.4c-10-3.9-17.2-10.5-19.7-21.5c-6,1.3-10.9,4.1-15.3,7.8
			c-8.4,7-10.9,17.1-14,26.2c4.3,1.5,8.6,3,13,4.5c2.2-6.5,4.6-13.3,7-20.1c0.3-0.7,0.4-1.6,0.9-2.1c0.3-0.4,1.1-0.6,1.6-0.8
			c0.2,0.6,0.6,1.2,0.5,1.7c-0.1,0.8-0.4,1.5-0.7,2.2c-5.3,15.1-10.6,30.3-15.9,45.4C91.5,159.3,88.6,167.3,85.8,175.2z M136.1,52.9
			c-15.8,7.7-19.9,28.4-14.2,39.7c6.6,13.1,27.6,19.9,40.6,13.3c13.6-6.9,19.7-26,12.7-39.8C168,51.6,150.2,45.7,136.1,52.9z
			 M121.4,63.3c-4.5-2.1-8.3-1.1-9.7,2.7c-2.9,7.6-5.4,15.3-8,22.9c0,0.1,0.2,0.3,0.2,0.2c4-1.6,7.9-3.2,11.7-4.9
			c0.6-0.3,1.3-1.2,1.2-1.9C116.8,75.7,118.5,69.4,121.4,63.3z M177.9,115.4c2.7-7.8,5.5-15.3,8-22.9c1.4-4.3-0.7-7.4-5-8.3
			c-1.2,3.2-2.2,6.4-3.8,9.3c-1.6,3-3.6,5.6-5.5,8.5c-0.3,0.4-0.4,1.3-0.1,1.8C173.6,107.6,175.7,111.3,177.9,115.4z M82.9,185.2
			c-1.2,4.3,1.2,8.6,5.8,10.2c4.5,1.6,9.2-0.3,10.9-4.4C94.1,189.1,88.5,187.2,82.9,185.2z M134.4,203c-5.7-2.3-11.3-4.5-17-6.8
			c-0.8,5.9,1.5,9.9,5.8,11.4C127.6,209.1,131.7,207.5,134.4,203z M96.8,136.2c-4.3-1.5-8.4-3-12.6-4.5c-1.4,2.6-1.9,5.3,0.4,7.9
			c2,2.3,4.6,3.1,7.6,2.4C95.4,141.3,96.4,138.7,96.8,136.2z M166.4,160.9c-4.3-1.5-8.4-2.9-12.6-4.4c-1.6,4.3,0,8,4.5,9.2
			C162.6,167,165.6,165,166.4,160.9z M85.2,178.4c-0.6,1.2-1.2,2.4-1.6,3.1c6.1,2.2,11.8,4.2,17.1,6.1c0.5-0.9,1.2-2.1,1.7-3.2
			C96.5,182.4,90.8,180.4,85.2,178.4z M136.7,197.1c-6.1-2.2-11.7-4.2-17.5-6.3c-0.4,0.9-0.8,2-1.3,3.1c6.1,2.1,11.8,4.1,17.9,6.2
			C136.1,199.1,136.5,197.9,136.7,197.1z M155,152.8c4.4,1.6,8.5,3,12.1,4.3c0.7-1.2,1.5-2.6,2.1-3.8c-4.5-1.5-8.6-2.9-13-4.4
			C155.9,150,155.4,151.4,155,152.8z M98.1,132.7c0.5-1.2,1.1-2.6,1.5-3.7c-4.5-1.6-8.6-3.1-12.7-4.6c-0.5,1.3-1,2.7-1.5,3.9
			C89.6,129.7,93.7,131.2,98.1,132.7z M140.2,154.7c-1.1-2.3-3.8-3.3-6.1-2.1c-2.2,1.1-3.1,3.8-2,5.9c1.1,2.2,3.6,3.2,5.9,2.2
			C140.3,159.7,141.3,157,140.2,154.7z"/>
		<path class="st1" d="M144.7,147.8c-2.8-0.1-5.5,0.3-7.8-0.5c-7.1-2.2-14.1-4.8-21.1-7.3c-5.8-2.1-8.3-7.4-6.4-13.3
			c1.1-3.4,2.3-6.8,3.5-10.1c2-5.4,7.1-8,12.6-6.2c7.3,2.4,14.6,5,21.9,7.7c5.1,1.9,7.6,7,6.1,12.2c-1.2,3.9-2.4,7.8-4.1,11.5
			C148.5,143.9,146.5,145.6,144.7,147.8z M119.1,112.5c-1.3,1.7-2.8,3.1-3.5,4.7c-1.5,3.6-2.7,7.2-3.9,10.9
			c-1.3,4.2,0.5,7.7,4.6,9.3c7.1,2.6,14.2,5.1,21.3,7.5c4.5,1.5,8.1-0.3,9.8-4.7c1.3-3.4,2.4-6.7,3.5-10.1c1.5-4.5-0.2-8.1-4.7-9.8
			c-7.1-2.6-14.2-5.1-21.3-7.4C123.2,112.4,121.2,112.6,119.1,112.5z"/>
		
			<radialGradient id="SVGID_4_" cx="-9.9055" cy="273.7353" r="1" gradientTransform="matrix(-19.3066 33.3231 43.6826 25.3087 -11996.2676 -6461.1147)" gradientUnits="userSpaceOnUse">
			<stop  offset="0" style="stop-color:#D01E8D"/>
			<stop  offset="1" style="stop-color:#621461"/>
		</radialGradient>
		<path class="st3" d="M144.7,147.8c-2.8-0.1-5.5,0.3-7.8-0.5c-7.1-2.2-14.1-4.8-21.1-7.3c-5.8-2.1-8.3-7.4-6.4-13.3
			c1.1-3.4,2.3-6.8,3.5-10.1c2-5.4,7.1-8,12.6-6.2c7.3,2.4,14.6,5,21.9,7.7c5.1,1.9,7.6,7,6.1,12.2c-1.2,3.9-2.4,7.8-4.1,11.5
			C148.5,143.9,146.5,145.6,144.7,147.8z M119.1,112.5c-1.3,1.7-2.8,3.1-3.5,4.7c-1.5,3.6-2.7,7.2-3.9,10.9
			c-1.3,4.2,0.5,7.7,4.6,9.3c7.1,2.6,14.2,5.1,21.3,7.5c4.5,1.5,8.1-0.3,9.8-4.7c1.3-3.4,2.4-6.7,3.5-10.1c1.5-4.5-0.2-8.1-4.7-9.8
			c-7.1-2.6-14.2-5.1-21.3-7.4C123.2,112.4,121.2,112.6,119.1,112.5z"/>
		<path class="st1" d="M172.4,76c4.7,11.1-4.1,25.8-16.3,26.3c-10.1,0.4-19.3-3-27-9.5c-6.1-5.2-7.3-13.3-3.9-21.8
			c2.8-6.9,8.5-10.5,16.6-10.1c8.9,0.5,17.1,3.4,24.2,8.5C168.4,71.3,170.3,73.8,172.4,76z M161.6,98.7c10.7-5.4,12.3-20.3,2.7-27.2
			c-6.9-5-14.7-7.7-23.2-7.9c-2.8,0-6.1,0.6-8.5,2.1c-8.1,5-9.4,18.8-2.2,25c7.4,6.4,16.3,9.3,26.1,9.1
			C158.3,99.7,160,99,161.6,98.7z"/>
		
			<radialGradient id="SVGID_5_" cx="-9.916" cy="273.7206" r="1" gradientTransform="matrix(-21.1337 35.4479 45.9964 27.4226 -12628.9385 -7065.7842)" gradientUnits="userSpaceOnUse">
			<stop  offset="0" style="stop-color:#D01E8D"/>
			<stop  offset="1" style="stop-color:#621461"/>
		</radialGradient>
		<path class="st4" d="M172.4,76c4.7,11.1-4.1,25.8-16.3,26.3c-10.1,0.4-19.3-3-27-9.5c-6.1-5.2-7.3-13.3-3.9-21.8
			c2.8-6.9,8.5-10.5,16.6-10.1c8.9,0.5,17.1,3.4,24.2,8.5C168.4,71.3,170.3,73.8,172.4,76z M161.6,98.7c10.7-5.4,12.3-20.3,2.7-27.2
			c-6.9-5-14.7-7.7-23.2-7.9c-2.8,0-6.1,0.6-8.5,2.1c-8.1,5-9.4,18.8-2.2,25c7.4,6.4,16.3,9.3,26.1,9.1
			C158.3,99.7,160,99,161.6,98.7z"/>
		<path class="st5" d="M124.9,121.6c-0.2,0.5-0.7,1.1-0.6,1.2c0.4,0.6,0.9,1.3,1.5,1.5c4.1,1.5,8.4,3,12.6,4.4
			c0.8,0.2,1.8-0.3,2.7-0.5c-0.6-0.6-1.1-1.5-1.9-1.8c-4.1-1.5-8.2-2.9-12.3-4.3C126.4,121.8,125.7,121.8,124.9,121.6z M139.1,135
			c-0.7-0.7-0.8-1.1-1-1.2c-4.9-1.8-9.8-3.5-14.8-5.2c-0.4-0.1-1.4,0.5-1.3,0.7c0,0.6,0.4,1.5,0.8,1.6c4.7,1.7,9.4,3.4,14.2,5
			C137.4,136.1,138.2,135.4,139.1,135z"/>
		<path class="st1" d="M124.9,121.6c0.8,0.2,1.4,0.2,2.1,0.4c4.1,1.4,8.2,2.8,12.3,4.3c0.8,0.3,1.3,1.2,1.9,1.8
			c-0.9,0.2-1.9,0.7-2.7,0.5c-4.2-1.3-8.4-2.9-12.6-4.4c-0.6-0.2-1.1-0.9-1.5-1.5C124.2,122.7,124.7,122.1,124.9,121.6z"/>
		
			<radialGradient id="SVGID_6_" cx="-9.6765" cy="274.4021" r="1" gradientTransform="matrix(-5.6119 9.6321 12.6023 7.3424 -3373.7847 -1794.2955)" gradientUnits="userSpaceOnUse">
			<stop  offset="0" style="stop-color:#D01E8D"/>
			<stop  offset="1" style="stop-color:#621461"/>
		</radialGradient>
		<path class="st6" d="M124.9,121.6c0.8,0.2,1.4,0.2,2.1,0.4c4.1,1.4,8.2,2.8,12.3,4.3c0.8,0.3,1.3,1.2,1.9,1.8
			c-0.9,0.2-1.9,0.7-2.7,0.5c-4.2-1.3-8.4-2.9-12.6-4.4c-0.6-0.2-1.1-0.9-1.5-1.5C124.2,122.7,124.7,122.1,124.9,121.6z"/>
		<path class="st1" d="M139.1,135c-0.8,0.4-1.6,1.1-2.1,1c-4.8-1.5-9.5-3.2-14.2-5c-0.4-0.1-0.7-1-0.8-1.6c0-0.2,1-0.8,1.3-0.7
			c4.9,1.7,9.8,3.4,14.8,5.2C138.3,133.9,138.4,134.3,139.1,135z"/>
		
			<radialGradient id="SVGID_7_" cx="-9.7039" cy="274.4059" r="1" gradientTransform="matrix(-5.8817 9.6825 12.4743 7.5776 -3343.5366 -1851.1602)" gradientUnits="userSpaceOnUse">
			<stop  offset="0" style="stop-color:#D01E8D"/>
			<stop  offset="1" style="stop-color:#621461"/>
		</radialGradient>
		<path class="st7" d="M139.1,135c-0.8,0.4-1.6,1.1-2.1,1c-4.8-1.5-9.5-3.2-14.2-5c-0.4-0.1-0.7-1-0.8-1.6c0-0.2,1-0.8,1.3-0.7
			c4.9,1.7,9.8,3.4,14.8,5.2C138.3,133.9,138.4,134.3,139.1,135z"/>
	</g>
</g>
</svg>
