<?xml version="1.0" encoding="utf-8"?>
<!-- Generator: Adobe Illustrator 24.3.0, SVG Export Plug-In . SVG Version: 6.00 Build 0)  -->
<svg version="1.1" id="圖層_1" xmlns="http://www.w3.org/2000/svg" xmlns:xlink="http://www.w3.org/1999/xlink" x="0px" y="0px"
	 viewBox="0 0 262 262" style="enable-background:new 0 0 262 262;" xml:space="preserve">
<style type="text/css">
	.st0{fill-rule:evenodd;clip-rule:evenodd;fill:#D81690;}
	.st1{fill-rule:evenodd;clip-rule:evenodd;fill:url(#SVGID_1_);}
	.st2{fill:#FFFFFF;filter:url(#Adobe_OpacityMaskFilter);}
	.st3{fill-rule:evenodd;clip-rule:evenodd;}
	.st4{mask:url(#path-2-outside-1_1_);fill:#D81690;}
	.st5{fill:#FFFFFF;filter:url(#Adobe_OpacityMaskFilter_1_);}
	.st6{mask:url(#path-2-outside-1_2_);fill:url(#SVGID_2_);}
</style>
<path class="st0" d="M152.4,169.8L152.4,169.8c0.3,0.1,0.7-0.1,0.8-0.4c0-0.1,0-0.2,0-0.3l1.8-11.1l21.6-3.6l1.1,11.1l-19,11.6
	l-1.9-3c-0.2-0.3-0.6-0.4-0.9-0.2c-0.3,0.2-0.4,0.6-0.2,0.9l1.9,3l-19.6,12l0,0l-9.3-6.2l13.2-17.2L152.4,169.8
	C152.4,169.8,152.4,169.8,152.4,169.8C152.4,169.8,152.4,169.8,152.4,169.8z M158.4,178.9l-19.6,12c-0.1,0.1-0.3,0.1-0.5,0.1
	c-0.2,0.2-0.5,0.2-0.8,0l-10-6.7c0,0-0.1,0-0.1-0.1c0,0,0,0,0,0l-5-3.3c-0.3-0.2-0.4-0.6-0.2-0.9c0.2-0.3,0.6-0.4,0.9-0.2l4.6,3
	l13-16.9l-9.7-3.2c-0.3-0.1-0.4-0.3-0.4-0.6L98.1,91.1l-9.3,74.3l11.1,15.8l14.6-42.8c0.8-2.3,4-2.4,4.9-0.1c0.3,0.6,0.2,1.4,0,2
	l-18.3,41.8c-0.1,0.1-0.1,0.2-0.2,0.3l8,11.3c0.2,0.3,0.1,0.7-0.2,0.9c-0.3,0.2-0.7,0.1-0.9-0.2l-20-28.5c-0.1-0.1-0.1-0.1-0.1-0.2
	c0-0.1-0.1-0.2-0.1-0.3L97,89.5c0-0.2,0.1-0.3,0.2-0.4L82,55.7c-0.1-0.3,0-0.7,0.3-0.9c0.3-0.1,0.5-0.1,0.7,0.1c0,0,0,0,0.1,0.1
	l57.8,71.8c0.4-0.7,1.2-1.3,2.2-1.2l46.7,2.4l-10.8-17.6c-0.1-0.1-0.1-0.2-0.1-0.3l-70.7-24.5c-0.3-0.1-0.5-0.5-0.4-0.8
	c0.1-0.3,0.5-0.5,0.8-0.4l70.8,24.6c0.3,0.1,0.4,0.3,0.4,0.6c0.1,0,0.1,0.1,0.2,0.2l18.6,30.5c0.2,0.3,0.1,0.7-0.2,0.9
	c-0.3,0.2-0.7,0.1-0.9-0.2l-7.2-11.8c-0.1,0.1-0.3,0.2-0.5,0.2l-46.2,1.1l12.8,15.9c0.1,0.1,0.1,0.2,0.1,0.3
	c0.1,0.1,0.1,0.3,0.1,0.4l-1.5,9.6l21.3-3.5l-0.5-4.9c0-0.4,0.2-0.7,0.6-0.7c0.4,0,0.7,0.2,0.7,0.6l1.8,17.7c0,0.2-0.1,0.4-0.2,0.6
	c0,0.1-0.1,0.1-0.2,0.2l-19.2,11.8l6.8,10.8c0.2,0.3,0.1,0.7-0.2,0.9c-0.3,0.2-0.7,0.1-0.9-0.2L158.4,178.9z M85.3,59.8l55.3,68.7
	c0.1,0.3,0.2,0.5,0.3,0.8c0.3,0.4,0.6,0.8,1.1,0.9l13.5,16.8l-3.5,21.3l-20.4-6.7L85.3,59.8z M114.4,103.2c-0.2-0.3-0.6-0.4-0.9-0.2
	l-2.4,1.5c-0.3,0.2-0.4,0.6-0.2,0.9c0.2,0.3,0.6,0.4,0.9,0.2l2.4-1.5C114.5,103.9,114.6,103.5,114.4,103.2z M130.7,132.4
	c-0.3,0.2-0.4,0.6-0.2,0.9l12,19.3c0.2,0.3,0.6,0.4,0.9,0.2c0.3-0.2,0.4-0.6,0.2-0.9l-12-19.3C131.4,132.3,131,132.2,130.7,132.4z
	 M191.2,153.8c-0.3,0.2-0.3,0.6-0.1,0.9l21.3,26.5c0.2,0.3,0.6,0.3,0.9,0.1c0.3-0.2,0.3-0.6,0.1-0.9l-21.3-26.5
	C191.9,153.6,191.5,153.6,191.2,153.8z M125.9,201.1c-0.2-0.3-0.1-0.7,0.2-0.9c0.3-0.2,0.7-0.1,0.9,0.2l18,28.9
	c0.2,0.3,0.1,0.7-0.2,0.9c-0.3,0.2-0.7,0.1-0.9-0.2L125.9,201.1z"/>
<radialGradient id="SVGID_1_" cx="-9.9052" cy="273.4977" r="1" gradientTransform="matrix(47.2635 127.1392 166.3842 -61.8526 -44830.5273 18284.5391)" gradientUnits="userSpaceOnUse">
	<stop  offset="0" style="stop-color:#D01E8D"/>
	<stop  offset="1" style="stop-color:#621461"/>
</radialGradient>
<path class="st1" d="M152.4,169.8L152.4,169.8c0.3,0.1,0.7-0.1,0.8-0.4c0-0.1,0-0.2,0-0.3l1.8-11.1l21.6-3.6l1.1,11.1l-19,11.6
	l-1.9-3c-0.2-0.3-0.6-0.4-0.9-0.2c-0.3,0.2-0.4,0.6-0.2,0.9l1.9,3l-19.6,12l0,0l-9.3-6.2l13.2-17.2L152.4,169.8
	C152.4,169.8,152.4,169.8,152.4,169.8C152.4,169.8,152.4,169.8,152.4,169.8z M158.4,178.9l-19.6,12c-0.1,0.1-0.3,0.1-0.5,0.1
	c-0.2,0.2-0.5,0.2-0.8,0l-10-6.7c0,0-0.1,0-0.1-0.1c0,0,0,0,0,0l-5-3.3c-0.3-0.2-0.4-0.6-0.2-0.9c0.2-0.3,0.6-0.4,0.9-0.2l4.6,3
	l13-16.9l-9.7-3.2c-0.3-0.1-0.4-0.3-0.4-0.6L98.1,91.1l-9.3,74.3l11.1,15.8l14.6-42.8c0.8-2.3,4-2.4,4.9-0.1c0.3,0.6,0.2,1.4,0,2
	l-18.3,41.8c-0.1,0.1-0.1,0.2-0.2,0.3l8,11.3c0.2,0.3,0.1,0.7-0.2,0.9c-0.3,0.2-0.7,0.1-0.9-0.2l-20-28.5c-0.1-0.1-0.1-0.1-0.1-0.2
	c0-0.1-0.1-0.2-0.1-0.3L97,89.5c0-0.2,0.1-0.3,0.2-0.4L82,55.7c-0.1-0.3,0-0.7,0.3-0.9c0.3-0.1,0.5-0.1,0.7,0.1c0,0,0,0,0.1,0.1
	l57.8,71.8c0.4-0.7,1.2-1.3,2.2-1.2l46.7,2.4l-10.8-17.6c-0.1-0.1-0.1-0.2-0.1-0.3l-70.7-24.5c-0.3-0.1-0.5-0.5-0.4-0.8
	c0.1-0.3,0.5-0.5,0.8-0.4l70.8,24.6c0.3,0.1,0.4,0.3,0.4,0.6c0.1,0,0.1,0.1,0.2,0.2l18.6,30.5c0.2,0.3,0.1,0.7-0.2,0.9
	c-0.3,0.2-0.7,0.1-0.9-0.2l-7.2-11.8c-0.1,0.1-0.3,0.2-0.5,0.2l-46.2,1.1l12.8,15.9c0.1,0.1,0.1,0.2,0.1,0.3
	c0.1,0.1,0.1,0.3,0.1,0.4l-1.5,9.6l21.3-3.5l-0.5-4.9c0-0.4,0.2-0.7,0.6-0.7c0.4,0,0.7,0.2,0.7,0.6l1.8,17.7c0,0.2-0.1,0.4-0.2,0.6
	c0,0.1-0.1,0.1-0.2,0.2l-19.2,11.8l6.8,10.8c0.2,0.3,0.1,0.7-0.2,0.9c-0.3,0.2-0.7,0.1-0.9-0.2L158.4,178.9z M85.3,59.8l55.3,68.7
	c0.1,0.3,0.2,0.5,0.3,0.8c0.3,0.4,0.6,0.8,1.1,0.9l13.5,16.8l-3.5,21.3l-20.4-6.7L85.3,59.8z M114.4,103.2c-0.2-0.3-0.6-0.4-0.9-0.2
	l-2.4,1.5c-0.3,0.2-0.4,0.6-0.2,0.9c0.2,0.3,0.6,0.4,0.9,0.2l2.4-1.5C114.5,103.9,114.6,103.5,114.4,103.2z M130.7,132.4
	c-0.3,0.2-0.4,0.6-0.2,0.9l12,19.3c0.2,0.3,0.6,0.4,0.9,0.2c0.3-0.2,0.4-0.6,0.2-0.9l-12-19.3C131.4,132.3,131,132.2,130.7,132.4z
	 M191.2,153.8c-0.3,0.2-0.3,0.6-0.1,0.9l21.3,26.5c0.2,0.3,0.6,0.3,0.9,0.1c0.3-0.2,0.3-0.6,0.1-0.9l-21.3-26.5
	C191.9,153.6,191.5,153.6,191.2,153.8z M125.9,201.1c-0.2-0.3-0.1-0.7,0.2-0.9c0.3-0.2,0.7-0.1,0.9,0.2l18,28.9
	c0.2,0.3,0.1,0.7-0.2,0.9c-0.3,0.2-0.7,0.1-0.9-0.2L125.9,201.1z"/>
<defs>
	<filter id="Adobe_OpacityMaskFilter" filterUnits="userSpaceOnUse" x="80.4" y="53.2" width="134.7" height="178.6">
		<feColorMatrix  type="matrix" values="1 0 0 0 0  0 1 0 0 0  0 0 1 0 0  0 0 0 1 0"/>
	</filter>
</defs>
<mask maskUnits="userSpaceOnUse" x="80.4" y="53.2" width="134.7" height="178.6" id="path-2-outside-1_1_">
	<rect x="42.7" y="52.1" class="st2" width="195.4" height="193.9"/>
	<path class="st3" d="M152.4,169.8L152.4,169.8c0.3,0.1,0.7-0.1,0.8-0.4c0-0.1,0-0.2,0-0.3l1.8-11.1l21.6-3.6l1.1,11.1l-19,11.6
		l-1.9-3c-0.2-0.3-0.6-0.4-0.9-0.2c-0.3,0.2-0.4,0.6-0.2,0.9l1.9,3l-19.6,12l0,0l-9.3-6.2l13.2-17.2L152.4,169.8
		C152.4,169.8,152.4,169.8,152.4,169.8C152.4,169.8,152.4,169.8,152.4,169.8z M158.4,178.9l-19.6,12c-0.1,0.1-0.3,0.1-0.5,0.1
		c-0.2,0.2-0.5,0.2-0.8,0l-10-6.7c0,0-0.1,0-0.1-0.1c0,0,0,0,0,0l-5-3.3c-0.3-0.2-0.4-0.6-0.2-0.9c0.2-0.3,0.6-0.4,0.9-0.2l4.6,3
		l13-16.9l-9.7-3.2c-0.3-0.1-0.4-0.3-0.4-0.6L98.1,91.1l-9.3,74.3l11.1,15.8l14.6-42.8c0.8-2.3,4-2.4,4.9-0.1c0.3,0.6,0.2,1.4,0,2
		l-18.3,41.8c-0.1,0.1-0.1,0.2-0.2,0.3l8,11.3c0.2,0.3,0.1,0.7-0.2,0.9c-0.3,0.2-0.7,0.1-0.9-0.2l-20-28.5c-0.1-0.1-0.1-0.1-0.1-0.2
		c0-0.1-0.1-0.2-0.1-0.3L97,89.5c0-0.2,0.1-0.3,0.2-0.4L82,55.7c-0.1-0.3,0-0.7,0.3-0.9c0.3-0.1,0.5-0.1,0.7,0.1c0,0,0,0,0.1,0.1
		l57.8,71.8c0.4-0.7,1.2-1.3,2.2-1.2l46.7,2.4l-10.8-17.6c-0.1-0.1-0.1-0.2-0.1-0.3l-70.7-24.5c-0.3-0.1-0.5-0.5-0.4-0.8
		c0.1-0.3,0.5-0.5,0.8-0.4l70.8,24.6c0.3,0.1,0.4,0.3,0.4,0.6c0.1,0,0.1,0.1,0.2,0.2l18.6,30.5c0.2,0.3,0.1,0.7-0.2,0.9
		c-0.3,0.2-0.7,0.1-0.9-0.2l-7.2-11.8c-0.1,0.1-0.3,0.2-0.5,0.2l-46.2,1.1l12.8,15.9c0.1,0.1,0.1,0.2,0.1,0.3
		c0.1,0.1,0.1,0.3,0.1,0.4l-1.5,9.6l21.3-3.5l-0.5-4.9c0-0.4,0.2-0.7,0.6-0.7c0.4,0,0.7,0.2,0.7,0.6l1.8,17.7c0,0.2-0.1,0.4-0.2,0.6
		c0,0.1-0.1,0.1-0.2,0.2l-19.2,11.8l6.8,10.8c0.2,0.3,0.1,0.7-0.2,0.9c-0.3,0.2-0.7,0.1-0.9-0.2L158.4,178.9z M85.3,59.8l55.3,68.7
		c0.1,0.3,0.2,0.5,0.3,0.8c0.3,0.4,0.6,0.8,1.1,0.9l13.5,16.8l-3.5,21.3l-20.4-6.7L85.3,59.8z M114.4,103.2
		c-0.2-0.3-0.6-0.4-0.9-0.2l-2.4,1.5c-0.3,0.2-0.4,0.6-0.2,0.9c0.2,0.3,0.6,0.4,0.9,0.2l2.4-1.5
		C114.5,103.9,114.6,103.5,114.4,103.2z M130.7,132.4c-0.3,0.2-0.4,0.6-0.2,0.9l12,19.3c0.2,0.3,0.6,0.4,0.9,0.2
		c0.3-0.2,0.4-0.6,0.2-0.9l-12-19.3C131.4,132.3,131,132.2,130.7,132.4z M191.2,153.8c-0.3,0.2-0.3,0.6-0.1,0.9l21.3,26.5
		c0.2,0.3,0.6,0.3,0.9,0.1c0.3-0.2,0.3-0.6,0.1-0.9l-21.3-26.5C191.9,153.6,191.5,153.6,191.2,153.8z M125.9,201.1
		c-0.2-0.3-0.1-0.7,0.2-0.9c0.3-0.2,0.7-0.1,0.9,0.2l18,28.9c0.2,0.3,0.1,0.7-0.2,0.9c-0.3,0.2-0.7,0.1-0.9-0.2L125.9,201.1z"/>
</mask>
<path class="st4" d="M152.4,169.8l-0.5,1.4l0,0L152.4,169.8z M152.4,169.8l0.5-1.4l0,0l-0.1,0L152.4,169.8z M153.3,169.4l-1.4-0.5
	l0,0L153.3,169.4z M153.3,169.1l-1.5-0.2l0,0.3l0.1,0.3L153.3,169.1z M155.1,158l-0.2-1.5l-1.1,0.2l-0.2,1.1L155.1,158z
	 M176.7,154.4l1.5-0.1l-0.2-1.6l-1.6,0.3L176.7,154.4z M177.8,165.5l0.8,1.3l0.8-0.5l-0.1-0.9L177.8,165.5z M158.8,177.1l-1.3,0.8
	l0.8,1.3l1.3-0.8L158.8,177.1z M156.9,174.1l-1.3,0.8l0,0L156.9,174.1z M156,173.9l0.8,1.3l0,0L156,173.9z M155.8,174.8l-1.3,0.8
	l0,0L155.8,174.8z M157.7,177.8l0.8,1.3l1.3-0.8L159,177L157.7,177.8z M138.1,189.8l-0.8-1.3l0,0l0,0L138.1,189.8z M138.1,189.8
	l-0.8,1.2l0.8,0.5l0.8-0.5L138.1,189.8z M128.8,183.6l-1.2-0.9l-1,1.3l1.3,0.9L128.8,183.6z M142,166.4l0.5-1.4l-1-0.3l-0.6,0.8
	L142,166.4z M152.4,169.8l0.6-1.4l0,0l0,0L152.4,169.8z M152.4,169.8l-0.5,1.4l0,0L152.4,169.8z M138.8,190.9l-0.8-1.3l0,0
	L138.8,190.9z M158.4,178.9l1.3-0.8l-0.8-1.3l-1.3,0.8L158.4,178.9z M138.3,191l0.3-1.5l-0.7-0.1l-0.5,0.4L138.3,191z M137.6,191
	l-0.8,1.2L137.6,191z M127.6,184.3l0.8-1.2l-0.1-0.1l-0.1,0L127.6,184.3z M127.5,184.3l-0.9,1.2l0,0L127.5,184.3z M127.4,184.2
	l1-1.1l-0.1-0.1l-0.1-0.1L127.4,184.2z M122.4,180.9l-0.8,1.2l0,0L122.4,180.9z M122.3,180l1.2,0.8l0,0L122.3,180z M123.2,179.8
	l0.8-1.2L123.2,179.8z M127.7,182.9l-0.8,1.2l1.2,0.8l0.9-1.1L127.7,182.9z M140.7,166l1.2,0.9l1.3-1.7l-2-0.7L140.7,166z
	 M131,162.8l0.5-1.4l0,0L131,162.8z M130.5,162.2l1.5-0.1l0-0.3l-0.1-0.2L130.5,162.2z M98.1,91.1l1.4-0.6l-2.2-4.8l-0.7,5.3
	L98.1,91.1z M88.9,165.4l-1.5-0.2l-0.1,0.6l0.3,0.5L88.9,165.4z M100,181.2l-1.2,0.9l1.7,2.4l1-2.8L100,181.2z M114.5,138.4l1.4,0.5
	L114.5,138.4z M119.4,138.3l1.4-0.6l0,0L119.4,138.3z M119.4,140.3l1.4,0.6L119.4,140.3z M101.1,182.1l1.4,0.6l0,0L101.1,182.1z
	 M100.8,182.4l-0.9-1.2l-1.2,0.9l0.9,1.2L100.8,182.4z M108.8,193.7l-1.2,0.9l0,0L108.8,193.7z M108.6,194.6l0.9,1.2l0,0
	L108.6,194.6z M107.7,194.5l-1.2,0.9l0,0L107.7,194.5z M87.7,166l1.2-0.9l0,0L87.7,166z M87.6,165.7l1.5-0.3l0-0.1l-0.1-0.1
	L87.6,165.7z M87.5,165.4l1.5,0.2l0,0L87.5,165.4z M97,89.5l-1.5-0.2l0,0L97,89.5z M97.2,89.1l1,1.1l0.8-0.7l-0.5-1L97.2,89.1z
	 M82,55.7l-1.4,0.6l0,0L82,55.7z M82.3,54.8l0.6,1.4l0,0L82.3,54.8z M83,54.9L82,56l0,0l0,0L83,54.9z M83.1,55l-1.2,0.9v0L83.1,55z
	 M140.9,126.8l-1.2,0.9l1.4,1.7l1.1-1.9L140.9,126.8z M143.1,125.6l0.1-1.5L143.1,125.6z M189.9,128l-0.1,1.5l2.8,0.1l-1.5-2.4
	L189.9,128z M179.1,110.4l1.3-0.8l0,0L179.1,110.4z M179,110.2l1.5-0.1l-0.1-1l-0.9-0.3L179,110.2z M108.4,85.6l0.5-1.4l0,0
	L108.4,85.6z M108,84.8l1.4,0.5l0,0L108,84.8z M108.8,84.4l0.5-1.4v0L108.8,84.4z M179.6,109l0.5-1.4l0,0L179.6,109z M180.1,109.6
	l-1.5,0.1l0,0.7l0.5,0.4L180.1,109.6z M180.2,109.8l1.3-0.8l0,0L180.2,109.8z M198.8,140.2l-1.3,0.8l0,0L198.8,140.2z M197.7,140.9
	l-1.3,0.8l0,0L197.7,140.9z M190.5,129.1l1.3-0.8l-1.1-1.8l-1.3,1.6L190.5,129.1z M190,129.4l0-1.5l0,0L190,129.4z M143.8,130.4
	l0-1.5l-3,0.1l1.9,2.4L143.8,130.4z M156.6,146.3l-1.2,0.9l0,0L156.6,146.3z M156.7,146.6l-1.5,0.2l0,0.3l0.2,0.3L156.7,146.6z
	 M156.8,147.1l1.5,0.2l0,0L156.8,147.1z M155.3,156.6l-1.5-0.2l-0.3,2.1l2.1-0.3L155.3,156.6z M176.6,153.1l0.2,1.5l1.4-0.2
	l-0.1-1.4L176.6,153.1z M176.1,148.2l-1.5,0.1l0,0L176.1,148.2z M176.7,147.5l-0.1-1.5l0,0L176.7,147.5z M177.4,148.1l-1.5,0.1l0,0
	L177.4,148.1z M179.1,165.7l-1.5,0.1l0,0L179.1,165.7z M178.9,166.3l-1-1.2l-0.1,0.1l-0.1,0.1L178.9,166.3z M178.7,166.4l-0.8-1.3
	l0,0L178.7,166.4z M159.5,178.2l-0.8-1.3l-1.3,0.8l0.8,1.3L159.5,178.2z M166.2,189.1l1.3-0.8l0,0L166.2,189.1z M166,190l0.8,1.3
	l0,0L166,190z M165.1,189.8l1.3-0.8l0,0L165.1,189.8z M140.6,128.5l1.5-0.3l-0.1-0.4l-0.2-0.3L140.6,128.5z M85.3,59.8l1.2-0.9
	l-2.5,1.6L85.3,59.8z M140.9,129.3l-1.3,0.8L140.9,129.3z M142,130.3l1.2-0.9L143,129l-0.3-0.1L142,130.3z M155.5,147l1.5,0.2
	l0.1-0.7l-0.4-0.5L155.5,147z M152.1,168.3l-0.5,1.4l1.7,0.5l0.3-1.7L152.1,168.3z M131.7,161.7l-1.4,0.6l0.3,0.6l0.6,0.2
	L131.7,161.7z M113.5,103l-0.8-1.3l0,0L113.5,103z M111.1,104.5l-0.8-1.3l0,0L111.1,104.5z M110.9,105.4l1.3-0.8l0,0L110.9,105.4z
	 M111.8,105.6l-0.8-1.3l0,0L111.8,105.6z M114.2,104.1l0.8,1.3l0,0L114.2,104.1z M130.4,133.3l-1.3,0.8l0,0L130.4,133.3z
	 M130.7,132.4l0.8,1.3l0,0L130.7,132.4z M142.5,152.6l1.3-0.8l0,0L142.5,152.6z M143.4,152.8l-0.8-1.3l0,0L143.4,152.8z
	 M143.6,151.9l1.3-0.8l0,0L143.6,151.9z M131.5,132.6l-1.3,0.8l0,0L131.5,132.6z M191.1,154.7l1.2-0.9l0,0L191.1,154.7z
	 M191.2,153.8l0.9,1.2l0,0L191.2,153.8z M212.5,181.2l-1.2,0.9l0,0L212.5,181.2z M213.5,180.4l-1.2,0.9l0,0L213.5,180.4z
	 M192.2,153.9l1.2-0.9l0,0L192.2,153.9z M125.9,201.1l-1.3,0.8l0,0L125.9,201.1z M127,200.4l-1.3,0.8l0,0L127,200.4z M145,229.3
	l-1.3,0.8l0,0L145,229.3z M144.8,230.2l0.8,1.3l0,0L144.8,230.2z M143.9,230l-1.3,0.8l0,0L143.9,230z M152.9,168.4L152.9,168.4
	l-0.9,2.9h0L152.9,168.4z M151.8,168.9c0.1-0.4,0.6-0.7,1.1-0.5l-0.9,2.9c1.1,0.4,2.3-0.2,2.7-1.4L151.8,168.9z M151.8,169.4
	c0-0.1,0-0.3,0-0.4l2.9,0.9c0.1-0.4,0.1-0.8,0.1-1.1L151.8,169.4z M153.6,157.7l-1.8,11.1l3,0.5l1.8-11.1L153.6,157.7z M176.4,152.9
	l-21.6,3.6l0.5,3l21.6-3.6L176.4,152.9z M179.3,165.3l-1.1-11.1l-3,0.3l1.1,11.1L179.3,165.3z M159.6,178.4l19-11.6l-1.6-2.6
	l-19,11.6L159.6,178.4z M155.6,174.9l1.9,3l2.5-1.6l-1.9-3L155.6,174.9z M156.8,175.2c-0.4,0.2-0.9,0.1-1.2-0.3l2.5-1.6
	c-0.6-1-1.9-1.3-3-0.7L156.8,175.2z M157.1,174c0.2,0.4,0.1,0.9-0.3,1.2l-1.6-2.5c-1,0.6-1.3,2-0.7,3L157.1,174z M159,177l-1.9-3
	l-2.5,1.6l1.9,3L159,177z M138.9,191.1l19.6-12l-1.6-2.6l-19.6,12L138.9,191.1z M138.9,191.1L138.9,191.1l-1.6-2.5l0,0L138.9,191.1z
	 M128,184.8l9.3,6.2l1.7-2.5l-9.3-6.2L128,184.8z M140.8,165.5l-13.2,17.2l2.4,1.8l13.2-17.2L140.8,165.5z M152.8,168.3l-10.4-3.4
	l-0.9,2.9l10.4,3.4L152.8,168.3z M152.9,168.4C152.9,168.4,152.9,168.4,152.9,168.4l-1.1,2.8c0.1,0,0.1,0,0.2,0.1L152.9,168.4z
	 M152.8,168.3C152.8,168.4,152.8,168.4,152.8,168.3l-0.9,2.9c0,0,0.1,0,0.1,0L152.8,168.3z M139.6,192.2l19.6-12l-1.6-2.6l-19.6,12
	L139.6,192.2z M138.1,192.5c0.5,0.1,1.1,0,1.5-0.3l-1.6-2.6c0.2-0.1,0.4-0.1,0.6-0.1L138.1,192.5z M136.8,192.3
	c0.8,0.5,1.8,0.5,2.5-0.1l-1.8-2.4c0.3-0.2,0.7-0.2,1,0L136.8,192.3z M126.8,185.6l10,6.7l1.7-2.5l-10-6.7L126.8,185.6z
	 M126.6,185.5c0.1,0.1,0.3,0.2,0.4,0.2l1.3-2.7c0.1,0,0.1,0.1,0.2,0.1L126.6,185.5z M126.4,185.3c0,0,0.1,0.1,0.1,0.1l1.8-2.4
	c0,0,0,0,0.1,0L126.4,185.3z M121.6,182.2l5,3.3l1.7-2.5l-5-3.3L121.6,182.2z M121,179.2c-0.7,1-0.4,2.3,0.6,3l1.7-2.5
	c0.4,0.3,0.5,0.8,0.2,1.2L121,179.2z M124,178.6c-1-0.7-2.3-0.4-3,0.6l2.5,1.7c-0.3,0.4-0.8,0.5-1.2,0.2L124,178.6z M128.6,181.6
	l-4.6-3l-1.7,2.5l4.6,3L128.6,181.6z M139.5,165l-13,16.9l2.4,1.8l13-16.9L139.5,165z M130.5,164.2l9.7,3.2l0.9-2.9l-9.7-3.2
	L130.5,164.2z M129,162.4c0.1,0.8,0.6,1.6,1.5,1.8l0.9-2.9c0.3,0.1,0.6,0.4,0.6,0.7L129,162.4z M96.8,91.7l32.4,71.1l2.7-1.2
	L99.5,90.5L96.8,91.7z M90.3,165.5l9.3-74.3l-3-0.4l-9.3,74.3L90.3,165.5z M87.6,166.2L98.7,182l2.5-1.7l-11.1-15.8L87.6,166.2z
	 M101.4,181.6l14.6-42.8l-2.8-1l-14.6,42.8L101.4,181.6z M115.9,138.9c0.3-1,1.7-1,2.1-0.1l2.8-1.1c-1.4-3.5-6.5-3.4-7.7,0.2
	L115.9,138.9z M118,138.8c0.1,0.3,0.1,0.6,0,0.9l2.7,1.2c0.4-1,0.5-2.2,0.1-3.2L118,138.8z M118,139.7l-18.3,41.8l2.7,1.2l18.3-41.8
	L118,139.7z M99.7,181.5c0.1-0.1,0.2-0.3,0.3-0.3l1.7,2.5c0.3-0.2,0.6-0.5,0.7-0.9L99.7,181.5z M99.6,183.2l8,11.3l2.5-1.7l-8-11.3
	L99.6,183.2z M107.6,194.6c-0.3-0.4-0.2-0.9,0.2-1.2l1.7,2.5c1-0.7,1.2-2,0.5-3L107.6,194.6z M107.8,193.4c0.4-0.3,0.9-0.2,1.2,0.2
	l-2.5,1.7c0.7,1,2,1.2,3,0.5L107.8,193.4z M109,193.6l-20-28.5l-2.5,1.7l20,28.5L109,193.6z M88.9,165.1c0.1,0.1,0.1,0.2,0.1,0.3
	l-2.9,0.7c0.1,0.3,0.2,0.5,0.3,0.8L88.9,165.1z M86.1,165.2c-0.1,0.4,0,0.8,0.2,1.1l2.7-1.2c0.1,0.1,0.1,0.3,0.1,0.5L86.1,165.2z
	 M95.5,89.3l-9.5,75.9l3,0.4l9.5-75.9L95.5,89.3z M96.2,88c-0.4,0.3-0.6,0.8-0.7,1.3l3,0.4c0,0.2-0.1,0.4-0.3,0.5L96.2,88z
	 M80.6,56.3l15.2,33.5l2.7-1.2L83.3,55L80.6,56.3z M81.7,53.4c-1.1,0.5-1.6,1.8-1.1,2.8l2.7-1.2c0.2,0.4,0,0.9-0.4,1.1L81.7,53.4z
	 M84.1,53.9c-0.6-0.6-1.6-0.8-2.4-0.4l1.2,2.7c-0.3,0.2-0.7,0.1-1-0.2L84.1,53.9z M84.3,54.1c-0.1-0.1-0.1-0.2-0.2-0.2L82,56
	c0,0-0.1-0.1-0.1-0.1L84.3,54.1z M142.1,125.9L84.3,54.1l-2.3,1.9l57.8,71.8L142.1,125.9z M143.2,124.1c-1.6-0.1-2.9,0.8-3.6,2
	l2.6,1.5c0.2-0.3,0.5-0.5,0.9-0.5L143.2,124.1z M189.9,126.5l-46.7-2.4l-0.2,3l46.7,2.4L189.9,126.5z M177.8,111.2l10.8,17.6
	l2.6-1.6l-10.8-17.6L177.8,111.2z M177.5,110.3c0,0.3,0.1,0.6,0.3,0.9l2.6-1.6c0.1,0.1,0.1,0.2,0.1,0.4L177.5,110.3z M107.9,87
	l70.7,24.5l1-2.8l-70.7-24.5L107.9,87z M106.5,84.3c-0.4,1.1,0.2,2.3,1.3,2.7l1-2.8c0.4,0.2,0.7,0.6,0.5,1.1L106.5,84.3z M109.3,83
	c-1.1-0.4-2.3,0.2-2.7,1.3l2.8,1c-0.2,0.4-0.6,0.7-1.1,0.5L109.3,83z M180.1,107.6L109.3,83l-1,2.8l70.8,24.6L180.1,107.6z
	 M181.6,109.5c0-0.9-0.6-1.6-1.4-1.9l-1,2.8c-0.3-0.1-0.6-0.4-0.6-0.8L181.6,109.5z M181.5,109c-0.1-0.2-0.3-0.4-0.5-0.6l-1.8,2.4
	c-0.1-0.1-0.2-0.1-0.2-0.2L181.5,109z M200.1,139.4L181.5,109l-2.6,1.6l18.6,30.5L200.1,139.4z M199.4,142.4c1-0.6,1.3-1.9,0.7-3
	l-2.6,1.6c-0.2-0.4-0.1-0.9,0.3-1.2L199.4,142.4z M196.4,141.7c0.6,1,1.9,1.3,3,0.7l-1.6-2.6c0.4-0.2,0.9-0.1,1.2,0.3L196.4,141.7z
	 M189.3,129.9l7.2,11.8l2.6-1.6l-7.2-11.8L189.3,129.9z M190.1,130.9c0.6,0,1.2-0.3,1.6-0.8l-2.3-1.9c0.1-0.2,0.4-0.3,0.6-0.3
	L190.1,130.9z M143.9,131.9l46.2-1.1l-0.1-3l-46.2,1.1L143.9,131.9z M157.8,145.4L145,129.5l-2.3,1.9l12.8,15.9L157.8,145.4z
	 M158.2,146.4c0-0.4-0.2-0.8-0.5-1.1l-2.3,1.9c-0.1-0.1-0.2-0.3-0.2-0.4L158.2,146.4z M158.3,147.3c0.1-0.5,0-1-0.3-1.5l-2.6,1.6
	c-0.1-0.2-0.1-0.4-0.1-0.6L158.3,147.3z M156.8,156.9l1.5-9.6l-3-0.5l-1.5,9.6L156.8,156.9z M176.3,151.6l-21.3,3.5l0.5,3l21.3-3.5
	L176.3,151.6z M174.6,148.3l0.5,4.9l3-0.3l-0.5-4.9L174.6,148.3z M176.5,146c-1.2,0.1-2,1.2-1.9,2.3l3-0.3c0,0.5-0.3,0.9-0.8,0.9
	L176.5,146z M178.9,147.9c-0.1-1.2-1.2-2-2.3-1.9l0.3,3c-0.5,0-0.9-0.3-0.9-0.8L178.9,147.9z M180.6,165.6l-1.8-17.7l-3,0.3
	l1.8,17.7L180.6,165.6z M179.8,167.4c0.5-0.4,0.8-1.1,0.8-1.9l-3,0.3c0-0.3,0.1-0.6,0.3-0.7L179.8,167.4z M179.5,167.7
	c0.2-0.1,0.4-0.3,0.6-0.5l-2.4-1.8c0.1-0.1,0.1-0.2,0.2-0.2L179.5,167.7z M160.3,179.5l19.2-11.8l-1.6-2.6L158.7,177L160.3,179.5z
	 M167.5,188.3l-6.8-10.8l-2.5,1.6l6.8,10.8L167.5,188.3z M166.8,191.2c1-0.6,1.3-1.9,0.7-3l-2.5,1.6c-0.2-0.4-0.1-0.9,0.3-1.2
	L166.8,191.2z M163.9,190.5c0.6,1,2,1.3,3,0.7l-1.6-2.5c0.4-0.2,0.9-0.1,1.2,0.3L163.9,190.5z M157.1,179.7l6.8,10.8l2.5-1.6
	l-6.8-10.8L157.1,179.7z M141.8,127.6L86.4,58.8l-2.3,1.9l55.3,68.7L141.8,127.6z M142.2,128.5c-0.1-0.1-0.1-0.2-0.1-0.3l-2.9,0.6
	c0.1,0.4,0.3,0.9,0.5,1.3L142.2,128.5z M142.6,128.9c-0.2-0.1-0.3-0.2-0.4-0.4l-2.5,1.6c0.4,0.7,1,1.2,1.8,1.5L142.6,128.9z
	 M156.7,146.1l-13.5-16.8l-2.3,1.9l13.5,16.8L156.7,146.1z M153.6,168.6l3.5-21.3l-3-0.5l-3.5,21.3L153.6,168.6z M131.2,163.1
	l20.4,6.7l0.9-2.9l-20.4-6.7L131.2,163.1z M83.9,60.4l46.4,101.9l2.7-1.2L86.6,59.2L83.9,60.4z M114.3,104.3
	c-0.4,0.2-0.9,0.1-1.2-0.3l2.6-1.6c-0.6-1-1.9-1.3-3-0.7L114.3,104.3z M111.9,105.7l2.4-1.5l-1.6-2.6l-2.4,1.5L111.9,105.7z
	 M112.2,104.6c0.2,0.4,0.1,0.9-0.3,1.2l-1.6-2.6c-1,0.6-1.3,1.9-0.7,3L112.2,104.6z M111,104.3c0.4-0.2,0.9-0.1,1.2,0.3l-2.6,1.6
	c0.6,1,1.9,1.3,3,0.7L111,104.3z M113.4,102.8l-2.4,1.5l1.6,2.6l2.4-1.5L113.4,102.8z M113.2,104c-0.2-0.4-0.1-0.9,0.3-1.2l1.6,2.6
	c1-0.6,1.3-1.9,0.7-3L113.2,104z M131.7,132.5c0.2,0.4,0.1,0.9-0.3,1.2l-1.6-2.5c-1,0.6-1.3,2-0.7,3L131.7,132.5z M143.8,151.8
	l-12-19.3l-2.5,1.6l12,19.3L143.8,151.8z M142.6,151.5c0.4-0.2,0.9-0.1,1.2,0.3l-2.5,1.6c0.6,1,1.9,1.3,3,0.7L142.6,151.5z
	 M142.3,152.7c-0.2-0.4-0.1-0.9,0.3-1.2l1.6,2.5c1-0.6,1.3-1.9,0.7-3L142.3,152.7z M130.3,133.4l12,19.3l2.5-1.6l-12-19.3
	L130.3,133.4z M131.4,133.7c-0.4,0.2-0.9,0.1-1.2-0.3l2.5-1.6c-0.6-1-2-1.3-3-0.7L131.4,133.7z M192.3,153.8
	c0.3,0.4,0.2,0.9-0.1,1.2l-1.9-2.3c-0.9,0.7-1.1,2.1-0.3,3L192.3,153.8z M213.6,180.3l-21.3-26.5l-2.3,1.9l21.3,26.5L213.6,180.3z
	 M212.4,180.2c0.4-0.3,0.9-0.2,1.2,0.1l-2.3,1.9c0.7,0.9,2.1,1.1,3,0.3L212.4,180.2z M212.3,181.4c-0.3-0.4-0.2-0.9,0.1-1.2l1.9,2.3
	c0.9-0.7,1.1-2.1,0.3-3L212.3,181.4z M191,154.8l21.3,26.5l2.3-1.9l-21.3-26.5L191,154.8z M192.2,155c-0.4,0.3-0.9,0.2-1.2-0.1
	l2.3-1.9c-0.7-0.9-2.1-1.1-3-0.3L192.2,155z M125.3,198.9c-1,0.6-1.3,2-0.7,3l2.5-1.6c0.2,0.4,0.1,0.9-0.3,1.2L125.3,198.9z
	 M128.3,199.6c-0.6-1-2-1.3-3-0.7l1.6,2.5c-0.4,0.2-0.9,0.1-1.2-0.3L128.3,199.6z M146.3,228.5l-18-28.9l-2.5,1.6l18,28.9
	L146.3,228.5z M145.6,231.5c1-0.6,1.3-1.9,0.7-3l-2.5,1.6c-0.2-0.4-0.1-0.9,0.3-1.2L145.6,231.5z M142.6,230.8c0.6,1,1.9,1.3,3,0.7
	l-1.6-2.5c0.4-0.2,0.9-0.1,1.2,0.3L142.6,230.8z M124.6,201.9l18,28.9l2.5-1.6l-18-28.9L124.6,201.9z"/>
<defs>
	<filter id="Adobe_OpacityMaskFilter_1_" filterUnits="userSpaceOnUse" x="80.4" y="53.2" width="134.7" height="178.6">
		<feColorMatrix  type="matrix" values="1 0 0 0 0  0 1 0 0 0  0 0 1 0 0  0 0 0 1 0"/>
	</filter>
</defs>
<mask maskUnits="userSpaceOnUse" x="80.4" y="53.2" width="134.7" height="178.6" id="path-2-outside-1_2_">
	<rect x="42.7" y="52.1" class="st5" width="195.4" height="193.9"/>
	<path class="st3" d="M152.4,169.8L152.4,169.8c0.3,0.1,0.7-0.1,0.8-0.4c0-0.1,0-0.2,0-0.3l1.8-11.1l21.6-3.6l1.1,11.1l-19,11.6
		l-1.9-3c-0.2-0.3-0.6-0.4-0.9-0.2c-0.3,0.2-0.4,0.6-0.2,0.9l1.9,3l-19.6,12l0,0l-9.3-6.2l13.2-17.2L152.4,169.8
		C152.4,169.8,152.4,169.8,152.4,169.8C152.4,169.8,152.4,169.8,152.4,169.8z M158.4,178.9l-19.6,12c-0.1,0.1-0.3,0.1-0.5,0.1
		c-0.2,0.2-0.5,0.2-0.8,0l-10-6.7c0,0-0.1,0-0.1-0.1c0,0,0,0,0,0l-5-3.3c-0.3-0.2-0.4-0.6-0.2-0.9c0.2-0.3,0.6-0.4,0.9-0.2l4.6,3
		l13-16.9l-9.7-3.2c-0.3-0.1-0.4-0.3-0.4-0.6L98.1,91.1l-9.3,74.3l11.1,15.8l14.6-42.8c0.8-2.3,4-2.4,4.9-0.1c0.3,0.6,0.2,1.4,0,2
		l-18.3,41.8c-0.1,0.1-0.1,0.2-0.2,0.3l8,11.3c0.2,0.3,0.1,0.7-0.2,0.9c-0.3,0.2-0.7,0.1-0.9-0.2l-20-28.5c-0.1-0.1-0.1-0.1-0.1-0.2
		c0-0.1-0.1-0.2-0.1-0.3L97,89.5c0-0.2,0.1-0.3,0.2-0.4L82,55.7c-0.1-0.3,0-0.7,0.3-0.9c0.3-0.1,0.5-0.1,0.7,0.1c0,0,0,0,0.1,0.1
		l57.8,71.8c0.4-0.7,1.2-1.3,2.2-1.2l46.7,2.4l-10.8-17.6c-0.1-0.1-0.1-0.2-0.1-0.3l-70.7-24.5c-0.3-0.1-0.5-0.5-0.4-0.8
		c0.1-0.3,0.5-0.5,0.8-0.4l70.8,24.6c0.3,0.1,0.4,0.3,0.4,0.6c0.1,0,0.1,0.1,0.2,0.2l18.6,30.5c0.2,0.3,0.1,0.7-0.2,0.9
		c-0.3,0.2-0.7,0.1-0.9-0.2l-7.2-11.8c-0.1,0.1-0.3,0.2-0.5,0.2l-46.2,1.1l12.8,15.9c0.1,0.1,0.1,0.2,0.1,0.3
		c0.1,0.1,0.1,0.3,0.1,0.4l-1.5,9.6l21.3-3.5l-0.5-4.9c0-0.4,0.2-0.7,0.6-0.7c0.4,0,0.7,0.2,0.7,0.6l1.8,17.7c0,0.2-0.1,0.4-0.2,0.6
		c0,0.1-0.1,0.1-0.2,0.2l-19.2,11.8l6.8,10.8c0.2,0.3,0.1,0.7-0.2,0.9c-0.3,0.2-0.7,0.1-0.9-0.2L158.4,178.9z M85.3,59.8l55.3,68.7
		c0.1,0.3,0.2,0.5,0.3,0.8c0.3,0.4,0.6,0.8,1.1,0.9l13.5,16.8l-3.5,21.3l-20.4-6.7L85.3,59.8z M114.4,103.2
		c-0.2-0.3-0.6-0.4-0.9-0.2l-2.4,1.5c-0.3,0.2-0.4,0.6-0.2,0.9c0.2,0.3,0.6,0.4,0.9,0.2l2.4-1.5
		C114.5,103.9,114.6,103.5,114.4,103.2z M130.7,132.4c-0.3,0.2-0.4,0.6-0.2,0.9l12,19.3c0.2,0.3,0.6,0.4,0.9,0.2
		c0.3-0.2,0.4-0.6,0.2-0.9l-12-19.3C131.4,132.3,131,132.2,130.7,132.4z M191.2,153.8c-0.3,0.2-0.3,0.6-0.1,0.9l21.3,26.5
		c0.2,0.3,0.6,0.3,0.9,0.1c0.3-0.2,0.3-0.6,0.1-0.9l-21.3-26.5C191.9,153.6,191.5,153.6,191.2,153.8z M125.9,201.1
		c-0.2-0.3-0.1-0.7,0.2-0.9c0.3-0.2,0.7-0.1,0.9,0.2l18,28.9c0.2,0.3,0.1,0.7-0.2,0.9c-0.3,0.2-0.7,0.1-0.9-0.2L125.9,201.1z"/>
</mask>
<radialGradient id="SVGID_2_" cx="-9.9052" cy="273.4977" r="1" gradientTransform="matrix(47.2635 127.1392 166.3842 -61.8526 -44830.5273 18284.5391)" gradientUnits="userSpaceOnUse">
	<stop  offset="0" style="stop-color:#D01E8D"/>
	<stop  offset="1" style="stop-color:#621461"/>
</radialGradient>
<path class="st6" d="M152.4,169.8l-0.5,1.4l0,0L152.4,169.8z M152.4,169.8l0.5-1.4l0,0l-0.1,0L152.4,169.8z M153.3,169.4l-1.4-0.5
	l0,0L153.3,169.4z M153.3,169.1l-1.5-0.2l0,0.3l0.1,0.3L153.3,169.1z M155.1,158l-0.2-1.5l-1.1,0.2l-0.2,1.1L155.1,158z
	 M176.7,154.4l1.5-0.1l-0.2-1.6l-1.6,0.3L176.7,154.4z M177.8,165.5l0.8,1.3l0.8-0.5l-0.1-0.9L177.8,165.5z M158.8,177.1l-1.3,0.8
	l0.8,1.3l1.3-0.8L158.8,177.1z M156.9,174.1l-1.3,0.8l0,0L156.9,174.1z M156,173.9l0.8,1.3l0,0L156,173.9z M155.8,174.8l-1.3,0.8
	l0,0L155.8,174.8z M157.7,177.8l0.8,1.3l1.3-0.8L159,177L157.7,177.8z M138.1,189.8l-0.8-1.3l0,0l0,0L138.1,189.8z M138.1,189.8
	l-0.8,1.2l0.8,0.5l0.8-0.5L138.1,189.8z M128.8,183.6l-1.2-0.9l-1,1.3l1.3,0.9L128.8,183.6z M142,166.4l0.5-1.4l-1-0.3l-0.6,0.8
	L142,166.4z M152.4,169.8l0.6-1.4l0,0l0,0L152.4,169.8z M152.4,169.8l-0.5,1.4l0,0L152.4,169.8z M138.8,190.9l-0.8-1.3l0,0
	L138.8,190.9z M158.4,178.9l1.3-0.8l-0.8-1.3l-1.3,0.8L158.4,178.9z M138.3,191l0.3-1.5l-0.7-0.1l-0.5,0.4L138.3,191z M137.6,191
	l-0.8,1.2L137.6,191z M127.6,184.3l0.8-1.2l-0.1-0.1l-0.1,0L127.6,184.3z M127.5,184.3l-0.9,1.2l0,0L127.5,184.3z M127.4,184.2
	l1-1.1l-0.1-0.1l-0.1-0.1L127.4,184.2z M122.4,180.9l-0.8,1.2l0,0L122.4,180.9z M122.3,180l1.2,0.8l0,0L122.3,180z M123.2,179.8
	l0.8-1.2L123.2,179.8z M127.7,182.9l-0.8,1.2l1.2,0.8l0.9-1.1L127.7,182.9z M140.7,166l1.2,0.9l1.3-1.7l-2-0.7L140.7,166z
	 M131,162.8l0.5-1.4l0,0L131,162.8z M130.5,162.2l1.5-0.1l0-0.3l-0.1-0.2L130.5,162.2z M98.1,91.1l1.4-0.6l-2.2-4.8l-0.7,5.3
	L98.1,91.1z M88.9,165.4l-1.5-0.2l-0.1,0.6l0.3,0.5L88.9,165.4z M100,181.2l-1.2,0.9l1.7,2.4l1-2.8L100,181.2z M114.5,138.4l1.4,0.5
	L114.5,138.4z M119.4,138.3l1.4-0.6l0,0L119.4,138.3z M119.4,140.3l1.4,0.6L119.4,140.3z M101.1,182.1l1.4,0.6l0,0L101.1,182.1z
	 M100.8,182.4l-0.9-1.2l-1.2,0.9l0.9,1.2L100.8,182.4z M108.8,193.7l-1.2,0.9l0,0L108.8,193.7z M108.6,194.6l0.9,1.2l0,0
	L108.6,194.6z M107.7,194.5l-1.2,0.9l0,0L107.7,194.5z M87.7,166l1.2-0.9l0,0L87.7,166z M87.6,165.7l1.5-0.3l0-0.1l-0.1-0.1
	L87.6,165.7z M87.5,165.4l1.5,0.2l0,0L87.5,165.4z M97,89.5l-1.5-0.2l0,0L97,89.5z M97.2,89.1l1,1.1l0.8-0.7l-0.5-1L97.2,89.1z
	 M82,55.7l-1.4,0.6l0,0L82,55.7z M82.3,54.8l0.6,1.4l0,0L82.3,54.8z M83,54.9L82,56l0,0l0,0L83,54.9z M83.1,55l-1.2,0.9v0L83.1,55z
	 M140.9,126.8l-1.2,0.9l1.4,1.7l1.1-1.9L140.9,126.8z M143.1,125.6l0.1-1.5L143.1,125.6z M189.9,128l-0.1,1.5l2.8,0.1l-1.5-2.4
	L189.9,128z M179.1,110.4l1.3-0.8l0,0L179.1,110.4z M179,110.2l1.5-0.1l-0.1-1l-0.9-0.3L179,110.2z M108.4,85.6l0.5-1.4l0,0
	L108.4,85.6z M108,84.8l1.4,0.5l0,0L108,84.8z M108.8,84.4l0.5-1.4v0L108.8,84.4z M179.6,109l0.5-1.4l0,0L179.6,109z M180.1,109.6
	l-1.5,0.1l0,0.7l0.5,0.4L180.1,109.6z M180.2,109.8l1.3-0.8l0,0L180.2,109.8z M198.8,140.2l-1.3,0.8l0,0L198.8,140.2z M197.7,140.9
	l-1.3,0.8l0,0L197.7,140.9z M190.5,129.1l1.3-0.8l-1.1-1.8l-1.3,1.6L190.5,129.1z M190,129.4l0-1.5l0,0L190,129.4z M143.8,130.4
	l0-1.5l-3,0.1l1.9,2.4L143.8,130.4z M156.6,146.3l-1.2,0.9l0,0L156.6,146.3z M156.7,146.6l-1.5,0.2l0,0.3l0.2,0.3L156.7,146.6z
	 M156.8,147.1l1.5,0.2l0,0L156.8,147.1z M155.3,156.6l-1.5-0.2l-0.3,2.1l2.1-0.3L155.3,156.6z M176.6,153.1l0.2,1.5l1.4-0.2
	l-0.1-1.4L176.6,153.1z M176.1,148.2l-1.5,0.1l0,0L176.1,148.2z M176.7,147.5l-0.1-1.5l0,0L176.7,147.5z M177.4,148.1l-1.5,0.1l0,0
	L177.4,148.1z M179.1,165.7l-1.5,0.1l0,0L179.1,165.7z M178.9,166.3l-1-1.2l-0.1,0.1l-0.1,0.1L178.9,166.3z M178.7,166.4l-0.8-1.3
	l0,0L178.7,166.4z M159.5,178.2l-0.8-1.3l-1.3,0.8l0.8,1.3L159.5,178.2z M166.2,189.1l1.3-0.8l0,0L166.2,189.1z M166,190l0.8,1.3
	l0,0L166,190z M165.1,189.8l1.3-0.8l0,0L165.1,189.8z M140.6,128.5l1.5-0.3l-0.1-0.4l-0.2-0.3L140.6,128.5z M85.3,59.8l1.2-0.9
	l-2.5,1.6L85.3,59.8z M140.9,129.3l-1.3,0.8L140.9,129.3z M142,130.3l1.2-0.9L143,129l-0.3-0.1L142,130.3z M155.5,147l1.5,0.2
	l0.1-0.7l-0.4-0.5L155.5,147z M152.1,168.3l-0.5,1.4l1.7,0.5l0.3-1.7L152.1,168.3z M131.7,161.7l-1.4,0.6l0.3,0.6l0.6,0.2
	L131.7,161.7z M113.5,103l-0.8-1.3l0,0L113.5,103z M111.1,104.5l-0.8-1.3l0,0L111.1,104.5z M110.9,105.4l1.3-0.8l0,0L110.9,105.4z
	 M111.8,105.6l-0.8-1.3l0,0L111.8,105.6z M114.2,104.1l0.8,1.3l0,0L114.2,104.1z M130.4,133.3l-1.3,0.8l0,0L130.4,133.3z
	 M130.7,132.4l0.8,1.3l0,0L130.7,132.4z M142.5,152.6l1.3-0.8l0,0L142.5,152.6z M143.4,152.8l-0.8-1.3l0,0L143.4,152.8z
	 M143.6,151.9l1.3-0.8l0,0L143.6,151.9z M131.5,132.6l-1.3,0.8l0,0L131.5,132.6z M191.1,154.7l1.2-0.9l0,0L191.1,154.7z
	 M191.2,153.8l0.9,1.2l0,0L191.2,153.8z M212.5,181.2l-1.2,0.9l0,0L212.5,181.2z M213.5,180.4l-1.2,0.9l0,0L213.5,180.4z
	 M192.2,153.9l1.2-0.9l0,0L192.2,153.9z M125.9,201.1l-1.3,0.8l0,0L125.9,201.1z M127,200.4l-1.3,0.8l0,0L127,200.4z M145,229.3
	l-1.3,0.8l0,0L145,229.3z M144.8,230.2l0.8,1.3l0,0L144.8,230.2z M143.9,230l-1.3,0.8l0,0L143.9,230z M152.9,168.4L152.9,168.4
	l-0.9,2.9h0L152.9,168.4z M151.8,168.9c0.1-0.4,0.6-0.7,1.1-0.5l-0.9,2.9c1.1,0.4,2.3-0.2,2.7-1.4L151.8,168.9z M151.8,169.4
	c0-0.1,0-0.3,0-0.4l2.9,0.9c0.1-0.4,0.1-0.8,0.1-1.1L151.8,169.4z M153.6,157.7l-1.8,11.1l3,0.5l1.8-11.1L153.6,157.7z M176.4,152.9
	l-21.6,3.6l0.5,3l21.6-3.6L176.4,152.9z M179.3,165.3l-1.1-11.1l-3,0.3l1.1,11.1L179.3,165.3z M159.6,178.4l19-11.6l-1.6-2.6
	l-19,11.6L159.6,178.4z M155.6,174.9l1.9,3l2.5-1.6l-1.9-3L155.6,174.9z M156.8,175.2c-0.4,0.2-0.9,0.1-1.2-0.3l2.5-1.6
	c-0.6-1-1.9-1.3-3-0.7L156.8,175.2z M157.1,174c0.2,0.4,0.1,0.9-0.3,1.2l-1.6-2.5c-1,0.6-1.3,2-0.7,3L157.1,174z M159,177l-1.9-3
	l-2.5,1.6l1.9,3L159,177z M138.9,191.1l19.6-12l-1.6-2.6l-19.6,12L138.9,191.1z M138.9,191.1L138.9,191.1l-1.6-2.5l0,0L138.9,191.1z
	 M128,184.8l9.3,6.2l1.7-2.5l-9.3-6.2L128,184.8z M140.8,165.5l-13.2,17.2l2.4,1.8l13.2-17.2L140.8,165.5z M152.8,168.3l-10.4-3.4
	l-0.9,2.9l10.4,3.4L152.8,168.3z M152.9,168.4C152.9,168.4,152.9,168.4,152.9,168.4l-1.1,2.8c0.1,0,0.1,0,0.2,0.1L152.9,168.4z
	 M152.8,168.3C152.8,168.4,152.8,168.4,152.8,168.3l-0.9,2.9c0,0,0.1,0,0.1,0L152.8,168.3z M139.6,192.2l19.6-12l-1.6-2.6l-19.6,12
	L139.6,192.2z M138.1,192.5c0.5,0.1,1.1,0,1.5-0.3l-1.6-2.6c0.2-0.1,0.4-0.1,0.6-0.1L138.1,192.5z M136.8,192.3
	c0.8,0.5,1.8,0.5,2.5-0.1l-1.8-2.4c0.3-0.2,0.7-0.2,1,0L136.8,192.3z M126.8,185.6l10,6.7l1.7-2.5l-10-6.7L126.8,185.6z
	 M126.6,185.5c0.1,0.1,0.3,0.2,0.4,0.2l1.3-2.7c0.1,0,0.1,0.1,0.2,0.1L126.6,185.5z M126.4,185.3c0,0,0.1,0.1,0.1,0.1l1.8-2.4
	c0,0,0,0,0.1,0L126.4,185.3z M121.6,182.2l5,3.3l1.7-2.5l-5-3.3L121.6,182.2z M121,179.2c-0.7,1-0.4,2.3,0.6,3l1.7-2.5
	c0.4,0.3,0.5,0.8,0.2,1.2L121,179.2z M124,178.6c-1-0.7-2.3-0.4-3,0.6l2.5,1.7c-0.3,0.4-0.8,0.5-1.2,0.2L124,178.6z M128.6,181.6
	l-4.6-3l-1.7,2.5l4.6,3L128.6,181.6z M139.5,165l-13,16.9l2.4,1.8l13-16.9L139.5,165z M130.5,164.2l9.7,3.2l0.9-2.9l-9.7-3.2
	L130.5,164.2z M129,162.4c0.1,0.8,0.6,1.6,1.5,1.8l0.9-2.9c0.3,0.1,0.6,0.4,0.6,0.7L129,162.4z M96.8,91.7l32.4,71.1l2.7-1.2
	L99.5,90.5L96.8,91.7z M90.3,165.5l9.3-74.3l-3-0.4l-9.3,74.3L90.3,165.5z M87.6,166.2L98.7,182l2.5-1.7l-11.1-15.8L87.6,166.2z
	 M101.4,181.6l14.6-42.8l-2.8-1l-14.6,42.8L101.4,181.6z M115.9,138.9c0.3-1,1.7-1,2.1-0.1l2.8-1.1c-1.4-3.5-6.5-3.4-7.7,0.2
	L115.9,138.9z M118,138.8c0.1,0.3,0.1,0.6,0,0.9l2.7,1.2c0.4-1,0.5-2.2,0.1-3.2L118,138.8z M118,139.7l-18.3,41.8l2.7,1.2l18.3-41.8
	L118,139.7z M99.7,181.5c0.1-0.1,0.2-0.3,0.3-0.3l1.7,2.5c0.3-0.2,0.6-0.5,0.7-0.9L99.7,181.5z M99.6,183.2l8,11.3l2.5-1.7l-8-11.3
	L99.6,183.2z M107.6,194.6c-0.3-0.4-0.2-0.9,0.2-1.2l1.7,2.5c1-0.7,1.2-2,0.5-3L107.6,194.6z M107.8,193.4c0.4-0.3,0.9-0.2,1.2,0.2
	l-2.5,1.7c0.7,1,2,1.2,3,0.5L107.8,193.4z M109,193.6l-20-28.5l-2.5,1.7l20,28.5L109,193.6z M88.9,165.1c0.1,0.1,0.1,0.2,0.1,0.3
	l-2.9,0.7c0.1,0.3,0.2,0.5,0.3,0.8L88.9,165.1z M86.1,165.2c-0.1,0.4,0,0.8,0.2,1.1l2.7-1.2c0.1,0.1,0.1,0.3,0.1,0.5L86.1,165.2z
	 M95.5,89.3l-9.5,75.9l3,0.4l9.5-75.9L95.5,89.3z M96.2,88c-0.4,0.3-0.6,0.8-0.7,1.3l3,0.4c0,0.2-0.1,0.4-0.3,0.5L96.2,88z
	 M80.6,56.3l15.2,33.5l2.7-1.2L83.3,55L80.6,56.3z M81.7,53.4c-1.1,0.5-1.6,1.8-1.1,2.8l2.7-1.2c0.2,0.4,0,0.9-0.4,1.1L81.7,53.4z
	 M84.1,53.9c-0.6-0.6-1.6-0.8-2.4-0.4l1.2,2.7c-0.3,0.2-0.7,0.1-1-0.2L84.1,53.9z M84.3,54.1c-0.1-0.1-0.1-0.2-0.2-0.2L82,56
	c0,0-0.1-0.1-0.1-0.1L84.3,54.1z M142.1,125.9L84.3,54.1l-2.3,1.9l57.8,71.8L142.1,125.9z M143.2,124.1c-1.6-0.1-2.9,0.8-3.6,2
	l2.6,1.5c0.2-0.3,0.5-0.5,0.9-0.5L143.2,124.1z M189.9,126.5l-46.7-2.4l-0.2,3l46.7,2.4L189.9,126.5z M177.8,111.2l10.8,17.6
	l2.6-1.6l-10.8-17.6L177.8,111.2z M177.5,110.3c0,0.3,0.1,0.6,0.3,0.9l2.6-1.6c0.1,0.1,0.1,0.2,0.1,0.4L177.5,110.3z M107.9,87
	l70.7,24.5l1-2.8l-70.7-24.5L107.9,87z M106.5,84.3c-0.4,1.1,0.2,2.3,1.3,2.7l1-2.8c0.4,0.2,0.7,0.6,0.5,1.1L106.5,84.3z M109.3,83
	c-1.1-0.4-2.3,0.2-2.7,1.3l2.8,1c-0.2,0.4-0.6,0.7-1.1,0.5L109.3,83z M180.1,107.6L109.3,83l-1,2.8l70.8,24.6L180.1,107.6z
	 M181.6,109.5c0-0.9-0.6-1.6-1.4-1.9l-1,2.8c-0.3-0.1-0.6-0.4-0.6-0.8L181.6,109.5z M181.5,109c-0.1-0.2-0.3-0.4-0.5-0.6l-1.8,2.4
	c-0.1-0.1-0.2-0.1-0.2-0.2L181.5,109z M200.1,139.4L181.5,109l-2.6,1.6l18.6,30.5L200.1,139.4z M199.4,142.4c1-0.6,1.3-1.9,0.7-3
	l-2.6,1.6c-0.2-0.4-0.1-0.9,0.3-1.2L199.4,142.4z M196.4,141.7c0.6,1,1.9,1.3,3,0.7l-1.6-2.6c0.4-0.2,0.9-0.1,1.2,0.3L196.4,141.7z
	 M189.3,129.9l7.2,11.8l2.6-1.6l-7.2-11.8L189.3,129.9z M190.1,130.9c0.6,0,1.2-0.3,1.6-0.8l-2.3-1.9c0.1-0.2,0.4-0.3,0.6-0.3
	L190.1,130.9z M143.9,131.9l46.2-1.1l-0.1-3l-46.2,1.1L143.9,131.9z M157.8,145.4L145,129.5l-2.3,1.9l12.8,15.9L157.8,145.4z
	 M158.2,146.4c0-0.4-0.2-0.8-0.5-1.1l-2.3,1.9c-0.1-0.1-0.2-0.3-0.2-0.4L158.2,146.4z M158.3,147.3c0.1-0.5,0-1-0.3-1.5l-2.6,1.6
	c-0.1-0.2-0.1-0.4-0.1-0.6L158.3,147.3z M156.8,156.9l1.5-9.6l-3-0.5l-1.5,9.6L156.8,156.9z M176.3,151.6l-21.3,3.5l0.5,3l21.3-3.5
	L176.3,151.6z M174.6,148.3l0.5,4.9l3-0.3l-0.5-4.9L174.6,148.3z M176.5,146c-1.2,0.1-2,1.2-1.9,2.3l3-0.3c0,0.5-0.3,0.9-0.8,0.9
	L176.5,146z M178.9,147.9c-0.1-1.2-1.2-2-2.3-1.9l0.3,3c-0.5,0-0.9-0.3-0.9-0.8L178.9,147.9z M180.6,165.6l-1.8-17.7l-3,0.3
	l1.8,17.7L180.6,165.6z M179.8,167.4c0.5-0.4,0.8-1.1,0.8-1.9l-3,0.3c0-0.3,0.1-0.6,0.3-0.7L179.8,167.4z M179.5,167.7
	c0.2-0.1,0.4-0.3,0.6-0.5l-2.4-1.8c0.1-0.1,0.1-0.2,0.2-0.2L179.5,167.7z M160.3,179.5l19.2-11.8l-1.6-2.6L158.7,177L160.3,179.5z
	 M167.5,188.3l-6.8-10.8l-2.5,1.6l6.8,10.8L167.5,188.3z M166.8,191.2c1-0.6,1.3-1.9,0.7-3l-2.5,1.6c-0.2-0.4-0.1-0.9,0.3-1.2
	L166.8,191.2z M163.9,190.5c0.6,1,2,1.3,3,0.7l-1.6-2.5c0.4-0.2,0.9-0.1,1.2,0.3L163.9,190.5z M157.1,179.7l6.8,10.8l2.5-1.6
	l-6.8-10.8L157.1,179.7z M141.8,127.6L86.4,58.8l-2.3,1.9l55.3,68.7L141.8,127.6z M142.2,128.5c-0.1-0.1-0.1-0.2-0.1-0.3l-2.9,0.6
	c0.1,0.4,0.3,0.9,0.5,1.3L142.2,128.5z M142.6,128.9c-0.2-0.1-0.3-0.2-0.4-0.4l-2.5,1.6c0.4,0.7,1,1.2,1.8,1.5L142.6,128.9z
	 M156.7,146.1l-13.5-16.8l-2.3,1.9l13.5,16.8L156.7,146.1z M153.6,168.6l3.5-21.3l-3-0.5l-3.5,21.3L153.6,168.6z M131.2,163.1
	l20.4,6.7l0.9-2.9l-20.4-6.7L131.2,163.1z M83.9,60.4l46.4,101.9l2.7-1.2L86.6,59.2L83.9,60.4z M114.3,104.3
	c-0.4,0.2-0.9,0.1-1.2-0.3l2.6-1.6c-0.6-1-1.9-1.3-3-0.7L114.3,104.3z M111.9,105.7l2.4-1.5l-1.6-2.6l-2.4,1.5L111.9,105.7z
	 M112.2,104.6c0.2,0.4,0.1,0.9-0.3,1.2l-1.6-2.6c-1,0.6-1.3,1.9-0.7,3L112.2,104.6z M111,104.3c0.4-0.2,0.9-0.1,1.2,0.3l-2.6,1.6
	c0.6,1,1.9,1.3,3,0.7L111,104.3z M113.4,102.8l-2.4,1.5l1.6,2.6l2.4-1.5L113.4,102.8z M113.2,104c-0.2-0.4-0.1-0.9,0.3-1.2l1.6,2.6
	c1-0.6,1.3-1.9,0.7-3L113.2,104z M131.7,132.5c0.2,0.4,0.1,0.9-0.3,1.2l-1.6-2.5c-1,0.6-1.3,2-0.7,3L131.7,132.5z M143.8,151.8
	l-12-19.3l-2.5,1.6l12,19.3L143.8,151.8z M142.6,151.5c0.4-0.2,0.9-0.1,1.2,0.3l-2.5,1.6c0.6,1,1.9,1.3,3,0.7L142.6,151.5z
	 M142.3,152.7c-0.2-0.4-0.1-0.9,0.3-1.2l1.6,2.5c1-0.6,1.3-1.9,0.7-3L142.3,152.7z M130.3,133.4l12,19.3l2.5-1.6l-12-19.3
	L130.3,133.4z M131.4,133.7c-0.4,0.2-0.9,0.1-1.2-0.3l2.5-1.6c-0.6-1-2-1.3-3-0.7L131.4,133.7z M192.3,153.8
	c0.3,0.4,0.2,0.9-0.1,1.2l-1.9-2.3c-0.9,0.7-1.1,2.1-0.3,3L192.3,153.8z M213.6,180.3l-21.3-26.5l-2.3,1.9l21.3,26.5L213.6,180.3z
	 M212.4,180.2c0.4-0.3,0.9-0.2,1.2,0.1l-2.3,1.9c0.7,0.9,2.1,1.1,3,0.3L212.4,180.2z M212.3,181.4c-0.3-0.4-0.2-0.9,0.1-1.2l1.9,2.3
	c0.9-0.7,1.1-2.1,0.3-3L212.3,181.4z M191,154.8l21.3,26.5l2.3-1.9l-21.3-26.5L191,154.8z M192.2,155c-0.4,0.3-0.9,0.2-1.2-0.1
	l2.3-1.9c-0.7-0.9-2.1-1.1-3-0.3L192.2,155z M125.3,198.9c-1,0.6-1.3,2-0.7,3l2.5-1.6c0.2,0.4,0.1,0.9-0.3,1.2L125.3,198.9z
	 M128.3,199.6c-0.6-1-2-1.3-3-0.7l1.6,2.5c-0.4,0.2-0.9,0.1-1.2-0.3L128.3,199.6z M146.3,228.5l-18-28.9l-2.5,1.6l18,28.9
	L146.3,228.5z M145.6,231.5c1-0.6,1.3-1.9,0.7-3l-2.5,1.6c-0.2-0.4-0.1-0.9,0.3-1.2L145.6,231.5z M142.6,230.8c0.6,1,1.9,1.3,3,0.7
	l-1.6-2.5c0.4-0.2,0.9-0.1,1.2,0.3L142.6,230.8z M124.6,201.9l18,28.9l2.5-1.6l-18-28.9L124.6,201.9z"/>
</svg>
