<?xml version="1.0" encoding="utf-8"?>
<!-- Generator: Adobe Illustrator 24.3.0, SVG Export Plug-In . SVG Version: 6.00 Build 0)  -->
<svg version="1.1" id="圖層_1" xmlns="http://www.w3.org/2000/svg" xmlns:xlink="http://www.w3.org/1999/xlink" x="0px" y="0px"
	 viewBox="0 0 262 262" style="enable-background:new 0 0 262 262;" xml:space="preserve">
<style type="text/css">
	.st0{fill-rule:evenodd;clip-rule:evenodd;fill:#D81690;}
	.st1{fill-rule:evenodd;clip-rule:evenodd;fill:url(#SVGID_1_);}
</style>
<path class="st0" d="M168,94c1.1,0,2,0.9,2,2v2.9h10V96c0-1.1,0.9-2,2-2s2,0.9,2,2v2.9h13.9c0.4,0,0.7,0.1,1,0.3
	c0.7,0.3,1.1,1,1.1,1.8v18.9h5.9c1,0,1.7,0.8,1.7,1.7v10.9c4.3,3.7,7,9.2,7,15.3c0,11.2-9.1,20.3-20.3,20.3
	c-9.8,0-17.9-6.9-19.8-16.1h-13.4c-0.1,0-0.2,0-0.3,0l-3,3c-0.4,0.4-1,0.6-1.5,0.5c0,0-0.1,0-0.1,0H99.1c-3,7.4-10.3,12.6-18.8,12.6
	c-8.5,0-15.8-5.2-18.8-12.6c-0.1,0-0.3,0.1-0.4,0.1h-28c-0.2,0-0.4,0-0.5-0.1c-0.4,0-0.7-0.2-1.1-0.4c-0.7-0.6-0.8-1.7-0.2-2.5
	l11.4-13.2c0.3-0.4,0.8-0.6,1.3-0.6c0.1,0,0.2,0,0.3,0h17.9c3.3-6.6,10.2-11.2,18.1-11.2c5.3,0,10.2,2.1,13.8,5.4l11.5-11.5
	l-3.8-3.5c-0.7-0.7-0.7-1.8-0.1-2.5c0.7-0.7,1.8-0.7,2.5-0.1l10.2,9.4c0.7,0.7,0.7,1.8,0.1,2.5c-0.7,0.7-1.8,0.7-2.5,0.1l-3.8-3.6
	l0,0c0,0,0,0,0,0l-11.7,11.7c0.7,1,1.4,2,2,3.1h28.1c0.1-0.2,0.2-0.4,0.3-0.6l25.1-29.4c0,0,0.1-0.1,0.1-0.1
	c-0.1-0.2-0.1-0.4-0.1-0.6v-7c0-0.2,0-0.4,0.1-0.6c0.1-0.8,0.9-1.5,1.7-1.5H166V96C166,94.9,166.9,94,168,94z M154.3,111.5
	L131,138.8h29.1c0-0.1,0-0.2,0-0.4v-16.8v-10.1H154.3z M169.5,138.8h-6c0-0.1,0-0.2,0-0.4v-15h40.6v6.7c-2.9-1.6-6.2-2.5-9.8-2.5
	c-11.2,0-20.3,9.1-20.3,20.3c0,0.2,0,0.5,0,0.7h-9.7l6.8-6.8c0.7-0.7,0.7-1.8,0-2.5c-0.3-0.3-0.8-0.5-1.2-0.5
	C169.8,138.8,169.6,138.8,169.5,138.8z M196,119.9h-32.4v-10.1c0-1-0.8-1.7-1.7-1.7c-0.1,0-0.2,0-0.4,0c-0.1,0-0.2,0-0.3,0H156v-5.6
	h10v0.6c0,1.1,0.9,2,2,2s2-0.9,2-2v-0.6h10v0.6c0,1.1,0.9,2,2,2s2-0.9,2-2v-0.6h12V119.9z M99.9,142.3h65.8l-9.8,9.8h-55.7
	c0.3-1.4,0.4-2.8,0.4-4.2C100.7,145.9,100.4,144,99.9,142.3z M36.5,152h24c-0.3-1.4-0.4-2.8-0.4-4.2c0-1.9,0.3-3.8,0.8-5.6H44.9
	L36.5,152z M97.2,147.9c0,9.3-7.5,16.8-16.8,16.8c-9.3,0-16.8-7.5-16.8-16.8c0-9.3,7.5-16.8,16.8-16.8
	C89.6,131.1,97.2,138.6,97.2,147.9z M91.6,148.2c0,6.4-5.2,11.5-11.5,11.5c-6.4,0-11.5-5.2-11.5-11.5c0-6.4,5.2-11.5,11.5-11.5
	C86.4,136.7,91.6,141.8,91.6,148.2z M89.6,148.2c0,5.3-4.3,9.5-9.5,9.5c-5.3,0-9.5-4.3-9.5-9.5c0-5.3,4.3-9.5,9.5-9.5
	C85.3,138.7,89.6,142.9,89.6,148.2z M194.3,164.6c9.3,0,16.8-7.5,16.8-16.8c0-9.3-7.5-16.8-16.8-16.8c-9.3,0-16.8,7.5-16.8,16.8
	C177.6,157.1,185.1,164.6,194.3,164.6z M205.5,148.2c0,6.4-5.2,11.5-11.5,11.5c-6.4,0-11.5-5.2-11.5-11.5c0-6.4,5.2-11.5,11.5-11.5
	C200.4,136.7,205.5,141.8,205.5,148.2z M203.5,148.2c0,5.3-4.3,9.5-9.5,9.5c-5.3,0-9.5-4.3-9.5-9.5c0-5.3,4.3-9.5,9.5-9.5
	C199.3,138.7,203.5,142.9,203.5,148.2z M230,104.5c0,1.4-1.1,2.5-2.5,2.5h-22c-1.4,0-2.5-1.1-2.5-2.5s1.1-2.5,2.5-2.5h22
	C228.9,102,230,103.1,230,104.5z M214.5,116c1.4,0,2.5-1.1,2.5-2.5s-1.1-2.5-2.5-2.5h-8c-1.4,0-2.5,1.1-2.5,2.5s1.1,2.5,2.5,2.5
	H214.5z"/>
<radialGradient id="SVGID_1_" cx="-10.0493" cy="273.5886" r="1" gradientTransform="matrix(-143.3459 35.7641 23.668 94.8636 -7714.9565 -25437.1523)" gradientUnits="userSpaceOnUse">
	<stop  offset="0" style="stop-color:#D01E8D"/>
	<stop  offset="1" style="stop-color:#621461"/>
</radialGradient>
<path class="st1" d="M168,94c1.1,0,2,0.9,2,2v2.9h10V96c0-1.1,0.9-2,2-2s2,0.9,2,2v2.9h13.9c0.4,0,0.7,0.1,1,0.3
	c0.7,0.3,1.1,1,1.1,1.8v18.9h5.9c1,0,1.7,0.8,1.7,1.7v10.9c4.3,3.7,7,9.2,7,15.3c0,11.2-9.1,20.3-20.3,20.3
	c-9.8,0-17.9-6.9-19.8-16.1h-13.4c-0.1,0-0.2,0-0.3,0l-3,3c-0.4,0.4-1,0.6-1.5,0.5c0,0-0.1,0-0.1,0H99.1c-3,7.4-10.3,12.6-18.8,12.6
	c-8.5,0-15.8-5.2-18.8-12.6c-0.1,0-0.3,0.1-0.4,0.1h-28c-0.2,0-0.4,0-0.5-0.1c-0.4,0-0.7-0.2-1.1-0.4c-0.7-0.6-0.8-1.7-0.2-2.5
	l11.4-13.2c0.3-0.4,0.8-0.6,1.3-0.6c0.1,0,0.2,0,0.3,0h17.9c3.3-6.6,10.2-11.2,18.1-11.2c5.3,0,10.2,2.1,13.8,5.4l11.5-11.5
	l-3.8-3.5c-0.7-0.7-0.7-1.8-0.1-2.5c0.7-0.7,1.8-0.7,2.5-0.1l10.2,9.4c0.7,0.7,0.7,1.8,0.1,2.5c-0.7,0.7-1.8,0.7-2.5,0.1l-3.8-3.6
	l0,0c0,0,0,0,0,0l-11.7,11.7c0.7,1,1.4,2,2,3.1h28.1c0.1-0.2,0.2-0.4,0.3-0.6l25.1-29.4c0,0,0.1-0.1,0.1-0.1
	c-0.1-0.2-0.1-0.4-0.1-0.6v-7c0-0.2,0-0.4,0.1-0.6c0.1-0.8,0.9-1.5,1.7-1.5H166V96C166,94.9,166.9,94,168,94z M154.3,111.5
	L131,138.8h29.1c0-0.1,0-0.2,0-0.4v-16.8v-10.1H154.3z M169.5,138.8h-6c0-0.1,0-0.2,0-0.4v-15h40.6v6.7c-2.9-1.6-6.2-2.5-9.8-2.5
	c-11.2,0-20.3,9.1-20.3,20.3c0,0.2,0,0.5,0,0.7h-9.7l6.8-6.8c0.7-0.7,0.7-1.8,0-2.5c-0.3-0.3-0.8-0.5-1.2-0.5
	C169.8,138.8,169.6,138.8,169.5,138.8z M196,119.9h-32.4v-10.1c0-1-0.8-1.7-1.7-1.7c-0.1,0-0.2,0-0.4,0c-0.1,0-0.2,0-0.3,0H156v-5.6
	h10v0.6c0,1.1,0.9,2,2,2s2-0.9,2-2v-0.6h10v0.6c0,1.1,0.9,2,2,2s2-0.9,2-2v-0.6h12V119.9z M99.9,142.3h65.8l-9.8,9.8h-55.7
	c0.3-1.4,0.4-2.8,0.4-4.2C100.7,145.9,100.4,144,99.9,142.3z M36.5,152h24c-0.3-1.4-0.4-2.8-0.4-4.2c0-1.9,0.3-3.8,0.8-5.6H44.9
	L36.5,152z M97.2,147.9c0,9.3-7.5,16.8-16.8,16.8c-9.3,0-16.8-7.5-16.8-16.8c0-9.3,7.5-16.8,16.8-16.8
	C89.6,131.1,97.2,138.6,97.2,147.9z M91.6,148.2c0,6.4-5.2,11.5-11.5,11.5c-6.4,0-11.5-5.2-11.5-11.5c0-6.4,5.2-11.5,11.5-11.5
	C86.4,136.7,91.6,141.8,91.6,148.2z M89.6,148.2c0,5.3-4.3,9.5-9.5,9.5c-5.3,0-9.5-4.3-9.5-9.5c0-5.3,4.3-9.5,9.5-9.5
	C85.3,138.7,89.6,142.9,89.6,148.2z M194.3,164.6c9.3,0,16.8-7.5,16.8-16.8c0-9.3-7.5-16.8-16.8-16.8c-9.3,0-16.8,7.5-16.8,16.8
	C177.6,157.1,185.1,164.6,194.3,164.6z M205.5,148.2c0,6.4-5.2,11.5-11.5,11.5c-6.4,0-11.5-5.2-11.5-11.5c0-6.4,5.2-11.5,11.5-11.5
	C200.4,136.7,205.5,141.8,205.5,148.2z M203.5,148.2c0,5.3-4.3,9.5-9.5,9.5c-5.3,0-9.5-4.3-9.5-9.5c0-5.3,4.3-9.5,9.5-9.5
	C199.3,138.7,203.5,142.9,203.5,148.2z M230,104.5c0,1.4-1.1,2.5-2.5,2.5h-22c-1.4,0-2.5-1.1-2.5-2.5s1.1-2.5,2.5-2.5h22
	C228.9,102,230,103.1,230,104.5z M214.5,116c1.4,0,2.5-1.1,2.5-2.5s-1.1-2.5-2.5-2.5h-8c-1.4,0-2.5,1.1-2.5,2.5s1.1,2.5,2.5,2.5
	H214.5z"/>
</svg>
