<?xml version="1.0" encoding="utf-8"?>
<!-- Generator: Adobe Illustrator 24.3.0, SVG Export Plug-In . SVG Version: 6.00 Build 0)  -->
<svg version="1.1" id="圖層_1" xmlns="http://www.w3.org/2000/svg" xmlns:xlink="http://www.w3.org/1999/xlink" x="0px" y="0px"
	 viewBox="0 0 262 262" style="enable-background:new 0 0 262 262;" xml:space="preserve">
<style type="text/css">
	.st0{clip-path:url(#SVGID_2_);}
	.st1{fill:#D81690;}
	.st2{fill:url(#SVGID_3_);}
	.st3{fill:url(#SVGID_4_);}
	.st4{fill:url(#SVGID_5_);}
	.st5{fill:url(#SVGID_6_);}
	.st6{fill:#FFFFFF;}
</style>
<g>
	<defs>
		<rect id="SVGID_1_" x="66" y="55" width="137" height="153"/>
	</defs>
	<clipPath id="SVGID_2_">
		<use xlink:href="#SVGID_1_"  style="overflow:visible;"/>
	</clipPath>
	<g class="st0">
		<path class="st1" d="M82.3,186.3c-6-0.2-10.6-2-13.3-6.5c-1.6-2.5-2.6-5.7-2.8-8.7c-0.4-8.2-0.2-16.3-0.1-24.5
			c0-9.7,4.2-14.9,13.7-16.8c0.7-0.2,1.3-0.2,2.4-0.5c0-4.1-0.1-8.2,0-12.2c0.2-9.1,4.9-13.7,14-13.7c11.5,0,23.2,0,35.4,0
			c0-4.2,0.2-8-0.2-11.9c-0.1-0.9-2-1.9-3.2-2.4c-7-2.9-11.3-9.1-11.3-16.5s4.4-13.8,11.3-16.4c8.8-3.4,19.2,1.1,22.7,9.8
			c3.6,9-0.4,19.3-9.5,22.6c-3.5,1.3-4.2,3-3.9,6.2c0.2,2.7,0.1,5.4,0.1,8.6c4.3,0,8.3,0,12.2,0c8.2,0,16.4-0.1,24.6,0
			c7.1,0.1,12.1,4.7,12.6,11.8c0.2,4.6,0.1,9.2,0.1,14c1.1,0.3,2,0.6,2.9,0.7c8.9,2,13.2,7.2,13.3,16.4c0.1,7.9,0.1,15.8,0,23.7
			c-0.1,9.1-4.6,14.5-13.4,16.2c-1,0.2-2.3,1.6-2.5,2.7c-0.4,2.5-0.1,5.1-0.2,7.8c-0.6,6.8-5.3,11.4-12,11.4
			c-26.8,0.1-53.7,0.1-80.6,0c-6.5,0-11.4-4.7-11.9-11.1C82,193.5,82.3,190.1,82.3,186.3z M88.3,155.5h0.2c0,12.8,0,25.6,0,38.4
			c0,5.6,2.1,7.9,7.5,7.9c25.6,0.1,51.3,0.1,76.9,0c5.3,0,7.5-2.3,7.5-7.5c0-25.7,0-51.4,0-77.2c0-5.1-2-7.3-7.1-7.3
			c-25.8-0.2-51.6-0.3-77.3-0.3c-5.6,0-7.8,2.4-7.8,8.1C88.3,130.2,88.3,142.8,88.3,155.5z"/>
		
			<radialGradient id="SVGID_3_" cx="-10.0164" cy="273.5486" r="1" gradientTransform="matrix(-98.7777 73.8495 99.7895 133.4739 -28103.6035 -35586.6133)" gradientUnits="userSpaceOnUse">
			<stop  offset="0" style="stop-color:#D01E8D"/>
			<stop  offset="1" style="stop-color:#621461"/>
		</radialGradient>
		<path class="st2" d="M82.3,186.3c-6-0.2-10.6-2-13.3-6.5c-1.6-2.5-2.6-5.7-2.8-8.7c-0.4-8.2-0.2-16.3-0.1-24.5
			c0-9.7,4.2-14.9,13.7-16.8c0.7-0.2,1.3-0.2,2.4-0.5c0-4.1-0.1-8.2,0-12.2c0.2-9.1,4.9-13.7,14-13.7c11.5,0,23.2,0,35.4,0
			c0-4.2,0.2-8-0.2-11.9c-0.1-0.9-2-1.9-3.2-2.4c-7-2.9-11.3-9.1-11.3-16.5s4.4-13.8,11.3-16.4c8.8-3.4,19.2,1.1,22.7,9.8
			c3.6,9-0.4,19.3-9.5,22.6c-3.5,1.3-4.2,3-3.9,6.2c0.2,2.7,0.1,5.4,0.1,8.6c4.3,0,8.3,0,12.2,0c8.2,0,16.4-0.1,24.6,0
			c7.1,0.1,12.1,4.7,12.6,11.8c0.2,4.6,0.1,9.2,0.1,14c1.1,0.3,2,0.6,2.9,0.7c8.9,2,13.2,7.2,13.3,16.4c0.1,7.9,0.1,15.8,0,23.7
			c-0.1,9.1-4.6,14.5-13.4,16.2c-1,0.2-2.3,1.6-2.5,2.7c-0.4,2.5-0.1,5.1-0.2,7.8c-0.6,6.8-5.3,11.4-12,11.4
			c-26.8,0.1-53.7,0.1-80.6,0c-6.5,0-11.4-4.7-11.9-11.1C82,193.5,82.3,190.1,82.3,186.3z M88.3,155.5h0.2c0,12.8,0,25.6,0,38.4
			c0,5.6,2.1,7.9,7.5,7.9c25.6,0.1,51.3,0.1,76.9,0c5.3,0,7.5-2.3,7.5-7.5c0-25.7,0-51.4,0-77.2c0-5.1-2-7.3-7.1-7.3
			c-25.8-0.2-51.6-0.3-77.3-0.3c-5.6,0-7.8,2.4-7.8,8.1C88.3,130.2,88.3,142.8,88.3,155.5z"/>
		<path class="st1" d="M134.5,193.9c-7.4,0-14.7,0.2-22-0.1c-6.9-0.2-11.6-3.8-13.6-9.8c-1.9-5.9-0.7-11.2,4-15.2
			c2-1.7,5-3.3,7.5-3.4c16-0.3,32.1-0.4,48.1-0.1c6.4,0.2,11.6,5.6,12.4,11.6c1,6.7-2.4,13.1-8.5,15.5c-2.5,1-5.3,1.2-7.9,1.3
			C147.8,194,141.1,193.9,134.5,193.9z M119,187h5.9v-15.7H119V187z M144.3,186.9h6v-15.5h-6V186.9z M131.6,171.3V187h6.1v-8v-7.7
			H131.6z M112,171.5c-4.8,0.7-7.6,3.5-7.6,7.5c0,4.4,2.8,7.3,7.6,7.8V171.5z M157.2,186.9c4.9-0.7,7.6-3.7,7.5-8
			c-0.1-4-3-6.9-7.5-7.2V186.9z"/>
		
			<radialGradient id="SVGID_4_" cx="-10.1306" cy="273.787" r="1" gradientTransform="matrix(-52.6676 13.9124 9.6793 36.6423 -3023.1489 -9701.6377)" gradientUnits="userSpaceOnUse">
			<stop  offset="0" style="stop-color:#D01E8D"/>
			<stop  offset="1" style="stop-color:#621461"/>
		</radialGradient>
		<path class="st3" d="M134.5,193.9c-7.4,0-14.7,0.2-22-0.1c-6.9-0.2-11.6-3.8-13.6-9.8c-1.9-5.9-0.7-11.2,4-15.2
			c2-1.7,5-3.3,7.5-3.4c16-0.3,32.1-0.4,48.1-0.1c6.4,0.2,11.6,5.6,12.4,11.6c1,6.7-2.4,13.1-8.5,15.5c-2.5,1-5.3,1.2-7.9,1.3
			C147.8,194,141.1,193.9,134.5,193.9z M119,187h5.9v-15.7H119V187z M144.3,186.9h6v-15.5h-6V186.9z M131.6,171.3V187h6.1v-8v-7.7
			H131.6z M112,171.5c-4.8,0.7-7.6,3.5-7.6,7.5c0,4.4,2.8,7.3,7.6,7.8V171.5z M157.2,186.9c4.9-0.7,7.6-3.7,7.5-8
			c-0.1-4-3-6.9-7.5-7.2V186.9z"/>
		<path class="st1" d="M155,151.7c-7.9-0.1-14-6.2-14-14c0-8,6.3-14.1,14.4-14c7.6,0.2,14.1,6.6,13.9,14.2
			C169.2,145.5,162.7,151.7,155,151.7z M155.2,145.1c4.3-0.1,7.4-3.3,7.4-7.6c-0.1-4.2-3.4-7.3-7.7-7.3c-4.2,0.1-7.5,3.5-7.4,7.6
			C147.6,141.9,151,145.2,155.2,145.1z"/>
		
			<radialGradient id="SVGID_5_" cx="-10.1159" cy="273.902" r="1" gradientTransform="matrix(-20.3996 13.4725 17.4564 26.4318 -4822.4697 -6955.9331)" gradientUnits="userSpaceOnUse">
			<stop  offset="0" style="stop-color:#D01E8D"/>
			<stop  offset="1" style="stop-color:#621461"/>
		</radialGradient>
		<path class="st4" d="M155,151.7c-7.9-0.1-14-6.2-14-14c0-8,6.3-14.1,14.4-14c7.6,0.2,14.1,6.6,13.9,14.2
			C169.2,145.5,162.7,151.7,155,151.7z M155.2,145.1c4.3-0.1,7.4-3.3,7.4-7.6c-0.1-4.2-3.4-7.3-7.7-7.3c-4.2,0.1-7.5,3.5-7.4,7.6
			C147.6,141.9,151,145.2,155.2,145.1z"/>
		<path class="st1" d="M113.8,151.7c-7.7,0-14-6.3-14-14c0-7.7,6.3-13.9,14.1-14c8,0,14.2,6.2,14.2,14.2
			C127.9,145.7,121.7,151.7,113.8,151.7z M114.4,130.3c-4.3-0.2-7.7,2.9-7.9,7c-0.2,4.2,2.9,7.6,7.1,7.8c4.3,0.2,7.7-2.9,7.9-7
			C121.8,133.9,118.5,130.4,114.4,130.3z"/>
		
			<radialGradient id="SVGID_6_" cx="-10.1154" cy="273.9025" r="1" gradientTransform="matrix(-20.3391 13.4708 17.4737 26.3829 -4867.9297 -6942.5815)" gradientUnits="userSpaceOnUse">
			<stop  offset="0" style="stop-color:#D01E8D"/>
			<stop  offset="1" style="stop-color:#621461"/>
		</radialGradient>
		<path class="st5" d="M113.8,151.7c-7.7,0-14-6.3-14-14c0-7.7,6.3-13.9,14.1-14c8,0,14.2,6.2,14.2,14.2
			C127.9,145.7,121.7,151.7,113.8,151.7z M114.4,130.3c-4.3-0.2-7.7,2.9-7.9,7c-0.2,4.2,2.9,7.6,7.1,7.8c4.3,0.2,7.7-2.9,7.9-7
			C121.8,133.9,118.5,130.4,114.4,130.3z"/>
		<path class="st6" d="M124.8,171.3h-5.9V187h5.9V171.3z"/>
		<path class="st6" d="M150.3,171.4h-6v15.5h6V171.4z"/>
		<path class="st6" d="M131.6,171.3h6.1v7.6v8h-6.1V171.3z"/>
		<path class="st6" d="M112,171.5v15.3c-4.7-0.4-7.5-3.3-7.6-7.8C104.4,175,107.2,172.2,112,171.5z"/>
		<path class="st6" d="M157.2,186.9v-15.2c4.5,0.3,7.4,3.2,7.5,7.2C164.7,183.2,162.1,186.2,157.2,186.9z"/>
	</g>
</g>
</svg>
