<?xml version="1.0" encoding="utf-8"?>
<!-- Generator: Adobe Illustrator 24.3.0, SVG Export Plug-In . SVG Version: 6.00 Build 0)  -->
<svg version="1.1" id="圖層_1" xmlns="http://www.w3.org/2000/svg" xmlns:xlink="http://www.w3.org/1999/xlink" x="0px" y="0px"
	 viewBox="0 0 262 262" style="enable-background:new 0 0 262 262;" xml:space="preserve">
<style type="text/css">
	.st0{fill-rule:evenodd;clip-rule:evenodd;fill:#D81690;}
	.st1{fill-rule:evenodd;clip-rule:evenodd;fill:url(#SVGID_1_);}
</style>
<path class="st0" d="M68.2,59.6c-1.9-1.1-3.9-2.3-5.9-3.5c0.3,2,0.6,3.9,1,5.8c1.4,8.7,2.8,16.9,4,25.2c0.3,1.9-0.1,4.1-1,5.8
	c-5.2,9.2-8.4,19-9.8,29.4c-6,49.3,38.6,91.5,87.1,82.4c51.8-9.6,78.1-66,52.1-111.8c-1-1.7-1.4-4.2-1.1-6.2
	c1-6.8,2.1-13.6,3.3-20.6v0v0c0.5-3.3,1.1-6.6,1.6-10c-1,0.6-1.8,1-2.5,1.4c-0.4,0.2-0.8,0.4-1.2,0.7c-1.4,0.8-2.7,1.6-4.1,2.4v0
	l0,0c-4.4,2.6-8.9,5.2-13.2,8c-2.3,1.5-3.8,1.5-6.2-0.1c-25.2-16.9-57.3-16.9-82.6,0c-2.3,1.6-3.8,1.7-6.2,0.2
	C78.6,65.7,73.5,62.7,68.2,59.6L68.2,59.6L68.2,59.6z M68.5,131c0-34.5,28-62.4,62.7-62.4c34.5,0.1,62.3,28,62.2,62.8
	c0,34.3-28,62.3-62.4,62.2C96.4,193.5,68.6,165.7,68.5,131z M98,126.9c5.8,5.6,14.4,5.5,20.1-0.1c-6.8-6.8-13.6-13.6-20.3-20.4
	C92.5,110.9,91.7,120.9,98,126.9z M164.5,106.7c5.4,5.8,5.4,14.3-0.3,20c-5.6,5.7-14.1,5.9-20.1,0.5
	C150.9,120.3,157.7,113.5,164.5,106.7z M146,155.8c1-0.1,2-0.2,3-0.3c2,6,4,11.9,5.9,17.7v0c0.5,1.6,1.2,2.8,3,3
	c1.8,0.2,2.8-0.8,3.7-2.2c4.8-7.3,8-15.1,9.9-23.6c0.5-2.5-1.4-4.4-4.1-4.1c-2.2,0.3-4.4,0.5-6.6,0.8c-5.5,0.7-11,1.4-16.6,1.9
	C128,150.6,112,149,96,146.5c-2.8-0.4-4.8,1.4-4.1,4.2c2,8.4,5.2,16.3,10,23.6c0.9,1.3,1.9,2.3,3.6,2c1.8-0.2,2.5-1.5,3-3
	c0.7-2.1,1.4-4.2,2.1-6.3c1-3.1,2.1-6.1,3-9.2c0.5-2,1.5-2.2,3.4-2.1c7.6,0.3,15.2,0.5,22.8,0.5C141.8,156.2,143.9,156,146,155.8z
	 M104.2,154.4c1.1,0.1,2.2,0.3,3.4,0.4c-0.8,2.6-1.6,5-2.5,7.5c-0.3,0.8-0.5,1.6-0.8,2.4c-0.1,0-0.2,0-0.3,0c-0.1,0-0.1,0-0.2,0
	c-0.8-2.1-1.6-4.1-2.5-6.2c-0.6-1.6-1.3-3.1-2-4.8C101.1,154,102.7,154.2,104.2,154.4z M157.5,159.8c-0.5-1.6-1.1-3.3-1.7-5
	c1.6-0.2,3.2-0.4,4.8-0.6c1.1-0.2,2.3-0.3,3.5-0.5c-0.7,1.7-1.3,3.3-2,4.8c-0.9,2.1-1.7,4.1-2.5,6.2c-0.1,0-0.2,0-0.3,0
	c-0.1,0-0.1,0-0.2,0C158.6,163.1,158,161.5,157.5,159.8z"/>
<radialGradient id="SVGID_1_" cx="-10.0211" cy="273.5465" r="1" gradientTransform="matrix(-107.958 72.3672 94.3063 140.6871 -26695.0898 -37575.668)" gradientUnits="userSpaceOnUse">
	<stop  offset="0" style="stop-color:#D01E8D"/>
	<stop  offset="1" style="stop-color:#621461"/>
</radialGradient>
<path class="st1" d="M68.2,59.6c-1.9-1.1-3.9-2.3-5.9-3.5c0.3,2,0.6,3.9,1,5.8c1.4,8.7,2.8,16.9,4,25.2c0.3,1.9-0.1,4.1-1,5.8
	c-5.2,9.2-8.4,19-9.8,29.4c-6,49.3,38.6,91.5,87.1,82.4c51.8-9.6,78.1-66,52.1-111.8c-1-1.7-1.4-4.2-1.1-6.2
	c1-6.8,2.1-13.6,3.3-20.6v0v0c0.5-3.3,1.1-6.6,1.6-10c-1,0.6-1.8,1-2.5,1.4c-0.4,0.2-0.8,0.4-1.2,0.7c-1.4,0.8-2.7,1.6-4.1,2.4v0
	l0,0c-4.4,2.6-8.9,5.2-13.2,8c-2.3,1.5-3.8,1.5-6.2-0.1c-25.2-16.9-57.3-16.9-82.6,0c-2.3,1.6-3.8,1.7-6.2,0.2
	C78.6,65.7,73.5,62.7,68.2,59.6L68.2,59.6L68.2,59.6z M68.5,131c0-34.5,28-62.4,62.7-62.4c34.5,0.1,62.3,28,62.2,62.8
	c0,34.3-28,62.3-62.4,62.2C96.4,193.5,68.6,165.7,68.5,131z M98,126.9c5.8,5.6,14.4,5.5,20.1-0.1c-6.8-6.8-13.6-13.6-20.3-20.4
	C92.5,110.9,91.7,120.9,98,126.9z M164.5,106.7c5.4,5.8,5.4,14.3-0.3,20c-5.6,5.7-14.1,5.9-20.1,0.5
	C150.9,120.3,157.7,113.5,164.5,106.7z M146,155.8c1-0.1,2-0.2,3-0.3c2,6,4,11.9,5.9,17.7v0c0.5,1.6,1.2,2.8,3,3
	c1.8,0.2,2.8-0.8,3.7-2.2c4.8-7.3,8-15.1,9.9-23.6c0.5-2.5-1.4-4.4-4.1-4.1c-2.2,0.3-4.4,0.5-6.6,0.8c-5.5,0.7-11,1.4-16.6,1.9
	C128,150.6,112,149,96,146.5c-2.8-0.4-4.8,1.4-4.1,4.2c2,8.4,5.2,16.3,10,23.6c0.9,1.3,1.9,2.3,3.6,2c1.8-0.2,2.5-1.5,3-3
	c0.7-2.1,1.4-4.2,2.1-6.3c1-3.1,2.1-6.1,3-9.2c0.5-2,1.5-2.2,3.4-2.1c7.6,0.3,15.2,0.5,22.8,0.5C141.8,156.2,143.9,156,146,155.8z
	 M104.2,154.4c1.1,0.1,2.2,0.3,3.4,0.4c-0.8,2.6-1.6,5-2.5,7.5c-0.3,0.8-0.5,1.6-0.8,2.4c-0.1,0-0.2,0-0.3,0c-0.1,0-0.1,0-0.2,0
	c-0.8-2.1-1.6-4.1-2.5-6.2c-0.6-1.6-1.3-3.1-2-4.8C101.1,154,102.7,154.2,104.2,154.4z M157.5,159.8c-0.5-1.6-1.1-3.3-1.7-5
	c1.6-0.2,3.2-0.4,4.8-0.6c1.1-0.2,2.3-0.3,3.5-0.5c-0.7,1.7-1.3,3.3-2,4.8c-0.9,2.1-1.7,4.1-2.5,6.2c-0.1,0-0.2,0-0.3,0
	c-0.1,0-0.1,0-0.2,0C158.6,163.1,158,161.5,157.5,159.8z"/>
</svg>
