<svg width="262" height="262" viewBox="0 0 262 262" fill="none" xmlns="http://www.w3.org/2000/svg">
<path d="M65.0891 65.0898C65.9174 64.2615 67.0871 63.8721 68.2463 64.0373L105.079 69.2991C105.994 69.4298 106.827 69.8959 107.417 70.6071L156.441 129.717C160.497 127.915 165.468 128.636 168.862 132.029L170.729 133.897C172.181 135.349 172.182 137.706 170.729 139.159L162.836 147.052L186.222 170.438H187.764C193.918 170.438 198.926 175.445 198.926 181.6V187.764C198.926 193.919 193.918 198.926 187.764 198.926H181.599C175.444 198.926 170.437 193.919 170.437 187.764V186.223L147.051 162.837L139.158 170.73C137.706 172.182 135.349 172.183 133.897 170.73L128.635 165.468C125.252 162.086 127.909 160.512 129.717 156.442L70.6067 107.417C69.8958 106.828 69.4294 105.994 69.2987 105.08L64.0364 68.2466C63.871 67.0873 64.2609 65.9177 65.0891 65.0898ZM177.878 187.764C177.878 189.816 179.547 191.485 181.599 191.485H187.764C189.815 191.485 191.484 189.816 191.484 187.764V181.6C191.484 179.548 189.815 177.879 187.764 177.879H186.223L177.878 186.223V187.764ZM174.158 179.42L179.419 174.158L157.575 152.314L152.313 157.576L174.158 179.42ZM137.291 163.6L136.527 162.837L162.837 136.528L163.6 137.291C162.145 135.837 159.792 135.837 158.338 137.291L137.29 158.339C135.836 159.793 135.836 162.146 137.291 163.6ZM76.4618 102.606L134.426 150.68L139.921 145.184L129.717 134.979C128.264 133.526 128.264 131.17 129.717 129.717C131.169 128.264 133.525 128.264 134.978 129.717L145.183 139.922L150.679 134.426L102.606 76.4627L72.1049 72.1055L76.4618 102.606Z" fill="url(#paint0_radial)"/>
<defs>
<radialGradient id="paint0_radial" cx="0" cy="0" r="1" gradientUnits="userSpaceOnUse" gradientTransform="translate(83.7558 178.766) rotate(33.8124) scale(116.977 152.392)">
<stop stop-color="#D01E8D"/>
<stop offset="1" stop-color="#621461"/>
</radialGradient>
</defs>
</svg>
