<?xml version="1.0" encoding="utf-8"?>
<!-- Generator: Adobe Illustrator 24.3.0, SVG Export Plug-In . SVG Version: 6.00 Build 0)  -->
<svg version="1.1" id="圖層_1" xmlns="http://www.w3.org/2000/svg" xmlns:xlink="http://www.w3.org/1999/xlink" x="0px" y="0px"
	 viewBox="0 0 80 80" style="enable-background:new 0 0 80 80;" xml:space="preserve">
<style type="text/css">
	.st0{fill:none;stroke:#4B4B4B;stroke-width:3;}
</style>
<path class="st0" d="M13,25h54c1.4,0,2.5,1.1,2.5,2.5v25c0,1.4-1.1,2.5-2.5,2.5H13c-1.4,0-2.5-1.1-2.5-2.5v-25
	C10.5,26.1,11.6,25,13,25z"/>
<path d="M30.2,40c0,1.8-0.5,3.3-1.4,4.3c-0.9,1-2.2,1.6-3.9,1.6c-1.7,0-3-0.5-3.9-1.5c-0.9-1-1.4-2.5-1.4-4.4c0-1.9,0.5-3.3,1.4-4.3
	c0.9-1,2.2-1.5,3.9-1.5c1.6,0,2.9,0.5,3.8,1.6C29.8,36.7,30.2,38.2,30.2,40z M21.1,40c0,1.5,0.3,2.7,1,3.5c0.7,0.8,1.6,1.2,2.9,1.2
	c1.3,0,2.2-0.4,2.9-1.2c0.6-0.8,1-2,1-3.5c0-1.5-0.3-2.7-1-3.5c-0.6-0.8-1.6-1.2-2.9-1.2c-1.3,0-2.2,0.4-2.9,1.2
	C21.5,37.3,21.1,38.5,21.1,40z M40,37.6c0,1.2-0.4,2-1.2,2.7c-0.8,0.6-1.9,0.9-3.4,0.9h-1.3v4.5h-1.3V34.3h3
	C38.6,34.3,40,35.4,40,37.6z M34.1,40.1h1.2c1.2,0,2-0.2,2.6-0.6c0.5-0.4,0.8-1,0.8-1.8c0-0.8-0.2-1.3-0.7-1.7
	c-0.5-0.4-1.3-0.6-2.3-0.6h-1.5V40.1z M48.8,45.7h-6.4V34.3h6.4v1.2h-5v3.7h4.7v1.2h-4.7v4.2h5V45.7z M60.3,45.7h-1.5l-6.2-9.6h-0.1
	c0.1,1.1,0.1,2.2,0.1,3.1v6.5h-1.2V34.3h1.5l6.2,9.5h0.1c0-0.1,0-0.6-0.1-1.4c0-0.8,0-1.3,0-1.6v-6.6h1.2V45.7z"/>
</svg>
