<?xml version="1.0" encoding="utf-8"?>
<!-- Generator: Adobe Illustrator 24.3.0, SVG Export Plug-In . SVG Version: 6.00 Build 0)  -->
<svg version="1.1" id="圖層_1" xmlns="http://www.w3.org/2000/svg" xmlns:xlink="http://www.w3.org/1999/xlink" x="0px" y="0px"
	 viewBox="0 0 80 80" style="enable-background:new 0 0 80 80;" xml:space="preserve">
<style type="text/css">
	.st0{fill:#FFFFFF;}
	.st1{fill:#F2CE1B;}
	.st2{fill:url(#SVGID_1_);}
</style>
<g>
	<path class="st0" d="M19,49.5H9c-0.8,0-1.5,0.7-1.5,1.5s0.7,1.5,1.5,1.5h8.5v17H9c-0.8,0-1.5,0.7-1.5,1.5s0.7,1.5,1.5,1.5h10
		c0.8,0,1.5-0.7,1.5-1.5V51C20.5,50.2,19.8,49.5,19,49.5z"/>
	<path class="st0" d="M35,59.5H25c-0.8,0-1.5,0.7-1.5,1.5s0.7,1.5,1.5,1.5h10c0.8,0,1.5-0.7,1.5-1.5S35.8,59.5,35,59.5z"/>
	<path class="st0" d="M71,69.5h-8.5v-17H71c0.8,0,1.5-0.7,1.5-1.5s-0.7-1.5-1.5-1.5H61c-0.8,0-1.5,0.7-1.5,1.5v20
		c0,0.8,0.7,1.5,1.5,1.5h10c0.8,0,1.5-0.7,1.5-1.5S71.8,69.5,71,69.5z"/>
	<path class="st0" d="M55,59.5H45c-0.8,0-1.5,0.7-1.5,1.5s0.7,1.5,1.5,1.5h10c0.8,0,1.5-0.7,1.5-1.5S55.8,59.5,55,59.5z"/>
</g>
<path class="st0" d="M53,21.1h-2.2V20c0-1.2-1-2.2-2.2-2.2H31.5c-1.2,0-2.2,1-2.2,2.2v1.1h-2.2c-1.2,0-2.2,1-2.2,2.2
	c0,4.7,2.2,8.1,5.7,9c1.2,2.7,3.1,4.9,5.6,6.6c0.6,0.4,0.9,1,0.9,1.7v4c-0.5,0.1-0.9,0.4-1.3,0.8c-0.5,0.5-0.8,1.3-0.8,2h-0.7
	c-1.2,0-2.2,1-2.2,2.2v4.3c0,0.4,0.3,0.7,0.7,0.7h14.3c0.4,0,0.7-0.3,0.7-0.7v-4.4c0-1.2-1-2.2-2.2-2.2h-0.5c0-1.3-0.9-2.5-2.2-2.8
	v-3.9c0-0.7,0.3-1.4,0.9-1.7c2.4-1.6,4.4-3.9,5.6-6.6c3.5-1,5.7-4.4,5.7-9C55.2,22,54.2,21.1,53,21.1z M26.5,23.2
	c0-0.4,0.3-0.7,0.7-0.7h2.2v3.2c0,1.6,0.2,3.2,0.7,4.8C27.8,29.4,26.5,26.8,26.5,23.2z M45.8,48.8c0.4,0,0.7,0.3,0.7,0.7v3.6H33.6
	v-3.6c0-0.4,0.3-0.7,0.7-0.7H45.8z M49.4,25.7c0,2-0.4,3.9-1.2,5.7c-1.1,2.6-2.9,4.7-5.2,6.3c-1,0.6-1.5,1.7-1.5,2.9v4.6
	c0,0.4,0.3,0.7,0.7,0.7c0.8,0,1.4,0.6,1.4,1.4h-7.2c0-0.4,0.1-0.7,0.4-1c0.3-0.3,0.6-0.4,1-0.4c0,0,0,0,0.1,0c0.4,0,0.7-0.3,0.7-0.7
	v-4.6c0-1.2-0.6-2.3-1.5-2.9c-2.3-1.6-4.1-3.7-5.2-6.3c-0.8-1.8-1.2-3.7-1.2-5.7v-5.8c0-0.4,0.3-0.7,0.7-0.7h17.2
	c0.4,0,0.7,0.3,0.7,0.7L49.4,25.7L49.4,25.7z M50.1,30.5c0.5-1.5,0.7-3.1,0.7-4.8v-3.2H53c0.4,0,0.7,0.3,0.7,0.7
	C53.7,26.8,52.4,29.4,50.1,30.5z"/>
<g>
	<path class="st1" d="M45.4,27.7c-0.3,0-0.6-0.1-0.8-0.2L40,25.1l-4.6,2.4c-0.3,0.1-0.6,0.2-0.9,0.2c-0.3,0-0.6-0.1-0.9-0.3
		c-0.3-0.2-0.5-0.4-0.6-0.7s-0.2-0.6-0.1-0.9l0.9-5.2l-3.7-3.7c-0.2-0.2-0.4-0.5-0.5-0.8c-0.1-0.3-0.1-0.6,0-0.9
		c0.1-0.3,0.3-0.6,0.5-0.8s0.5-0.3,0.9-0.4l5.2-0.8l2.3-4.7c0.1-0.3,0.4-0.5,0.6-0.7c0.3-0.2,0.6-0.3,0.9-0.3c0.3,0,0.6,0.1,0.9,0.3
		c0.3,0.2,0.5,0.4,0.6,0.7l2.3,4.7L49,14c0.3,0,0.6,0.2,0.9,0.4c0.2,0.2,0.4,0.5,0.5,0.8s0.1,0.6,0,0.9c-0.1,0.3-0.2,0.6-0.5,0.8
		l-3.7,3.7l0.9,5.2c0,0.2,0,0.5,0,0.7c-0.1,0.2-0.2,0.5-0.3,0.7c-0.2,0.2-0.4,0.3-0.6,0.5C45.9,27.7,45.7,27.7,45.4,27.7z"/>
	
		<linearGradient id="SVGID_1_" gradientUnits="userSpaceOnUse" x1="40" y1="53.719" x2="40" y2="73.8646" gradientTransform="matrix(1 0 0 -1 0 81.4646)">
		<stop  offset="0.2083" style="stop-color:#FFFFFF"/>
		<stop  offset="1" style="stop-color:#FFFFFF;stop-opacity:0"/>
	</linearGradient>
	<path class="st2" d="M45.4,27.7c-0.3,0-0.6-0.1-0.8-0.2L40,25.1l-4.6,2.4c-0.3,0.1-0.6,0.2-0.9,0.2c-0.3,0-0.6-0.1-0.9-0.3
		c-0.3-0.2-0.5-0.4-0.6-0.7s-0.2-0.6-0.1-0.9l0.9-5.2l-3.7-3.7c-0.2-0.2-0.4-0.5-0.5-0.8c-0.1-0.3-0.1-0.6,0-0.9
		c0.1-0.3,0.3-0.6,0.5-0.8s0.5-0.3,0.9-0.4l5.2-0.8l2.3-4.7c0.1-0.3,0.4-0.5,0.6-0.7c0.3-0.2,0.6-0.3,0.9-0.3c0.3,0,0.6,0.1,0.9,0.3
		c0.3,0.2,0.5,0.4,0.6,0.7l2.3,4.7L49,14c0.3,0,0.6,0.2,0.9,0.4c0.2,0.2,0.4,0.5,0.5,0.8s0.1,0.6,0,0.9c-0.1,0.3-0.2,0.6-0.5,0.8
		l-3.7,3.7l0.9,5.2c0,0.2,0,0.5,0,0.7c-0.1,0.2-0.2,0.5-0.3,0.7c-0.2,0.2-0.4,0.3-0.6,0.5C45.9,27.7,45.7,27.7,45.4,27.7z"/>
	<path class="st0" d="M45.4,27.7c-0.3,0-0.6-0.1-0.8-0.2L40,25.1l-4.6,2.4c-0.3,0.1-0.6,0.2-0.9,0.2c-0.3,0-0.6-0.1-0.9-0.3
		c-0.3-0.2-0.5-0.4-0.6-0.7s-0.2-0.6-0.1-0.9l0.9-5.2l-3.7-3.7c-0.2-0.2-0.4-0.5-0.5-0.8c-0.1-0.3-0.1-0.6,0-0.9
		c0.1-0.3,0.3-0.6,0.5-0.8s0.5-0.3,0.9-0.4l5.2-0.8l2.3-4.7c0.1-0.3,0.4-0.5,0.6-0.7c0.3-0.2,0.6-0.3,0.9-0.3c0.3,0,0.6,0.1,0.9,0.3
		c0.3,0.2,0.5,0.4,0.6,0.7l2.3,4.7L49,14c0.3,0,0.6,0.2,0.9,0.4c0.2,0.2,0.4,0.5,0.5,0.8s0.1,0.6,0,0.9c-0.1,0.3-0.2,0.6-0.5,0.8
		l-3.7,3.7l0.9,5.2c0,0.2,0,0.5,0,0.7c-0.1,0.2-0.2,0.5-0.3,0.7c-0.2,0.2-0.4,0.3-0.6,0.5C45.9,27.7,45.7,27.7,45.4,27.7z M40,23.8
		c0.1,0,0.2,0,0.3,0.1l4.9,2.6c0.1,0,0.2,0.1,0.3,0.1s0.2,0,0.2-0.1c0.1-0.1,0.1-0.1,0.2-0.2c0-0.1,0-0.2,0-0.3L45,20.5
		c0-0.1,0-0.2,0-0.3s0.1-0.2,0.2-0.3l4-3.9c0.1-0.1,0.1-0.1,0.1-0.2c0-0.1,0-0.2,0-0.3s-0.1-0.2-0.1-0.2c-0.1-0.1-0.2-0.1-0.2-0.1
		l-5.5-0.8c-0.1,0-0.2-0.1-0.3-0.1c-0.1-0.1-0.1-0.1-0.2-0.2l-2.5-5c0-0.1-0.1-0.1-0.2-0.2c-0.1,0-0.2-0.1-0.3-0.1s-0.2,0-0.3,0.1
		c-0.1,0-0.1,0.1-0.2,0.2l-2.5,5c0,0.1-0.1,0.2-0.2,0.2c-0.1,0.1-0.2,0.1-0.3,0.1L31,15.2c-0.1,0-0.2,0.1-0.2,0.1
		c-0.1,0.1-0.1,0.1-0.1,0.2c0,0.1,0,0.2,0,0.3s0.1,0.2,0.1,0.2l4,3.9c0.1,0.1,0.1,0.2,0.2,0.3c0,0.1,0,0.2,0,0.3L34.1,26
		c0,0.1,0,0.2,0,0.3c0,0.1,0.1,0.2,0.2,0.2c0.1,0.1,0.2,0.1,0.2,0.1c0.1,0,0.2,0,0.3-0.1l4.9-2.6C39.8,23.8,39.9,23.8,40,23.8
		L40,23.8z"/>
</g>
</svg>
