<?xml version="1.0" encoding="utf-8"?>
<!-- Generator: Adobe Illustrator 24.3.0, SVG Export Plug-In . SVG Version: 6.00 Build 0)  -->
<svg version="1.1" id="圖層_1" xmlns="http://www.w3.org/2000/svg" xmlns:xlink="http://www.w3.org/1999/xlink" x="0px" y="0px"
	 viewBox="0 0 80 80" style="enable-background:new 0 0 80 80;" xml:space="preserve">
<style type="text/css">
	.st0{fill:#F2CE1B;}
	.st1{fill:url(#SVGID_1_);}
	.st2{fill:#FFFFFF;}
	.st3{fill:url(#SVGID_2_);}
	.st4{fill:url(#SVGID_3_);}
	.st5{fill:none;stroke:#FFFFFF;stroke-width:2;}
</style>
<g>
	<path class="st0" d="M45.4,26.6c-0.3,0-0.6-0.1-0.8-0.2L40,24l-4.6,2.4c-0.3,0.1-0.6,0.2-0.9,0.2c-0.3,0-0.6-0.1-0.9-0.3
		c-0.3-0.2-0.5-0.4-0.6-0.7c-0.1-0.3-0.2-0.6-0.1-0.9l0.9-5.2l-3.7-3.7c-0.2-0.2-0.4-0.5-0.5-0.8s-0.1-0.6,0-0.9
		c0.1-0.3,0.3-0.6,0.5-0.8s0.5-0.3,0.9-0.4l5.2-0.8l2.3-4.7c0.1-0.3,0.4-0.5,0.6-0.7c0.3-0.2,0.6-0.3,0.9-0.3c0.3,0,0.6,0.1,0.9,0.3
		c0.3,0.2,0.5,0.4,0.6,0.7l2.3,4.7l5.2,0.8c0.3,0,0.6,0.2,0.9,0.4c0.2,0.2,0.4,0.5,0.5,0.8s0.1,0.6,0,0.9c-0.1,0.3-0.2,0.6-0.5,0.8
		l-3.7,3.7l0.9,5.2c0,0.2,0,0.5,0,0.7c-0.1,0.2-0.2,0.5-0.3,0.7c-0.2,0.2-0.4,0.3-0.6,0.5C45.9,26.6,45.7,26.6,45.4,26.6z"/>
	
		<linearGradient id="SVGID_1_" gradientUnits="userSpaceOnUse" x1="40" y1="54.819" x2="40" y2="74.9646" gradientTransform="matrix(1 0 0 -1 0 81.4646)">
		<stop  offset="0.2083" style="stop-color:#FFFFFF"/>
		<stop  offset="1" style="stop-color:#FFFFFF;stop-opacity:0"/>
	</linearGradient>
	<path class="st1" d="M45.4,26.6c-0.3,0-0.6-0.1-0.8-0.2L40,24l-4.6,2.4c-0.3,0.1-0.6,0.2-0.9,0.2c-0.3,0-0.6-0.1-0.9-0.3
		c-0.3-0.2-0.5-0.4-0.6-0.7c-0.1-0.3-0.2-0.6-0.1-0.9l0.9-5.2l-3.7-3.7c-0.2-0.2-0.4-0.5-0.5-0.8s-0.1-0.6,0-0.9
		c0.1-0.3,0.3-0.6,0.5-0.8s0.5-0.3,0.9-0.4l5.2-0.8l2.3-4.7c0.1-0.3,0.4-0.5,0.6-0.7c0.3-0.2,0.6-0.3,0.9-0.3c0.3,0,0.6,0.1,0.9,0.3
		c0.3,0.2,0.5,0.4,0.6,0.7l2.3,4.7l5.2,0.8c0.3,0,0.6,0.2,0.9,0.4c0.2,0.2,0.4,0.5,0.5,0.8s0.1,0.6,0,0.9c-0.1,0.3-0.2,0.6-0.5,0.8
		l-3.7,3.7l0.9,5.2c0,0.2,0,0.5,0,0.7c-0.1,0.2-0.2,0.5-0.3,0.7c-0.2,0.2-0.4,0.3-0.6,0.5C45.9,26.6,45.7,26.6,45.4,26.6z"/>
	<path class="st2" d="M45.4,26.6c-0.3,0-0.6-0.1-0.8-0.2L40,24l-4.6,2.4c-0.3,0.1-0.6,0.2-0.9,0.2c-0.3,0-0.6-0.1-0.9-0.3
		c-0.3-0.2-0.5-0.4-0.6-0.7c-0.1-0.3-0.2-0.6-0.1-0.9l0.9-5.2l-3.7-3.7c-0.2-0.2-0.4-0.5-0.5-0.8s-0.1-0.6,0-0.9
		c0.1-0.3,0.3-0.6,0.5-0.8s0.5-0.3,0.9-0.4l5.2-0.8l2.3-4.7c0.1-0.3,0.4-0.5,0.6-0.7c0.3-0.2,0.6-0.3,0.9-0.3c0.3,0,0.6,0.1,0.9,0.3
		c0.3,0.2,0.5,0.4,0.6,0.7l2.3,4.7l5.2,0.8c0.3,0,0.6,0.2,0.9,0.4c0.2,0.2,0.4,0.5,0.5,0.8s0.1,0.6,0,0.9c-0.1,0.3-0.2,0.6-0.5,0.8
		l-3.7,3.7l0.9,5.2c0,0.2,0,0.5,0,0.7c-0.1,0.2-0.2,0.5-0.3,0.7c-0.2,0.2-0.4,0.3-0.6,0.5C45.9,26.6,45.7,26.6,45.4,26.6z M40,22.7
		c0.1,0,0.2,0,0.3,0.1l4.9,2.6c0.1,0,0.2,0.1,0.3,0.1s0.2,0,0.2-0.1c0.1-0.1,0.1-0.1,0.2-0.2c0-0.1,0-0.2,0-0.3L45,19.4
		c0-0.1,0-0.2,0-0.3c0-0.1,0.1-0.2,0.2-0.3l4-3.9c0.1-0.1,0.1-0.1,0.1-0.2c0-0.1,0-0.2,0-0.3s-0.1-0.2-0.1-0.2
		c-0.1-0.1-0.2-0.1-0.2-0.1l-5.5-0.8c-0.1,0-0.2-0.1-0.3-0.1c-0.1-0.1-0.1-0.1-0.2-0.2l-2.5-5c0-0.1-0.1-0.1-0.2-0.2
		c-0.1,0-0.2-0.1-0.3-0.1s-0.2,0-0.3,0.1c-0.1,0-0.1,0.1-0.2,0.2L37,13c0,0.1-0.1,0.2-0.2,0.2c-0.1,0.1-0.2,0.1-0.3,0.1L31,14.1
		c-0.1,0-0.2,0.1-0.2,0.1c-0.1,0.1-0.1,0.1-0.1,0.2c0,0.1,0,0.2,0,0.3s0.1,0.2,0.1,0.2l4,3.9c0.1,0.1,0.1,0.2,0.2,0.3
		c0,0.1,0,0.2,0,0.3l-0.9,5.5c0,0.1,0,0.2,0,0.3c0,0.1,0.1,0.2,0.2,0.2c0.1,0.1,0.2,0.1,0.2,0.1c0.1,0,0.2,0,0.3-0.1l4.9-2.6
		C39.8,22.7,39.9,22.7,40,22.7L40,22.7z"/>
</g>
<g>
	<path class="st0" d="M22.4,35.6c-0.3,0-0.6-0.1-0.8-0.2L17,33l-4.6,2.4c-0.3,0.1-0.6,0.2-0.9,0.2c-0.3,0-0.6-0.1-0.9-0.3
		s-0.5-0.4-0.6-0.7S9.8,34,9.9,33.7l0.9-5.2l-3.7-3.7c-0.2-0.2-0.4-0.5-0.5-0.8s-0.1-0.6,0-0.9s0.3-0.6,0.5-0.8
		C7.3,22.1,7.6,22,8,21.9l5.2-0.8l2.3-4.7c0.1-0.3,0.4-0.5,0.6-0.7c0.3-0.2,0.6-0.3,0.9-0.3s0.6,0.1,0.9,0.3s0.5,0.4,0.6,0.7
		l2.3,4.7l5.2,0.8c0.3,0,0.6,0.2,0.9,0.4c0.2,0.2,0.4,0.5,0.5,0.8s0.1,0.6,0,0.9s-0.2,0.6-0.5,0.8l-3.7,3.7l0.9,5.2
		c0,0.2,0,0.5,0,0.7c-0.1,0.2-0.2,0.5-0.3,0.7c-0.2,0.2-0.4,0.3-0.6,0.5C22.9,35.6,22.7,35.6,22.4,35.6z"/>
	
		<linearGradient id="SVGID_2_" gradientUnits="userSpaceOnUse" x1="17" y1="45.819" x2="17" y2="65.9646" gradientTransform="matrix(1 0 0 -1 0 81.4646)">
		<stop  offset="0.2083" style="stop-color:#FFFFFF"/>
		<stop  offset="1" style="stop-color:#FFFFFF;stop-opacity:0"/>
	</linearGradient>
	<path class="st3" d="M22.4,35.6c-0.3,0-0.6-0.1-0.8-0.2L17,33l-4.6,2.4c-0.3,0.1-0.6,0.2-0.9,0.2c-0.3,0-0.6-0.1-0.9-0.3
		s-0.5-0.4-0.6-0.7S9.8,34,9.9,33.7l0.9-5.2l-3.7-3.7c-0.2-0.2-0.4-0.5-0.5-0.8s-0.1-0.6,0-0.9s0.3-0.6,0.5-0.8
		C7.3,22.1,7.6,22,8,21.9l5.2-0.8l2.3-4.7c0.1-0.3,0.4-0.5,0.6-0.7c0.3-0.2,0.6-0.3,0.9-0.3s0.6,0.1,0.9,0.3s0.5,0.4,0.6,0.7
		l2.3,4.7l5.2,0.8c0.3,0,0.6,0.2,0.9,0.4c0.2,0.2,0.4,0.5,0.5,0.8s0.1,0.6,0,0.9s-0.2,0.6-0.5,0.8l-3.7,3.7l0.9,5.2
		c0,0.2,0,0.5,0,0.7c-0.1,0.2-0.2,0.5-0.3,0.7c-0.2,0.2-0.4,0.3-0.6,0.5C22.9,35.6,22.7,35.6,22.4,35.6z"/>
	<path class="st2" d="M22.4,35.6c-0.3,0-0.6-0.1-0.8-0.2L17,33l-4.6,2.4c-0.3,0.1-0.6,0.2-0.9,0.2c-0.3,0-0.6-0.1-0.9-0.3
		s-0.5-0.4-0.6-0.7S9.8,34,9.9,33.7l0.9-5.2l-3.7-3.7c-0.2-0.2-0.4-0.5-0.5-0.8s-0.1-0.6,0-0.9s0.3-0.6,0.5-0.8
		C7.3,22.1,7.6,22,8,21.9l5.2-0.8l2.3-4.7c0.1-0.3,0.4-0.5,0.6-0.7c0.3-0.2,0.6-0.3,0.9-0.3s0.6,0.1,0.9,0.3s0.5,0.4,0.6,0.7
		l2.3,4.7l5.2,0.8c0.3,0,0.6,0.2,0.9,0.4c0.2,0.2,0.4,0.5,0.5,0.8s0.1,0.6,0,0.9s-0.2,0.6-0.5,0.8l-3.7,3.7l0.9,5.2
		c0,0.2,0,0.5,0,0.7c-0.1,0.2-0.2,0.5-0.3,0.7c-0.2,0.2-0.4,0.3-0.6,0.5C22.9,35.6,22.7,35.6,22.4,35.6z M17,31.7
		c0.1,0,0.2,0,0.3,0.1l4.9,2.6c0.1,0,0.2,0.1,0.3,0.1s0.2,0,0.2-0.1c0.1-0.1,0.1-0.1,0.2-0.2c0-0.1,0-0.2,0-0.3L22,28.4
		c0-0.1,0-0.2,0-0.3c0-0.1,0.1-0.2,0.2-0.3l4-3.9c0.1-0.1,0.1-0.1,0.1-0.2s0-0.2,0-0.3c0-0.1-0.1-0.2-0.1-0.2
		c-0.1-0.1-0.2-0.1-0.2-0.1l-5.5-0.8c-0.1,0-0.2-0.1-0.3-0.1c-0.1-0.1-0.1-0.1-0.2-0.2l-2.5-5c0-0.1-0.1-0.1-0.2-0.2
		c-0.1,0-0.2-0.1-0.3-0.1c-0.1,0-0.2,0-0.3,0.1c-0.1,0-0.1,0.1-0.2,0.2L14,22c0,0.1-0.1,0.2-0.2,0.2c-0.1,0.1-0.2,0.1-0.3,0.1
		L8,23.1c-0.1,0-0.2,0.1-0.2,0.1c-0.1,0.1-0.1,0.1-0.1,0.2s0,0.2,0,0.3c0,0.1,0.1,0.2,0.1,0.2l4,3.9c0.1,0.1,0.1,0.2,0.2,0.3
		c0,0.1,0,0.2,0,0.3l-0.9,5.5c0,0.1,0,0.2,0,0.3s0.1,0.2,0.2,0.2c0.1,0.1,0.2,0.1,0.2,0.1c0.1,0,0.2,0,0.3-0.1l4.9-2.6
		C16.8,31.7,16.9,31.7,17,31.7L17,31.7z"/>
</g>
<g>
	<path class="st0" d="M68.4,35.6c-0.3,0-0.6-0.1-0.8-0.2L63,33l-4.6,2.4c-0.3,0.1-0.6,0.2-0.9,0.2c-0.3,0-0.6-0.1-0.9-0.3
		c-0.3-0.2-0.5-0.4-0.6-0.7s-0.2-0.6-0.1-0.9l0.9-5.2l-3.7-3.7c-0.2-0.2-0.4-0.5-0.5-0.8s-0.1-0.6,0-0.9s0.3-0.6,0.5-0.8
		c0.2-0.2,0.5-0.3,0.9-0.4l5.2-0.8l2.3-4.7c0.1-0.3,0.4-0.5,0.6-0.7s0.6-0.3,0.9-0.3c0.3,0,0.6,0.1,0.9,0.3c0.3,0.2,0.5,0.4,0.6,0.7
		l2.3,4.7l5.2,0.8c0.3,0,0.6,0.2,0.9,0.4c0.2,0.2,0.4,0.5,0.5,0.8s0.1,0.6,0,0.9s-0.2,0.6-0.5,0.8l-3.7,3.7l0.9,5.2
		c0,0.2,0,0.5,0,0.7c-0.1,0.2-0.2,0.5-0.3,0.7c-0.2,0.2-0.4,0.3-0.6,0.5C68.9,35.6,68.7,35.6,68.4,35.6z"/>
	
		<linearGradient id="SVGID_3_" gradientUnits="userSpaceOnUse" x1="63" y1="45.819" x2="63" y2="65.9646" gradientTransform="matrix(1 0 0 -1 0 81.4646)">
		<stop  offset="0.2083" style="stop-color:#FFFFFF"/>
		<stop  offset="1" style="stop-color:#FFFFFF;stop-opacity:0"/>
	</linearGradient>
	<path class="st4" d="M68.4,35.6c-0.3,0-0.6-0.1-0.8-0.2L63,33l-4.6,2.4c-0.3,0.1-0.6,0.2-0.9,0.2c-0.3,0-0.6-0.1-0.9-0.3
		c-0.3-0.2-0.5-0.4-0.6-0.7s-0.2-0.6-0.1-0.9l0.9-5.2l-3.7-3.7c-0.2-0.2-0.4-0.5-0.5-0.8s-0.1-0.6,0-0.9s0.3-0.6,0.5-0.8
		c0.2-0.2,0.5-0.3,0.9-0.4l5.2-0.8l2.3-4.7c0.1-0.3,0.4-0.5,0.6-0.7s0.6-0.3,0.9-0.3c0.3,0,0.6,0.1,0.9,0.3c0.3,0.2,0.5,0.4,0.6,0.7
		l2.3,4.7l5.2,0.8c0.3,0,0.6,0.2,0.9,0.4c0.2,0.2,0.4,0.5,0.5,0.8s0.1,0.6,0,0.9s-0.2,0.6-0.5,0.8l-3.7,3.7l0.9,5.2
		c0,0.2,0,0.5,0,0.7c-0.1,0.2-0.2,0.5-0.3,0.7c-0.2,0.2-0.4,0.3-0.6,0.5C68.9,35.6,68.7,35.6,68.4,35.6z"/>
	<path class="st2" d="M68.4,35.6c-0.3,0-0.6-0.1-0.8-0.2L63,33l-4.6,2.4c-0.3,0.1-0.6,0.2-0.9,0.2c-0.3,0-0.6-0.1-0.9-0.3
		c-0.3-0.2-0.5-0.4-0.6-0.7s-0.2-0.6-0.1-0.9l0.9-5.2l-3.7-3.7c-0.2-0.2-0.4-0.5-0.5-0.8s-0.1-0.6,0-0.9s0.3-0.6,0.5-0.8
		c0.2-0.2,0.5-0.3,0.9-0.4l5.2-0.8l2.3-4.7c0.1-0.3,0.4-0.5,0.6-0.7s0.6-0.3,0.9-0.3c0.3,0,0.6,0.1,0.9,0.3c0.3,0.2,0.5,0.4,0.6,0.7
		l2.3,4.7l5.2,0.8c0.3,0,0.6,0.2,0.9,0.4c0.2,0.2,0.4,0.5,0.5,0.8s0.1,0.6,0,0.9s-0.2,0.6-0.5,0.8l-3.7,3.7l0.9,5.2
		c0,0.2,0,0.5,0,0.7c-0.1,0.2-0.2,0.5-0.3,0.7c-0.2,0.2-0.4,0.3-0.6,0.5C68.9,35.6,68.7,35.6,68.4,35.6z M63,31.7
		c0.1,0,0.2,0,0.3,0.1l4.9,2.6c0.1,0,0.2,0.1,0.3,0.1c0.1,0,0.2,0,0.2-0.1c0.1-0.1,0.1-0.1,0.2-0.2c0-0.1,0-0.2,0-0.3L68,28.4
		c0-0.1,0-0.2,0-0.3c0-0.1,0.1-0.2,0.2-0.3l4-3.9c0.1-0.1,0.1-0.1,0.1-0.2s0-0.2,0-0.3c0-0.1-0.1-0.2-0.1-0.2
		c-0.1-0.1-0.2-0.1-0.2-0.1l-5.5-0.8c-0.1,0-0.2-0.1-0.3-0.1c-0.1-0.1-0.1-0.1-0.2-0.2l-2.5-5c0-0.1-0.1-0.1-0.2-0.2
		c-0.1,0-0.2-0.1-0.3-0.1s-0.2,0-0.3,0.1c-0.1,0-0.1,0.1-0.2,0.2L60,22c0,0.1-0.1,0.2-0.2,0.2s-0.2,0.1-0.3,0.1L54,23.1
		c-0.1,0-0.2,0.1-0.2,0.1c-0.1,0.1-0.1,0.1-0.1,0.2s0,0.2,0,0.3c0,0.1,0.1,0.2,0.1,0.2l4,3.9c0.1,0.1,0.1,0.2,0.2,0.3
		c0,0.1,0,0.2,0,0.3l-0.9,5.5c0,0.1,0,0.2,0,0.3s0.1,0.2,0.2,0.2c0.1,0.1,0.2,0.1,0.2,0.1c0.1,0,0.2,0,0.3-0.1l4.9-2.6
		C62.8,31.7,62.9,31.7,63,31.7L63,31.7z"/>
</g>
<path class="st5" d="M70,45.5v25c0,1.7-1.3,3-3,3H13c-1.7,0-3-1.3-3-3v-25c0-1.7,1.3-3,3-3h10.3c1,0,1.9-0.3,2.7-0.8l12.3-8
	c1-0.6,2.3-0.6,3.3,0l12.3,8c0.8,0.5,1.7,0.8,2.7,0.8H67C68.7,42.5,70,43.8,70,45.5z"/>
<path class="st2" d="M27.8,51.2h1.7v1.7v1.7v1.7V58v1.7v1.7v1.7v1.7h-1.7v1.7h-1.7h-1.7h-1.7H21h-1.7h-1.7v-1.7h-1.7v-1.7v-1.7h1.7
	h1.7v1.7H21h1.7h1.7h1.7v-1.7v-1.7h-1.7h-1.7H21h-1.7h-1.7V58h-1.7v-1.7v-1.7v-1.7v-1.7h1.7v-1.7h1.7H21h1.7h1.7h1.7h1.7
	C27.8,49.5,27.8,51.2,27.8,51.2z M26.1,54.6v-1.7h-1.7h-1.7H21h-1.7v1.7v1.7H21h1.7h1.7h1.7C26.1,56.3,26.1,54.6,26.1,54.6z
	 M45.1,51.2h1.7v1.7v1.7v1.7V58v1.7v1.7v1.7v1.7h-1.7v1.7h-1.7h-1.7H40h-1.7h-1.7h-1.7v-1.7h-1.7v-1.7v-1.7h1.7h1.7v1.7h1.7H40h1.7
	h1.7v-1.7v-1.7h-1.7H40h-1.7h-1.7h-1.7V58h-1.7v-1.7v-1.7v-1.7v-1.7h1.7v-1.7h1.7h1.7H40h1.7h1.7h1.7C45.1,49.5,45.1,51.2,45.1,51.2
	z M43.4,54.6v-1.7h-1.7H40h-1.7h-1.7v1.7v1.7h1.7H40h1.7h1.7V54.6z M62.4,51.2h1.7v1.7v1.7v1.7V58v1.7v1.7v1.7v1.7h-1.7v1.7h-1.7H59
	h-1.7h-1.7h-1.7h-1.7v-1.7h-1.7v-1.7v-1.7h1.7h1.7v1.7h1.7h1.7H59h1.7v-1.7v-1.7H59h-1.7h-1.7h-1.7h-1.7V58h-1.7v-1.7v-1.7v-1.7
	v-1.7h1.7v-1.7h1.7h1.7h1.7H59h1.7h1.7V51.2z M60.7,54.6v-1.7H59h-1.7h-1.7h-1.7v1.7v1.7h1.7h1.7H59h1.7V54.6z"/>
</svg>
