<?xml version="1.0" encoding="utf-8"?>
<!-- Generator: Adobe Illustrator 24.3.0, SVG Export Plug-In . SVG Version: 6.00 Build 0)  -->
<svg version="1.1" id="圖層_1" xmlns="http://www.w3.org/2000/svg" xmlns:xlink="http://www.w3.org/1999/xlink" x="0px" y="0px"
	 viewBox="0 0 48 48" style="enable-background:new 0 0 48 48;" xml:space="preserve">
<style type="text/css">
	.st0{clip-path:url(#SVGID_2_);}
	.st1{fill:#7C7C7C;}
	.st2{fill:#FCFCFC;}
	.st3{fill:#B8B8B8;}
	.st4{fill:#EBEBEB;}
</style>
<g>
	<defs>
		<rect id="SVGID_1_" x="2.9" y="3" width="42" height="42"/>
	</defs>
	<clipPath id="SVGID_2_">
		<use xlink:href="#SVGID_1_"  style="overflow:visible;"/>
	</clipPath>
	<g class="st0">
		<path class="st1" d="M23.9,45C12.7,45,3.5,35.8,3.5,24.6S12.7,4.2,23.9,4.2s20.4,9.2,20.4,20.4S35.2,45,23.9,45z"/>
		<path class="st2" d="M23.9,42.5c10.5,0,19.1-8.6,19.1-19.1c0-10.5-8.6-19.1-19.1-19.1c-10.5,0-19.1,8.6-19.1,19.1
			C4.8,33.9,13.4,42.5,23.9,42.5z"/>
		<path class="st3" d="M7.1,25.7c0-10.5,8.6-19.1,19.1-19.1c4.7,0,9,1.7,12.3,4.5C35,6.9,29.8,4.3,23.9,4.3
			c-10.5,0-19.1,8.6-19.1,19.1c0,5.8,2.7,11.1,6.8,14.6C8.8,34.7,7.1,30.4,7.1,25.7z"/>
		<path class="st3" d="M37.5,9.9c7.5,7.5,7.5,19.6,0,27s-19.6,7.5-27,0"/>
		<path class="st4" d="M23.9,43.8c-11.2,0-20.4-9.2-20.4-20.4C3.5,12.2,12.7,3,23.9,3s20.4,9.2,20.4,20.4
			C44.3,34.6,35.2,43.8,23.9,43.8z M23.9,5.6c-9.9,0-17.8,8-17.8,17.8c0,9.9,8,17.8,17.8,17.8s17.8-8,17.8-17.8
			C41.7,13.6,33.8,5.6,23.9,5.6z"/>
	</g>
</g>
</svg>
