<?xml version="1.0" encoding="utf-8"?>
<!-- Generator: Adobe Illustrator 24.3.0, SVG Export Plug-In . SVG Version: 6.00 Build 0)  -->
<svg version="1.1" id="圖層_1" xmlns="http://www.w3.org/2000/svg" xmlns:xlink="http://www.w3.org/1999/xlink" x="0px" y="0px"
	 viewBox="0 0 48 48" style="enable-background:new 0 0 48 48;" xml:space="preserve">
<style type="text/css">
	.st0{fill:#7A5F00;}
	.st1{fill:#FFE97C;}
	.st2{fill:#CCAA00;}
	.st3{fill:#C59A03;}
	.st4{fill:#FFE043;}
</style>
<g>
	<path class="st0" d="M24,48C10.8,48,0,37.5,0,24.7C0,11.9,10.8,1.4,24,1.4s24,10.5,24,23.3C48,37.5,37.2,48,24,48z"/>
	<path class="st1" d="M24,45.1c12.4,0,22.5-9.8,22.5-21.8S36.4,1.5,24,1.5c-12.4,0-22.5,9.8-22.5,21.8S11.6,45.1,24,45.1z"/>
	<path class="st2" d="M4.2,25.9c0-12,10.1-21.8,22.5-21.8c5.5,0,10.6,1.9,14.5,5.1C37,4.5,30.9,1.5,24,1.5
		c-12.4,0-22.5,9.8-22.5,21.8C1.5,30,4.6,36,9.5,40C6.2,36.2,4.2,31.3,4.2,25.9z"/>
	<path class="st3" d="M39.9,7.9c8.8,8.5,8.8,22.4,0,30.9c-8.8,8.5-23,8.5-31.8,0"/>
	<path class="st4" d="M24,46.6c-13.2,0-24-10.5-24-23.3S10.8,0,24,0s24,10.5,24,23.3S37.2,46.6,24,46.6z M24,3C12.4,3,3,12.1,3,23.3
		c0,11.3,9.4,20.3,21,20.3s21-9.2,21-20.3S35.6,3,24,3z"/>
</g>
</svg>
